<svg width="20" height="20" viewBox="0 0 20 20" fill="none" xmlns="http://www.w3.org/2000/svg">
<rect width="20" height="20" rx="3" fill="#B4CCA8"/>
<path fill-rule="evenodd" clip-rule="evenodd" d="M16.5024 5.74773C16.6605 5.90594 16.7492 6.12039 16.7492 6.34398C16.7492 6.56758 16.6605 6.78203 16.5024 6.94023L8.3462 15.0965C8.188 15.2545 7.97354 15.3432 7.74995 15.3432C7.52635 15.3432 7.3119 15.2545 7.1537 15.0965L3.49745 11.4402C3.34841 11.2803 3.26727 11.0687 3.27113 10.8501C3.27498 10.6316 3.36354 10.423 3.51812 10.2684C3.67271 10.1138 3.88127 10.0253 4.09986 10.0214C4.31845 10.0176 4.53 10.0987 4.68995 10.2477L7.74995 13.3077L15.3099 5.74773C15.4682 5.58973 15.6826 5.50098 15.9062 5.50098C16.1298 5.50098 16.3442 5.58973 16.5024 5.74773Z" fill="white"/>
</svg>
