<svg width="24" height="24" viewBox="0 0 24 24" fill="none" xmlns="http://www.w3.org/2000/svg">
<path fill-rule="evenodd" clip-rule="evenodd" d="M20.67 6.32999C20.8807 6.54092 20.999 6.82686 20.999 7.12499C20.999 7.42311 20.8807 7.70905 20.67 7.91999L9.79501 18.795C9.58408 19.0057 9.29814 19.124 9.00001 19.124C8.70189 19.124 8.41595 19.0057 8.20501 18.795L3.33001 13.92C3.13129 13.7067 3.02311 13.4247 3.02825 13.1332C3.03339 12.8418 3.15146 12.5637 3.35758 12.3576C3.5637 12.1514 3.84178 12.0334 4.13323 12.0282C4.42468 12.0231 4.70675 12.1313 4.92001 12.33L9.00001 16.41L19.08 6.32999C19.291 6.11931 19.5769 6.00098 19.875 6.00098C20.1731 6.00098 20.4591 6.11931 20.67 6.32999V6.32999Z" fill="#2D2B26"/>
</svg>
