<svg width="24" height="24" viewBox="0 0 24 24" fill="none" xmlns="http://www.w3.org/2000/svg">
<path fill-rule="evenodd" clip-rule="evenodd" d="M20.0999 11.9999C20.0999 16.4734 16.4734 20.0999 11.9999 20.0999C7.5264 20.0999 3.8999 16.4734 3.8999 11.9999C3.8999 7.5264 7.5264 3.8999 11.9999 3.8999C16.4734 3.8999 20.0999 7.5264 20.0999 11.9999ZM21.5999 11.9999C21.5999 17.3018 17.3018 21.5999 11.9999 21.5999C6.69797 21.5999 2.3999 17.3018 2.3999 11.9999C2.3999 6.69797 6.69797 2.3999 11.9999 2.3999C17.3018 2.3999 21.5999 6.69797 21.5999 11.9999ZM12.7499 7.19991C12.7499 6.78569 12.4141 6.44991 11.9999 6.44991C11.5857 6.44991 11.2499 6.78569 11.2499 7.19991V11.9999C11.2499 12.2633 11.3881 12.5075 11.614 12.643L14.614 14.443C14.9692 14.6561 15.4299 14.541 15.643 14.1858C15.8561 13.8306 15.741 13.3699 15.3858 13.1568L12.7499 11.5752V7.19991Z" fill="#2D2B26"/>
</svg>
