<svg width="24" height="24" viewBox="0 0 24 24" fill="none" xmlns="http://www.w3.org/2000/svg">
<path fill-rule="evenodd" clip-rule="evenodd" d="M3.79314 18.7929C3.40261 19.1834 3.40261 19.8166 3.79314 20.2071C4.18366 20.5976 4.81683 20.5976 5.20735 20.2071L12.0002 13.4142L18.7931 20.2071C19.1837 20.5976 19.8168 20.5976 20.2074 20.2071C20.5979 19.8166 20.5979 19.1834 20.2074 18.7929L13.4145 12L20.2074 5.20711C20.5979 4.81658 20.5979 4.18342 20.2074 3.79289C19.8168 3.40237 19.1837 3.40237 18.7931 3.79289L12.0002 10.5858L5.20735 3.79289C4.81683 3.40237 4.18366 3.40237 3.79314 3.79289C3.40261 4.18342 3.40261 4.81658 3.79314 5.20711L10.586 12L3.79314 18.7929Z" fill="#2D2B26"/>
</svg>
