<svg width="12" height="11" viewBox="0 0 12 11" fill="none" xmlns="http://www.w3.org/2000/svg">
<path fill-rule="evenodd" clip-rule="evenodd" d="M0.917893 9.16789C0.527369 9.55842 0.527369 10.1916 0.917893 10.5821C1.30842 10.9726 1.94158 10.9726 2.33211 10.5821L6 6.91421L9.66789 10.5821C10.0584 10.9726 10.6916 10.9726 11.0821 10.5821C11.4726 10.1916 11.4726 9.55842 11.0821 9.16789L7.41421 5.5L11.0821 1.83211C11.4726 1.44158 11.4726 0.808417 11.0821 0.417893C10.6916 0.0273684 10.0584 0.0273688 9.66789 0.417893L6 4.08579L2.33211 0.417895C1.94158 0.0273705 1.30842 0.0273705 0.917893 0.417895C0.527369 0.808419 0.527369 1.44158 0.917893 1.83211L4.58579 5.5L0.917893 9.16789Z" fill="white"/>
</svg>
