<svg width="24" height="24" viewBox="0 0 24 24" fill="none" xmlns="http://www.w3.org/2000/svg">
<path d="M5.00002 23V20.337C6.441 19.904 7.5 18.58 7.5 17C7.5 15.42 6.441 14.097 5.00002 13.663L5.00002 0.999984C5.00002 0.447984 4.55198 0 3.99998 0C3.44798 0 3 0.447984 3 0.999984L3 13.663C1.55902 14.096 0.500015 15.42 0.500015 17C0.500015 18.5799 1.55902 19.903 3 20.337L3 23C3 23.553 3.44798 24 3.99998 24C4.55198 24 5.00002 23.553 5.00002 23ZM2.49998 17C2.49998 16.173 3.17297 15.5 3.99998 15.5C4.827 15.5 5.49998 16.173 5.49998 17C5.49998 17.827 4.827 18.5 3.99998 18.5C3.17297 18.5 2.49998 17.827 2.49998 17Z" fill="#2D2B26"/>
<path d="M21 23V20.337C22.441 19.903 23.5 18.58 23.5 17C23.5 15.42 22.441 14.097 21 13.663V0.999984C21 0.447984 20.552 0 20 0C19.448 0 19 0.447984 19 0.999984V13.663C17.559 14.097 16.5 15.42 16.5 17C16.5 18.58 17.559 19.903 19 20.337V23C19 23.553 19.448 24 20 24C20.552 24 21 23.553 21 23ZM18.5 17C18.5 16.173 19.173 15.5 20 15.5C20.827 15.5 21.5 16.173 21.5 17C21.5 17.827 20.827 18.5 20 18.5C19.173 18.5 18.5 17.827 18.5 17Z" fill="#2D2B26"/>
<path d="M13 23L13 10.337C14.441 9.903 15.5 8.58 15.5 7.00003C15.5 5.42006 14.441 4.09702 13 3.66305V0.999984C13 0.447984 12.552 0 12 0C11.448 0 11 0.447984 11 0.999984V3.663C9.55905 4.09702 8.50005 5.42002 8.50005 6.99998C8.50005 8.57995 9.55905 9.903 11 10.337L11 23C11 23.553 11.448 24 12 24C12.552 24 13 23.553 13 23ZM10.5 6.99998C10.5 6.17297 11.173 5.49998 12 5.49998C12.827 5.49998 13.5 6.17297 13.5 6.99998C13.5 7.827 12.827 8.49998 12 8.49998C11.173 8.49998 10.5 7.827 10.5 6.99998Z" fill="#2D2B26"/>
</svg>
