<svg width="24" height="24" viewBox="0 0 24 24" fill="none" xmlns="http://www.w3.org/2000/svg">
<path d="M17.492 12.0315L13.2517 9.57392L15.3894 4.44376C15.464 4.2914 15.4987 4.12259 15.4903 3.95315C15.4819 3.78371 15.4306 3.61917 15.3413 3.47493C15.252 3.33068 15.1276 3.21145 14.9797 3.12839C14.8317 3.04533 14.6652 3.00116 14.4955 3C14.2701 2.99947 14.051 3.07484 13.8736 3.21397L13.8036 3.27396L6.30487 10.3728C6.19214 10.4798 6.10587 10.6117 6.05289 10.7578C5.99991 10.904 5.98167 11.0605 5.99962 11.2149C6.01756 11.3693 6.0712 11.5174 6.15628 11.6475C6.24137 11.7776 6.35556 11.8862 6.48983 11.9645L10.7311 14.4241L8.56849 19.6133C8.47929 19.8249 8.46576 20.0609 8.53019 20.2813C8.59462 20.5018 8.73307 20.6933 8.92221 20.8237C9.11136 20.954 9.33964 21.0151 9.5686 20.9968C9.79756 20.9785 10.0132 20.8818 10.1792 20.7231L17.678 13.6223C17.7905 13.5151 17.8765 13.3833 17.9293 13.2372C17.9821 13.0911 18.0002 12.9347 17.9821 12.7805C17.9641 12.6262 17.9104 12.4782 17.8254 12.3482C17.7403 12.2182 17.6262 12.1098 17.492 12.0315Z" fill="#2D2B26"/>
</svg>
