<svg width="20" height="18" viewBox="0 0 20 18" fill="none" xmlns="http://www.w3.org/2000/svg">
<path d="M17.5721 2.56581C16.6403 1.5561 15.3617 1 13.9717 1C12.9327 1 11.9811 1.3282 11.1434 1.97541C10.7207 2.3021 10.3377 2.70178 10 3.16828C9.66244 2.70192 9.2793 2.3021 8.85646 1.97541C8.01889 1.3282 7.06734 1 6.0283 1C4.63826 1 3.35959 1.5561 2.42781 2.56581C1.50716 3.56372 1 4.92701 1 6.40473C1 7.92567 1.56731 9.31791 2.78528 10.7863C3.87485 12.0998 5.44081 13.4332 7.25424 14.9772C7.87346 15.5044 8.57535 16.1021 9.30415 16.7388C9.49669 16.9072 9.74374 17 10 17C10.2561 17 10.5033 16.9072 10.6956 16.739C11.4244 16.1023 12.1267 15.5043 12.7462 14.9767C14.5593 13.433 16.1253 12.0998 17.2149 10.7862C18.4328 9.31791 19 7.92567 19 6.40459C19 4.92701 18.4928 3.56372 17.5721 2.56581Z" stroke="#EF6461" stroke-width="2"/>
</svg>
