<svg width="24" height="24" viewBox="0 0 24 24" fill="none" xmlns="http://www.w3.org/2000/svg">
<path fill-rule="evenodd" clip-rule="evenodd" d="M16.9099 11.91C16.9099 14.6218 14.7116 16.82 11.9999 16.82C9.28819 16.82 7.08991 14.6218 7.08991 11.91C7.08991 9.19833 9.28819 7.00004 11.9999 7.00004C14.7116 7.00004 16.9099 9.19833 16.9099 11.91ZM8.72327 11.91C8.72327 13.7197 10.1903 15.1867 11.9999 15.1867C13.8095 15.1867 15.2765 13.7197 15.2765 11.91C15.2765 10.1004 13.8095 8.6334 11.9999 8.6334C10.1903 8.6334 8.72327 10.1004 8.72327 11.91Z" fill="#2D2B26"/>
<path d="M17.4546 7.63643C18.0571 7.63643 18.5455 7.14801 18.5455 6.54552C18.5455 5.94303 18.0571 5.45461 17.4546 5.45461C16.8521 5.45461 16.3637 5.94303 16.3637 6.54552C16.3637 7.14801 16.8521 7.63643 17.4546 7.63643Z" fill="#2D2B26"/>
<path fill-rule="evenodd" clip-rule="evenodd" d="M21.8182 15.8182V8.18189C21.8182 4.86818 19.132 2.18188 15.8182 2.18188H8.18189C4.86818 2.18188 2.18188 4.86803 2.18188 8.18174V15.8204C2.18188 19.1341 4.86818 21.8182 8.18189 21.8182H15.8182C19.132 21.8182 21.8182 19.132 21.8182 15.8182ZM20.3182 15.8182V8.18189C20.3182 5.69661 18.3035 3.68188 15.8182 3.68188H8.18189C5.69656 3.68188 3.68188 5.69651 3.68188 8.18174V15.8204C3.68188 18.305 5.69591 20.3182 8.18189 20.3182H15.8182C18.3035 20.3182 20.3182 18.3035 20.3182 15.8182Z" fill="#2D2B26"/>
</svg>
