<svg width="150" height="128" viewBox="0 0 150 128" fill="none" xmlns="http://www.w3.org/2000/svg">
<path d="M36.0118 72.745C34.8147 66.3379 36.6995 59.0487 41.9381 55.1704C41.6412 62.2523 43.8588 69.211 48.1987 74.8153C49.8802 76.9706 51.9749 79.1926 51.9098 81.9255C51.8694 83.626 50.9497 85.2101 49.7378 86.4035C48.5258 87.597 47.0329 88.4574 45.5579 89.3045L45.3283 89.6617C41.0043 84.7844 37.209 79.1522 36.0118 72.745Z" fill="#F0F0F0"/>
<path d="M42.0335 55.269C39.8326 60.1947 39.2397 65.6887 40.339 70.9706C40.5555 72.1119 40.9505 73.2119 41.5095 74.2302C42.0861 75.2045 42.9131 76.0066 43.9045 76.5533C44.8187 77.0815 45.815 77.516 46.5849 78.2572C46.9734 78.6425 47.276 79.1056 47.4729 79.616C47.6698 80.1265 47.7566 80.6728 47.7276 81.2191C47.6908 82.5824 47.1663 83.851 46.6103 85.0739C45.9929 86.4316 45.3301 87.8321 45.3702 89.3585C45.375 89.5435 45.0878 89.5402 45.0829 89.3555C45.0133 86.6997 46.9333 84.5669 47.3611 82.0185C47.5608 80.8294 47.4033 79.573 46.5673 78.6513C45.8362 77.8453 44.8092 77.3964 43.879 76.8695C42.904 76.3504 42.0709 75.6005 41.4525 74.6853C40.8434 73.6988 40.4067 72.6158 40.161 71.4827C39.5671 68.9407 39.3767 66.3211 39.5966 63.7199C39.831 60.7498 40.5719 57.8417 41.787 55.1214C41.8623 54.9531 42.1083 55.1018 42.0335 55.269L42.0335 55.269Z" fill="white"/>
<path d="M39.8853 69.2899C38.9741 69.354 38.0698 69.0922 37.3338 68.5511C36.5978 68.01 36.0782 67.2249 35.8676 66.336C35.8256 66.156 36.1033 66.0823 36.1454 66.2625C36.3399 67.0906 36.8241 67.8219 37.5105 68.3244C38.1968 68.8268 39.0402 69.0674 39.8884 69.0026C40.0727 68.9888 40.0686 69.2761 39.8853 69.2899Z" fill="white"/>
<path d="M43.4061 76.3464C44.6431 74.9476 45.3074 73.1339 45.2666 71.267C45.2624 71.0821 45.5497 71.0853 45.5539 71.27C45.5927 73.2128 44.8976 75.0989 43.6071 76.5517C43.484 76.6901 43.2837 76.4841 43.4061 76.3464V76.3464Z" fill="white"/>
<path d="M40.1681 60.928C40.5258 60.9766 40.8901 60.9357 41.2281 60.8088C41.5661 60.6819 41.8672 60.473 42.1046 60.2009C42.2259 60.0611 42.4261 60.2672 42.3056 60.4062C42.042 60.7056 41.709 60.9358 41.3359 61.0769C40.9628 61.2179 40.5608 61.2654 40.1651 61.2152C40.1274 61.2136 40.0917 61.1977 40.0653 61.1708C40.0389 61.1438 40.0238 61.1078 40.0229 61.0701C40.0235 61.0321 40.0391 60.9958 40.0663 60.9692C40.0935 60.9426 40.13 60.9278 40.1681 60.928H40.1681Z" fill="white"/>
<path d="M63.3612 60.47C63.2879 60.5595 63.2147 60.649 63.142 60.7408C62.1635 61.9492 61.2848 63.235 60.5146 64.5857C60.4534 64.6892 60.3929 64.795 60.3348 64.9C58.5138 68.1738 57.3164 71.7573 56.8035 75.4682C56.6007 76.945 56.5107 78.4352 56.534 79.9257C56.5664 81.9842 56.7652 84.2135 56.1343 86.1067C56.0707 86.305 55.9948 86.4991 55.9072 86.688L45.782 89.914C45.7553 89.9097 45.7292 89.9079 45.7024 89.9037L45.304 90.051C45.2974 89.9742 45.2923 89.8944 45.2857 89.8176C45.2817 89.7731 45.28 89.7278 45.276 89.6833C45.274 89.6534 45.2722 89.6234 45.2687 89.5966C45.268 89.5866 45.2674 89.5766 45.2675 89.569C45.264 89.5421 45.2636 89.5167 45.2609 89.4922C45.2308 89.0463 45.2029 88.5997 45.1798 88.1515C45.1791 88.1492 45.1791 88.1492 45.1806 88.1462C45.0068 84.7333 45.1164 81.2758 45.7473 77.9449C45.7663 77.8447 45.7845 77.7422 45.8081 77.6406C46.1008 76.1407 46.5156 74.6673 47.0484 73.2351C47.3426 72.4518 47.6763 71.6838 48.0482 70.9343C49.0129 68.9993 50.2759 67.2282 51.7909 65.6857C54.8115 62.6113 58.7818 60.5371 63.0361 60.4718C63.1449 60.4702 63.2516 60.4693 63.3612 60.47Z" fill="#F0F0F0"/>
<path d="M63.3794 60.6055C58.6565 63.2133 54.8753 67.243 52.573 72.1221C52.0587 73.1637 51.7118 74.2798 51.5451 75.4294C51.4188 76.5545 51.5962 77.6929 52.0587 78.7263C52.4706 79.6984 53.0045 80.6452 53.1729 81.7006C53.2511 82.2421 53.2139 82.794 53.0638 83.3201C52.9137 83.8462 52.6541 84.3347 52.302 84.7535C51.4519 85.8197 50.2693 86.5169 49.0891 87.1585C47.7787 87.8709 46.4064 88.5901 45.5193 89.833C45.4118 89.9835 45.1844 89.808 45.2917 89.6576C46.8351 87.4952 49.6523 86.9482 51.5281 85.1711C52.4034 84.3418 53.0342 83.2438 52.9216 82.0045C52.8232 80.9209 52.2734 79.9441 51.8479 78.9634C51.3819 77.9619 51.1682 76.8616 51.2255 75.7585C51.3332 74.6041 51.6365 73.4765 52.1225 72.4239C53.1788 70.0367 54.6039 67.8304 56.3456 65.8859C58.321 63.6556 60.6634 61.7797 63.2714 60.3392C63.4329 60.2502 63.5398 60.517 63.3794 60.6055Z" fill="white"/>
<path d="M53.2218 70.5083C52.4557 70.0109 51.8913 69.2573 51.6294 68.3822C51.3675 67.507 51.4253 66.5673 51.7923 65.7308C51.8672 65.5618 52.1333 65.6702 52.0584 65.8394C51.7151 66.6177 51.6614 67.4931 51.9069 68.3075C52.1524 69.1219 52.681 69.8218 53.3972 70.2807C53.5527 70.3806 53.3765 70.6076 53.2218 70.5083H53.2218Z" fill="white"/>
<path d="M51.7852 78.2619C53.6151 77.8897 55.2375 76.8416 56.3289 75.3264C56.4369 75.1762 56.6643 75.3517 56.5564 75.5017C55.4178 77.0764 53.7272 78.1637 51.8222 78.5468C51.6406 78.5831 51.6046 78.2981 51.7852 78.2619V78.2619Z" fill="white"/>
<path d="M58.4824 64.0013C58.7388 64.2555 59.0542 64.4421 59.4005 64.5443C59.7468 64.6464 60.113 64.661 60.4663 64.5867C60.6474 64.548 60.6831 64.8331 60.5032 64.8715C60.1125 64.9519 59.7081 64.9353 59.3252 64.8232C58.9424 64.7112 58.5928 64.5071 58.307 64.2288C58.2779 64.2048 58.259 64.1707 58.2542 64.1332C58.2493 64.0958 58.2589 64.058 58.281 64.0274C58.3043 63.9973 58.3386 63.9778 58.3763 63.9729C58.414 63.968 58.4522 63.9782 58.4824 64.0013V64.0013Z" fill="white"/>
<path d="M79.2662 25.4338C79.3002 25.5829 79.3223 25.7345 79.3324 25.8871L91.2039 32.7357L94.0895 31.0746L97.1656 35.1017L92.3431 38.5389C91.9535 38.8166 91.4844 38.9604 91.0061 38.9487C90.5278 38.9371 90.0662 38.7706 89.6906 38.4743L77.449 28.8168C76.8965 29.0213 76.2949 29.0527 75.7241 28.907C75.1534 28.7612 74.6405 28.4451 74.2537 28.0008C73.867 27.5564 73.6247 27.0048 73.5591 26.4194C73.4935 25.834 73.6076 25.2424 73.8864 24.7235C74.1652 24.2045 74.5953 23.7827 75.1197 23.5142C75.644 23.2457 76.2377 23.1432 76.8217 23.2203C77.4057 23.2974 77.9524 23.5505 78.3891 23.9459C78.8258 24.3413 79.1317 24.8603 79.2662 25.4338V25.4338Z" fill="#FFB6B6"/>
<path d="M91.368 31.9794C91.4056 31.8047 91.4805 31.6402 91.5876 31.497C91.6946 31.3539 91.8313 31.2356 91.9882 31.1501L97.4691 28.1638C98.199 27.613 99.1175 27.374 100.023 27.4994C100.929 27.6248 101.748 28.1043 102.301 28.8328C102.854 29.5612 103.095 30.4792 102.972 31.3853C102.849 32.2914 102.372 33.1117 101.645 33.6664L97.2518 38.1289C97.1265 38.2563 96.9751 38.3551 96.8081 38.4187C96.6411 38.4823 96.4623 38.5091 96.284 38.4974C96.1057 38.4857 95.932 38.4356 95.7747 38.3507C95.6175 38.2658 95.4804 38.148 95.3728 38.0053L91.5907 32.9908C91.483 32.8482 91.4073 32.684 91.3689 32.5094C91.3305 32.3348 91.3302 32.1541 91.368 31.9794Z" fill="#3F3D56"/>
<path d="M101.16 14.6183C101.949 12.1051 103.742 9.80008 106.222 8.95048C108.702 8.10088 112.334 9.3951 114.198 11.2533C117.609 14.6524 118.441 26.3296 116.098 30.0197C115.632 29.9951 114.024 29.9768 113.552 29.9591L112.885 27.735V29.9372C109.203 29.8234 105.369 29.8947 101.534 29.9684C101.19 27.3557 100.371 17.1315 101.16 14.6183Z" fill="#2F2E41"/>
<path d="M100.105 120.109H96.7469L95.1494 107.156L100.106 107.156L100.105 120.109Z" fill="#FFB6B6"/>
<path d="M129.504 118.021L126.254 118.868L121.441 106.736L126.237 105.486L129.504 118.021Z" fill="#FFB6B6"/>
<path d="M110.996 40.5504L111.757 42.5289L111.605 44.5073L96.7124 49.6655L97.4514 41.007L99.1253 39.0283L110.996 40.5504Z" fill="#FFB6B6"/>
<path d="M106.288 22.746C109.225 22.746 111.607 20.3646 111.607 17.4269C111.607 14.4893 109.225 12.1079 106.288 12.1079C103.35 12.1079 100.969 14.4893 100.969 17.4269C100.969 20.3646 103.35 22.746 106.288 22.746Z" fill="#FFB7B7"/>
<path d="M102.633 10.5009C103.655 9.87781 104.826 9.54077 106.023 9.52499C107.219 9.50922 108.399 9.81528 109.437 10.4112C110.475 11.0071 111.334 11.8709 111.924 12.9124C112.514 13.9539 112.813 15.1347 112.79 16.3315C109.891 17.0726 106.801 17.3825 103.527 16.51L102.778 14.6782L102.337 16.5113C101.335 17.216 100.369 17.2147 99.4366 16.5075C99.3971 15.3141 99.6715 14.1313 100.232 13.0772C100.793 12.0231 101.621 11.1348 102.633 10.5009Z" fill="#2F2E41"/>
<path d="M101.607 126.486H99.2244L98.799 124.236L97.7096 126.486H91.3893C91.0864 126.486 90.7913 126.389 90.5473 126.21C90.3033 126.03 90.123 125.777 90.0329 125.488C89.9427 125.199 89.9474 124.888 90.0462 124.602C90.145 124.315 90.3327 124.068 90.582 123.896L95.6292 120.41V118.136L100.938 118.453L101.607 126.486Z" fill="#2F2E41"/>
<path d="M132.86 123.736L130.554 124.337L129.575 122.267L129.088 124.719L122.972 126.313C122.679 126.39 122.369 126.371 122.088 126.258C121.806 126.146 121.568 125.947 121.408 125.69C121.248 125.433 121.174 125.131 121.197 124.829C121.221 124.527 121.34 124.24 121.538 124.011L125.543 119.365L124.969 117.164L130.186 116.131L132.86 123.736Z" fill="#2F2E41"/>
<path d="M129.091 109.875L119.247 89.6424L116.157 65.0174C118.288 61.0605 114.331 53.0089 114.331 53.0089V49.6284L99.0027 52.5201V52.5201C95.8676 61.071 94.3473 70.1296 94.5191 79.2355L95.1367 111.969H94.943C94.6215 111.969 94.3131 112.097 94.0858 112.324C93.8584 112.552 93.7307 112.86 93.7307 113.181C93.7307 113.503 93.8584 113.811 94.0858 114.039C94.3131 114.266 94.6215 114.394 94.943 114.394H101.004C101.326 114.394 101.634 114.266 101.862 114.039C102.089 113.811 102.217 113.503 102.217 113.181C102.217 112.86 102.089 112.552 101.862 112.324C101.634 112.097 101.326 111.969 101.004 111.969H100.848L105.199 70.3261L110.259 90.8759L122.486 109.797C122.174 109.821 121.883 109.965 121.676 110.199C121.468 110.433 121.359 110.738 121.371 111.051C121.384 111.363 121.517 111.659 121.743 111.875C121.969 112.092 122.27 112.212 122.583 112.212H128.644C128.926 112.212 129.199 112.114 129.416 111.934C129.634 111.755 129.782 111.505 129.835 111.228C129.888 110.951 129.842 110.664 129.707 110.417C129.571 110.17 129.353 109.978 129.091 109.875H129.091Z" fill="#2F2E41"/>
<path d="M115.717 55.0818H115.717C115.666 54.884 115.555 54.7072 115.398 54.5768C115.241 54.4463 115.046 54.369 114.843 54.3557C114.641 52.0458 113.306 37.2315 113.255 36.7969L113.253 36.7786L112.866 28.5211C112.852 28.2212 112.728 27.937 112.518 27.7228C112.308 27.5085 112.026 27.3793 111.726 27.3597L109.685 27.2262C109.657 27.2253 109.63 27.2135 109.611 27.1934C109.591 27.1732 109.58 27.1463 109.58 27.1183C109.58 26.8928 109.536 26.6696 109.45 26.4613C109.363 26.2529 109.237 26.0637 109.077 25.9042C108.918 25.7448 108.729 25.6183 108.52 25.5321C108.312 25.4458 108.089 25.4014 107.863 25.4014H101.819C101.427 25.4015 101.049 25.5446 100.756 25.8037C100.462 26.0627 100.273 26.4201 100.224 26.8085C100.222 26.8353 100.209 26.86 100.189 26.8778C100.169 26.8956 100.143 26.9052 100.116 26.9046L100.115 26.9046C99.4282 26.8904 98.7591 27.1229 98.229 27.56C97.699 27.997 97.3431 28.6096 97.2261 29.2865C96.3997 34.0946 94.7436 45.0071 95.5624 51.0739C95.8475 53.1858 95.7179 56.3622 95.6101 58.1292C95.5994 58.3 95.6225 58.4712 95.6781 58.633C95.7336 58.7949 95.8206 58.9441 95.9339 59.0723C95.6929 59.1418 95.4882 59.3022 95.3631 59.5196C95.238 59.7371 95.2022 59.9946 95.2632 60.2379H95.2632C95.3261 60.4873 95.4855 60.7015 95.7063 60.8335C95.9271 60.9653 96.1913 61.0041 96.4407 60.9413L115.013 56.2593C115.263 56.1964 115.477 56.037 115.609 55.8162C115.741 55.5954 115.78 55.3312 115.717 55.0818Z" fill="#3F3D56"/>
<path d="M85.0208 89.7968C85.0173 89.2546 84.822 88.7311 84.4694 88.3192C84.1167 87.9072 83.6296 87.6335 83.0944 87.5465L50.1657 82.1392C49.8499 82.0869 49.5267 82.1013 49.2169 82.1814L41.4998 84.1768L37.072 85.323L28.9007 87.4353C28.4074 87.5634 27.9706 87.8516 27.6587 88.2547C27.3469 88.6578 27.1776 89.153 27.1775 89.6626V124.167C27.1799 124.693 27.3617 125.203 27.6928 125.611C28.0238 126.02 28.4844 126.304 28.9985 126.416L62.5386 126.036C62.6961 126.07 62.8568 126.086 63.0178 126.086C63.2525 126.086 63.4859 126.051 63.7098 125.98L83.6369 126.476C84.1071 126.329 84.5176 126.035 84.8073 125.636C85.097 125.238 85.2505 124.757 85.245 124.264L85.0208 89.7968Z" fill="white"/>
<path d="M85.0208 89.7968C85.0173 89.2546 84.822 88.7311 84.4694 88.3192C84.1167 87.9072 83.6296 87.6335 83.0944 87.5465L50.1657 82.1392C49.8499 82.0869 49.5267 82.1013 49.2169 82.1814L41.4998 84.1768L37.072 85.323L28.9007 87.4353C28.4074 87.5634 27.9706 87.8516 27.6587 88.2547C27.3469 88.6578 27.1776 89.153 27.1775 89.6626V124.167C27.1799 124.693 27.3617 125.203 27.6928 125.611C28.0238 126.02 28.4844 126.304 28.9985 126.416L62.5386 126.036C62.6961 126.07 62.8568 126.086 63.0178 126.086C63.2525 126.086 63.4859 126.051 63.7098 125.98L83.6369 126.476C84.1071 126.329 84.5176 126.035 84.8073 125.636C85.097 125.238 85.2505 124.757 85.245 124.264L85.0208 89.7968ZM83.4643 125.928L63.5373 126.402C63.253 126.49 62.9508 126.505 62.6594 126.444L29.1173 125.854C28.7319 125.77 28.3867 125.557 28.1385 125.25C27.8904 124.944 27.7543 124.562 27.7525 124.167V89.6626C27.7528 89.3094 27.8613 88.9648 28.0636 88.6751C28.2658 88.3855 28.5519 88.1649 28.8834 88.0429C28.9361 88.0232 28.9899 88.0065 29.0445 87.9931L37.6892 85.7581L42.8013 84.4355L49.3606 82.7392C49.5013 82.7016 49.6463 82.6829 49.7919 82.6836C49.8857 82.6835 49.9793 82.6912 50.0718 82.7066L83.0005 88.1139C83.2654 88.1573 83.5167 88.2619 83.7343 88.4193C83.9518 88.5766 84.1298 88.7825 84.2541 89.0205C84.3785 89.2619 84.4441 89.5291 84.4458 89.8006L84.67 124.268C84.6742 124.637 84.5591 124.998 84.342 125.297C84.1248 125.596 83.817 125.818 83.4643 125.928Z" fill="#CCCCCC"/>
<path d="M84.2537 89.0206C84.2313 89.0353 84.2067 89.0463 84.1808 89.0532L74.4952 91.6716L71.4801 92.4862L62.9044 94.8036C62.8799 94.8096 62.8548 94.8128 62.8296 94.8132C62.8123 94.8129 62.795 94.8116 62.7778 94.8093L28.1988 88.505L28.0838 88.4839C28.0089 88.4698 27.9426 88.4267 27.8994 88.3639C27.8562 88.3011 27.8396 88.2237 27.8533 88.1487C27.867 88.0737 27.9098 88.0072 27.9724 87.9637C28.035 87.9202 28.1122 87.9032 28.1873 87.9165L28.8831 88.043L62.8181 94.2305L70.2093 92.2332L74.3438 91.1157L83.8799 88.5376L84.0313 88.4973C84.0968 88.4801 84.1662 88.4863 84.2276 88.5151C84.2889 88.5438 84.3381 88.5931 84.3668 88.6545C84.3742 88.6692 84.38 88.6846 84.384 88.7005C84.3998 88.7608 84.3957 88.8245 84.3722 88.8823C84.3487 88.94 84.3071 88.9885 84.2537 89.0206Z" fill="#CCCCCC"/>
<path d="M63.118 126.153C62.9604 126.153 62.832 126.026 62.8305 126.838L62.543 95.4982C62.5415 94.3697 62.6691 94.2398 62.8279 94.2383H62.8305C62.9881 94.2383 63.1165 94.3652 63.118 95.493L63.4055 126.833C63.407 126.022 63.2794 126.152 63.1206 126.153H63.118Z" fill="#CCCCCC"/>
<path d="M74.5769 126.516L71.4803 126.549L70.2094 92.2331L37.7829 85.7811C37.7511 85.7755 37.7198 85.7678 37.689 85.7581C37.4399 85.6872 37.2223 85.5338 37.0718 85.323L41.4996 84.1768L42.8011 84.4355L73.5696 90.5559C73.7314 90.5878 73.8843 90.6544 74.018 90.751C74.1517 90.8476 74.2629 90.972 74.344 91.1156C74.4398 91.2823 74.575 126.317 74.5769 126.516Z" fill="#CCCCCC"/>
<path d="M99.3804 26.9868C99.3778 26.5781 99.2306 26.1836 98.9648 25.8731C98.6991 25.5627 98.3319 25.3564 97.9286 25.2908L73.1117 21.2156C72.8738 21.1762 72.6302 21.187 72.3967 21.2474L66.5807 22.7512L63.2437 23.6151L57.0853 25.207C56.7136 25.3036 56.3844 25.5208 56.1493 25.8246C55.9143 26.1284 55.7867 26.5016 55.7866 26.8857V47.2257C55.7885 47.6221 55.9255 48.0061 56.175 48.3141C56.4245 48.6222 56.7716 48.836 57.159 48.9202L82.4366 54.2985C82.5553 54.324 82.6764 54.3365 82.7978 54.336C82.9747 54.3363 83.1506 54.3095 83.3193 54.2566L98.3374 49.5139C98.6918 49.4033 99.0012 49.1814 99.2195 48.8811C99.4378 48.5808 99.5535 48.2181 99.5494 47.8469L99.3804 26.9868Z" fill="white"/>
<path d="M72.8312 22.7095C72.8131 22.7095 72.7951 22.7118 72.7776 22.7164L57.4661 26.6761C57.4197 26.6881 57.3786 26.7152 57.3492 26.7531C57.3199 26.791 57.304 26.8376 57.304 26.8856V47.2253C57.3041 47.2748 57.3212 47.3228 57.3524 47.3613C57.3835 47.3998 57.4269 47.4265 57.4753 47.437L82.7529 52.8152C82.7896 52.8229 82.8276 52.821 82.8633 52.8098L97.8816 48.0673C97.9259 48.0535 97.9645 48.0258 97.9917 47.9883C98.0189 47.9508 98.0333 47.9055 98.0327 47.8591L97.8644 26.9991C97.8641 26.9481 97.8456 26.8988 97.8124 26.8601C97.7792 26.8213 97.7334 26.7956 97.683 26.7874L72.8662 22.7123C72.8547 22.7104 72.843 22.7095 72.8312 22.7095Z" fill="#B4CCA8"/>
<path d="M99.3804 26.9868C99.3778 26.5781 99.2306 26.1836 98.9648 25.8731C98.6991 25.5627 98.3319 25.3564 97.9286 25.2908L73.1117 21.2156C72.8738 21.1762 72.6302 21.187 72.3967 21.2474L66.5807 22.7512L63.2437 23.6151L57.0853 25.207C56.7136 25.3036 56.3844 25.5208 56.1493 25.8246C55.9143 26.1284 55.7867 26.5016 55.7866 26.8857V47.2257C55.7885 47.6221 55.9255 48.0061 56.175 48.3141C56.4245 48.6222 56.7716 48.836 57.159 48.9202L82.4366 54.2985C82.5553 54.324 82.6764 54.3365 82.7978 54.336C82.9747 54.3363 83.1506 54.3095 83.3193 54.2566L98.3374 49.5139C98.6918 49.4033 99.0012 49.1814 99.2195 48.8811C99.4378 48.5808 99.5535 48.2181 99.5494 47.8469L99.3804 26.9868ZM98.2074 49.1008L83.1893 53.8434C82.9751 53.9101 82.7473 53.9211 82.5277 53.8752L57.2485 48.4969C56.9581 48.4336 56.6979 48.2731 56.5109 48.042C56.3239 47.8109 56.2213 47.523 56.22 47.2257V26.8857C56.2202 26.6195 56.302 26.3597 56.4544 26.1414C56.6068 25.9232 56.8225 25.7569 57.0723 25.665C57.112 25.6501 57.1525 25.6375 57.1937 25.6274L63.7088 23.943L67.5616 22.9462L72.505 21.6678C72.611 21.6395 72.7203 21.6254 72.83 21.6259C72.9007 21.6258 72.9712 21.6316 73.041 21.6432L97.8578 25.7184C98.0575 25.7512 98.2468 25.83 98.4108 25.9486C98.5748 26.0672 98.7089 26.2223 98.8026 26.4017C98.8963 26.5836 98.9458 26.7851 98.947 26.9897L99.116 47.8498C99.1192 48.1282 99.0325 48.4003 98.8688 48.6257C98.7051 48.851 98.4732 49.0176 98.2074 49.1008V49.1008Z" fill="#3F3D56"/>
<path d="M98.8028 26.4014C98.7859 26.4125 98.7674 26.4207 98.7479 26.4259L91.4483 28.3993L89.1759 29.0132L82.7128 30.7597C82.6943 30.7643 82.6754 30.7667 82.6564 30.767C82.6434 30.7667 82.6304 30.7657 82.6174 30.7641L56.5568 26.0128L56.4701 25.9969C56.4136 25.9863 56.3636 25.9538 56.331 25.9065C56.2984 25.8591 56.2859 25.8008 56.2963 25.7442C56.3066 25.6877 56.3389 25.6375 56.3861 25.6048C56.4333 25.572 56.4915 25.5592 56.5481 25.5693L57.0725 25.6646L82.6478 30.3278L88.2181 28.8225L91.3342 27.9803L98.5211 26.0373L98.6352 26.007C98.6845 25.994 98.7369 25.9987 98.7831 26.0204C98.8293 26.042 98.8664 26.0792 98.888 26.1254C98.8936 26.1365 98.8979 26.1481 98.901 26.1601C98.9129 26.2055 98.9098 26.2536 98.8921 26.2971C98.8744 26.3406 98.843 26.3772 98.8028 26.4014Z" fill="#3F3D56"/>
<path d="M82.8733 54.3866C82.8162 54.3866 82.7614 54.3641 82.7208 54.3239C82.6802 54.2836 82.6572 54.229 82.6566 54.1719L82.4399 30.5526C82.4394 30.4952 82.4618 30.4399 82.502 30.3989C82.5423 30.3579 82.5972 30.3345 82.6547 30.334H82.6566C82.7138 30.334 82.7686 30.3565 82.8092 30.3968C82.8497 30.437 82.8728 30.4916 82.8733 30.5487L83.09 54.168C83.0905 54.2254 83.0682 54.2807 83.0279 54.3217C82.9877 54.3628 82.9328 54.3861 82.8753 54.3866H82.8733Z" fill="#3F3D56"/>
<path d="M91.4484 51.5135L89.176 52.1275L88.2182 28.8231L63.7799 23.9606C63.7559 23.9563 63.7323 23.9506 63.7091 23.9433C63.5214 23.8898 63.3573 23.7742 63.2439 23.6153L66.5809 22.7515L67.5618 22.9465L90.7506 27.5591C90.8725 27.5832 90.9878 27.6333 91.0886 27.7062C91.1893 27.779 91.2731 27.8727 91.3342 27.9809C91.4065 28.1066 91.4469 51.3633 91.4484 51.5135Z" fill="#3F3D56"/>
<path d="M90.4307 38.2264C90.5469 38.3258 90.6551 38.4342 90.7543 38.5506L104.367 36.9608L105.691 33.9058L110.563 35.3012L108.745 40.9372C108.598 41.3926 108.307 41.7879 107.916 42.064C107.526 42.3401 107.056 42.482 106.578 42.4684L90.9916 42.0254C90.6703 42.5192 90.2064 42.9035 89.6614 43.1271C89.1164 43.3508 88.5162 43.4033 87.9407 43.2776C87.3652 43.1518 86.8416 42.8539 86.4396 42.4233C86.0375 41.9927 85.7761 41.4499 85.69 40.8672C85.604 40.2844 85.6974 39.6892 85.9579 39.1608C86.2184 38.6325 86.6335 38.1959 87.1482 37.9092C87.6628 37.6225 88.2525 37.4993 88.8389 37.556C89.4252 37.6126 89.9805 37.8465 90.4307 38.2264Z" fill="#FFB6B6"/>
<path d="M104.048 36.2553C103.974 36.0927 103.936 35.9159 103.937 35.7372C103.937 35.5585 103.976 35.382 104.051 35.2198L106.666 29.5526C106.923 28.6751 107.518 27.9352 108.319 27.4953C109.121 27.0554 110.064 26.9513 110.943 27.2059C111.821 27.4605 112.562 28.0529 113.004 28.8534C113.446 29.6538 113.553 30.5968 113.301 31.4757L112.439 37.6781C112.415 37.8551 112.352 38.0247 112.256 38.1754C112.16 38.3261 112.033 38.4543 111.883 38.5513C111.733 38.6483 111.563 38.7119 111.387 38.7376C111.21 38.7633 111.029 38.7506 110.858 38.7003L104.831 36.934C104.659 36.8838 104.5 36.7972 104.365 36.6801C104.23 36.5629 104.122 36.418 104.048 36.2553Z" fill="#3F3D56"/>
<path d="M149.711 126.769H0.288579C0.21216 126.769 0.138944 126.739 0.0849859 126.684C0.0310274 126.63 0.000732422 126.557 0.000732422 126.481C0.000732422 126.404 0.0310274 126.331 0.0849859 126.277C0.138944 126.223 0.21216 126.192 0.288579 126.192H149.711C149.788 126.192 149.861 126.222 149.915 126.276C149.969 126.331 150 126.404 150 126.481C150 126.557 149.969 126.631 149.915 126.685C149.861 126.739 149.788 126.769 149.711 126.769Z" fill="#CACACA"/>
<path opacity="0.5" d="M29.1212 96.0945C33.9164 96.0945 37.8037 92.2072 37.8037 87.412C37.8037 82.6168 33.9164 78.7295 29.1212 78.7295C24.326 78.7295 20.4387 82.6168 20.4387 87.412C20.4387 92.2072 24.326 96.0945 29.1212 96.0945Z" fill="#B4CCA8"/>
<path d="M27.9377 91.931C27.7878 91.931 27.6399 91.8961 27.5058 91.829C27.3717 91.7619 27.2551 91.6645 27.1651 91.5446L24.7964 88.3862C24.6427 88.1813 24.5768 87.9237 24.613 87.6702C24.6492 87.4166 24.7847 87.1878 24.9896 87.0341C25.1945 86.8805 25.4521 86.8145 25.7057 86.8507C25.9592 86.8869 26.188 87.0224 26.3417 87.2273L27.8914 89.2934L31.8716 83.3232C31.9418 83.2172 32.0322 83.1262 32.1376 83.0552C32.243 82.9843 32.3614 82.9348 32.486 82.9097C32.6106 82.8846 32.7389 82.8843 32.8636 82.9088C32.9883 82.9334 33.1069 82.9823 33.2126 83.0528C33.3184 83.1233 33.4092 83.214 33.4798 83.3197C33.5504 83.4253 33.5995 83.5439 33.6243 83.6685C33.649 83.7932 33.6489 83.9215 33.6239 84.0461C33.599 84.1707 33.5497 84.2892 33.4788 84.3947L28.7414 91.5009C28.6557 91.6294 28.5404 91.7355 28.4053 91.8103C28.2701 91.885 28.119 91.9263 27.9646 91.9307C27.9556 91.9308 27.9467 91.931 27.9377 91.931Z" fill="white"/>
<path d="M66.0912 41.2947C66.0642 41.2947 66.0373 41.2916 66.0109 41.2857L58.4949 39.5885C58.4009 39.5672 58.3192 39.5094 58.2678 39.4279C58.2164 39.3464 58.1994 39.2478 58.2206 39.1538C58.2418 39.0598 58.2995 38.978 58.3809 38.9265C58.4623 38.875 58.5609 38.8578 58.6549 38.8789L66.171 40.5761C66.2583 40.5958 66.3352 40.647 66.3871 40.7199C66.439 40.7927 66.4622 40.8822 66.4524 40.9711C66.4425 41.06 66.4002 41.1421 66.3336 41.2018C66.2669 41.2615 66.1807 41.2946 66.0912 41.2947Z" fill="white"/>
<path d="M37.1652 109.602C37.1388 109.607 37.1118 109.61 37.0848 109.61L29.3806 109.48C29.2843 109.478 29.1926 109.438 29.1257 109.369C29.0588 109.299 29.0221 109.206 29.0237 109.11C29.0253 109.014 29.0651 108.922 29.1343 108.855C29.2034 108.788 29.2964 108.751 29.3927 108.752L37.0969 108.882C37.1863 108.884 37.2721 108.918 37.3377 108.979C37.4034 109.04 37.4444 109.122 37.4528 109.212C37.4613 109.301 37.4366 109.39 37.3836 109.462C37.3305 109.534 37.2528 109.584 37.1652 109.602Z" fill="#E6E6E6"/>
<path d="M39.8322 113.724C39.8058 113.73 39.7788 113.732 39.7518 113.732L32.0476 113.602C31.9513 113.6 31.8596 113.56 31.7927 113.491C31.7258 113.422 31.6891 113.328 31.6907 113.232C31.6923 113.136 31.7321 113.044 31.8012 112.977C31.8704 112.91 31.9634 112.873 32.0597 112.875L39.7639 113.004C39.8533 113.006 39.9391 113.04 40.0047 113.101C40.0704 113.162 40.1114 113.245 40.1198 113.334C40.1283 113.423 40.1036 113.512 40.0506 113.584C39.9975 113.656 39.9198 113.706 39.8322 113.724Z" fill="#E6E6E6"/>
</svg>
