<svg width="150" height="128" viewBox="0 0 150 128" fill="none" xmlns="http://www.w3.org/2000/svg">
<g clip-path="url(#clip0_318_4116)">
<path d="M141.489 27.2897C134.134 27.2897 126.689 26.1874 119.293 23.9993C112.11 21.874 104.958 18.7254 98.0348 14.6411C87.1331 8.20923 80.2147 1.42992 79.1815 0.390112C75.2768 6.58035 69.3463 11.4647 61.5519 14.9084C55.2703 17.6839 47.7704 19.5353 39.2606 20.4111C24.7792 21.9021 12.2182 20.0212 12.093 20.002C12.0537 19.9959 12.0184 19.9746 11.9949 19.9425C11.9714 19.9105 11.9615 19.8705 11.9675 19.8312C11.9736 19.7919 11.9949 19.7566 12.027 19.7331C12.059 19.7096 12.099 19.6998 12.1383 19.7058C12.2632 19.725 24.792 21.6003 39.2363 20.1125C52.5487 18.7413 70.2586 14.1512 79.0281 0.0705956C79.0402 0.0512367 79.0565 0.0348875 79.0758 0.0227939C79.0952 0.0107002 79.117 0.00318198 79.1397 0.000811453C79.1624 -0.00155908 79.1853 0.00128065 79.2067 0.00911501C79.2282 0.0169494 79.2475 0.0295716 79.2633 0.0460187C79.3337 0.119314 86.4413 7.45455 98.1951 14.3878C109.037 20.7833 126.165 28.1355 146.185 26.8386C146.225 26.8361 146.264 26.8494 146.294 26.8756C146.324 26.9018 146.342 26.9388 146.344 26.9784C146.347 27.0181 146.334 27.0571 146.307 27.087C146.281 27.1168 146.244 27.135 146.205 27.1376C144.638 27.2391 143.066 27.2898 141.489 27.2897Z" fill="#CCCCCC"/>
<path d="M28.8229 27.7179C28.7465 27.7137 28.6733 27.6858 28.6136 27.6379C28.5539 27.5901 28.5106 27.5248 28.4899 27.4511L26.5644 20.9836C26.5481 20.929 26.5446 20.8713 26.5539 20.8151C26.5633 20.7589 26.5854 20.7055 26.6186 20.6591C26.6517 20.6127 26.695 20.5745 26.7451 20.5473C26.7953 20.5202 26.851 20.5049 26.9079 20.5025H26.908L30.8304 20.3411C30.8901 20.3387 30.9495 20.3506 31.0036 20.3757C31.0578 20.4009 31.1051 20.4387 31.1417 20.4859C31.1783 20.533 31.2031 20.5883 31.214 20.647C31.2249 20.7057 31.2216 20.7662 31.2044 20.8234L29.2074 27.4523C29.1852 27.53 29.1379 27.5982 29.073 27.6464C29.0081 27.6946 28.9291 27.72 28.8482 27.7188C28.8397 27.7187 28.8312 27.7185 28.8229 27.7179Z" fill="#E6E6E6"/>
<path d="M47.7036 26.2977C47.6275 26.3059 47.5508 26.29 47.4842 26.2524C47.4175 26.2148 47.3643 26.1573 47.332 26.088L44.3903 20.015C44.3654 19.9636 44.3526 19.9073 44.3528 19.8503C44.353 19.7933 44.3662 19.7371 44.3914 19.6859C44.4167 19.6348 44.4532 19.5901 44.4984 19.5552C44.5435 19.5204 44.596 19.4963 44.6518 19.4848H44.6519L48.4971 18.6939C48.5556 18.6819 48.6161 18.6841 48.6736 18.7002C48.7311 18.7163 48.784 18.746 48.8277 18.7866C48.8714 18.8273 48.9047 18.8779 48.925 18.9341C48.9452 18.9903 48.9517 19.0505 48.9439 19.1097L48.0403 25.9736C48.0309 26.0539 47.9953 26.1289 47.939 26.1869C47.8826 26.2449 47.8087 26.2827 47.7287 26.2945C47.7203 26.2958 47.7119 26.2969 47.7036 26.2977Z" fill="#E6E6E6"/>
<path d="M68.5087 19.1853C68.4382 19.215 68.3602 19.2219 68.2856 19.2051C68.2109 19.1883 68.1434 19.1485 68.0925 19.0914L63.5279 14.1215C63.4893 14.0795 63.4609 14.0292 63.4446 13.9746C63.4284 13.9199 63.4249 13.8623 63.4344 13.806C63.4438 13.7498 63.466 13.6965 63.4992 13.6501C63.5324 13.6037 63.5757 13.5656 63.6259 13.5385L63.6259 13.5385L67.0811 11.6747C67.1336 11.6464 67.1922 11.631 67.2519 11.6299C67.3116 11.6288 67.3707 11.642 67.4243 11.6684C67.4779 11.6948 67.5244 11.7336 67.5599 11.7816C67.5954 11.8296 67.619 11.8854 67.6286 11.9444L68.738 18.778C68.7521 18.8577 68.7395 18.9397 68.7023 19.0115C68.665 19.0832 68.6051 19.1407 68.5319 19.175C68.5242 19.1787 68.5165 19.1822 68.5087 19.1853Z" fill="#E6E6E6"/>
<path d="M134.915 33.8519C134.84 33.8392 134.77 33.8032 134.716 33.7489C134.662 33.6947 134.627 33.625 134.614 33.5495L133.425 26.9071C133.415 26.851 133.417 26.7933 133.433 26.7385C133.449 26.6837 133.477 26.6331 133.515 26.5907C133.553 26.5483 133.6 26.5152 133.653 26.4938C133.706 26.4724 133.763 26.4635 133.82 26.4675H133.82L137.736 26.7461C137.795 26.7503 137.853 26.7688 137.904 26.7998C137.955 26.8309 137.998 26.8737 138.029 26.9247C138.06 26.9757 138.078 27.0334 138.083 27.093C138.087 27.1525 138.077 27.2123 138.053 27.2672L135.327 33.6309C135.296 33.7057 135.242 33.7682 135.172 33.8088C135.102 33.8494 135.021 33.8658 134.94 33.8555C134.932 33.8546 134.923 33.8533 134.915 33.8519Z" fill="#E6E6E6"/>
<path d="M114.015 29.5008C113.944 29.4716 113.884 29.4211 113.844 29.3563C113.803 29.2914 113.784 29.2155 113.788 29.1391L114.102 22.3984C114.105 22.3414 114.12 22.2858 114.148 22.2358C114.175 22.1858 114.214 22.1427 114.26 22.1098C114.307 22.077 114.36 22.0551 114.417 22.046C114.473 22.037 114.53 22.0408 114.585 22.0574L114.585 22.0574L118.342 23.1979C118.399 23.2153 118.451 23.246 118.494 23.2877C118.536 23.3293 118.569 23.3805 118.588 23.4371C118.607 23.4938 118.612 23.5541 118.603 23.6131C118.594 23.6722 118.571 23.7282 118.536 23.7765L114.465 29.3767C114.419 29.4428 114.352 29.4916 114.274 29.5157C114.197 29.5398 114.114 29.5378 114.038 29.5099C114.03 29.5071 114.022 29.504 114.015 29.5008Z" fill="#E6E6E6"/>
<path d="M101.438 56.9213H99.1935C99.0923 56.9213 98.9924 56.8985 98.9012 56.8547C98.81 56.8108 98.7299 56.747 98.6667 56.6679C98.6036 56.5889 98.559 56.4966 98.5364 56.398C98.5138 56.2994 98.5136 56.1969 98.536 56.0982L98.9517 54.2636C93.6173 53.3963 89.6045 47.5692 89.6045 40.667C89.6045 33.1087 94.4096 26.9595 100.316 26.9595C106.222 26.9595 111.027 33.1087 111.027 40.667C111.027 47.5692 107.014 53.3963 101.68 54.2636L102.096 56.0982C102.118 56.1969 102.118 56.2994 102.095 56.398C102.073 56.4966 102.028 56.5889 101.965 56.6679C101.902 56.747 101.822 56.8108 101.73 56.8547C101.639 56.8985 101.539 56.9213 101.438 56.9213Z" fill="#B4CCA8"/>
<path d="M102.338 54.8241H98.7426C98.6035 54.8241 98.4702 54.7688 98.3718 54.6705C98.2735 54.5722 98.2183 54.4388 98.2183 54.2997C98.2183 54.1607 98.2735 54.0273 98.3718 53.929C98.4702 53.8306 98.6035 53.7754 98.7426 53.7754H102.338C102.477 53.7754 102.61 53.8306 102.709 53.929C102.807 54.0273 102.862 54.1607 102.862 54.2997C102.862 54.4388 102.807 54.5722 102.709 54.6705C102.61 54.7688 102.477 54.8241 102.338 54.8241Z" fill="#3F3D56"/>
<path d="M98.5905 54.1704C98.0403 54.033 97.4659 54.0235 96.9115 54.1426C96.3571 54.2617 95.8373 54.5062 95.3921 54.8575C94.954 55.2172 94.6058 55.6743 94.3753 56.1922C94.1448 56.7101 94.0382 57.2746 94.0641 57.841C94.1738 60.2887 96.638 61.6042 98.3557 62.9207C100.386 64.4763 102.291 66.2711 103.666 68.4442C105.028 70.5963 105.883 73.1464 105.685 75.7148C105.514 77.9362 104.507 80.1385 102.78 81.5762C102.563 81.7561 102.334 81.9225 102.096 82.0743C101.854 82.2302 102.079 82.6194 102.323 82.4624C104.215 81.2465 105.466 79.2196 105.94 77.0419C106.467 74.6192 105.998 72.097 104.961 69.8729C103.885 67.5625 102.191 65.5982 100.288 63.9259C99.3445 63.0963 98.3419 62.3434 97.3265 61.6047C96.4336 60.9551 95.4977 60.2556 94.9428 59.2776C94.6688 58.7981 94.5219 58.2565 94.5159 57.7043C94.51 57.1521 94.6453 56.6075 94.9089 56.1222C95.184 55.634 95.5834 55.2272 96.0665 54.9432C96.5495 54.6591 97.0991 54.5078 97.6595 54.5047C97.9332 54.5021 98.206 54.5354 98.471 54.6038C98.7513 54.6755 98.8709 54.2421 98.5905 54.1704H98.5905Z" fill="#3F3D56"/>
<path d="M93.4993 44.487C93.2433 44.4867 92.9977 44.3857 92.8155 44.2058C92.6333 44.026 92.5292 43.7817 92.5256 43.5257C91.7239 41.1872 91.7239 38.6484 92.5256 36.31C92.5288 36.0527 92.6336 35.8072 92.8172 35.627C93.0008 35.4468 93.2483 35.3465 93.5055 35.3482C93.7628 35.3498 94.0089 35.4532 94.1902 35.6357C94.3715 35.8183 94.4732 36.0651 94.4731 36.3224L94.4685 36.3482C93.6171 38.6686 93.6172 41.0709 94.4688 43.4884L94.4731 43.5132C94.4728 43.7714 94.3701 44.0189 94.1875 44.2015C94.005 44.384 93.7575 44.4867 93.4993 44.487Z" fill="white"/>
<path d="M17.1296 80.0906C17.0375 80.0488 16.956 79.9866 16.8912 79.9088C16.8265 79.831 16.7803 79.7395 16.7559 79.6412L16.2992 77.8163C11.1473 79.4491 4.93706 76.0593 1.82297 69.8995C-1.58716 63.1542 -0.0732788 55.4985 5.19769 52.8337C10.4687 50.1689 17.5313 53.4888 20.9414 60.2341C24.0555 66.3939 23.1033 73.4047 18.734 76.5854L19.9328 78.0352C19.9972 78.1132 20.0433 78.2046 20.0676 78.3029C20.0919 78.4011 20.0938 78.5035 20.0731 78.6026C20.0524 78.7016 20.0097 78.7947 19.9481 78.875C19.8865 78.9553 19.8077 79.0207 19.7174 79.0663L17.714 80.0791C17.6238 80.125 17.5244 80.1499 17.4232 80.1519C17.3219 80.1539 17.2216 80.1329 17.1296 80.0906Z" fill="#CCCCCC"/>
<path d="M15.26 78.3818C15.1975 78.2577 15.1867 78.1138 15.2301 77.9817C15.2734 77.8496 15.3674 77.7402 15.4914 77.6773L18.7001 76.0551C18.8242 75.9926 18.968 75.9819 19.1 76.0253C19.232 76.0687 19.3413 76.1628 19.404 76.2868C19.4667 76.4108 19.4776 76.5546 19.4343 76.6866C19.3911 76.8187 19.2972 76.9281 19.1732 76.991L15.9645 78.6132C15.8404 78.6757 15.6965 78.6865 15.5645 78.6431C15.4324 78.5998 15.3229 78.5058 15.26 78.3818Z" fill="#3F3D56"/>
<path d="M19.0144 76.3391C19.4434 75.9682 19.9516 75.7006 20.5002 75.5567C21.0487 75.4129 21.6229 75.3966 22.1787 75.5092C22.732 75.6326 23.2489 75.8834 23.6883 76.2416C24.1277 76.5998 24.4775 77.0555 24.7099 77.5726C25.7164 79.8065 24.1108 82.0924 23.1718 84.0422C22.0621 86.3463 21.1714 88.8078 20.9244 91.3677C20.6798 93.9027 21.068 96.5639 22.4034 98.7668C23.5584 100.672 25.4504 102.183 27.6398 102.687C27.9152 102.75 28.1941 102.795 28.4751 102.823C28.7618 102.853 28.7365 103.302 28.4477 103.272C26.211 103.04 24.1798 101.796 22.7743 100.066C21.2106 98.1421 20.492 95.6793 20.4134 93.2269C20.3318 90.6793 20.9568 88.1622 21.9005 85.8112C22.3686 84.645 22.9236 83.5207 23.4965 82.4034C24.0003 81.4209 24.5199 80.3744 24.5739 79.2512C24.6021 78.6996 24.4889 78.15 24.245 77.6545C24.0012 77.159 23.6347 76.734 23.1805 76.4198C22.7147 76.1083 22.1748 75.9255 21.6155 75.8899C21.0563 75.8543 20.4975 75.9673 19.996 76.2173C19.7506 76.3385 19.5222 76.4913 19.3165 76.6719C19.0987 76.8624 18.7964 76.5296 19.0144 76.3391L19.0144 76.3391Z" fill="#3F3D56"/>
<path d="M17.8808 64.9708L17.8734 64.9467C17.5427 62.405 16.4589 60.2611 14.6522 58.5745L14.6365 58.5535C14.5203 58.3239 14.4996 58.0577 14.5791 57.813C14.6585 57.5683 14.8315 57.365 15.0604 57.2475C15.2892 57.1299 15.5553 57.1077 15.8005 57.1857C16.0456 57.2637 16.25 57.4356 16.3688 57.6637C18.1394 59.3889 19.2849 61.6547 19.6244 64.1033C19.7377 64.3343 19.755 64.6008 19.6724 64.8445C19.5899 65.0882 19.4143 65.2893 19.1839 65.4039C18.9535 65.5186 18.6872 65.5373 18.443 65.4562C18.1989 65.375 17.9967 65.2006 17.8808 64.9708V64.9708Z" fill="white"/>
<path d="M115.182 92.6476L98.8024 84.2026C98.5554 84.075 98.3691 83.8545 98.2845 83.5897C98.1998 83.3249 98.2237 83.0373 98.3508 82.79L99.364 80.8248C99.4917 80.5778 99.7121 80.3916 99.977 80.3069C100.242 80.2223 100.529 80.2461 100.777 80.3733L117.156 88.8182C117.403 88.9459 117.59 89.1663 117.674 89.4312C117.759 89.696 117.735 89.9836 117.608 90.2308L116.595 92.196C116.532 92.3186 116.445 92.4275 116.34 92.5164C116.235 92.6053 116.113 92.6724 115.982 92.7139C115.878 92.7473 115.77 92.7643 115.661 92.7644C115.494 92.7643 115.33 92.7242 115.182 92.6476Z" fill="#FFB6B6"/>
<path d="M110.188 84.748C110.318 84.6976 110.456 84.6735 110.595 84.6771C110.733 84.6807 110.87 84.712 110.997 84.7691L116.364 87.7371C116.952 88.0616 117.392 88.5994 117.594 89.2393C117.797 89.8792 117.745 90.5723 117.451 91.1755L117.384 91.1427L117.451 91.1755C117.17 91.7519 116.687 92.2051 116.094 92.4493C115.501 92.6934 114.839 92.7115 114.234 92.5002L108.412 90.4655C108.286 90.4098 108.172 90.3298 108.077 90.2302C107.982 90.1305 107.907 90.013 107.858 89.8845C107.808 89.756 107.784 89.6189 107.787 89.4812C107.791 89.3434 107.821 89.2077 107.877 89.0817L109.608 85.3019C109.638 85.2335 109.675 85.1685 109.719 85.1079C109.837 84.9452 110 84.8201 110.188 84.748Z" fill="#2F2E41"/>
<path d="M122.54 83.8412C126.968 83.8412 130.557 80.2516 130.557 75.8236C130.557 71.3955 126.968 67.8059 122.54 67.8059C118.112 67.8059 114.522 71.3955 114.522 75.8236C114.522 80.2516 118.112 83.8412 122.54 83.8412Z" fill="#FFB6B6"/>
<path d="M121.555 125.687V107.258C121.556 106.98 121.666 106.714 121.863 106.517C122.06 106.321 122.326 106.21 122.604 106.21H124.815C125.093 106.21 125.36 106.321 125.556 106.517C125.753 106.714 125.864 106.98 125.864 107.258V125.687C125.864 125.965 125.753 126.232 125.556 126.428C125.36 126.625 125.093 126.735 124.815 126.736H122.604C122.326 126.735 122.06 126.625 121.863 126.428C121.666 126.232 121.556 125.965 121.555 125.687Z" fill="#FFB6B6"/>
<path d="M116.762 125.687V107.258C116.762 106.98 116.873 106.714 117.069 106.517C117.266 106.321 117.532 106.21 117.81 106.21H120.021C120.299 106.21 120.566 106.321 120.763 106.517C120.959 106.714 121.07 106.98 121.07 107.258V125.687C121.07 125.965 120.959 126.232 120.763 126.428C120.566 126.625 120.299 126.735 120.021 126.736H117.81C117.532 126.735 117.266 126.625 117.069 126.428C116.873 126.232 116.762 125.965 116.762 125.687Z" fill="#FFB6B6"/>
<path d="M122.708 78.7949L122.716 78.4953C122.159 78.4797 121.667 78.4448 121.298 78.175C121.193 78.0942 121.107 77.9917 121.046 77.8747C120.984 77.7576 120.948 77.6287 120.941 77.4966C120.935 77.4159 120.947 77.3348 120.977 77.2596C121.007 77.1844 121.054 77.1171 121.114 77.063C121.359 76.856 121.753 76.923 122.041 77.0548L122.289 77.1685L121.813 73.6943L121.517 73.735L121.921 76.6902C121.53 76.5754 121.168 76.6248 120.92 76.8342C120.825 76.9173 120.751 77.0213 120.702 77.138C120.654 77.2548 120.633 77.3811 120.642 77.5072C120.651 77.6846 120.698 77.858 120.781 78.0151C120.864 78.1723 120.98 78.3095 121.121 78.417C121.596 78.7637 122.212 78.781 122.708 78.7949Z" fill="#2F2E41"/>
<path d="M120.048 73.99H118.435V74.2896H120.048V73.99Z" fill="#2F2E41"/>
<path d="M125.142 73.99H123.528V74.2896H125.142V73.99Z" fill="#2F2E41"/>
<path d="M130.212 110.307L127.439 92.0885C127.397 91.8136 127.466 91.5335 127.631 91.3096C127.796 91.0856 128.043 90.9362 128.317 90.8941L130.503 90.5613C130.778 90.5198 131.058 90.589 131.282 90.7538C131.506 90.9186 131.656 91.1655 131.698 91.4403L134.471 109.659C134.512 109.934 134.443 110.214 134.278 110.438C134.114 110.662 133.867 110.811 133.592 110.854L131.406 111.186C131.27 111.207 131.131 111.201 130.997 111.168C130.864 111.135 130.738 111.076 130.627 110.994C130.516 110.913 130.422 110.81 130.351 110.692C130.279 110.574 130.232 110.444 130.212 110.307Z" fill="#FFB6B6"/>
<path d="M128.068 98.6138C127.952 98.5388 127.851 98.4412 127.772 98.3268C127.694 98.2123 127.639 98.0834 127.611 97.9475L126.859 91.86C126.776 91.194 126.953 90.5218 127.352 89.9821C127.751 89.4425 128.342 89.0768 129.003 88.9606L129.016 89.0343L129.003 88.9605C129.634 88.8494 130.285 88.9738 130.831 89.3103C131.377 89.6467 131.78 90.1717 131.965 90.7858L133.739 96.692C133.768 96.8267 133.77 96.9658 133.745 97.1014C133.72 97.2369 133.669 97.3663 133.594 97.482C133.519 97.5978 133.423 97.6976 133.309 97.7759C133.196 97.8542 133.068 97.9093 132.933 97.9382L128.858 98.7583C128.785 98.7741 128.71 98.7821 128.635 98.7821C128.434 98.7819 128.237 98.7235 128.068 98.6138Z" fill="#2F2E41"/>
<path d="M128.284 111.782H106.858C106.641 111.782 106.427 111.727 106.237 111.621C106.047 111.515 105.888 111.362 105.774 111.177C105.66 110.992 105.595 110.781 105.586 110.564C105.576 110.347 105.623 110.131 105.72 109.937L116.079 89.3362C116.799 87.9048 117.981 86.7581 119.433 86.0816C120.885 85.405 122.523 85.2382 124.082 85.6081C125.641 85.9779 127.03 86.8629 128.023 88.1198C129.017 89.3767 129.557 90.932 129.557 92.5341V110.509C129.557 110.846 129.423 111.17 129.184 111.409C128.945 111.648 128.622 111.782 128.284 111.782Z" fill="#2F2E41"/>
<path d="M122.823 69.2088C121.182 69.5752 119.798 70.645 118.147 70.9776C117.395 71.1291 116.567 71.1229 115.877 70.7528C115.365 70.475 114.974 70.0185 114.778 69.4705C114.584 68.91 114.534 68.3098 114.633 67.7249C114.731 67.1401 114.975 66.5894 115.342 66.1236C116.269 64.9896 117.746 64.467 119.163 64.3198C121.999 64.025 124.912 64.9595 127.22 66.5875C129.603 68.2683 131.432 70.7922 132.045 73.6646C132.373 75.2001 132.34 76.8335 131.781 78.3121C131.242 79.727 130.182 80.8819 128.819 81.5397C128.494 81.6967 128.154 81.8231 127.805 81.9171C127.75 81.9345 127.703 81.9729 127.675 82.0241C127.647 82.0753 127.64 82.1353 127.656 82.1915C127.671 82.2477 127.708 82.2957 127.758 82.3254C127.808 82.355 127.868 82.364 127.925 82.3505C129.458 81.9318 130.781 80.9579 131.635 79.6182C132.513 78.2137 132.808 76.4943 132.673 74.8603C132.411 71.6994 130.673 68.7942 128.243 66.8054C125.909 64.8946 122.889 63.7321 119.853 63.8245C118.33 63.8708 116.749 64.2573 115.565 65.2607C115.055 65.6923 114.66 66.2438 114.416 66.8658C114.171 67.4878 114.085 68.1608 114.166 68.8242C114.234 69.4449 114.48 70.0326 114.875 70.5162C115.358 71.0618 116.027 71.4075 116.752 71.4855C118.547 71.7192 120.104 70.7015 121.691 70.0474C122.096 69.8767 122.515 69.7411 122.943 69.6421C123.225 69.5791 123.106 69.1458 122.823 69.2088V69.2088Z" fill="#2F2E41"/>
<path d="M127.333 66.0325C126.688 63.6195 128.371 61.1081 130.656 60.3545C131.968 59.9461 133.375 59.9618 134.677 60.3994C135.947 60.8289 137.087 61.5732 137.991 62.5627C139.994 64.6942 140.882 67.5711 141.297 70.4076C141.726 73.3362 141.484 76.5439 142.983 79.2052C143.604 80.3085 144.526 81.2747 145.718 81.7498C146.829 82.193 148.161 82.1951 149.226 81.619C149.482 81.4787 149.719 81.3056 149.931 81.1041C150.142 80.9052 149.823 80.5878 149.613 80.7863C148.721 81.6278 147.392 81.7865 146.246 81.4563C144.996 81.0961 144.033 80.1353 143.399 79.0289C142.666 77.7494 142.361 76.287 142.194 74.8359C142.012 73.2519 141.942 71.6593 141.7 70.0817C141.262 67.2364 140.316 64.3802 138.308 62.2449C137.39 61.2477 136.246 60.4862 134.971 60.0246C133.659 59.5549 132.238 59.4831 130.885 59.8183C129.656 60.1368 128.572 60.8656 127.813 61.8842C127.076 62.8509 126.701 64.0456 126.753 65.2603C126.773 65.5616 126.822 65.8603 126.9 66.152C126.917 66.2076 126.955 66.2543 127.007 66.2822C127.058 66.3101 127.118 66.3171 127.174 66.3016C127.23 66.2861 127.278 66.2494 127.308 66.1992C127.337 66.149 127.346 66.0892 127.333 66.0325L127.333 66.0325Z" fill="#2F2E41"/>
<path d="M61.0536 93.6846L42.4229 92.4646C42.1291 92.4455 41.8419 92.3687 41.5778 92.2386C41.3137 92.1086 41.0778 91.9277 40.8836 91.7064C40.6894 91.4851 40.5407 91.2278 40.446 90.949C40.3513 90.6702 40.3125 90.3755 40.3317 90.0817C40.3509 89.7879 40.4279 89.5008 40.5581 89.2368C40.6883 88.9727 40.8693 88.7369 41.0907 88.5429C41.3121 88.3488 41.5696 88.2003 41.8484 88.1057C42.1273 88.0112 42.422 87.9725 42.7158 87.9919L61.3465 89.212C61.6243 89.2302 61.8834 89.358 62.067 89.5673C62.2505 89.7766 62.3434 90.0502 62.3252 90.3279L62.1695 92.706C62.1521 92.9716 62.0344 93.2207 61.8402 93.4028C61.6461 93.5849 61.39 93.6865 61.1238 93.6869C61.1005 93.6869 61.0771 93.6861 61.0536 93.6846Z" fill="#FFB6B6"/>
<path d="M57.411 93.9932L42.0904 93.4206C41.9527 93.4155 41.8173 93.3833 41.6921 93.3258C41.5668 93.2684 41.454 93.1868 41.3603 93.0858C41.2665 92.9848 41.1936 92.8663 41.1456 92.7371C41.0977 92.6078 41.0757 92.4704 41.0808 92.3327L41.2136 88.7809C41.224 88.5027 41.3444 88.2401 41.5485 88.0507C41.7525 87.8614 42.0234 87.7609 42.3016 87.7712L57.6221 88.3438C57.7599 88.349 57.8952 88.3812 58.0205 88.4387C58.1458 88.4961 58.2585 88.5777 58.3523 88.6787C58.446 88.7797 58.519 88.8982 58.5669 89.0274C58.6149 89.1566 58.6369 89.294 58.6318 89.4317L58.499 92.9836C58.4885 93.2548 58.3736 93.5115 58.1782 93.6998C57.9828 93.8881 57.7221 93.9936 57.4507 93.994C57.4375 93.994 57.4243 93.9938 57.411 93.9932Z" fill="#2F2E41"/>
<path d="M38.4473 125.686V105.824C38.4476 105.546 38.5583 105.279 38.755 105.082C38.9518 104.885 39.2185 104.775 39.4968 104.774H41.8799C42.1582 104.775 42.4249 104.885 42.6217 105.082C42.8185 105.279 42.9291 105.546 42.9294 105.824V125.686C42.9291 125.964 42.8185 126.231 42.6217 126.428C42.425 126.625 42.1582 126.735 41.8799 126.736H39.4968C39.2185 126.735 38.9518 126.625 38.755 126.428C38.5583 126.231 38.4476 125.964 38.4473 125.686Z" fill="#2F2E41"/>
<path d="M48.6334 115.883L38.3378 98.8975C38.1939 98.6593 38.1502 98.3738 38.2165 98.1036C38.2828 97.8334 38.4535 97.6004 38.6913 97.4559L40.7293 96.2207C40.9674 96.0767 41.2529 96.0331 41.5232 96.0993C41.7934 96.1656 42.0263 96.3364 42.1708 96.5741L52.4664 113.56C52.6103 113.798 52.654 114.083 52.5877 114.354C52.5214 114.624 52.3507 114.857 52.1129 115.001L50.0749 116.236C49.8368 116.38 49.5513 116.424 49.2811 116.358C49.0108 116.292 48.7779 116.121 48.6334 115.883Z" fill="#2F2E41"/>
<path d="M43.1164 84.0456C47.6643 84.0456 51.351 80.3589 51.351 75.811C51.351 71.2632 47.6643 67.5764 43.1164 67.5764C38.5686 67.5764 34.8818 71.2632 34.8818 75.811C34.8818 80.3589 38.5686 84.0456 43.1164 84.0456Z" fill="#FFB6B6"/>
<path d="M47.5737 78.6228C47.8386 78.5357 48.0817 78.393 48.2869 78.2041C48.4228 78.0693 48.5275 77.9064 48.5938 77.7268C48.6601 77.5472 48.6864 77.3553 48.6707 77.1645C48.6621 77.0285 48.6222 76.8964 48.554 76.7785C48.4859 76.6605 48.3914 76.5599 48.278 76.4846C47.9835 76.2957 47.5896 76.2951 47.1886 76.4718L47.2038 73.2572L46.8809 73.2556L46.863 77.0348L47.1119 76.8783C47.4004 76.6971 47.8124 76.5696 48.1036 76.7564C48.1755 76.8057 48.2351 76.871 48.2777 76.9472C48.3203 77.0233 48.3448 77.1082 48.3492 77.1954C48.3601 77.3375 48.3403 77.4803 48.291 77.6141C48.2418 77.7478 48.1643 77.8694 48.0638 77.9706C47.7072 78.3112 47.187 78.4177 46.5938 78.5129L46.6449 78.8317C46.9601 78.7899 47.271 78.72 47.5737 78.6228Z" fill="#2F2E41"/>
<path d="M50.5324 73.0948L48.8081 73.3225L48.8504 73.6426L50.5746 73.4149L50.5324 73.0948Z" fill="#2F2E41"/>
<path d="M45.0902 73.8131L43.366 74.0408L43.4082 74.3609L45.1325 74.1332L45.0902 73.8131Z" fill="#2F2E41"/>
<path d="M34.8679 109.781V93.5503C34.8701 91.582 35.653 89.6949 37.0448 88.3031C38.4366 86.9113 40.3237 86.1284 42.292 86.1262H47.2198C47.582 86.126 47.9296 86.2691 48.1867 86.5243C48.4437 86.7795 48.5893 87.126 48.5916 87.4882L51.4986 109.781C51.4982 110.144 51.3534 110.493 51.0962 110.751C50.8389 111.008 50.49 111.153 50.1261 111.153H36.2404C35.8765 111.153 35.5276 111.008 35.2703 110.751C35.0131 110.493 34.8683 110.144 34.8679 109.781Z" fill="#2F2E41"/>
<path d="M24.5575 102.02L38.6857 89.8135C38.9083 89.6209 39.1668 89.474 39.4462 89.3813C39.7256 89.2886 40.0206 89.2519 40.3142 89.2732C40.6079 89.2946 40.8944 89.3736 41.1575 89.5057C41.4206 89.6378 41.6551 89.8205 41.8476 90.0433C42.0401 90.2661 42.1868 90.5246 42.2793 90.8041C42.3718 91.0836 42.4083 91.3786 42.3868 91.6722C42.3653 91.9658 42.2861 92.2523 42.1538 92.5153C42.0215 92.7783 41.8387 93.0127 41.6158 93.2051L27.4877 105.411C27.3834 105.501 27.2624 105.57 27.1316 105.613C27.0007 105.657 26.8626 105.674 26.7252 105.664C26.5877 105.654 26.4536 105.617 26.3304 105.555C26.2073 105.493 26.0975 105.407 26.0074 105.303L24.4494 103.5C24.2674 103.289 24.1766 103.015 24.1969 102.737C24.2171 102.46 24.3469 102.202 24.5575 102.02Z" fill="#FFB6B6"/>
<path d="M27.6766 97.992L39.2779 87.969C39.3822 87.8789 39.5032 87.8102 39.634 87.7669C39.7648 87.7235 39.9029 87.7064 40.0404 87.7164C40.1778 87.7264 40.312 87.7634 40.4351 87.8253C40.5583 87.8872 40.668 87.9727 40.7581 88.077L43.4192 91.1572C43.5094 91.2614 43.578 91.3825 43.6214 91.5133C43.6647 91.6441 43.6819 91.7822 43.6718 91.9197C43.6618 92.0571 43.6248 92.1913 43.5629 92.3144C43.501 92.4376 43.4155 92.5473 43.3112 92.6374L31.71 102.66C31.4992 102.842 31.225 102.933 30.9475 102.912C30.67 102.892 30.4119 102.763 30.2297 102.552L27.5686 99.4722C27.3866 99.2616 27.2958 98.9873 27.316 98.7097C27.3363 98.4321 27.466 98.1739 27.6766 97.992Z" fill="#2F2E41"/>
<path d="M42.9625 70.927C44.0633 70.016 45.5348 70.8776 46.7796 70.7553C47.9706 70.6383 48.9292 69.5902 49.1904 68.4623C49.4952 67.1465 48.8346 65.8098 47.8395 64.9669C46.7496 64.0437 45.2863 63.7568 43.8919 63.8973C42.2937 64.0583 40.8212 64.7739 39.4956 65.6481C38.2166 66.465 37.0363 67.4272 35.9785 68.5154C35.0306 69.5231 34.2207 70.7304 33.9433 72.1054C33.6912 73.355 33.8391 74.7479 34.5602 75.8242C34.943 76.3761 35.4615 76.8201 36.0657 77.1133C36.6954 77.4375 37.3692 77.6735 37.9784 78.0381C38.8993 78.5894 39.7833 79.713 39.4697 80.8588C39.4024 81.1091 39.2746 81.3391 39.0975 81.5284C38.8848 81.7557 38.5148 81.4429 38.7281 81.215C39.1027 80.8147 39.0986 80.2712 38.9123 79.7812C38.6902 79.2288 38.2871 78.7682 37.769 78.4749C37.1314 78.0941 36.424 77.8531 35.7697 77.5049C35.1432 77.1862 34.6029 76.7209 34.1949 76.1485C33.425 75.0346 33.2157 73.6 33.4201 72.2804C33.6414 70.8524 34.4017 69.5654 35.3445 68.4928C36.3705 67.3254 37.6223 66.3445 38.8987 65.4662C40.2683 64.5238 41.7767 63.7337 43.4342 63.4691C44.871 63.2397 46.4201 63.4271 47.6575 64.2313C48.8125 64.9819 49.6849 66.2519 49.7475 67.6537C49.7674 68.2913 49.617 68.9228 49.3119 69.483C49.0067 70.0433 48.5578 70.5121 48.0112 70.8412C47.4508 71.1623 46.8037 71.2993 46.1612 71.2329C45.474 71.1758 44.7894 70.952 44.096 70.9974C43.7823 71.0104 43.4814 71.1254 43.239 71.3248C42.9985 71.5239 42.7239 71.1244 42.9625 70.927L42.9625 70.927Z" fill="#2F2E41"/>
<path d="M52.491 114.582L46.3133 124.16C46.1622 124.394 45.9246 124.558 45.6526 124.617C45.3806 124.675 45.0964 124.624 44.8624 124.473L42.8597 123.182C42.6258 123.031 42.4615 122.793 42.4028 122.521C42.3441 122.249 42.3958 121.965 42.5467 121.731L48.7244 112.153C48.8755 111.919 49.1131 111.755 49.3851 111.696C49.6571 111.638 49.9412 111.689 50.1752 111.84L52.1779 113.131C52.294 113.206 52.3941 113.303 52.4726 113.416C52.551 113.529 52.6062 113.657 52.6349 113.792C52.6389 113.81 52.6423 113.828 52.6453 113.847C52.6872 114.102 52.6322 114.365 52.491 114.582Z" fill="#2F2E41"/>
<path d="M146.045 126.807H12.2655C12.2258 126.807 12.1877 126.791 12.1596 126.763C12.1315 126.735 12.1157 126.697 12.1157 126.657C12.1157 126.617 12.1315 126.579 12.1596 126.551C12.1877 126.523 12.2258 126.507 12.2655 126.507H146.045C146.085 126.507 146.123 126.523 146.151 126.551C146.179 126.579 146.195 126.617 146.195 126.657C146.195 126.697 146.179 126.735 146.151 126.763C146.123 126.791 146.085 126.807 146.045 126.807Z" fill="#3F3D56"/>
<path d="M60.5407 67.9324H59.6418V70.7787H60.5407V67.9324Z" fill="#F2F2F2"/>
<path d="M75.0727 59.843H74.1738V62.6894H75.0727V59.843Z" fill="#F2F2F2"/>
<path d="M71.3925 68.5611L70.6892 69.1208L72.4619 71.3479L73.1651 70.7881L71.3925 68.5611Z" fill="#F2F2F2"/>
<path d="M67.1559 77.1863L65.7327 79.6514L66.5111 80.1008L67.9343 77.6358L67.1559 77.1863Z" fill="#F2F2F2"/>
<path d="M63.1109 49.4715L61.6877 51.9365L62.4662 52.386L63.8894 49.9209L63.1109 49.4715Z" fill="#F2F2F2"/>
<path d="M86.309 98.0437H85.4102V100.89H86.309V98.0437Z" fill="#F2F2F2"/>
<path d="M100.84 89.9539H99.9409V92.8002H100.84V89.9539Z" fill="#F2F2F2"/>
<path d="M97.1596 98.6726L96.4563 99.2324L98.229 101.459L98.9322 100.9L97.1596 98.6726Z" fill="#F2F2F2"/>
<path d="M92.9229 107.298L91.4998 109.763L92.2782 110.212L93.7014 107.747L92.9229 107.298Z" fill="#F2F2F2"/>
<path d="M88.8778 79.5833L87.4546 82.0483L88.233 82.4978L89.6562 80.0327L88.8778 79.5833Z" fill="#F2F2F2"/>
<path d="M43.8468 67.5806L42.3865 66.7129L41.2273 66.0229L39.5461 65.0235L38.3854 64.3344L36.8075 63.3951C36.7819 63.38 36.7528 63.3719 36.723 63.3716C36.6933 63.3713 36.664 63.3788 36.6381 63.3933C36.6121 63.4078 36.5905 63.4289 36.5752 63.4545C36.56 63.48 36.5517 63.5091 36.5512 63.5388L36.535 64.8741L36.5211 65.9061L36.5018 67.4018L36.4902 68.4345L36.471 69.9302L36.4585 70.9614L36.4486 71.7278C36.4473 71.7576 36.4545 71.7871 36.4693 71.813C36.4839 71.8387 36.5047 71.8603 36.5297 71.8759C36.5553 71.8912 36.5845 71.8994 36.6142 71.8997C36.644 71.9 36.6733 71.8924 36.6992 71.8777L43.844 67.8726C43.8665 67.8607 43.8859 67.8435 43.9004 67.8226C43.9149 67.8016 43.9242 67.7775 43.9275 67.7522C43.9295 67.744 43.9306 67.7356 43.9309 67.7271C43.9306 67.6976 43.923 67.6685 43.9087 67.6427C43.8944 67.6165 43.8729 67.595 43.8468 67.5806Z" fill="#CCCCCC"/>
<path d="M39.5453 65.0236L36.5205 65.9063L36.5343 64.8742L38.3847 64.3345L39.5453 65.0236Z" fill="#3F3D56"/>
<path d="M42.3858 66.713L36.4895 68.4346L36.5012 67.4019L41.2266 66.0229L42.3858 66.713Z" fill="#3F3D56"/>
<path d="M43.927 67.7522C43.9237 67.7775 43.9144 67.8016 43.8999 67.8226C43.8854 67.8435 43.866 67.8607 43.8435 67.8726L40.3698 69.8198L36.458 70.9614L36.4705 69.9302L43.927 67.7522Z" fill="#3F3D56"/>
<path d="M36.3076 64.1545C37.0538 64.1545 37.6587 63.5496 37.6587 62.8034C37.6587 62.0573 37.0538 61.4524 36.3076 61.4524C35.5614 61.4524 34.9565 62.0573 34.9565 62.8034C34.9565 63.5496 35.5614 64.1545 36.3076 64.1545Z" fill="#CCCCCC"/>
</g>
<defs>
<clipPath id="clip0_318_4116">
<rect width="150" height="127.105" fill="white"/>
</clipPath>
</defs>
</svg>
