<svg width="25" height="26" viewBox="0 0 25 26" fill="none" xmlns="http://www.w3.org/2000/svg">
<path fill-rule="evenodd" clip-rule="evenodd" d="M0.391113 9.31674C0.391113 14.1861 4.3385 18.1335 9.20785 18.1335C10.9629 18.1335 12.5982 17.6207 13.972 16.7367L22.3661 25.1307C22.8542 25.6189 23.6457 25.6189 24.1338 25.1307C24.622 24.6426 24.622 23.8511 24.1338 23.363L15.8667 15.0958C17.2109 13.5483 18.0246 11.5275 18.0246 9.31674C18.0246 4.44739 14.0772 0.5 9.20785 0.5C4.3385 0.5 0.391113 4.44739 0.391113 9.31674ZM2.89111 9.31674C2.89111 12.8054 5.71922 15.6335 9.20785 15.6335C12.6965 15.6335 15.5246 12.8054 15.5246 9.31674C15.5246 5.8281 12.6965 3 9.20785 3C5.71922 3 2.89111 5.8281 2.89111 9.31674Z" fill="white"/>
</svg>
