<svg width="20" height="22" viewBox="0 0 20 22" fill="none" xmlns="http://www.w3.org/2000/svg">
<path d="M16.2498 14.0002C15.6884 14.003 15.1348 14.1318 14.6298 14.3771C14.1249 14.6225 13.6815 14.9781 13.3323 15.4177L7.84977 11.9902C8.04958 11.3453 8.04958 10.655 7.84977 10.0102L13.3323 6.58265C13.8887 7.27169 14.6711 7.74154 15.5408 7.90896C16.4105 8.07638 17.3114 7.93058 18.0839 7.49737C18.8564 7.06417 19.4506 6.37152 19.7614 5.54214C20.0721 4.71276 20.0792 3.80017 19.7815 2.96603C19.4838 2.13189 18.9004 1.43005 18.1348 0.984826C17.3692 0.539604 16.4707 0.379741 15.5984 0.533555C14.7262 0.68737 13.9366 1.14493 13.3694 1.82519C12.8023 2.50545 12.4942 3.3645 12.4998 4.25015C12.5033 4.58554 12.5538 4.91877 12.6498 5.24015L7.16727 8.66765C6.68326 8.05834 6.02168 7.61469 5.27424 7.3982C4.52679 7.18171 3.73052 7.2031 2.99578 7.45941C2.26104 7.71572 1.62424 8.19426 1.17364 8.82868C0.723035 9.4631 0.480957 10.222 0.480957 11.0002C0.480957 11.7783 0.723035 12.5372 1.17364 13.1716C1.62424 13.8061 2.26104 14.2846 2.99578 14.5409C3.73052 14.7972 4.52679 14.8186 5.27424 14.6021C6.02168 14.3856 6.68326 13.942 7.16727 13.3327L12.6498 16.7602C12.5538 17.0815 12.5033 17.4148 12.4998 17.7502C12.4998 18.4918 12.7197 19.2169 13.1318 19.8335C13.5438 20.4502 14.1295 20.9309 14.8147 21.2147C15.4999 21.4985 16.2539 21.5728 16.9814 21.4281C17.7088 21.2834 18.377 20.9263 18.9014 20.4018C19.4259 19.8774 19.783 19.2092 19.9277 18.4817C20.0724 17.7543 19.9981 17.0003 19.7143 16.3151C19.4305 15.6299 18.9498 15.0442 18.3332 14.6321C17.7165 14.2201 16.9914 14.0002 16.2498 14.0002ZM16.2498 2.00015C16.6948 2.00015 17.1298 2.13211 17.4998 2.37935C17.8698 2.62658 18.1582 2.97798 18.3285 3.38912C18.4988 3.80025 18.5434 4.25265 18.4565 4.68911C18.3697 5.12556 18.1554 5.52648 17.8408 5.84114C17.5261 6.15581 17.1252 6.3701 16.6887 6.45692C16.2523 6.54374 15.7999 6.49918 15.3887 6.32888C14.9776 6.15859 14.6262 5.8702 14.379 5.50019C14.1317 5.13018 13.9998 4.69516 13.9998 4.25015C13.9998 3.65342 14.2368 3.08112 14.6588 2.65916C15.0807 2.23721 15.653 2.00015 16.2498 2.00015ZM4.24977 13.2502C3.80476 13.2502 3.36975 13.1182 2.99974 12.871C2.62973 12.6237 2.34134 12.2723 2.17104 11.8612C2.00075 11.4501 1.95619 10.9977 2.043 10.5612C2.12982 10.1247 2.34411 9.72383 2.65878 9.40916C2.97345 9.09449 3.37436 8.8802 3.81082 8.79339C4.24728 8.70657 4.69968 8.75113 5.11081 8.92142C5.52194 9.09172 5.87334 9.38011 6.12058 9.75012C6.36781 10.1201 6.49977 10.5551 6.49977 11.0002C6.49977 11.5969 6.26272 12.1692 5.84076 12.5911C5.41881 13.0131 4.84651 13.2502 4.24977 13.2502ZM16.2498 20.0002C15.8048 20.0002 15.3697 19.8682 14.9997 19.621C14.6297 19.3737 14.3413 19.0223 14.171 18.6112C14.0007 18.2001 13.9562 17.7477 14.043 17.3112C14.1298 16.8747 14.3441 16.4738 14.6588 16.1592C14.9734 15.8445 15.3744 15.6302 15.8108 15.5434C16.2473 15.4566 16.6997 15.5011 17.1108 15.6714C17.5219 15.8417 17.8733 16.1301 18.1206 16.5001C18.3678 16.8701 18.4998 17.3051 18.4998 17.7502C18.4998 18.3469 18.2627 18.9192 17.8408 19.3411C17.4188 19.7631 16.8465 20.0002 16.2498 20.0002Z" fill="white"/>
</svg>
