<svg width="24" height="24" viewBox="0 0 24 24" fill="none" xmlns="http://www.w3.org/2000/svg">
<path d="M11.5244 2.79678C11.6741 2.33612 12.3258 2.33612 12.4754 2.79678L14.2825 8.35825C14.3494 8.56426 14.5414 8.70374 14.758 8.70374L20.6057 8.70374C21.09 8.70374 21.2914 9.32354 20.8996 9.60825L16.1687 13.0454C15.9935 13.1727 15.9201 13.3984 15.9871 13.6044L17.7941 19.1659C17.9438 19.6266 17.4165 20.0096 17.0247 19.7249L12.2938 16.2877C12.1186 16.1604 11.8813 16.1604 11.706 16.2877L6.97516 19.7249C6.5833 20.0096 6.05606 19.6266 6.20574 19.1659L8.01277 13.6044C8.0797 13.3984 8.00638 13.1727 7.83113 13.0454L3.10027 9.60825C2.70841 9.32355 2.9098 8.70374 3.39416 8.70374L9.24183 8.70374C9.45844 8.70374 9.65042 8.56426 9.71736 8.35825L11.5244 2.79678Z" fill="#2D2B26" stroke="black" stroke-width="1.5"/>
</svg>
