<svg width="32" height="25" viewBox="0 0 32 25" fill="none" xmlns="http://www.w3.org/2000/svg">
<path d="M3 1.5H18.3333C19.4379 1.5 20.3333 2.39543 20.3333 3.5V5.5H23.8187C24.1417 5.5 24.4447 5.65597 24.6325 5.91876L27.6667 10.1667L30.3714 11.2486C30.7511 11.4004 31 11.7681 31 12.177V18.5C31 19.0523 30.5523 19.5 30 19.5H20.3333H2C1.44772 19.5 1 19.0523 1 18.5V13.5V3.5C1 2.39543 1.89543 1.5 3 1.5Z" fill="white"/>
<path d="M20.3333 5.5V3.5C20.3333 2.39543 19.4379 1.5 18.3333 1.5H3C1.89543 1.5 1 2.39543 1 3.5V13.5M20.3333 5.5H23.8187C24.1417 5.5 24.4447 5.65597 24.6324 5.91876L27.6667 10.1667M20.3333 5.5V10.1667M27.6667 10.1667L30.3714 11.2486C30.7511 11.4004 31 11.7681 31 12.177V18.5C31 19.0523 30.5523 19.5 30 19.5H20.3333M27.6667 10.1667H20.3333M20.3333 19.5H2C1.44772 19.5 1 19.0523 1 18.5V13.5M20.3333 19.5V13.5M20.3333 10.1667V13.5M20.3333 13.5H1" stroke="#2D2B26" stroke-width="1.5"/>
<circle cx="6.33325" cy="20.168" r="3.25" fill="white" stroke="#2D2B26" stroke-width="1.5"/>
<path d="M28.9165 20.168C28.9165 21.9629 27.4614 23.418 25.6665 23.418C23.8716 23.418 22.4165 21.9629 22.4165 20.168C22.4165 18.373 23.8716 16.918 25.6665 16.918C27.4614 16.918 28.9165 18.373 28.9165 20.168Z" fill="white" stroke="#2D2B26" stroke-width="1.5"/>
</svg>
