<svg width="24" height="24" viewBox="0 0 24 24" fill="none" xmlns="http://www.w3.org/2000/svg">
<path fill-rule="evenodd" clip-rule="evenodd" d="M2.71289 9.05339C2.71289 12.9489 5.8708 16.1068 9.76628 16.1068C11.1703 16.1068 12.4786 15.6965 13.5776 14.9894L20.2928 21.7046C20.6834 22.0951 21.3165 22.0951 21.7071 21.7046C22.0976 21.3141 22.0976 20.6809 21.7071 20.2904L15.0933 13.6766C16.1687 12.4386 16.8197 10.822 16.8197 9.05339C16.8197 5.15791 13.6618 2 9.76628 2C5.8708 2 2.71289 5.15791 2.71289 9.05339ZM4.71289 9.05339C4.71289 11.8443 6.97537 14.1068 9.76628 14.1068C12.5572 14.1068 14.8197 11.8443 14.8197 9.05339C14.8197 6.26248 12.5572 4 9.76628 4C6.97537 4 4.71289 6.26248 4.71289 9.05339Z" fill="#2D2B26"/>
</svg>
