<svg width="51" height="17" viewBox="0 0 51 17" fill="none" xmlns="http://www.w3.org/2000/svg">
<path d="M35.8414 8.57506H1M19.6917 8.57509L20.1601 8.62512C20.6297 8.65846 21.1019 8.64179 21.5688 8.57509C25.1972 8.05676 27.7185 4.69515 27.2001 1.06673L26.7317 1.01671C26.2622 0.983358 25.79 1.00003 25.3231 1.06673C21.6946 1.58506 19.1734 4.94667 19.6917 8.57509ZM19.6917 8.57509L19.6417 9.04349C19.6084 9.51306 19.625 9.98531 19.6917 10.4522C20.2101 14.0806 23.5717 16.6018 27.2001 16.0835L27.2501 15.6151C27.2835 15.1455 27.2668 14.6732 27.2001 14.2063C26.6818 10.578 23.3201 8.05674 19.6917 8.57509ZM27.2001 8.57506L27.6685 8.62508C28.138 8.65843 28.6102 8.64176 29.0771 8.57506C32.7056 8.05673 35.2268 4.69512 34.7085 1.0667L34.2401 1.01667C33.7705 0.983326 33.2983 0.999999 32.8314 1.0667C29.203 1.58503 26.6818 4.94664 27.2001 8.57506ZM27.2001 8.57506L27.1501 9.04345C27.1167 9.51303 27.1334 9.98527 27.2001 10.4522C27.7184 14.0806 31.0801 16.6018 34.7085 16.0834L34.7585 15.615C34.7918 15.1455 34.7751 14.6732 34.7084 14.2063C34.1901 10.5779 30.8285 8.05671 27.2001 8.57506ZM34.7085 8.57509L35.1768 8.62511C35.6464 8.65846 36.1186 8.64178 36.5855 8.57508C40.2139 8.05675 42.7352 4.69515 42.2168 1.06672L41.7485 1.0167C41.2789 0.983351 40.8067 1.00002 40.3398 1.06671C36.7114 1.58505 34.1901 4.94666 34.7085 8.57509ZM34.7085 8.57509L34.6584 9.04348C34.6251 9.51305 34.6418 9.9853 34.7085 10.4522C35.2268 14.0806 38.5884 16.6018 42.2168 16.0834L42.2668 15.615C42.3002 15.1454 42.2835 14.6732 42.2168 14.2063C41.6984 10.5779 38.3368 8.05673 34.7085 8.57509ZM12.0057 8.57509L12.4741 8.62511C12.9436 8.65846 13.4158 8.64179 13.8827 8.57509C17.5112 8.05676 20.0324 4.69515 19.5141 1.06673L19.0457 1.0167C18.5761 0.983354 18.1039 1.00003 17.637 1.06672C14.0086 1.58505 11.4874 4.94667 12.0057 8.57509ZM12.0057 8.57509L11.9557 9.04348C11.9223 9.51306 11.939 9.98531 12.0057 10.4522C12.524 14.0806 15.8856 16.6017 19.514 16.0834L19.564 15.615C19.5974 15.1454 19.5807 14.6732 19.514 14.2063C18.9956 10.5779 15.6341 8.05674 12.0057 8.57509ZM40.7088 9.90327C40.3315 9.62029 39.9858 9.29814 39.6773 8.94253L39.3816 8.5759C41.5807 5.64373 45.7405 5.0495 48.6726 7.24864C49.1757 7.62595 49.6226 8.07285 49.9999 8.57593C47.8007 11.5082 43.641 12.1024 40.7088 9.90327Z" stroke="#C4C4BA" stroke-width="1.5" stroke-linecap="round"/>
</svg>
