<svg width="16" height="16" viewBox="0 0 16 16" fill="none" xmlns="http://www.w3.org/2000/svg">
<path fill-rule="evenodd" clip-rule="evenodd" d="M12.8999 8.0001C12.8999 10.7063 10.706 12.9001 7.99985 12.9001C5.29366 12.9001 3.09985 10.7063 3.09985 8.0001C3.09985 5.2939 5.29366 3.1001 7.99985 3.1001C10.706 3.1001 12.8999 5.2939 12.8999 8.0001ZM14.3999 8.0001C14.3999 11.5347 11.5345 14.4001 7.99985 14.4001C4.46523 14.4001 1.59985 11.5347 1.59985 8.0001C1.59985 4.46548 4.46523 1.6001 7.99985 1.6001C11.5345 1.6001 14.3999 4.46548 14.3999 8.0001ZM8.74998 4.80008C8.74998 4.38587 8.4142 4.05008 7.99998 4.05008C7.58577 4.05008 7.24998 4.38587 7.24998 4.80008V8.00007C7.24998 8.26351 7.38821 8.50764 7.61411 8.64319L9.61411 9.8432C9.96929 10.0563 10.43 9.94114 10.6431 9.58596C10.8562 9.23078 10.741 8.77008 10.3859 8.55697L8.74998 7.57543V4.80008Z" fill="white"/>
</svg>
