<svg width="20" height="16" viewBox="0 0 20 16" fill="none" xmlns="http://www.w3.org/2000/svg">
<path d="M0.75 13.5V5.73472L8.47458 10.8844C9.3983 11.5003 10.6017 11.5003 11.5254 10.8844L19.25 5.73472V13.5C19.25 14.1904 18.6904 14.75 18 14.75H2C1.30964 14.75 0.75 14.1904 0.75 13.5ZM19.25 5.375L18.584 4.37596L10.6934 9.63636C10.2735 9.91628 9.7265 9.91628 9.30663 9.63636L1.41603 4.37596L0.75 5.375V2.5C0.75 1.80964 1.30964 1.25 2 1.25H18C18.6904 1.25 19.25 1.80964 19.25 2.5V5.375Z" stroke="black" stroke-width="1.5"/>
</svg>
