<svg width="10" height="15" viewBox="0 0 10 15" fill="none" xmlns="http://www.w3.org/2000/svg">
<path d="M9.11895 7.52364L5.93873 5.68044L7.54196 1.83282C7.59791 1.71855 7.62395 1.59194 7.61765 1.46486C7.61135 1.33778 7.57291 1.21438 7.50593 1.1062C7.43896 0.998013 7.34563 0.908591 7.23469 0.846296C7.12374 0.784001 6.99881 0.750869 6.87157 0.750002C6.70249 0.7496 6.53819 0.806127 6.40515 0.910476L6.35266 0.955468L0.728588 6.27959C0.644042 6.35988 0.579342 6.45875 0.539607 6.56836C0.499872 6.67798 0.486193 6.79534 0.499651 6.91116C0.51311 7.02697 0.553337 7.13807 0.61715 7.23565C0.680963 7.33324 0.76661 7.41463 0.867315 7.47339L4.04829 9.31809L2.42631 13.2099C2.35941 13.3687 2.34926 13.5457 2.39758 13.711C2.44591 13.8764 2.54974 14.02 2.6916 14.1177C2.83346 14.2155 3.00467 14.2614 3.17639 14.2476C3.34811 14.2339 3.50985 14.1614 3.63436 14.0423L9.25843 8.71669C9.34279 8.63634 9.40732 8.53748 9.44691 8.4279C9.4865 8.31833 9.50006 8.20106 9.48653 8.08534C9.473 7.96963 9.43275 7.85864 9.36896 7.76116C9.30516 7.66367 9.21958 7.58236 9.11895 7.52364Z" fill="#FBAF00"/>
</svg>
