<svg width="30" height="23" viewBox="0 0 30 23" fill="none" xmlns="http://www.w3.org/2000/svg">
<path fill-rule="evenodd" clip-rule="evenodd" d="M-0.000244141 1.25C-0.000244141 0.697715 0.447471 0.25 0.999756 0.25H28.9998C29.552 0.25 29.9998 0.697715 29.9998 1.25C29.9998 1.80228 29.552 2.25 28.9998 2.25H0.999756C0.447471 2.25 -0.000244141 1.80228 -0.000244141 1.25ZM-0.000244141 11.25C-0.000244141 10.6977 0.447471 10.25 0.999756 10.25H28.9998C29.552 10.25 29.9998 10.6977 29.9998 11.25C29.9998 11.8023 29.552 12.25 28.9998 12.25H0.999756C0.447471 12.25 -0.000244141 11.8023 -0.000244141 11.25ZM0.999756 20.25C0.447471 20.25 -0.000244141 20.6977 -0.000244141 21.25C-0.000244141 21.8023 0.447471 22.25 0.999756 22.25H28.9998C29.552 22.25 29.9998 21.8023 29.9998 21.25C29.9998 20.6977 29.552 20.25 28.9998 20.25H0.999756Z" fill="white"/>
</svg>
