<svg width="150" height="128" viewBox="0 0 150 128" fill="none" xmlns="http://www.w3.org/2000/svg">
<g clip-path="url(#clip0_318_4180)">
<path d="M150 36.2664C150 37.0127 149.976 37.7559 149.928 38.4903C149.653 42.7348 148.574 46.8894 146.747 50.7358C146.732 50.7686 146.717 50.8015 146.702 50.8312C146.618 51.0104 146.531 51.1866 146.441 51.3627C143.669 56.8987 139.429 61.5775 134.178 64.8944C128.926 68.2113 122.864 70.0405 116.643 70.1846L116.983 89.4812L121.383 87.1765L122.17 88.6633L117.016 91.3589L117.614 125.397L117.644 127.188H114.27L114.304 125.397L115.328 70.1876C110.82 70.1238 106.37 69.1704 102.236 67.3829C98.1018 65.5954 94.3663 63.0094 91.2464 59.7751C91.0302 59.5542 90.8199 59.3274 90.6097 59.1004C90.6006 59.0915 90.5946 59.0825 90.5886 59.0765C87.9878 56.2592 85.8846 53.0254 84.3678 49.5118C84.4008 49.5507 84.4369 49.5835 84.4699 49.6223C81.0415 41.6566 80.8086 32.6894 83.8189 24.5586C86.8292 16.4278 92.8547 9.74918 100.66 5.89157C100.777 5.83487 100.901 5.77802 101.018 5.7184C108.739 2.02251 117.575 1.34453 125.775 3.81886C133.975 6.29319 140.941 11.7392 145.29 19.0773C145.498 19.4235 145.699 19.7789 145.891 20.1341C148.594 25.0864 150.007 30.6324 150 36.2664Z" fill="#E5E5E5"/>
<path d="M112.007 28.1909C113.314 28.1909 114.552 28.4852 115.659 29.0112C112.78 30.378 110.789 33.3119 110.789 36.7107C110.789 40.1094 112.78 43.0434 115.658 44.4107C114.552 44.9361 113.314 45.2304 112.007 45.2304C107.301 45.2304 103.487 41.416 103.487 36.7107C103.487 32.0053 107.301 28.1909 112.007 28.1909ZM118.092 34.2764C118.764 34.2764 119.309 33.7315 119.309 33.0593C119.309 32.3872 118.764 31.8422 118.092 31.8422C117.42 31.8422 116.875 32.3872 116.875 33.0593C116.875 33.7315 117.42 34.2764 118.092 34.2764ZM115.658 40.362C116.33 40.362 116.875 39.8171 116.875 39.1449C116.875 38.4727 116.33 37.9278 115.658 37.9278C114.986 37.9278 114.441 38.4727 114.441 39.1449C114.441 39.8171 114.986 40.362 115.658 40.362ZM121.743 40.362C122.416 40.362 122.961 39.8171 122.961 39.1449C122.961 38.4727 122.416 37.9278 121.743 37.9278C121.071 37.9278 120.526 38.4727 120.526 39.1449C120.526 39.8171 121.071 40.362 121.743 40.362ZM119.309 45.2304C121.662 45.2304 123.792 44.2768 125.334 42.735C125.857 42.2118 126.473 41.2908 127.183 39.9718L125.395 37.9278V34.2764L122.961 33.0593V30.6251L120.526 28.1909C120.094 28.1909 119.689 28.1909 119.309 28.1909C114.604 28.1909 110.789 32.0053 110.789 36.7107C110.789 41.416 114.604 45.2304 119.309 45.2304Z" stroke="#C4C4C4" stroke-width="0.912829" stroke-linejoin="round"/>
<path d="M8.06947 121.892C5.59926 123.722 4.89917 126.942 4.89917 126.942C4.89917 126.942 8.20408 127.195 10.6743 125.365C13.1445 123.535 13.8446 120.315 13.8446 120.315C13.8446 120.315 10.5397 120.062 8.06947 121.892Z" fill="#F1F1F1"/>
<path d="M9.09825 122.751C7.91105 125.577 4.93771 127.033 4.93771 127.033C4.93771 127.033 3.88923 123.907 5.07643 121.082C6.26364 118.256 9.23697 116.8 9.23697 116.8C9.23697 116.8 10.2855 119.925 9.09825 122.751Z" fill="#F1F1F1"/>
<path d="M61.0131 96.6425C72.663 96.6425 82.107 94.6889 82.107 92.279C82.107 89.8691 72.663 87.9155 61.0131 87.9155C49.3633 87.9155 39.9192 89.8691 39.9192 92.279C39.9192 94.6889 49.3633 96.6425 61.0131 96.6425Z" fill="#CACACA"/>
<path d="M62.2539 94.4204H59.7722V127.052H62.2539V94.4204Z" fill="#CACACA"/>
<path d="M75.5184 90.2149C75.6526 89.9528 75.8409 89.7218 76.0712 89.5371C76.3014 89.3523 76.5683 89.218 76.8544 89.143C77.1405 89.0679 77.4393 89.0538 77.7313 89.1014C78.0232 89.1491 78.3018 89.2576 78.5486 89.4197C78.6265 89.4715 78.7007 89.5285 78.7706 89.5904L87.8809 87.4463L88.5527 85.2305L92.187 85.8234L91.4442 89.5455C91.3534 89.9914 91.1204 90.3963 90.7797 90.7002C90.439 91.004 90.0089 91.1906 89.5531 91.2323L79.2464 92.1345C79.2148 92.1952 79.1801 92.2543 79.1424 92.3115C78.9792 92.5568 78.7657 92.7651 78.5158 92.9227C78.266 93.0803 77.9854 93.1836 77.6926 93.2259C77.3998 93.2682 77.1012 93.2486 76.8166 93.1682C76.5319 93.0879 76.2675 92.9487 76.0408 92.7597C75.9747 92.7051 75.9122 92.6464 75.8536 92.5839C75.5609 92.2703 75.3719 91.8752 75.312 91.4517C75.2521 91.0281 75.3241 90.5965 75.5184 90.2149Z" fill="#FFB8B8"/>
<path d="M95.2721 105.977H86.1073C86.1073 106.239 76.6618 106.451 76.6618 106.451C76.5135 106.562 76.3784 106.69 76.259 106.831C75.9002 107.256 75.7041 107.794 75.7053 108.349V108.728C75.7056 109.357 75.957 109.96 76.4045 110.405C76.8519 110.849 77.4587 111.099 78.0915 111.099H95.2721C95.9048 111.099 96.5114 110.849 96.9588 110.404C97.4062 109.96 97.6577 109.357 97.6583 108.728V108.349C97.6574 107.72 97.4057 107.117 96.9584 106.673C96.5111 106.228 95.9047 105.978 95.2721 105.977Z" fill="#E4E4E4"/>
<path d="M87.7846 111.005H85.303V126.941H87.7846V111.005Z" fill="#E4E4E4"/>
<path d="M78.2405 126.854C78.2405 127.121 82.001 126.957 86.6399 126.957C91.2787 126.957 95.0393 127.121 95.0393 126.854C95.0393 126.588 91.2787 124.475 86.6399 124.475C82.001 124.475 78.2405 126.588 78.2405 126.854Z" fill="#E4E4E4"/>
<path d="M80.6714 124.797L78.3313 124.797L77.2178 118.765L80.6718 118.765L80.6714 124.797Z" fill="#FFB8B8"/>
<path d="M81.2679 127.051L73.7217 127.051V126.956C73.7217 126.573 73.7976 126.193 73.9452 125.839C74.0928 125.485 74.3092 125.163 74.5819 124.892C74.8546 124.621 75.1784 124.406 75.5348 124.259C75.8911 124.113 76.2731 124.037 76.6588 124.037H76.6591L81.268 124.037L81.2679 127.051Z" fill="#2F2E41"/>
<path d="M77.1713 121.056L72.5057 110.658C72.1161 109.781 72.0731 108.791 72.385 107.885C72.697 106.978 73.3411 106.222 74.1891 105.766L84.3091 100.373L88.9271 99.9825L93.1869 99.5977L93.2176 99.6493C93.2569 99.7153 94.1728 101.288 93.5537 103.011C93.0841 104.319 91.8625 105.34 89.9231 106.047C85.3961 107.697 80.1666 109.107 78.1283 109.636C78.0382 109.659 77.9541 109.701 77.8813 109.758C77.8086 109.816 77.7489 109.888 77.7062 109.97C77.6634 110.051 77.638 110.14 77.6316 110.232C77.6251 110.323 77.6378 110.415 77.6688 110.501L82.0033 120.18C82.0486 120.302 82.0649 120.434 82.051 120.564C82.037 120.694 81.9932 120.819 81.923 120.929C81.8527 121.04 81.7579 121.133 81.6457 121.201C81.5336 121.27 81.4071 121.311 81.2761 121.323L78.0373 121.558C78.0098 121.56 77.9824 121.562 77.9552 121.562C77.7893 121.562 77.627 121.514 77.4879 121.424C77.3488 121.334 77.2388 121.206 77.1713 121.056Z" fill="#2F2E41"/>
<path d="M82.1985 124.797L79.8584 124.797L78.7449 118.765L82.1989 118.765L82.1985 124.797Z" fill="#FFB8B8"/>
<path d="M82.7952 127.051L75.249 127.051V126.956C75.249 126.573 75.325 126.193 75.4726 125.839C75.6202 125.485 75.8365 125.163 76.1093 124.892C76.382 124.621 76.7058 124.406 77.0621 124.259C77.4185 124.113 77.8004 124.037 78.1861 124.037H78.1864L82.7954 124.037L82.7952 127.051Z" fill="#2F2E41"/>
<path d="M78.8893 121.625L74.2237 111.227C73.8342 110.351 73.7911 109.361 74.1031 108.454C74.415 107.548 75.0591 106.791 75.9071 106.335L86.0271 100.942L90.6451 100.552L93.9816 100.264L93.9811 100.219C94.0204 100.285 94.9363 101.857 94.3172 103.581C93.8476 104.888 93.5805 105.91 91.6411 106.617C87.1141 108.266 81.8846 109.676 79.8463 110.206C79.7563 110.229 79.6721 110.27 79.5993 110.328C79.5266 110.385 79.4669 110.458 79.4242 110.54C79.3815 110.621 79.356 110.71 79.3496 110.801C79.3432 110.893 79.3558 110.984 79.3868 111.071L83.7213 120.749C83.7666 120.872 83.7829 121.003 83.769 121.133C83.7551 121.263 83.7113 121.388 83.641 121.499C83.5708 121.609 83.4759 121.702 83.3637 121.771C83.2516 121.839 83.1251 121.881 82.9942 121.893L79.7553 122.127C79.7278 122.13 79.7005 122.131 79.6732 122.131C79.5073 122.131 79.345 122.083 79.2059 121.993C79.0668 121.904 78.9568 121.776 78.8893 121.625Z" fill="#2F2E41"/>
<path d="M87.6819 100.454C87.4582 100.297 84.2458 101.972 83.6731 100.644C86.3456 94.0036 84.504 91.1363 86.141 87.3285C86.4294 86.6717 86.8637 86.0885 87.4115 85.6225C87.9592 85.1566 88.6062 84.8201 89.3036 84.6384L93.5509 84.4253L93.5729 84.4359C94.5313 84.9024 95.313 85.6635 95.8019 86.6063C96.2908 87.5491 96.4611 88.6233 96.2873 89.6698C96.2722 93.8139 93.7773 96.9745 94.6497 99.9802C94.6863 100.106 94.6969 100.238 94.6811 100.367C94.6652 100.497 94.6231 100.623 94.5573 100.736C94.4935 100.845 94.4078 100.941 94.3055 101.016C94.2032 101.092 94.0865 101.145 93.9625 101.174L88.3543 100.431C88.2233 100.461 88.0872 100.464 87.9549 100.439C87.8227 100.414 87.6975 100.36 87.5876 100.283L87.6819 100.454Z" fill="#B4CCA8"/>
<path d="M92.1329 82.8491C94.7224 82.8491 96.8215 80.7629 96.8215 78.1894C96.8215 75.616 94.7224 73.5298 92.1329 73.5298C89.5435 73.5298 87.4443 75.616 87.4443 78.1894C87.4443 80.7629 89.5435 82.8491 92.1329 82.8491Z" fill="#FFB8B8"/>
<path d="M93.6268 82.4664C93.3777 82.5748 92.8676 80.602 93.0961 80.2075C93.4359 79.6207 93.4158 79.6249 93.6414 79.2367C93.867 78.8485 93.9175 78.3171 93.6254 77.9755C93.3332 77.6339 92.6571 77.6793 92.5238 78.1075C92.6096 77.2941 91.8 76.6402 90.998 76.4564C90.196 76.2726 89.3501 76.3867 88.5437 76.2232C87.6079 76.0334 86.6342 75.2538 87.0075 74.231C87.0716 74.0608 87.1676 73.9041 87.2903 73.7693C87.7217 73.2872 88.3252 73.0814 88.9152 72.8823C90.1427 72.4683 91.4037 72.049 92.6991 72.0947C93.7665 72.1502 94.7944 72.5137 95.6572 73.1407C96.5199 73.7678 97.18 74.6311 97.5567 75.6252C97.646 75.8739 97.7151 76.1293 97.7635 76.3889C98.2082 78.7649 96.8198 81.1087 94.5649 82.0135L93.6268 82.4664Z" fill="#2F2E41"/>
<path d="M24.3712 104.604H31.5356C31.5356 104.909 39.3672 105.156 39.3672 105.156C39.54 105.285 39.6974 105.434 39.8365 105.598C40.2546 106.094 40.4831 106.72 40.4817 107.367V107.809C40.4815 108.542 40.1884 109.245 39.667 109.763C39.1456 110.281 38.4385 110.572 37.7011 110.573H24.3712C23.6339 110.572 22.927 110.281 22.4057 109.762C21.8844 109.244 21.5912 108.542 21.5906 107.809V107.367C21.5916 106.634 21.8849 105.932 22.4061 105.414C22.9274 104.896 23.634 104.605 24.3712 104.604Z" fill="#E4E4E4"/>
<path d="M32.4729 110.463H29.5811V127.052H32.4729V110.463Z" fill="#E4E4E4"/>
<path d="M40.9114 126.744C40.9114 127.055 36.5293 126.864 31.1237 126.864C25.7181 126.864 21.3359 127.055 21.3359 126.744C21.3359 126.434 25.7181 123.971 31.1237 123.971C36.5293 123.971 40.9114 126.434 40.9114 126.744Z" fill="#E4E4E4"/>
<path d="M42.8537 124.849H45.0058L46.0298 116.599L42.8533 116.599L42.8537 124.849Z" fill="#9F616A"/>
<path d="M42.3047 124.15L46.5432 124.15H46.5434C47.2597 124.15 47.9467 124.433 48.4533 124.936C48.9598 125.44 49.2444 126.122 49.2445 126.834V126.922L42.3048 126.922L42.3047 124.15Z" fill="#2F2E41"/>
<path d="M49.215 124.849H51.3673L52.3911 116.599L49.2146 116.599L49.215 124.849Z" fill="#9F616A"/>
<path d="M48.666 124.15L52.9045 124.15H52.9047C53.621 124.15 54.3081 124.433 54.8146 124.936C55.3211 125.44 55.6057 126.122 55.6058 126.834V126.922L48.6661 126.922L48.666 124.15Z" fill="#2F2E41"/>
<path d="M41.7239 98.7375C41.694 98.5016 41.6124 98.2751 41.4848 98.074C41.3573 97.8729 41.1869 97.702 40.9857 97.5733C40.7845 97.4447 40.5574 97.3615 40.3204 97.3295C40.0833 97.2976 39.8421 97.3176 39.6137 97.3884L37.2184 94.5347L35.1184 95.5584L38.558 99.5411C38.703 99.9145 38.9808 100.222 39.3387 100.406C39.6966 100.589 40.1099 100.636 40.5001 100.537C40.8903 100.438 41.2305 100.2 41.456 99.8683C41.6816 99.5366 41.7769 99.1343 41.7239 98.7375Z" fill="#9F616A"/>
<path d="M33.6691 81.811L35.0741 82.3842L35.4143 86.3286L39.1774 96.557L35.9812 97.6143L32.4302 90.7532L33.6691 81.811Z" fill="#E4E4E4"/>
<path d="M30.0209 77.2515C32.0876 77.2515 33.763 75.5864 33.763 73.5325C33.763 71.4785 32.0876 69.8135 30.0209 69.8135C27.9542 69.8135 26.2788 71.4785 26.2788 73.5325C26.2788 75.5864 27.9542 77.2515 30.0209 77.2515Z" fill="#9F616A"/>
<path d="M29.445 71.8021C29.445 71.8021 29.6092 69.5428 31.6351 70.464C33.661 71.3853 33.5288 68.8461 32.9166 68.3974C32.3044 67.9487 32.3238 67.8376 30.0847 68.1379C27.8455 68.4381 23.4983 68.9467 24.904 73.4212C26.3096 77.8956 28.3797 76.7307 28.3797 76.7307C28.3797 76.7307 26.4653 72.7181 27.5974 73.4852L28.7295 74.2523L29.3269 74.1266L29.445 71.8021Z" fill="#2F2E41"/>
<path d="M23.879 99.114C23.879 99.114 22.6234 105.712 27.4008 106.553C32.1781 107.393 39.0743 107.984 39.0743 107.984L42.1711 122.343L46.3317 121.974C46.3317 121.974 45.7783 104.688 44.4176 103.336C43.0568 101.983 36.5867 98.0259 36.5867 98.0259L23.879 99.114Z" fill="#2F2E41"/>
<path d="M33.2097 96.3486L35.2991 98.4318C35.2991 98.4318 50.3856 100.847 50.9676 104.31C51.8463 109.538 52.8842 120.907 52.8842 120.907L48.3483 120.569L46.5696 107.645L39.3121 106.005L31.0552 101.533L33.2097 96.3486Z" fill="#2F2E41"/>
<path d="M33.0932 80.3741L31.8796 78.7749L27.9439 78.7109C26.7162 79.3603 25.6894 80.3293 24.9733 81.5142C24.2573 82.6991 23.879 84.0552 23.879 85.4374V95.5561C23.879 95.5561 23.935 96.9026 23.6386 99.9947C23.383 102.663 37.6694 98.4312 37.6694 98.4312L35.8148 83.4149C35.8148 83.4149 35.9638 81.023 33.0932 80.3741Z" fill="#E4E4E4"/>
<path d="M143.744 127.188H0.190895C0.140267 127.188 0.0917116 127.168 0.0559118 127.132C0.020112 127.096 0 127.048 0 126.998C0 126.948 0.020112 126.899 0.0559118 126.864C0.0917116 126.828 0.140267 126.808 0.190895 126.808H143.744C143.795 126.808 143.843 126.828 143.879 126.864C143.915 126.899 143.935 126.948 143.935 126.998C143.935 127.048 143.915 127.096 143.879 127.132C143.843 127.168 143.795 127.188 143.744 127.188Z" fill="#CACACA"/>
<path d="M73.7266 78.8924C73.5607 77.7813 73.5168 76.6556 73.5959 75.5351L73.7266 73.6807C73.0061 75.1055 73.1689 76.9809 73.7266 78.8924Z" fill="#E5E5E5"/>
<path d="M74.288 79.2023C74.2081 78.5393 74.187 77.8706 74.225 77.2039L74.288 76.1001C73.9413 76.9482 74.0196 78.0645 74.288 79.2023Z" fill="#E5E5E5"/>
<path d="M76.7854 80.5675V81.1879C76.7852 81.2372 76.7654 81.2844 76.7303 81.3193C76.6952 81.3541 76.6477 81.3738 76.5982 81.3741H76.286C76.2778 81.374 76.2697 81.3756 76.2621 81.3787C76.2545 81.3818 76.2476 81.3864 76.2418 81.3922C76.236 81.3979 76.2314 81.4048 76.2283 81.4123C76.2251 81.4198 76.2235 81.4279 76.2236 81.4361V86.5237C76.2233 86.573 76.2035 86.6202 76.1684 86.6551C76.1334 86.6899 76.0859 86.7096 76.0363 86.7098H72.2281C72.1784 86.7098 72.1308 86.6902 72.0957 86.6553C72.0606 86.6204 72.0408 86.5731 72.0408 86.5237V81.4361C72.0407 81.4197 72.0342 81.4039 72.0225 81.3923C72.0108 81.3807 71.9949 81.3741 71.9784 81.3741H71.6038C71.5541 81.374 71.5065 81.3544 71.4714 81.3195C71.4363 81.2846 71.4165 81.2373 71.4165 81.1879V80.5675C71.4165 80.543 71.4213 80.5188 71.4307 80.4962C71.4401 80.4736 71.4539 80.4531 71.4713 80.4358C71.4887 80.4185 71.5093 80.4048 71.5321 80.3955C71.5548 80.3861 71.5792 80.3813 71.6038 80.3813H76.5982C76.6478 80.3815 76.6953 80.4012 76.7304 80.436C76.7655 80.4709 76.7853 80.5182 76.7854 80.5675Z" fill="#3F3D56"/>
<path d="M76.2292 81.5044H72.0464V81.6905H76.2292V81.5044Z" fill="#B4CCA8"/>
<path d="M76.2235 84.243C75.5529 84.5294 74.8307 84.6771 74.1009 84.6771C73.371 84.6771 72.6488 84.5294 71.9783 84.243V82.9317C73.3555 82.472 74.8462 82.472 76.2235 82.9317V84.243Z" fill="#B4CCA8"/>
<path d="M47.9549 83.0657C47.7889 81.9546 47.7451 80.8289 47.8241 79.7084L47.9549 77.854C47.2344 79.2789 47.3972 81.1543 47.9549 83.0657Z" fill="#E5E5E5"/>
<path d="M48.5174 83.3766C48.4375 82.7136 48.4165 82.0449 48.4545 81.3782L48.5174 80.2744C48.1708 81.1226 48.2491 82.2389 48.5174 83.3766Z" fill="#E5E5E5"/>
<path d="M51.0147 84.7413V85.3617C51.0144 85.411 50.9946 85.4582 50.9595 85.4931C50.9245 85.5279 50.877 85.5476 50.8274 85.5479H50.5152C50.507 85.5479 50.4989 85.5494 50.4913 85.5525C50.4837 85.5557 50.4768 85.5602 50.471 85.566C50.4652 85.5718 50.4606 85.5786 50.4575 85.5861C50.4544 85.5937 50.4528 85.6018 50.4528 85.6099V90.6975C50.4526 90.7468 50.4328 90.794 50.3977 90.8289C50.3626 90.8637 50.3151 90.8834 50.2655 90.8837H46.4573C46.4077 90.8836 46.3601 90.864 46.3249 90.8291C46.2898 90.7942 46.2701 90.7469 46.27 90.6975V85.6099C46.27 85.5935 46.2634 85.5777 46.2517 85.5661C46.24 85.5545 46.2242 85.5479 46.2076 85.5479H45.833C45.7834 85.5478 45.7358 85.5282 45.7006 85.4933C45.6655 85.4584 45.6458 85.4111 45.6458 85.3618V84.7413C45.6457 84.7169 45.6505 84.6926 45.6599 84.67C45.6693 84.6474 45.6831 84.6269 45.7005 84.6096C45.7179 84.5923 45.7386 84.5786 45.7613 84.5693C45.7841 84.5599 45.8084 84.5551 45.833 84.5552H50.8274C50.877 84.5553 50.9246 84.575 50.9597 84.6099C50.9948 84.6447 51.0145 84.692 51.0147 84.7413Z" fill="#3F3D56"/>
<path d="M50.4591 85.6777H46.2764V85.8639H50.4591V85.6777Z" fill="#B4CCA8"/>
<path d="M50.453 88.4173C49.7824 88.7037 49.0602 88.8515 48.3304 88.8515C47.6005 88.8515 46.8783 88.7037 46.2078 88.4173V87.106C47.585 86.6463 49.0757 86.6463 50.453 87.106V88.4173Z" fill="#B4CCA8"/>
<path d="M83.2774 93.9794L75.1311 87.5925C75.0662 87.6151 75.0002 87.6345 74.9333 87.6504C74.6458 87.7173 74.3473 87.7232 74.0573 87.668C73.7673 87.6127 73.4922 87.4974 73.25 87.3296C73.0062 87.1616 72.8012 86.9438 72.6489 86.6908C72.4966 86.4378 72.4004 86.1553 72.3668 85.8624C72.3044 85.3331 72.448 84.8002 72.7683 84.3728C73.0885 83.9454 73.5611 83.6559 74.0893 83.5637C74.6174 83.4715 75.161 83.5836 75.6086 83.8769C76.0563 84.1702 76.3741 84.6226 76.4969 85.1413C76.5179 85.232 76.5325 85.3241 76.5406 85.4168L84.6501 90.0663L86.6682 88.9116L88.9038 91.8203L85.7704 94.0398C85.4036 94.2975 84.9629 94.4308 84.5138 94.42C84.0648 94.4091 83.6312 94.2546 83.2774 93.9794Z" fill="#FFB8B8"/>
<path d="M89.8978 92.7264L85.2498 89.5852L87.4341 86.5105C87.7242 86.1022 88.1501 85.809 88.6367 85.6826C89.1233 85.5562 89.6391 85.6049 90.0931 85.8199C90.5523 86.0375 90.9181 86.411 91.1245 86.8731C91.3308 87.3353 91.3641 87.8555 91.2183 88.3399L89.8978 92.7264Z" fill="#B4CCA8"/>
<path d="M48.0821 86.7154C47.8702 86.6049 47.6366 86.542 47.3976 86.531C47.1587 86.52 46.9202 86.5613 46.699 86.6518C46.4778 86.7423 46.2792 86.8799 46.1173 87.055C45.9554 87.23 45.8341 87.4382 45.762 87.6649L42.0367 87.9868L41.6814 90.2844L46.9358 89.7563C47.327 89.8516 47.7397 89.8009 48.0959 89.614C48.452 89.427 48.7267 89.1167 48.868 88.7419C49.0093 88.367 49.0074 87.9537 48.8625 87.5802C48.7177 87.2067 48.44 86.899 48.0821 86.7154H48.0821Z" fill="#9F616A"/>
<path d="M25.8296 83.3456L24.7759 84.1268C24.7759 84.1268 24.1911 85.533 25.337 87.3997C26.4829 89.2664 33.744 93.2017 33.744 93.2017L45.5001 90.2181L43.825 86.9518L35.2587 87.1899C35.2587 87.1899 30.415 81.1892 25.8296 83.3456Z" fill="#E4E4E4"/>
</g>
<defs>
<clipPath id="clip0_318_4180">
<rect width="150" height="127.105" fill="white"/>
</clipPath>
</defs>
</svg>
