<svg width="24" height="24" viewBox="0 0 24 24" fill="none" xmlns="http://www.w3.org/2000/svg">
<path d="M12 8.1588L11.1865 7.02087C10.8624 6.56754 10.5018 6.1889 10.1133 5.88496L10.1132 5.88492C9.354 5.29094 8.5125 5 7.58701 5C6.32229 5 5.17038 5.50825 4.32562 6.43506L12 8.1588ZM12 8.1588L12.8135 7.02091M12 8.1588L12.8135 7.02091M12.8135 7.02091C13.1377 6.56743 13.4982 6.18893 13.8866 5.88497L12.8135 7.02091ZM9.60209 18.9669L9.60215 18.9669L9.60507 18.9695C10.2919 19.5616 11.0753 20.2371 11.8893 20.957L11.89 20.9576C11.9218 20.9858 11.9607 21 12 21C12.0394 21 12.0784 20.9856 12.1098 20.9579L12.1103 20.9574C12.9183 20.2426 13.6966 19.5715 14.38 18.9823L14.3983 18.9665L14.3984 18.9664C16.4354 17.2104 18.0992 15.7719 19.2429 14.3757L19.243 14.3757C20.4871 12.8572 21 11.5077 21 10.0802C21 8.6416 20.5131 7.35561 19.6743 6.43515C18.8295 5.50826 17.6777 5 16.413 5C15.4876 5 14.6461 5.2909 13.8867 5.88487L9.60209 18.9669ZM9.60209 18.9669C7.5648 17.2106 5.90092 15.7719 4.75718 14.3758C3.51301 12.8571 3 11.5076 3 10.0803C3 8.64162 3.48686 7.35561 4.32554 6.43515L9.60209 18.9669Z" stroke="#EF6461" stroke-width="2"/>
</svg>
