<svg width="26" height="23" viewBox="0 0 26 23" fill="none" xmlns="http://www.w3.org/2000/svg">
<mask id="path-1-inside-1_907_4392" fill="white">
<path d="M23.5165 2.20192C22.2224 0.782016 20.4466 0 18.516 0C17.0729 0 15.7513 0.46153 14.5878 1.37166C14.0007 1.83107 13.4688 2.39313 12.9998 3.04915C12.5309 2.39332 11.9988 1.83107 11.4115 1.37166C10.2482 0.46153 8.92661 0 7.48351 0C5.55289 0 3.77696 0.782016 2.48283 2.20192C1.20414 3.60523 0.499756 5.52235 0.499756 7.6004C0.499756 9.73922 1.28768 11.6971 2.97931 13.762C4.4926 15.6091 6.66755 17.4841 9.1862 19.6554C10.0462 20.3969 11.0211 21.2374 12.0333 22.1326C12.3007 22.3696 12.6438 22.5 12.9998 22.5C13.3555 22.5 13.6988 22.3696 13.9658 22.133C14.9781 21.2375 15.9535 20.3967 16.8139 19.6548C19.3322 17.4839 21.5071 15.6091 23.0204 13.7618C24.712 11.6971 25.4998 9.73922 25.4998 7.6002C25.4998 5.52235 24.7954 3.60523 23.5165 2.20192Z"/>
</mask>
<path d="M23.5165 2.20192C22.2224 0.782016 20.4466 0 18.516 0C17.0729 0 15.7513 0.46153 14.5878 1.37166C14.0007 1.83107 13.4688 2.39313 12.9998 3.04915C12.5309 2.39332 11.9988 1.83107 11.4115 1.37166C10.2482 0.46153 8.92661 0 7.48351 0C5.55289 0 3.77696 0.782016 2.48283 2.20192C1.20414 3.60523 0.499756 5.52235 0.499756 7.6004C0.499756 9.73922 1.28768 11.6971 2.97931 13.762C4.4926 15.6091 6.66755 17.4841 9.1862 19.6554C10.0462 20.3969 11.0211 21.2374 12.0333 22.1326C12.3007 22.3696 12.6438 22.5 12.9998 22.5C13.3555 22.5 13.6988 22.3696 13.9658 22.133C14.9781 21.2375 15.9535 20.3967 16.8139 19.6548C19.3322 17.4839 21.5071 15.6091 23.0204 13.7618C24.712 11.6971 25.4998 9.73922 25.4998 7.6002C25.4998 5.52235 24.7954 3.60523 23.5165 2.20192Z" stroke="white" stroke-width="4" mask="url(#path-1-inside-1_907_4392)"/>
</svg>
