<svg width="28" height="25" viewBox="0 0 28 25" fill="none" xmlns="http://www.w3.org/2000/svg">
<path d="M13.9998 5.30516L13.1863 4.16723C12.7372 3.53902 12.2347 3.01044 11.6896 2.58399L11.6895 2.58395C10.6201 1.74726 9.42616 1.33325 8.11584 1.33325C6.3363 1.33325 4.71081 2.05004 3.52094 3.35549L13.9998 5.30516ZM13.9998 5.30516L14.8133 4.16727M13.9998 5.30516L14.8133 4.16727M14.8133 4.16727C15.2626 3.5388 15.765 3.01038 16.31 2.5839C17.3797 1.74722 18.5736 1.33325 19.8838 1.33325C21.6634 1.33325 23.2887 2.05005 24.4786 3.35558C25.6585 4.65025 26.3332 6.44748 26.3332 8.44014C26.3332 10.438 25.6102 12.3096 23.915 14.3787L23.9149 14.3788C22.3677 16.2675 20.1239 18.2061 17.4153 20.5409L17.4152 20.541L17.3911 20.5619C16.4797 21.3477 15.4434 22.2412 14.3677 23.1928L14.3672 23.1933C14.2647 23.2841 14.1341 23.3333 13.9998 23.3333C13.8656 23.3333 13.7352 23.2843 13.6321 23.1929L13.6315 23.1923C12.5479 22.2339 11.5048 21.3347 10.5889 20.5449L10.585 20.5416L10.585 20.5416M14.8133 4.16727L10.585 20.5416M10.585 20.5416C7.87606 18.2063 5.6322 16.2675 4.08492 14.379C2.38963 12.3096 1.6665 10.438 1.6665 8.44034C1.6665 6.44749 2.3412 4.65026 3.52086 3.35558L10.585 20.5416Z" stroke="white" stroke-width="2"/>
</svg>
