<svg width="20" height="18" viewBox="0 0 20 18" fill="none" xmlns="http://www.w3.org/2000/svg">
<path d="M9.99995 4.1588L9.18649 3.02087C8.86242 2.56754 8.50178 2.1889 8.11326 1.88496L8.1132 1.88492C7.354 1.29094 6.5125 1 5.58701 1C4.32229 1 3.17038 1.50825 2.32562 2.43506L9.99995 4.1588ZM9.99995 4.1588L10.8135 3.02091M9.99995 4.1588L10.8135 3.02091M10.8135 3.02091C11.1377 2.56743 11.4982 2.18893 11.8866 1.88497L10.8135 3.02091ZM7.60209 14.9669L7.60215 14.9669L7.60507 14.9695C8.29191 15.5616 9.0753 16.2371 9.88935 16.957L9.89002 16.9576C9.92182 16.9858 9.96067 17 10 17C10.0394 17 10.0784 16.9856 10.1098 16.9579L10.1103 16.9574C10.9183 16.2426 11.6966 15.5715 12.38 14.9823L12.3983 14.9665L12.3984 14.9664C14.4354 13.2104 16.0992 11.7719 17.2429 10.3757L17.243 10.3757C18.4871 8.85716 19 7.50766 19 6.08016C19 4.6416 18.5131 3.35561 17.6743 2.43515C16.8295 1.50826 15.6777 1 14.413 1C13.4876 1 12.6461 1.2909 11.8867 1.88487L7.60209 14.9669ZM7.60209 14.9669C5.5648 13.2106 3.90092 11.7719 2.75718 10.3758C1.51301 8.8571 1 7.50759 1 6.08032C1 4.64162 1.48686 3.35561 2.32554 2.43515L7.60209 14.9669Z" stroke="#EF6461" stroke-width="2"/>
</svg>
