<svg width="26" height="23" viewBox="0 0 26 23" fill="none" xmlns="http://www.w3.org/2000/svg">
<path d="M12.9997 4.76863L12.1862 3.6307C11.7684 3.04621 11.3013 2.55511 10.7954 2.1593L10.7953 2.15926C9.80345 1.38324 8.69763 1 7.48351 1C5.83267 1 4.32558 1.66465 3.22199 2.87544L12.9997 4.76863ZM12.9997 4.76863L13.8132 3.63074M12.9997 4.76863L13.8132 3.63074M13.8132 3.63074C14.2313 3.04606 14.6981 2.55514 15.2039 2.15931L13.8132 3.63074ZM9.83914 18.898L9.83919 18.898L9.84286 18.9012C10.7015 19.6415 11.6796 20.4848 12.6958 21.3836L12.6965 21.3842C12.7818 21.4597 12.8892 21.5 12.9998 21.5C13.1103 21.5 13.218 21.4596 13.3027 21.3845L13.3032 21.384C14.3121 20.4916 15.2839 19.6536 16.1384 18.9169L16.1609 18.8975L16.161 18.8974C18.7016 16.7072 20.8005 14.8937 22.2468 13.1281L22.2469 13.128C23.8293 11.1966 24.4998 9.4555 24.4998 7.6002C24.4998 5.74607 23.872 4.07665 22.7774 2.87554C21.6738 1.66467 20.1668 1 18.516 1C17.302 1 16.1961 1.3832 15.2041 2.1592L9.83914 18.898ZM9.83914 18.898C7.29811 16.7074 5.19924 14.8937 3.75285 13.1282C2.17035 11.1965 1.49976 9.45543 1.49976 7.6004C1.49976 5.74608 2.12749 4.07666 3.22191 2.87554L9.83914 18.898Z" stroke="#2D2B26" stroke-width="2"/>
</svg>
