<svg width="162" height="40" viewBox="0 0 162 40" fill="none" xmlns="http://www.w3.org/2000/svg">
<path d="M46.0274 21.4355C45.7862 20.9283 45.1881 19.6977 43.8792 18.6372C42.4574 17.4844 40.9601 17.1472 40.352 17.0175C39.9495 16.9311 39.6097 16.8893 39.3728 16.8662C39.9951 16.6803 41.621 16.1025 42.8314 14.4713C43.8606 13.0837 44.0405 11.6759 44.1161 11.013C44.1989 10.2897 44.3531 8.75935 43.5451 7.12242C42.8628 5.74053 41.8437 4.98835 41.404 4.67278C40.873 4.29092 40.3106 3.99841 39.4056 3.6641C36.3609 2.54303 33.6146 2.50413 32.6967 2.51133C31.7047 2.51998 30.3272 2.60499 28.6999 2.94362C28.3902 2.63958 27.912 2.21305 27.2725 1.79085C25.0143 0.299451 22.6862 0.149591 20.9918 0.0616921C19.3489 -0.0233248 18.1213 -0.0881682 16.5668 0.349885C15.9373 0.527124 11.0612 1.97673 10.1434 5.96965C10.0778 6.25208 9.46967 9.08357 11.1426 10.7248C12.0519 11.6168 13.3023 11.8315 13.5692 11.8776C14.0688 11.9641 14.8382 12.0851 15.7104 11.7335C15.9873 11.6211 16.7866 11.2854 17.2805 10.4366C17.8686 9.42652 17.9186 7.8746 17.1378 7.26651C16.8851 7.0691 16.4298 6.88178 15.9959 6.97832C15.6604 7.05325 15.6062 7.23914 15.1394 7.41061C14.9767 7.47113 14.5984 7.60514 14.1402 7.55471C14.0217 7.54174 13.2266 7.45384 12.8555 6.83422C12.8027 6.74633 12.6286 6.4322 12.7128 5.68145C12.747 5.36732 12.8655 4.41773 13.5692 3.52001C14.4814 2.35715 15.7803 2.04734 16.8523 1.79085C17.4176 1.6554 18.8564 1.37441 20.5636 1.79085C21.3944 1.99258 22.1952 2.20152 22.7047 2.94362C23.0659 3.46957 23.1287 4.04164 23.133 4.38459C20.1225 10.9856 17.4604 16.6645 15.3578 21.0292C13.7091 20.7165 12.0347 20.3649 10.3347 19.9701C9.99211 19.8908 9.65238 19.8101 9.31408 19.7294C9.01432 19.5911 8.67602 19.6156 8.43907 19.8015C8.24494 19.9542 8.18213 20.1646 8.16215 20.2467C8.11933 20.3634 8.06508 20.5637 8.07793 20.8173C8.08935 21.0364 8.14787 21.2093 8.19355 21.3174C8.26921 21.4009 8.38483 21.5177 8.54042 21.6358C9.07284 22.0436 9.62383 22.1358 9.91217 22.1848C10.6587 22.3131 11.3953 22.4975 12.1432 22.6128C12.6771 22.6949 13.4493 22.8232 14.3943 23.0177C13.5735 24.6186 12.9583 25.9342 12.5144 26.8118C11.9777 27.8723 11.5337 28.7225 11.194 29.3406C10.9314 29.8176 10.1548 31.1908 8.60608 31.9632C6.93885 32.7946 4.68494 32.7903 3.543 31.7168C3.31604 31.5035 2.89352 31.1058 2.89352 30.577C2.89352 30.0352 3.33745 29.8306 3.44023 29.028C3.47306 28.7657 3.51731 28.4271 3.35601 28.1057C3.00629 27.4098 1.91003 27.1619 1.15064 27.4631C0.869437 27.574 0.678162 27.7441 0.585379 27.8363C0.145733 28.2772 0.0772162 28.845 0.042958 29.1692C-0.0812279 30.345 0.502589 31.3983 0.799493 31.8566C1.763 33.3436 3.18757 33.9359 4.14395 34.335C4.51793 34.4907 6.21086 35.1665 8.40053 34.995C8.98434 34.9489 9.4711 34.9114 10.0849 34.6765C11.4438 34.1535 12.1975 33.1333 12.787 32.3134C13.1224 31.8465 13.5635 30.8652 14.4371 28.9271C15.255 27.1129 15.6147 26.3968 16.0344 25.5408C16.4469 24.7007 16.7966 24.0177 17.0293 23.5681C18.167 23.7973 19.3046 24.0264 20.4423 24.2569C21.8297 24.5365 23.2158 24.816 24.6032 25.0956C24.7217 26.1532 24.8816 27.5135 25.0928 29.0957C25.9807 35.7645 26.5531 37.3265 27.8221 38.3308C28.7342 39.0527 29.9661 39.4548 30.026 39.4749C31.2921 39.877 32.4298 39.8482 33.0207 39.828C33.2848 39.8193 33.7858 39.7718 34.7893 39.6767C35.012 39.6551 35.5073 39.6075 36.1454 39.5081C37.0475 39.3669 37.2531 39.2747 37.3787 39.2098C37.637 39.0758 38.2009 38.7818 38.2822 38.2256C38.3308 37.9 38.2194 37.4446 37.8868 37.276C37.5928 37.1262 37.2445 37.2631 37.2117 37.276C37.1032 37.3207 37.0489 37.3683 36.9747 37.4201C36.7149 37.5974 36.4523 37.6363 36.1225 37.6824C35.4274 37.7775 33.9614 37.7833 33.2463 37.289C33.1335 37.2112 32.9337 37.0743 32.8066 36.8207C32.7581 36.7256 32.7281 36.6204 32.6667 36.4115C32.5954 36.1651 32.5526 35.9763 32.5411 35.9215C32.4483 35.5051 32.3698 35.1376 32.3085 34.848C35.523 35.1362 37.9725 34.6823 39.4756 34.2788C41.1014 33.8437 41.9464 33.3811 42.3475 33.1434C42.9713 32.773 44.6257 31.7643 45.7562 29.7701C47.2522 27.1244 47.1879 23.8852 46.0274 21.4355ZM17.9257 21.5681C19.7771 17.4123 21.6299 13.258 23.4813 9.1023C23.8096 13.7192 24.1365 18.3374 24.4648 22.9543C22.2851 22.4917 20.1054 22.0292 17.9257 21.5681ZM30.37 7.1253C30.3971 6.86593 30.4785 6.43075 30.7497 5.97829C31.1565 5.2996 31.7403 5.00132 32.0301 4.85722C32.9765 4.38747 33.8729 4.49554 34.2098 4.54021C35.8042 4.75347 36.7949 5.85293 36.9961 6.09789C38.3151 7.71465 38.1409 9.75794 38.0124 11.2666C37.864 13.0131 37.3144 14.0405 37.0332 14.4973C36.6264 15.1587 36.251 15.4887 36.1668 15.5607C35.2732 16.3316 34.2754 16.4671 33.6816 16.5492C32.504 16.7106 31.5262 16.48 30.9338 16.2826C30.7469 13.2321 30.5584 10.1787 30.37 7.1253ZM39.3685 28.636C39.0916 29.4689 38.6519 30.7398 37.4857 31.8278C37.1332 32.1577 36.4494 32.7802 35.3774 33.0439C34.982 33.1405 34.3939 33.2846 33.6831 33.0814C33.4789 33.0238 32.7367 32.8018 32.2628 32.1361C31.8902 31.613 31.876 31.0871 31.8388 30.2686C31.7546 28.417 31.599 26.5711 31.492 24.7209C31.4634 24.2281 31.4649 24.316 31.4249 23.656C31.3364 22.2136 31.2322 20.1862 31.1608 17.6515C31.9459 17.5305 33.1963 17.4541 34.6237 17.8792C35.2875 18.0766 36.9562 18.5983 38.238 20.1977C39.0616 21.2251 39.3514 22.2309 39.5555 22.9716C39.6825 23.4269 40.3063 25.8189 39.3685 28.636Z" fill="#2D2B26"/>
<path d="M72.7648 12.1741H66.4188L65.2973 14.7223C65.0384 15.3476 64.9042 15.8118 64.9042 16.1244C64.9042 16.257 64.9234 16.3707 64.9713 16.4843C65.0193 16.598 65.1055 16.6928 65.2397 16.778C65.3739 16.8633 65.5657 16.9485 65.8149 17.0054C66.0641 17.0717 66.3901 17.119 66.7927 17.138V17.5832H61.6449V17.138C62.0572 17.0812 62.3831 16.9864 62.6323 16.8727C62.8816 16.7591 63.102 16.5885 63.2842 16.3801C63.4663 16.1717 63.6293 15.9065 63.7827 15.5655C63.936 15.2339 64.1182 14.8265 64.3291 14.3339L70.0999 1.04313H70.5121L76.2063 14.4855C76.4363 15.0444 76.6472 15.4897 76.8485 15.8307C77.0498 16.1717 77.2511 16.437 77.462 16.6264C77.6729 16.8159 77.903 16.9485 78.1427 17.0148C78.3823 17.0812 78.6891 17.1285 79.0342 17.138V17.5832H72.5635V17.138C73.2154 17.119 73.6564 17.0148 73.8864 16.8254C74.1165 16.6454 74.2411 16.418 74.2411 16.1623C74.2315 15.8212 74.0686 15.2623 73.7522 14.4855L72.7648 12.1741ZM72.4197 11.2836L69.6494 4.74712L66.8023 11.2836H72.4197Z" fill="#2D2B26"/>
<path fill-rule="evenodd" clip-rule="evenodd" d="M72.5635 17.138C73.2154 17.119 73.6564 17.0148 73.8864 16.8254C74.1165 16.6454 74.2411 16.418 74.2411 16.1623C74.2315 15.8212 74.0686 15.2623 73.7522 14.4855L72.7648 12.1741H66.4188L65.2973 14.7223C65.0384 15.3476 64.9042 15.8118 64.9042 16.1244C64.9042 16.257 64.9234 16.3707 64.9713 16.4843C65.0193 16.598 65.1055 16.6928 65.2397 16.778C65.3739 16.8633 65.5657 16.9485 65.8149 17.0054C66.0641 17.0717 66.3901 17.119 66.7927 17.138V17.5832H61.6449V17.138C62.0572 17.0812 62.3831 16.9864 62.6323 16.8727C62.8816 16.7591 63.102 16.5885 63.2842 16.3801C63.4663 16.1717 63.6293 15.9065 63.7827 15.5655C63.936 15.2339 64.1182 14.8265 64.3291 14.3339L70.0999 1.04313H70.5121L76.2063 14.4855C76.4363 15.0444 76.6472 15.4897 76.8485 15.8307C77.0498 16.1717 77.2511 16.437 77.462 16.6264C77.6729 16.8159 77.903 16.9485 78.1427 17.0148C78.3823 17.0812 78.6891 17.1285 79.0342 17.138V17.5832H72.5635V17.138ZM65.5275 14.8184C65.2697 15.4416 65.1542 15.8651 65.1542 16.1244C65.1542 16.2312 65.1692 16.3115 65.202 16.3893C65.2258 16.4456 65.2719 16.5048 65.3749 16.5703C65.4827 16.6388 65.6473 16.7137 65.8711 16.7647L65.8799 16.7667C66.1069 16.8271 66.414 16.8729 66.8046 16.8913L67.0426 16.9025V17.8302H61.395V16.9231L61.6104 16.8934C62.0036 16.8392 62.3049 16.75 62.5276 16.6485C62.7414 16.551 62.9338 16.4031 63.095 16.2187C63.2568 16.0336 63.4078 15.7908 63.5543 15.4651L63.5553 15.4628C63.7076 15.1335 63.8888 14.7283 64.0989 14.2377L69.9352 0.796143H70.6784L76.4378 14.3924C76.6658 14.9464 76.8716 15.3796 77.0644 15.7062C77.2588 16.0355 77.4451 16.2774 77.6302 16.4437C77.8174 16.6119 78.014 16.7228 78.21 16.777C78.4277 16.8372 78.7139 16.8821 79.0411 16.8911L79.2841 16.8978V17.8302H72.3136V16.8982L72.5562 16.8911C72.8718 16.8819 73.1267 16.8523 73.325 16.8054C73.5256 16.758 73.6522 16.6967 73.7264 16.6356L73.7312 16.6317C73.9118 16.4904 73.9901 16.3312 73.9912 16.1655C73.9819 15.8732 73.8361 15.3533 73.5211 14.5797L72.5991 12.4211H66.5827L65.5275 14.8184ZM69.6494 4.74712L66.8023 11.2836H72.4197L69.6494 4.74712ZM69.6462 5.37904L67.182 11.0366H72.0441L69.6462 5.37904Z" fill="#2D2B26"/>
<path d="M90.1445 17.5832L83.8272 3.97981V14.7887C83.8272 15.3476 83.8656 15.7833 83.9422 16.096C84.0189 16.4086 84.134 16.6454 84.2873 16.797C84.4407 16.9485 84.6229 17.0433 84.8338 17.0812C85.0446 17.1191 85.2939 17.138 85.5719 17.138H86.147V17.5832H80.4529V17.138H81.0281C81.3156 17.138 81.5649 17.1191 81.7854 17.0717C82.0058 17.0243 82.1784 16.9296 82.3222 16.7685C82.466 16.6075 82.5714 16.3707 82.6481 16.0581C82.7152 15.7454 82.7536 15.3192 82.7536 14.7887V4.21663C82.7536 3.83771 82.7344 3.50615 82.696 3.21248C82.6577 2.91881 82.5714 2.67251 82.4181 2.47358C82.2647 2.27464 82.0442 2.1136 81.7374 2.00939C81.4307 1.90519 80.9993 1.84835 80.4529 1.84835V1.40311H85.083L91.0264 14.0592L96.8643 1.40311H101.494V1.84835H100.938C100.641 1.84835 100.382 1.87677 100.162 1.92413C99.9415 1.9715 99.7689 2.0757 99.6251 2.23675C99.4813 2.38832 99.3759 2.62515 99.2992 2.93776C99.2225 3.25037 99.1937 3.67667 99.1937 4.20716V14.7792C99.1937 15.3381 99.2321 15.7739 99.3088 16.0865C99.3855 16.3991 99.5005 16.6359 99.6539 16.7875C99.8073 16.9391 99.9894 17.0338 100.2 17.0717C100.411 17.1096 100.66 17.1285 100.938 17.1285H101.494V17.5738H94.5445V17.1285H95.1196C95.4072 17.1285 95.6565 17.1096 95.877 17.0527C96.0974 17.0054 96.2796 16.9012 96.4234 16.7401C96.5767 16.5791 96.6822 16.3423 96.7589 16.0391C96.8356 15.736 96.8643 15.3097 96.8643 14.7792V3.97981L90.5567 17.5832H90.1445Z" fill="#2D2B26"/>
<path fill-rule="evenodd" clip-rule="evenodd" d="M89.9842 17.8302L84.0771 5.11016V14.7887C84.0771 15.3401 84.1153 15.7532 84.1851 16.0378C84.2564 16.3284 84.3563 16.5158 84.4641 16.6223C84.582 16.7388 84.7182 16.8094 84.8785 16.8382C85.0708 16.8727 85.3044 16.891 85.5719 16.891H86.397V17.8302H80.203V16.891H81.0281C81.3057 16.891 81.5356 16.8726 81.7323 16.8303C81.9059 16.793 82.0296 16.723 82.1348 16.6051C82.2397 16.4876 82.3322 16.2962 82.4044 16.0033C82.4661 15.7139 82.5036 15.3075 82.5036 14.7887V4.21663C82.5036 3.84566 82.4848 3.52497 82.4482 3.24409C82.4136 2.97906 82.3385 2.77788 82.2192 2.62326C82.0985 2.4667 81.9207 2.33281 81.6562 2.24296C81.3863 2.15127 80.9859 2.09533 80.4529 2.09533H80.203V1.15613H85.2425L91.0244 13.4682L96.7036 1.15613H101.744V2.09533H100.938C100.657 2.09533 100.416 2.12224 100.215 2.16548C100.048 2.20127 99.9224 2.27713 99.8125 2.40016L99.8075 2.40575C99.7074 2.51133 99.6149 2.69905 99.5421 2.99595C99.4728 3.2786 99.4437 3.6804 99.4437 4.20716V14.7792C99.4437 15.3306 99.4819 15.7437 99.5517 16.0283C99.623 16.3189 99.7228 16.5063 99.8306 16.6128C99.9485 16.7293 100.085 16.7999 100.245 16.8287C100.437 16.8632 100.671 16.8815 100.938 16.8815H101.744V17.8207H94.2946V16.8815H95.1196C95.3983 16.8815 95.6232 16.8629 95.8139 16.8138L95.8238 16.8112C95.9944 16.7745 96.1288 16.6967 96.236 16.5767L96.2413 16.5708C96.3519 16.4546 96.444 16.2655 96.5164 15.9792C96.5852 15.7073 96.6144 15.3067 96.6144 14.7792V5.11172L90.7171 17.8302H89.9842ZM96.8643 3.97981V14.7792C96.8643 15.3097 96.8356 15.736 96.7589 16.0391C96.6822 16.3423 96.5767 16.5791 96.4234 16.7401C96.2796 16.9012 96.0974 17.0054 95.877 17.0527C95.6565 17.1096 95.4072 17.1285 95.1196 17.1285H94.5445V17.5738H101.494V17.1285H100.938C100.66 17.1285 100.411 17.1096 100.2 17.0717C99.9894 17.0338 99.8073 16.9391 99.6539 16.7875C99.5005 16.6359 99.3855 16.3991 99.3088 16.0865C99.2321 15.7739 99.1937 15.3381 99.1937 14.7792V4.20716C99.1937 3.67667 99.2225 3.25037 99.2992 2.93776C99.3759 2.62515 99.4813 2.38832 99.6251 2.23675C99.7689 2.0757 99.9415 1.9715 100.162 1.92413C100.382 1.87677 100.641 1.84835 100.938 1.84835H101.494V1.40311H96.8643L91.0264 14.0592L85.083 1.40311H80.4529V1.84835C80.9993 1.84835 81.4307 1.90519 81.7374 2.00939C82.0442 2.1136 82.2647 2.27464 82.4181 2.47358C82.5714 2.67251 82.6577 2.91881 82.696 3.21248C82.7344 3.50615 82.7536 3.83771 82.7536 4.21663V14.7887C82.7536 15.3192 82.7152 15.7454 82.6481 16.0581C82.5714 16.3707 82.466 16.6075 82.3222 16.7685C82.1784 16.9296 82.0058 17.0243 81.7854 17.0717C81.5649 17.1191 81.3156 17.138 81.0281 17.138H80.4529V17.5832H86.147V17.138H85.5719C85.2939 17.138 85.0446 17.1191 84.8338 17.0812C84.6229 17.0433 84.4407 16.9485 84.2873 16.797C84.134 16.6454 84.0189 16.4086 83.9422 16.096C83.8656 15.7833 83.8272 15.3476 83.8272 14.7887V3.97981L90.1445 17.5832H90.5567L96.8643 3.97981Z" fill="#2D2B26"/>
<path d="M107.927 2.29359V8.68796H111.512C112.039 8.68796 112.471 8.64059 112.787 8.54586C113.113 8.45113 113.362 8.30903 113.554 8.11957C113.736 7.9301 113.87 7.6838 113.937 7.39013C114.014 7.09647 114.062 6.74596 114.081 6.33862H114.532V11.9657H114.081C114.023 11.5015 113.956 11.1131 113.87 10.8099C113.793 10.4973 113.669 10.251 113.487 10.071C113.305 9.89104 113.065 9.75842 112.758 9.68263C112.451 9.60685 112.03 9.56896 111.493 9.56896H107.908V14.9118C107.908 15.3192 107.917 15.6318 107.927 15.8686C107.936 16.1054 107.984 16.2854 108.07 16.4086C108.157 16.5317 108.291 16.617 108.464 16.6454C108.636 16.6738 108.904 16.7022 109.259 16.7022H112.03C112.499 16.7022 112.892 16.6928 113.218 16.6643C113.544 16.6454 113.822 16.5886 114.052 16.5222C114.282 16.4559 114.493 16.3517 114.675 16.2286C114.857 16.1054 115.049 15.9444 115.25 15.7549C115.73 15.2907 116.238 14.5518 116.784 13.5287H117.273L115.854 17.5927H103.268V17.1475H103.843C103.996 17.1475 104.159 17.1285 104.332 17.0906C104.504 17.0527 104.658 17.0054 104.811 16.9391C104.965 16.8727 105.099 16.7875 105.214 16.6833C105.329 16.5791 105.415 16.4559 105.463 16.3044C105.559 16.0391 105.607 15.5181 105.607 14.7413V4.22611C105.607 3.19353 105.501 2.55883 105.3 2.32201C105.013 1.99992 104.524 1.83888 103.843 1.83888H103.268V1.40311H115.883V4.94607H115.596C115.471 4.3682 115.346 3.89455 115.212 3.54404C115.078 3.19353 114.886 2.92829 114.666 2.73882C114.436 2.54936 114.148 2.42621 113.793 2.36937C113.439 2.31253 112.988 2.29359 112.432 2.29359H107.927Z" fill="#2D2B26"/>
<path fill-rule="evenodd" clip-rule="evenodd" d="M107.927 2.29359V8.68796H111.512C112.039 8.68796 112.471 8.64059 112.787 8.54586C113.113 8.45113 113.362 8.30903 113.554 8.11957C113.736 7.9301 113.87 7.6838 113.937 7.39013C114.014 7.09647 114.062 6.74596 114.081 6.33862H114.532V11.9657H114.081C114.023 11.5015 113.956 11.1131 113.87 10.8099C113.793 10.4973 113.669 10.251 113.487 10.071C113.305 9.89104 113.065 9.75842 112.758 9.68263C112.451 9.60685 112.03 9.56896 111.493 9.56896H107.908V14.9118C107.908 15.3192 107.917 15.6318 107.927 15.8686C107.936 16.1054 107.984 16.2854 108.07 16.4086C108.157 16.5317 108.291 16.617 108.464 16.6454C108.636 16.6738 108.904 16.7022 109.259 16.7022H112.03C112.499 16.7022 112.892 16.6928 113.218 16.6643C113.544 16.6454 113.822 16.5886 114.052 16.5222C114.282 16.4559 114.493 16.3517 114.675 16.2286C114.857 16.1054 115.049 15.9444 115.25 15.7549C115.73 15.2907 116.238 14.5518 116.784 13.5287H117.273L115.854 17.5927H103.268V17.1475H103.843C103.996 17.1475 104.159 17.1285 104.332 17.0906C104.504 17.0527 104.658 17.0054 104.811 16.9391C104.965 16.8727 105.099 16.7875 105.214 16.6833C105.329 16.5791 105.415 16.4559 105.463 16.3044C105.559 16.0391 105.607 15.5181 105.607 14.7413V4.22611C105.607 3.19353 105.501 2.55883 105.3 2.32201C105.013 1.99992 104.524 1.83888 103.843 1.83888H103.268V1.40311H115.883V4.94607H115.596C115.471 4.3682 115.346 3.89455 115.212 3.54404C115.078 3.19353 114.886 2.92829 114.666 2.73882C114.436 2.54936 114.148 2.42621 113.793 2.36937C113.439 2.31253 112.988 2.29359 112.432 2.29359H107.927ZM108.177 2.54057V8.44097H111.512C112.028 8.44097 112.432 8.39419 112.714 8.30949L112.716 8.3089C113.008 8.22418 113.218 8.10159 113.375 7.94717C113.523 7.79223 113.636 7.58744 113.693 7.33573L113.695 7.32839C113.766 7.05568 113.813 6.72292 113.831 6.32714L113.842 6.09163H114.781V12.2126H113.86L113.833 11.9957C113.776 11.5357 113.711 11.1619 113.629 10.8768L113.627 10.8682C113.558 10.5853 113.45 10.3845 113.31 10.2457C113.164 10.1012 112.966 9.98859 112.697 9.92225C112.42 9.85359 112.021 9.81594 111.493 9.81594H108.157V14.9118C108.157 15.3151 108.167 15.6243 108.176 15.8587C108.185 16.0736 108.228 16.1997 108.276 16.268C108.321 16.3329 108.395 16.3836 108.505 16.4018C108.663 16.4279 108.918 16.4552 109.259 16.4552H112.03C112.497 16.4552 112.881 16.4458 113.196 16.4183L113.204 16.4177C113.508 16.4 113.768 16.347 113.982 16.2851C114.184 16.2268 114.372 16.1347 114.534 16.0247C114.701 15.9121 114.881 15.7612 115.077 15.5773C115.528 15.1395 116.022 14.4274 116.563 13.4134L116.634 13.2817H117.624L116.033 17.8397H103.018V16.9005H103.843C103.976 16.9005 104.12 16.8841 104.278 16.8495C104.437 16.8145 104.575 16.7717 104.711 16.7128C104.841 16.6566 104.952 16.5858 105.045 16.5012C105.132 16.4222 105.191 16.3351 105.225 16.2307L105.228 16.2212C105.307 16.0021 105.357 15.5231 105.357 14.7413V4.22611C105.357 3.71638 105.331 3.31402 105.282 3.01478C105.232 2.70713 105.164 2.54778 105.11 2.48288C104.891 2.23959 104.491 2.08586 103.843 2.08586H103.018V1.15613H116.133V5.19305H115.393L115.351 4.99755C115.227 4.4228 115.106 3.96395 114.978 3.63145C114.858 3.31692 114.69 3.08727 114.504 2.92691C114.314 2.77124 114.071 2.66399 113.753 2.61317C113.419 2.55966 112.986 2.54057 112.432 2.54057H108.177Z" fill="#2D2B26"/>
<path d="M132.774 13.1119L133.167 13.1877L131.758 17.5832H119.085V17.138H119.718C120.389 17.138 120.878 16.9201 121.194 16.4749C121.366 16.2096 121.443 15.6223 121.443 14.7129V4.264C121.443 3.26932 121.328 2.63462 121.098 2.37884C120.782 2.01887 120.322 1.84835 119.708 1.84835H119.075V1.40311H126.495V1.84835C126.054 1.84835 125.68 1.8673 125.383 1.91466C125.086 1.96203 124.846 2.01887 124.654 2.09465C124.463 2.17044 124.309 2.26517 124.204 2.36937C124.098 2.47358 124.003 2.59673 123.935 2.72935C123.82 2.96618 123.753 3.58193 123.753 4.56714V14.7318C123.753 15.2907 123.792 15.6886 123.878 15.9444C123.964 16.1907 124.127 16.3612 124.386 16.4559C124.607 16.5317 125.23 16.5601 126.274 16.5601H127.463C128.729 16.5601 129.61 16.4749 130.109 16.2949C130.358 16.2096 130.598 16.096 130.828 15.9349C131.058 15.7833 131.278 15.5749 131.499 15.3286C131.719 15.0823 131.921 14.7792 132.132 14.4192C132.352 14.0592 132.563 13.6235 132.774 13.1119Z" fill="#2D2B26"/>
<path fill-rule="evenodd" clip-rule="evenodd" d="M132.62 12.8306L133.49 12.9983L131.941 17.8302H118.835V16.891H119.718C120.326 16.891 120.727 16.6985 120.986 16.3374C121.041 16.2506 121.097 16.0828 121.136 15.8019C121.174 15.524 121.193 15.1622 121.193 14.7129V4.264C121.193 3.77421 121.165 3.38305 121.111 3.08819C121.055 2.78458 120.979 2.61829 120.911 2.54293L120.909 2.5408C120.654 2.25055 120.273 2.09533 119.708 2.09533H118.825V1.15613H126.745V2.09533H126.495C126.059 2.09533 125.701 2.11422 125.423 2.15849C125.134 2.2046 124.914 2.25791 124.747 2.32397C124.577 2.39116 124.456 2.4698 124.381 2.54402C124.291 2.63281 124.213 2.73415 124.16 2.83786C124.123 2.91474 124.081 3.08924 124.05 3.39227C124.02 3.6878 124.003 4.07912 124.003 4.56714V14.7318C124.003 15.2873 124.042 15.6499 124.115 15.8649C124.177 16.041 124.285 16.1548 124.47 16.2234C124.543 16.2478 124.719 16.2732 125.034 16.2898C125.342 16.306 125.753 16.3131 126.274 16.3131H127.463C128.73 16.3131 129.571 16.2262 130.023 16.0629L130.027 16.0615C130.258 15.9826 130.476 15.8789 130.683 15.7334L130.689 15.7293C130.894 15.5943 131.098 15.4033 131.312 15.165C131.516 14.9369 131.707 14.6502 131.915 14.2955L131.918 14.2913C132.129 13.9463 132.334 13.5233 132.542 13.0187L132.62 12.8306ZM124.386 16.4559C124.127 16.3612 123.964 16.1907 123.878 15.9444C123.792 15.6886 123.753 15.2907 123.753 14.7318V4.56714C123.753 3.58193 123.82 2.96618 123.935 2.72935C124.003 2.59673 124.098 2.47358 124.204 2.36937C124.309 2.26517 124.463 2.17044 124.654 2.09465C124.846 2.01887 125.086 1.96203 125.383 1.91466C125.68 1.8673 126.054 1.84835 126.495 1.84835V1.40311H119.075V1.84835H119.708C120.322 1.84835 120.782 2.01887 121.098 2.37884C121.328 2.63462 121.443 3.26932 121.443 4.264V14.7129C121.443 15.6223 121.366 16.2096 121.194 16.4749C120.878 16.9201 120.389 17.138 119.718 17.138H119.085V17.5832H131.758L133.167 13.1877L132.774 13.1119C132.563 13.6235 132.352 14.0592 132.132 14.4192C131.921 14.7792 131.719 15.0823 131.499 15.3286C131.278 15.5749 131.058 15.7833 130.828 15.9349C130.598 16.096 130.358 16.2096 130.109 16.2949C129.61 16.4749 128.729 16.5601 127.463 16.5601H126.274C125.23 16.5601 124.607 16.5317 124.386 16.4559Z" fill="#2D2B26"/>
<path d="M142.053 17.138V17.5832H135.046V17.138H135.621C135.909 17.138 136.167 17.1191 136.388 17.0717C136.608 17.0338 136.79 16.9296 136.934 16.7685C137.078 16.6075 137.193 16.3612 137.27 16.0391C137.346 15.717 137.385 15.2718 137.385 14.7129V4.264C137.385 3.89455 137.375 3.59141 137.356 3.34511C137.337 3.0988 137.308 2.89987 137.27 2.7483C137.231 2.59673 137.164 2.47358 137.078 2.37884C136.992 2.29359 136.877 2.20833 136.733 2.12307C136.369 1.93361 136.004 1.83888 135.611 1.83888H135.036V1.40311H142.044V1.84835H141.469C141.181 1.84835 140.922 1.87677 140.702 1.92413C140.481 1.9715 140.299 2.0757 140.155 2.23675C140.011 2.39779 139.896 2.64409 139.82 2.96618C139.743 3.28827 139.705 3.7335 139.705 4.27347V14.7223C139.705 15.1013 139.714 15.4139 139.724 15.6507C139.733 15.8875 139.762 16.0865 139.81 16.238C139.858 16.3896 139.925 16.5128 140.021 16.6075C140.107 16.6928 140.232 16.7875 140.376 16.8633C140.711 17.0527 141.075 17.1475 141.478 17.1475H142.053V17.138Z" fill="#2D2B26"/>
<path fill-rule="evenodd" clip-rule="evenodd" d="M142.303 17.8302H134.796V16.891H135.621C135.899 16.891 136.139 16.8725 136.335 16.8303L136.345 16.8281C136.508 16.8002 136.64 16.7254 136.747 16.6051C136.853 16.4859 136.955 16.2828 137.027 15.9825C137.097 15.6875 137.135 15.264 137.135 14.7129V4.264C137.135 3.8982 137.125 3.60185 137.107 3.36405C137.088 3.12461 137.061 2.94093 137.027 2.8082C136.999 2.6953 136.951 2.61061 136.896 2.54874C136.83 2.48424 136.737 2.41367 136.61 2.33842C136.281 2.16814 135.958 2.08586 135.611 2.08586H134.786V1.15613H142.294V2.09533H141.469C141.197 2.09533 140.956 2.12218 140.755 2.16548C140.584 2.20213 140.45 2.28015 140.343 2.40016C140.236 2.51944 140.134 2.72253 140.063 3.02275C139.993 3.31804 139.955 3.74162 139.955 4.27347V14.7223C139.955 15.0971 139.964 15.4063 139.974 15.6408C139.983 15.8662 140.01 16.0414 140.049 16.1644C140.088 16.2901 140.138 16.3742 140.198 16.4329C140.266 16.5007 140.371 16.5809 140.493 16.6453L140.5 16.6487C140.796 16.8162 141.118 16.9005 141.478 16.9005H142.053V17.138H142.303V17.8302ZM136.733 2.12307C136.877 2.20833 136.992 2.29359 137.078 2.37884C137.164 2.47358 137.231 2.59673 137.27 2.7483C137.308 2.89987 137.337 3.0988 137.356 3.34511C137.375 3.59141 137.385 3.89455 137.385 4.264V14.7129C137.385 15.2718 137.346 15.717 137.27 16.0391C137.193 16.3612 137.078 16.6075 136.934 16.7685C136.79 16.9296 136.608 17.0338 136.388 17.0717C136.167 17.1191 135.909 17.138 135.621 17.138H135.046V17.5832H142.053V17.1475H141.478C141.075 17.1475 140.711 17.0527 140.376 16.8633C140.232 16.7875 140.107 16.6928 140.021 16.6075C139.925 16.5128 139.858 16.3896 139.81 16.238C139.762 16.0865 139.733 15.8875 139.724 15.6507C139.714 15.4139 139.705 15.1013 139.705 14.7223V4.27347C139.705 3.7335 139.743 3.28827 139.82 2.96618C139.896 2.64409 140.011 2.39779 140.155 2.23675C140.299 2.0757 140.481 1.9715 140.702 1.92413C140.922 1.87677 141.181 1.84835 141.469 1.84835H142.044V1.40311H135.036V1.83888H135.611C136.004 1.83888 136.369 1.93361 136.733 2.12307Z" fill="#2D2B26"/>
<path d="M154.717 12.1741H148.371L147.249 14.7223C146.981 15.3476 146.856 15.8212 146.856 16.1244C146.856 16.257 146.875 16.3707 146.923 16.4843C146.971 16.598 147.057 16.6928 147.191 16.778C147.326 16.8633 147.517 16.9485 147.767 17.0054C148.016 17.0717 148.342 17.119 148.744 17.138V17.5832H143.606V17.138C144.018 17.0812 144.344 16.9864 144.594 16.8727C144.843 16.7591 145.063 16.5885 145.245 16.3801C145.428 16.1717 145.591 15.9065 145.744 15.5655C145.897 15.2339 146.079 14.8265 146.29 14.3339L152.052 1.04313H152.464L158.158 14.4855C158.388 15.0444 158.599 15.4897 158.8 15.8307C159.002 16.1717 159.203 16.437 159.414 16.6264C159.625 16.8159 159.855 16.9485 160.094 17.0148C160.334 17.0812 160.641 17.1285 160.986 17.138V17.5832H154.515V17.138C155.167 17.119 155.608 17.0148 155.838 16.8254C156.068 16.6454 156.193 16.418 156.193 16.1623C156.183 15.8212 156.02 15.2623 155.704 14.4855L154.717 12.1741ZM154.381 11.2836L151.611 4.74712L148.764 11.2836H154.381Z" fill="#2D2B26"/>
<path fill-rule="evenodd" clip-rule="evenodd" d="M154.515 17.138C155.167 17.119 155.608 17.0148 155.838 16.8254C156.068 16.6454 156.193 16.418 156.193 16.1623C156.183 15.8212 156.02 15.2623 155.704 14.4855L154.717 12.1741H148.371L147.249 14.7223C146.981 15.3476 146.856 15.8212 146.856 16.1244C146.856 16.257 146.875 16.3707 146.923 16.4843C146.971 16.598 147.057 16.6928 147.191 16.778C147.326 16.8633 147.517 16.9485 147.767 17.0054C148.016 17.0717 148.342 17.119 148.744 17.138V17.5832H143.606V17.138C144.018 17.0812 144.344 16.9864 144.594 16.8727C144.843 16.7591 145.063 16.5885 145.245 16.3801C145.428 16.1717 145.591 15.9065 145.744 15.5655C145.897 15.2339 146.079 14.8265 146.29 14.3339L152.052 1.04313H152.464L158.158 14.4855C158.388 15.0444 158.599 15.4897 158.8 15.8307C159.002 16.1717 159.203 16.437 159.414 16.6264C159.625 16.8159 159.855 16.9485 160.094 17.0148C160.334 17.0812 160.641 17.1285 160.986 17.138V17.5832H154.515V17.138ZM147.479 14.8198C147.213 15.4376 147.106 15.873 147.106 16.1244C147.106 16.2312 147.121 16.3115 147.154 16.3893C147.177 16.4456 147.224 16.5048 147.327 16.5703C147.434 16.6388 147.599 16.7137 147.823 16.7647L147.832 16.7667C148.059 16.8271 148.366 16.8729 148.756 16.8913L148.994 16.9025V17.8302H143.356V16.9231L143.572 16.8934C143.965 16.8392 144.266 16.75 144.489 16.6485C144.703 16.551 144.895 16.4031 145.056 16.2187C145.218 16.0336 145.369 15.7908 145.516 15.4651L145.517 15.4628C145.669 15.1335 145.85 14.7283 146.06 14.2377L151.887 0.796143H152.63L158.389 14.3924C158.617 14.9464 158.823 15.3796 159.016 15.7062C159.21 16.0355 159.397 16.2774 159.582 16.4437C159.769 16.6119 159.966 16.7228 160.162 16.777C160.379 16.8372 160.666 16.8821 160.993 16.8911L161.236 16.8978V17.8302H154.265V16.8982L154.508 16.8911C154.823 16.8819 155.078 16.8523 155.277 16.8054C155.477 16.758 155.604 16.6967 155.678 16.6356L155.683 16.6317C155.863 16.4904 155.942 16.3312 155.943 16.1655C155.934 15.8732 155.788 15.3533 155.473 14.5797L154.551 12.4211H148.534L147.479 14.8198ZM151.611 4.74712L148.764 11.2836H154.381L151.611 4.74712ZM151.607 5.37904L149.143 11.0366H154.005L151.607 5.37904Z" fill="#2D2B26"/>
<path d="M72.7486 30.2748C73.41 30.4169 73.9756 30.6158 74.4549 30.8621C74.9342 31.1084 75.3176 31.4021 75.6052 31.7336C75.9024 32.0652 76.1133 32.4346 76.2571 32.842C76.3913 33.2493 76.468 33.6661 76.468 34.1114C76.468 34.5187 76.4009 34.9166 76.2667 35.305C76.1325 35.6934 75.9407 36.0723 75.7011 36.4228C75.4518 36.7733 75.1547 37.0859 74.7904 37.3701C74.4261 37.6449 74.0235 37.8817 73.5634 38.0522C72.7006 38.3838 71.3298 38.5543 69.4701 38.5543H61.7245V38.109H62.338C62.616 38.109 62.8653 38.0901 63.0762 38.0333C63.2967 37.9859 63.4788 37.8817 63.6226 37.7112C63.776 37.5407 63.891 37.3038 63.9677 36.9817C64.0444 36.6597 64.0827 36.2239 64.0827 35.6839V25.2161C64.0827 24.6477 64.0444 24.2025 63.9581 23.8804C63.8718 23.5583 63.7568 23.3215 63.5938 23.1604C63.4405 22.9994 63.2487 22.8952 63.0378 22.8573C62.8269 22.8194 62.5873 22.791 62.338 22.791H61.7245V22.3457H68.7991C71.071 22.3457 72.7965 22.7247 73.966 23.4825C75.1355 24.2404 75.7299 25.3108 75.7299 26.675C75.7299 27.4991 75.4806 28.2191 74.9725 28.8633C74.4645 29.498 73.7263 29.9716 72.7486 30.2748ZM66.4121 29.6401C66.7093 29.6969 67.0544 29.7443 67.4283 29.7727C67.8117 29.8011 68.2239 29.82 68.684 29.82C70.2849 29.82 71.4353 29.5359 72.1351 28.9675C72.8348 28.3991 73.1799 27.6033 73.1799 26.5992C73.1799 26.135 73.0841 25.6898 72.8828 25.2729C72.6815 24.8466 72.3939 24.4867 72.0104 24.1741C71.627 23.8614 71.1477 23.6151 70.5725 23.4351C69.9973 23.2552 69.3359 23.1604 68.5786 23.1604C67.7638 23.1604 67.0352 23.2457 66.4121 23.4257V29.6401ZM66.4121 37.3701C67.3228 37.588 68.2431 37.6922 69.1729 37.6922C69.9111 37.6922 70.5533 37.607 71.1189 37.427C71.6845 37.247 72.1542 37.0102 72.5281 36.707C72.9019 36.4039 73.1799 36.0439 73.3717 35.6366C73.5634 35.2292 73.6592 34.7934 73.6592 34.3293C73.6592 33.8177 73.5538 33.3346 73.3525 32.8893C73.1512 32.4346 72.8348 32.0462 72.4035 31.7147C71.9721 31.3831 71.4449 31.1179 70.793 30.9284C70.1507 30.7389 69.3934 30.6442 68.5307 30.6442C68.0226 30.6442 67.6008 30.6537 67.2461 30.6632C66.901 30.6726 66.6135 30.701 66.4026 30.7484V37.3701H66.4121Z" fill="#2D2B26"/>
<path fill-rule="evenodd" clip-rule="evenodd" d="M63.5938 23.1604C63.4405 22.9994 63.2487 22.8952 63.0378 22.8573C62.8269 22.8194 62.5873 22.791 62.338 22.791H61.7245V22.3457H68.7991C71.071 22.3457 72.7965 22.7247 73.966 23.4825C75.1355 24.2404 75.7299 25.3108 75.7299 26.675C75.7299 27.4991 75.4806 28.2191 74.9725 28.8633C74.5423 29.4008 73.947 29.8228 73.1809 30.1235C73.0424 30.1779 72.8983 30.2283 72.7486 30.2748C72.9025 30.3078 73.0513 30.344 73.1951 30.3831C73.6687 30.512 74.0872 30.6731 74.4549 30.8621C74.9342 31.1084 75.3176 31.4021 75.6052 31.7336C75.9024 32.0652 76.1133 32.4346 76.2571 32.842C76.3913 33.2493 76.468 33.6661 76.468 34.1114C76.468 34.5187 76.4009 34.9166 76.2667 35.305C76.1325 35.6934 75.9407 36.0723 75.7011 36.4228C75.4518 36.7733 75.1547 37.0859 74.7904 37.3701C74.4261 37.6449 74.0235 37.8817 73.5634 38.0522C72.7006 38.3838 71.3298 38.5543 69.4701 38.5543H61.7245V38.109H62.338C62.616 38.109 62.8653 38.0901 63.0762 38.0333C63.2967 37.9859 63.4788 37.8817 63.6226 37.7112C63.776 37.5407 63.891 37.3038 63.9677 36.9817C64.0444 36.6597 64.0827 36.2239 64.0827 35.6839V25.2161C64.0827 24.6477 64.0444 24.2025 63.9581 23.8804C63.8718 23.5583 63.7568 23.3215 63.5938 23.1604ZM73.6526 38.2829C72.7446 38.6315 71.3356 38.8013 69.4701 38.8013H61.4746V37.8621H62.338C62.6077 37.8621 62.8311 37.8433 63.0104 37.795L63.023 37.7916C63.1928 37.7551 63.3248 37.6786 63.4306 37.5531L63.4357 37.547C63.5533 37.4163 63.6539 37.2212 63.7244 36.9252C63.7948 36.6297 63.8328 36.2154 63.8328 35.6839V25.2161C63.8328 24.6541 63.7944 24.2344 63.7165 23.9436C63.6354 23.6407 63.5354 23.452 63.4171 23.3351L63.4118 23.3298C63.2935 23.2056 63.1494 23.1284 62.9931 23.1003C62.7929 23.0643 62.5686 23.038 62.338 23.038H61.4746V22.0988H68.7991C71.092 22.0988 72.8746 22.4799 74.1031 23.276C75.3414 24.0784 75.9798 25.2257 75.9798 26.675C75.9798 27.5536 75.7123 28.3271 75.1697 29.0151L75.1686 29.0165C74.763 29.5232 74.2251 29.9283 73.5587 30.2322C73.9285 30.3487 74.2651 30.4862 74.5702 30.643C75.0723 30.901 75.4822 31.2127 75.7937 31.5714C76.1132 31.9283 76.3396 32.3258 76.4931 32.7606L76.4948 32.7655C76.6361 33.1944 76.7179 33.6371 76.7179 34.1114C76.7179 34.5461 76.6462 34.9709 76.5032 35.3848C76.3616 35.7945 76.1598 36.193 75.9082 36.5611L75.9056 36.5648C75.6423 36.9352 75.3283 37.2652 74.9453 37.564L74.9421 37.5665C74.5624 37.8528 74.139 38.1025 73.6526 38.2829ZM66.4121 29.6401C66.7093 29.6969 67.0544 29.7443 67.4283 29.7727C67.8117 29.8011 68.2239 29.82 68.684 29.82C70.2849 29.82 71.4353 29.5359 72.1351 28.9675C72.8348 28.3991 73.1799 27.6033 73.1799 26.5992C73.1799 26.135 73.0841 25.6898 72.8828 25.2729C72.6815 24.8466 72.3939 24.4867 72.0104 24.1741C71.627 23.8614 71.1477 23.6151 70.5725 23.4351C69.9973 23.2552 69.3359 23.1604 68.5786 23.1604C67.7638 23.1604 67.0352 23.2457 66.4121 23.4257V29.6401ZM66.6621 23.6143C67.2168 23.4753 67.8593 23.4074 68.5786 23.4074C69.3151 23.4074 69.9505 23.4996 70.4971 23.6706C71.0481 23.843 71.4973 24.0759 71.8514 24.3646C72.2081 24.6554 72.4717 24.9865 72.6563 25.3774L72.6572 25.3793C72.8415 25.7609 72.93 26.1695 72.93 26.5992C72.93 27.5414 72.6096 28.2623 71.9764 28.7767C71.3446 29.2898 70.2669 29.5731 68.6841 29.5731C68.2311 29.5731 67.8252 29.5544 67.447 29.5264C67.1649 29.5049 66.9006 29.4725 66.6621 29.4334V23.6143ZM66.4121 37.3701H66.4026V30.7484C66.6135 30.701 66.901 30.6726 67.2461 30.6632C67.6008 30.6537 68.0226 30.6442 68.5307 30.6442C69.3934 30.6442 70.1507 30.7389 70.793 30.9284C71.4449 31.1179 71.9721 31.3831 72.4035 31.7147C72.8348 32.0462 73.1512 32.4346 73.3525 32.8893C73.5538 33.3346 73.6592 33.8177 73.6592 34.3293C73.6592 34.7934 73.5634 35.2292 73.3717 35.6366C73.1799 36.0439 72.9019 36.4039 72.5281 36.707C72.1542 37.0102 71.6845 37.247 71.1189 37.427C70.5533 37.607 69.9111 37.6922 69.1729 37.6922C68.2431 37.6922 67.3228 37.588 66.4121 37.3701ZM67.2529 30.91C67.0182 30.9165 66.8167 30.9318 66.6525 30.9548V37.172C67.484 37.3566 68.324 37.4452 69.1729 37.4452C69.8921 37.4452 70.5074 37.3621 71.0423 37.1919C71.5861 37.0188 72.0257 36.7949 72.3695 36.5161C72.7143 36.2365 72.9691 35.9062 73.145 35.5324C73.3209 35.1588 73.4093 34.7587 73.4093 34.3293C73.4093 33.852 73.3111 33.4032 73.1243 32.9901L73.1235 32.9883C72.9407 32.5755 72.6523 32.2188 72.25 31.9096C71.8464 31.5994 71.3482 31.3472 70.7225 31.1654C70.1091 30.9844 69.3759 30.8912 68.5307 30.8912C68.0258 30.8912 67.6066 30.9006 67.2529 30.91Z" fill="#2D2B26"/>
<path d="M90.8184 33.1262H84.4628L83.3412 35.6744C83.0728 36.3091 82.9482 36.7733 82.9482 37.0859C82.9482 37.2186 82.9674 37.3322 83.0153 37.4459C83.0536 37.5501 83.1495 37.6543 83.2837 37.7396C83.4179 37.8248 83.6096 37.9101 83.8589 37.9669C84.1081 38.0333 84.434 38.0806 84.8462 38.0996V38.5448H79.6889V38.0996C80.1011 38.0427 80.4271 37.948 80.6859 37.8343C80.9351 37.7112 81.1556 37.5501 81.3377 37.3417C81.5199 37.1333 81.6828 36.8586 81.8362 36.527C81.9896 36.1955 82.1717 35.7881 82.3826 35.2955L88.1439 21.9858H88.5561L94.2598 35.4471C94.4899 36.006 94.7008 36.4512 94.9021 36.7923C95.1034 37.1333 95.3047 37.3986 95.5156 37.588C95.7265 37.7775 95.9566 37.9101 96.2058 37.9764C96.455 38.0427 96.7522 38.0901 97.0973 38.0996V38.5448H90.6171V38.0996C91.2689 38.0806 91.7099 37.9764 91.94 37.7869C92.17 37.607 92.2947 37.3796 92.2947 37.1144C92.2851 36.7733 92.1221 36.2144 91.8058 35.4376L90.8184 33.1262ZM90.4733 32.2357L87.6933 25.6898L84.8462 32.2357H90.4733Z" fill="#2D2B26"/>
<path fill-rule="evenodd" clip-rule="evenodd" d="M90.6171 38.0996C91.2689 38.0806 91.7099 37.9764 91.94 37.7869C92.17 37.607 92.2947 37.3796 92.2947 37.1144C92.2851 36.7733 92.1221 36.2144 91.8058 35.4376L90.8184 33.1262H84.4628L83.3412 35.6744C83.0728 36.3091 82.9482 36.7733 82.9482 37.0859C82.9482 37.2186 82.9674 37.3322 83.0153 37.4459C83.0536 37.5501 83.1495 37.6543 83.2837 37.7396C83.4179 37.8248 83.6096 37.9101 83.8589 37.9669C84.1081 38.0333 84.434 38.0806 84.8462 38.0996V38.5448H79.6889V38.0996C80.1011 38.0427 80.4271 37.948 80.6859 37.8343C80.9351 37.7112 81.1556 37.5501 81.3377 37.3417C81.5199 37.1333 81.6828 36.8586 81.8362 36.527C81.9896 36.1955 82.1717 35.7881 82.3826 35.2955L88.1439 21.9858H88.5561L94.2598 35.4471C94.4899 36.006 94.7008 36.4512 94.9021 36.7923C95.1034 37.1333 95.3047 37.3986 95.5156 37.588C95.7265 37.7775 95.9566 37.9101 96.2058 37.9764C96.455 38.0427 96.7522 38.0901 97.0973 38.0996V38.5448H90.6171V38.0996ZM80.5792 37.6109C80.8006 37.5008 80.9918 37.3596 81.1486 37.1803C81.3093 36.9964 81.4607 36.7447 81.6089 36.4243C81.7612 36.0951 81.9424 35.6899 82.1524 35.1993L87.9789 21.7388H88.7224L94.4913 35.354C94.7194 35.908 94.9252 36.3412 95.118 36.6678C95.3123 36.9971 95.4987 37.239 95.6837 37.4053C95.8704 37.573 96.0662 37.6835 96.2708 37.7379C96.5007 37.7991 96.7783 37.8437 97.1042 37.8527L97.3472 37.8593V38.7918H90.3672V37.8597L90.6097 37.8527C90.9253 37.8435 91.1802 37.8139 91.3786 37.767C91.5791 37.7196 91.7058 37.6583 91.78 37.5972L91.7848 37.5932C91.964 37.453 92.0437 37.2942 92.0447 37.1177C92.0354 36.8254 91.8896 36.3054 91.5747 35.5317L90.6526 33.3732H84.6266L83.5711 35.7713C83.3055 36.3997 83.1981 36.8253 83.1981 37.0859C83.1981 37.1928 83.2132 37.2731 83.246 37.3509L83.2504 37.3614C83.2634 37.3966 83.3109 37.4632 83.4189 37.5318C83.5267 37.6003 83.6912 37.6752 83.9151 37.7263L83.9239 37.7283C84.1506 37.7886 84.4576 37.8344 84.8579 37.8528L85.0962 37.8638V38.7918H79.439V37.8846L79.6544 37.8549C80.0439 37.8012 80.3453 37.713 80.5792 37.6109ZM87.6933 25.6898L84.8462 32.2357H90.4733L87.6933 25.6898ZM87.6906 26.3215L85.2257 31.9887H90.0974L87.6906 26.3215Z" fill="#2D2B26"/>
<path d="M106.425 29.5643L112.473 35.5039C112.981 36.006 113.432 36.4133 113.844 36.7449C114.256 37.0765 114.64 37.3322 114.995 37.5312C115.359 37.7301 115.704 37.8722 116.049 37.9575C116.394 38.0427 116.739 38.0996 117.104 38.109V38.5543H109.31V38.109C109.828 38.109 110.173 38.0238 110.355 37.8438C110.537 37.6638 110.623 37.4743 110.623 37.2754C110.623 37.1901 110.614 37.1144 110.604 37.048C110.595 36.9817 110.556 36.906 110.508 36.8207C110.451 36.7354 110.365 36.6312 110.249 36.4986C110.125 36.366 109.971 36.2049 109.761 35.9965L104.095 30.4547V35.6839C104.095 36.0628 104.105 36.3755 104.124 36.6123C104.143 36.8491 104.172 37.048 104.21 37.1996C104.249 37.3512 104.316 37.4743 104.412 37.5691C104.498 37.6543 104.622 37.7491 104.766 37.8248C105.111 38.0143 105.485 38.109 105.869 38.109H106.425V38.5543H99.4459V38.109H100.021C100.692 38.109 101.191 37.9101 101.497 37.5217C101.689 37.2565 101.785 36.6502 101.785 35.6839V25.2161C101.785 24.8561 101.775 24.5625 101.766 24.3162C101.756 24.0698 101.727 23.8709 101.679 23.7193C101.632 23.5678 101.564 23.4351 101.478 23.3404C101.392 23.2362 101.277 23.151 101.133 23.0846C100.75 22.8952 100.376 22.8004 100.011 22.8004H99.4363V22.3457H106.415V22.791H105.859C105.562 22.791 105.246 22.8573 104.91 22.9899C104.574 23.1225 104.354 23.3404 104.229 23.653C104.134 23.9183 104.086 24.4393 104.086 25.2256V30.18C104.095 30.1706 104.181 30.0948 104.325 29.9527C104.479 29.82 104.642 29.6685 104.833 29.498C105.015 29.3274 105.198 29.1664 105.37 28.9959C105.543 28.8254 105.667 28.7212 105.744 28.6548C106.626 27.8591 107.364 27.177 107.968 26.6087C108.572 26.0403 109.051 25.5571 109.415 25.1593C109.78 24.7614 110.039 24.4298 110.192 24.1646C110.345 23.8993 110.422 23.672 110.422 23.492C110.422 23.3025 110.336 23.1415 110.173 22.9994C110 22.8668 109.713 22.791 109.31 22.791H108.927V22.3457H114.956V22.791C114.736 22.8004 114.515 22.8194 114.295 22.8573C114.074 22.8857 113.825 22.9615 113.557 23.0846C113.288 23.2078 112.972 23.3878 112.627 23.6341C112.282 23.8804 111.86 24.2309 111.381 24.6667C111.285 24.7519 111.036 24.9982 110.642 25.4056C110.249 25.8129 109.674 26.3813 108.927 27.1107L106.425 29.5643Z" fill="#2D2B26"/>
<path fill-rule="evenodd" clip-rule="evenodd" d="M114.956 22.791C114.736 22.8004 114.515 22.8194 114.295 22.8573C114.074 22.8857 113.825 22.9615 113.557 23.0846C113.288 23.2078 112.972 23.3878 112.627 23.6341C112.282 23.8804 111.86 24.2309 111.381 24.6667C111.285 24.7519 111.036 24.9982 110.642 25.4056C110.249 25.8129 109.674 26.3813 108.927 27.1107L106.425 29.5643L112.473 35.5039C112.981 36.006 113.432 36.4133 113.844 36.7449C114.256 37.0765 114.64 37.3322 114.995 37.5312C115.359 37.7301 115.704 37.8722 116.049 37.9575C116.394 38.0427 116.739 38.0996 117.104 38.109V38.5543H109.31V38.109C109.828 38.109 110.173 38.0238 110.355 37.8438C110.537 37.6638 110.623 37.4743 110.623 37.2754C110.623 37.1901 110.614 37.1144 110.604 37.048C110.595 36.9817 110.556 36.906 110.508 36.8207C110.451 36.7354 110.365 36.6312 110.249 36.4986C110.125 36.366 109.971 36.2049 109.761 35.9965L104.095 30.4547V35.6839C104.095 36.0628 104.105 36.3755 104.124 36.6123C104.143 36.8491 104.172 37.048 104.21 37.1996C104.249 37.3512 104.316 37.4743 104.412 37.5691C104.498 37.6543 104.622 37.7491 104.766 37.8248C105.111 38.0143 105.485 38.109 105.869 38.109H106.425V38.5543H99.4459V38.109H100.021C100.692 38.109 101.191 37.9101 101.497 37.5217C101.689 37.2565 101.785 36.6502 101.785 35.6839V25.2161C101.785 24.8561 101.775 24.5625 101.766 24.3162C101.756 24.0698 101.727 23.8709 101.679 23.7193C101.632 23.5678 101.564 23.4351 101.478 23.3404C101.392 23.2362 101.277 23.151 101.133 23.0846C100.75 22.8952 100.376 22.8004 100.011 22.8004H99.4363V22.3457H106.415V22.791H105.859C105.562 22.791 105.246 22.8573 104.91 22.9899C104.574 23.1225 104.354 23.3404 104.229 23.653C104.134 23.9183 104.086 24.4393 104.086 25.2256V30.18C104.088 30.1781 104.093 30.1733 104.101 30.1658C104.108 30.1594 104.117 30.1508 104.129 30.1403C104.169 30.1031 104.236 30.0406 104.325 29.9527C104.329 29.9497 104.332 29.9467 104.336 29.9438C104.423 29.8676 104.514 29.7853 104.612 29.6968C104.682 29.6337 104.755 29.5674 104.833 29.498C104.895 29.4398 104.958 29.3827 105.019 29.3259C105.139 29.2164 105.256 29.1082 105.37 28.9959C105.523 28.8452 105.638 28.7463 105.715 28.6796C105.725 28.6708 105.735 28.6626 105.744 28.6548C106.626 27.8591 107.364 27.177 107.968 26.6087C108.572 26.0403 109.051 25.5571 109.415 25.1593C109.78 24.7614 110.039 24.4298 110.192 24.1646C110.345 23.8993 110.422 23.672 110.422 23.492C110.422 23.3025 110.336 23.1415 110.173 22.9994C110 22.8668 109.713 22.791 109.31 22.791H108.927V22.3457H114.956V22.791ZM110.014 23.19C110.131 23.2945 110.172 23.3907 110.172 23.492C110.172 23.6095 110.119 23.7924 109.975 24.042C109.835 24.2844 109.59 24.6006 109.23 24.9936C108.871 25.3857 108.396 25.8643 107.796 26.4298C107.193 26.9965 106.457 27.6768 105.577 28.4707C105.569 28.4777 105.561 28.4852 105.551 28.4933C105.473 28.5603 105.352 28.6643 105.193 28.8212C105.083 28.9306 104.971 29.0333 104.854 29.1406C104.792 29.1974 104.729 29.2555 104.664 29.3165C104.583 29.3886 104.509 29.4552 104.44 29.5178C104.404 29.5502 104.369 29.5816 104.336 29.612V25.2256C104.336 24.4385 104.385 23.9605 104.463 23.7398C104.562 23.4951 104.73 23.3271 105.003 23.2192C105.315 23.0958 105.6 23.038 105.859 23.038H106.665V22.0988H99.1864V23.0474H100.011C100.331 23.0474 100.666 23.1302 101.021 23.3056L101.027 23.3085C101.143 23.3617 101.226 23.4257 101.285 23.4968L101.292 23.5056C101.346 23.565 101.399 23.6615 101.441 23.793C101.48 23.9156 101.507 24.0905 101.516 24.3256C101.526 24.5705 101.535 24.8606 101.535 25.2161V35.6839C101.535 36.1605 101.511 36.5398 101.466 36.8279C101.42 37.1188 101.357 37.2887 101.297 37.3743C101.052 37.681 100.64 37.8621 100.021 37.8621H99.196V38.8013H106.675V37.8621H105.869C105.528 37.8621 105.196 37.7781 104.888 37.6089L104.884 37.6069C104.762 37.5425 104.657 37.4623 104.588 37.3944C104.529 37.3363 104.482 37.2552 104.453 37.1397C104.419 37.0067 104.392 36.8228 104.373 36.5926C104.355 36.365 104.345 36.0597 104.345 35.6839V31.0467L109.584 36.1712C109.79 36.3746 109.94 36.5326 110.063 36.6631C110.172 36.7893 110.247 36.88 110.295 36.9497C110.342 37.0338 110.355 37.0692 110.357 37.083C110.366 37.1463 110.373 37.2081 110.373 37.2754C110.373 37.3951 110.324 37.5248 110.178 37.6692C110.073 37.7731 109.822 37.8621 109.31 37.8621H109.06V38.8013H117.353V37.8685L117.11 37.8621C116.768 37.8533 116.442 37.7999 116.11 37.7179C115.791 37.639 115.466 37.5065 115.117 37.3157C114.775 37.1241 114.404 36.8764 114.002 36.5534C113.598 36.2285 113.154 35.8272 112.65 35.3293L106.779 29.5644L109.102 27.2865C109.85 26.5573 110.427 25.9863 110.823 25.576C111.218 25.1675 111.46 24.9281 111.548 24.8502L111.55 24.8484C112.026 24.4159 112.439 24.0726 112.773 23.8343C113.107 23.5963 113.409 23.4246 113.662 23.3087C113.913 23.1933 114.138 23.1266 114.327 23.1022L114.338 23.1006C114.544 23.0651 114.754 23.0469 114.967 23.0377L115.206 23.0275V22.0988H108.677V23.038H109.31C109.684 23.038 109.904 23.1089 110.014 23.19Z" fill="#2D2B26"/>
<path d="M129.901 33.1262H123.545L122.424 35.6744C122.155 36.3091 122.031 36.7733 122.031 37.0859C122.031 37.2186 122.05 37.3322 122.098 37.4459C122.136 37.5501 122.232 37.6543 122.366 37.7396C122.5 37.8248 122.692 37.9101 122.941 37.9669C123.191 38.0333 123.517 38.0806 123.929 38.0996V38.5448H118.772V38.0996C119.184 38.0427 119.51 37.948 119.768 37.8343C120.018 37.7112 120.238 37.5501 120.42 37.3417C120.602 37.1333 120.765 36.8586 120.919 36.527C121.072 36.1955 121.254 35.7881 121.465 35.2955L127.236 21.9858H127.648L133.352 35.4471C133.582 36.006 133.793 36.4512 133.994 36.7923C134.196 37.1333 134.397 37.3986 134.608 37.588C134.819 37.7775 135.049 37.9101 135.298 37.9764C135.547 38.0427 135.844 38.0901 136.189 38.0996V38.5448H129.709V38.0996C130.361 38.0806 130.802 37.9764 131.032 37.7869C131.262 37.607 131.387 37.3796 131.387 37.1144C131.377 36.7733 131.214 36.2144 130.898 35.4376L129.901 33.1262ZM129.565 32.2357L126.785 25.6898L123.938 32.2357H129.565Z" fill="#2D2B26"/>
<path fill-rule="evenodd" clip-rule="evenodd" d="M129.709 38.0996C130.361 38.0806 130.802 37.9764 131.032 37.7869C131.262 37.607 131.387 37.3796 131.387 37.1144C131.377 36.7733 131.214 36.2144 130.898 35.4376L129.901 33.1262H123.545L122.424 35.6744C122.155 36.3091 122.031 36.7733 122.031 37.0859C122.031 37.2186 122.05 37.3322 122.098 37.4459C122.136 37.5501 122.232 37.6543 122.366 37.7396C122.5 37.8248 122.692 37.9101 122.941 37.9669C123.191 38.0333 123.517 38.0806 123.929 38.0996V38.5448H118.772V38.0996C119.184 38.0427 119.51 37.948 119.768 37.8343C120.018 37.7112 120.238 37.5501 120.42 37.3417C120.602 37.1333 120.765 36.8586 120.919 36.527C121.072 36.1955 121.254 35.7881 121.465 35.2955L127.236 21.9858H127.648L133.352 35.4471C133.582 36.006 133.793 36.4512 133.994 36.7923C134.196 37.1333 134.397 37.3986 134.608 37.588C134.819 37.7775 135.049 37.9101 135.298 37.9764C135.547 38.0427 135.844 38.0901 136.189 38.0996V38.5448H129.709V38.0996ZM119.662 37.6109C119.883 37.5008 120.074 37.3596 120.231 37.1803C120.392 36.9964 120.543 36.7447 120.692 36.4243C120.844 36.0951 121.025 35.6899 121.235 35.1993L127.071 21.7388H127.815L133.584 35.354C133.812 35.908 134.017 36.3412 134.21 36.6678C134.404 36.9971 134.591 37.239 134.776 37.4053C134.963 37.573 135.158 37.6835 135.363 37.7379C135.593 37.7991 135.871 37.8437 136.196 37.8527L136.439 37.8593V38.7918H129.459V37.8597L129.702 37.8527C130.018 37.8435 130.272 37.8139 130.471 37.767C130.671 37.7196 130.798 37.6583 130.872 37.5972L130.877 37.5932C131.056 37.453 131.136 37.2942 131.137 37.1177C131.128 36.8255 130.982 36.3057 130.667 35.5321L129.736 33.3732H123.709L122.654 35.7713C122.388 36.3997 122.281 36.8253 122.281 37.0859C122.281 37.1927 122.296 37.273 122.329 37.3509L122.333 37.3614C122.346 37.3966 122.393 37.4632 122.501 37.5318C122.609 37.6003 122.774 37.6752 122.998 37.7263L123.006 37.7283C123.233 37.7886 123.54 37.8344 123.94 37.8528L124.179 37.8638V38.7918H118.522V37.8846L118.737 37.8549C119.127 37.8012 119.428 37.713 119.662 37.6109ZM126.785 25.6898L123.938 32.2357H129.565L126.785 25.6898ZM126.783 26.3215L124.318 31.9887H129.19L126.783 26.3215Z" fill="#2D2B26"/>
<path d="M154.844 38.5543H150.473L144.913 30.9758C144.711 30.9852 144.529 30.9947 144.366 31.0042C144.203 31.0137 144.06 31.0137 143.925 31.0137C143.82 31.0137 143.705 31.0137 143.58 31.0042C143.456 30.9947 143.331 30.9852 143.197 30.9758V35.6839C143.197 36.2523 143.235 36.707 143.312 37.0291C143.389 37.3512 143.504 37.5975 143.657 37.7585C143.81 37.9196 143.983 38.0143 144.194 38.0522C144.405 38.0901 144.644 38.109 144.903 38.109H145.555V38.5543H138.519V38.109H139.152C139.823 38.109 140.321 37.8912 140.628 37.4459C140.8 37.1807 140.877 36.5933 140.877 35.6839V25.2161C140.877 24.2214 140.762 23.5867 140.532 23.3215C140.216 22.9615 139.755 22.791 139.142 22.791H138.509V22.3457H144.481C145.363 22.3457 146.121 22.3742 146.753 22.4405C147.396 22.5068 147.913 22.6015 148.325 22.7341C148.738 22.8668 149.121 23.0468 149.476 23.2741C149.84 23.5015 150.156 23.7857 150.425 24.1077C150.693 24.4393 150.914 24.7993 151.067 25.2066C151.22 25.614 151.297 26.0403 151.297 26.5044C151.297 27.5181 150.971 28.3801 150.319 29.1096C149.668 29.839 148.651 30.3505 147.271 30.6632L150.645 35.2955C151.038 35.826 151.393 36.2713 151.7 36.6123C152.007 36.9533 152.313 37.228 152.62 37.4364C152.927 37.6354 153.253 37.787 153.598 37.8817C153.943 37.9764 154.346 38.0522 154.815 38.0996V38.5543H154.844ZM143.206 30.2274C143.36 30.2274 143.494 30.2274 143.609 30.2369C143.724 30.2463 143.82 30.2463 143.887 30.2463C144.673 30.2463 145.354 30.1611 145.948 29.9811C146.533 29.8011 147.031 29.5548 147.424 29.2327C147.817 28.9106 148.115 28.5317 148.316 28.0959C148.517 27.6602 148.613 27.1865 148.613 26.675C148.613 26.1729 148.527 25.7182 148.364 25.2919C148.191 24.8656 147.952 24.5056 147.645 24.2025C147.329 23.8993 146.964 23.6625 146.523 23.5015C146.092 23.3309 145.613 23.2552 145.095 23.2552C144.606 23.2552 143.973 23.3309 143.197 23.4825V30.2274H143.206Z" fill="#2D2B26"/>
<path fill-rule="evenodd" clip-rule="evenodd" d="M150.345 38.8013L144.79 31.229C144.642 31.2362 144.506 31.2435 144.381 31.2507C144.211 31.2606 144.061 31.2606 143.928 31.2606H143.922C143.818 31.2606 143.695 31.2606 143.561 31.2504C143.523 31.2476 143.485 31.2447 143.447 31.2418V35.6839C143.447 36.2451 143.485 36.6778 143.555 36.9725C143.627 37.2733 143.728 37.4725 143.839 37.5893C143.958 37.714 144.083 37.7813 144.239 37.8092C144.432 37.8439 144.656 37.8621 144.903 37.8621H145.805V38.8013H138.269V37.8621H139.152C139.763 37.8621 140.171 37.6676 140.419 37.3098C140.474 37.2234 140.53 37.0553 140.57 36.7729C140.608 36.495 140.627 36.1333 140.627 35.6839V25.2161C140.627 24.7264 140.599 24.3351 140.545 24.039C140.49 23.7357 140.413 23.5645 140.343 23.4828C140.088 23.1929 139.707 23.038 139.142 23.038H138.259V22.0988H144.481C145.368 22.0988 146.135 22.1273 146.78 22.1948C147.43 22.2621 147.967 22.3592 148.403 22.4993C148.835 22.6382 149.238 22.8271 149.611 23.0661C149.999 23.3085 150.334 23.6105 150.618 23.9507L150.62 23.9534C150.902 24.3019 151.137 24.6845 151.301 25.1205C151.466 25.5567 151.547 26.0122 151.547 26.5044C151.547 27.5762 151.2 28.4969 150.507 29.273C149.869 29.9869 148.92 30.4901 147.69 30.8151L150.847 35.1496C151.237 35.6765 151.587 36.1155 151.887 36.4482C152.182 36.7769 152.473 37.0368 152.759 37.2314C153.046 37.4171 153.348 37.5567 153.665 37.6437C153.995 37.7343 154.383 37.8077 154.841 37.8539L155.065 37.8765V38.5543H154.844V38.8013H150.345ZM154.815 38.5543V38.0996C154.346 38.0522 153.943 37.9764 153.598 37.8817C153.253 37.787 152.927 37.6354 152.62 37.4364C152.313 37.228 152.007 36.9533 151.7 36.6123C151.393 36.2713 151.038 35.826 150.645 35.2955L147.271 30.6632C147.36 30.643 147.447 30.6221 147.533 30.6003C148.781 30.2838 149.709 29.792 150.319 29.1096C150.971 28.3801 151.297 27.5181 151.297 26.5044C151.297 26.0403 151.22 25.614 151.067 25.2066C150.914 24.7993 150.693 24.4393 150.425 24.1077C150.156 23.7857 149.84 23.5015 149.476 23.2741C149.121 23.0468 148.738 22.8668 148.325 22.7341C147.913 22.6015 147.396 22.5068 146.753 22.4405C146.121 22.3742 145.363 22.3457 144.481 22.3457H138.509V22.791H139.142C139.755 22.791 140.216 22.9615 140.532 23.3215C140.762 23.5867 140.877 24.2214 140.877 25.2161V35.6839C140.877 36.5933 140.8 37.1807 140.628 37.4459C140.321 37.8912 139.823 38.109 139.152 38.109H138.519V38.5543H145.555V38.109H144.903C144.644 38.109 144.405 38.0901 144.194 38.0522C143.983 38.0143 143.81 37.9196 143.657 37.7585C143.504 37.5975 143.389 37.3512 143.312 37.0291C143.235 36.707 143.197 36.2523 143.197 35.6839V30.9758C143.283 30.9819 143.366 30.988 143.447 30.9941C143.492 30.9974 143.536 31.0008 143.58 31.0042C143.705 31.0137 143.82 31.0137 143.925 31.0137C144.06 31.0137 144.203 31.0137 144.366 31.0042C144.529 30.9947 144.711 30.9852 144.913 30.9758L150.473 38.5543H154.815ZM146.43 23.7308C146.035 23.5744 145.588 23.5021 145.095 23.5021C144.671 23.5021 144.122 23.5624 143.447 23.6866V29.982C143.511 29.9834 143.572 29.986 143.63 29.9907C143.734 29.9993 143.821 29.9994 143.887 29.9994C144.655 29.9994 145.31 29.916 145.874 29.7451C146.437 29.572 146.903 29.3389 147.265 29.0426C147.63 28.743 147.904 28.3935 148.089 27.9934C148.273 27.5933 148.363 27.1552 148.363 26.675C148.363 26.2029 148.282 25.7785 148.131 25.3814C147.971 24.9865 147.75 24.6562 147.469 24.3785C147.177 24.0984 146.842 23.8813 146.437 23.7331L146.43 23.7308ZM148.364 25.2919C148.527 25.7182 148.613 26.1729 148.613 26.675C148.613 27.1865 148.517 27.6602 148.316 28.0959C148.115 28.5317 147.817 28.9106 147.424 29.2327C147.031 29.5548 146.533 29.8011 145.948 29.9811C145.354 30.1611 144.673 30.2463 143.887 30.2463C143.82 30.2463 143.724 30.2463 143.609 30.2369C143.494 30.2274 143.36 30.2274 143.206 30.2274H143.197V23.4825C143.973 23.3309 144.606 23.2552 145.095 23.2552C145.613 23.2552 146.092 23.3309 146.523 23.5015C146.964 23.6625 147.329 23.8993 147.645 24.2025C147.952 24.5056 148.191 24.8656 148.364 25.2919Z" fill="#2D2B26"/>
<path d="M159.397 36.2333C159.762 36.2333 160.068 36.3565 160.337 36.6123C160.605 36.868 160.73 37.1806 160.73 37.5501C160.73 37.9196 160.596 38.2322 160.337 38.4974C160.068 38.7627 159.762 38.8858 159.397 38.8858C159.024 38.8858 158.707 38.7532 158.439 38.4974C158.17 38.2322 158.046 37.9196 158.046 37.5501C158.046 37.1712 158.18 36.8586 158.439 36.6028C158.707 36.3565 159.024 36.2333 159.397 36.2333Z" fill="#2D2B26"/>
<path fill-rule="evenodd" clip-rule="evenodd" d="M160.514 38.6721C160.199 38.9834 159.828 39.1328 159.397 39.1328C158.956 39.1328 158.578 38.9732 158.265 38.6752L158.262 38.6721C157.945 38.3588 157.796 37.9825 157.796 37.5501C157.796 37.1059 157.956 36.7304 158.262 36.4281L158.269 36.4217C158.584 36.1326 158.961 35.9864 159.397 35.9864C159.828 35.9864 160.196 36.1352 160.51 36.4345C160.831 36.7401 160.98 37.1185 160.98 37.5501C160.98 37.9865 160.818 38.3598 160.517 38.6689L160.514 38.6721ZM160.337 38.4974C160.596 38.2322 160.73 37.9196 160.73 37.5501C160.73 37.1806 160.605 36.868 160.337 36.6123C160.068 36.3565 159.762 36.2333 159.397 36.2333C159.024 36.2333 158.707 36.3565 158.439 36.6028C158.18 36.8586 158.046 37.1712 158.046 37.5501C158.046 37.9196 158.17 38.2322 158.439 38.4974C158.707 38.7532 159.024 38.8858 159.397 38.8858C159.762 38.8858 160.068 38.7627 160.337 38.4974Z" fill="#2D2B26"/>
</svg>
