<svg xmlns="http://www.w3.org/2000/svg" width="104" height="107" viewBox="0 0 104 107" fill="none">
<g clip-path="url(#clip0_1118_10992)">
<path d="M80.3824 104.38C80.9862 104.38 81.4159 104.26 81.677 104.027C81.9381 103.788 82.1013 103.451 82.1774 103.01C82.2536 102.57 82.2916 102.07 82.2916 101.51V96.0857C82.2916 95.6998 82.3025 95.265 82.3243 94.7758C82.346 94.2921 82.3787 93.8138 82.4222 93.3409C82.0795 93.3626 81.6716 93.3789 81.2092 93.3898C80.7469 93.4007 80.3933 93.417 80.1594 93.4387V90.9819H81.454C82.2916 90.9819 83.064 90.8732 83.7657 90.6613C84.4674 90.4439 84.9243 90.2319 85.1364 90.0145H86.7193C86.7628 90.2319 86.7954 90.6341 86.8172 91.2265C86.8389 91.819 86.8498 92.3408 86.8498 92.7919C87.4318 92.0799 87.9812 91.5092 88.4979 91.0798C89.0147 90.6504 89.526 90.3297 90.0318 90.1286C90.5377 89.9221 91.049 89.8242 91.5657 89.8242C92.3218 89.8242 92.9745 90.0362 93.5347 90.4547C94.095 90.8732 94.3724 91.5581 94.3724 92.5038C94.3724 92.8245 94.2962 93.167 94.1439 93.5202C93.9916 93.8735 93.7578 94.1725 93.4314 94.4062C93.1105 94.6454 92.6644 94.7595 92.1042 94.7595C91.6745 94.7595 91.2339 94.6291 90.777 94.3736C90.3201 94.1181 90.0645 93.6181 89.9992 92.8897C89.5695 92.8897 89.1398 93.0691 88.7046 93.4224C88.2749 93.7757 87.8887 94.1997 87.5569 94.6834C87.2251 95.1672 86.9912 95.6129 86.8607 96.0259V101.287C86.8607 101.592 86.8498 102.016 86.828 102.565C86.8063 103.114 86.7737 103.635 86.7301 104.13C87.0728 104.087 87.459 104.059 87.8778 104.048C88.2967 104.038 88.6176 104.032 88.8297 104.032V106.484H80.3661V104.385L80.3824 104.38Z" fill="#2D2B26"/>
<path d="M96.1837 106.484C95.4929 106.484 94.9272 106.234 94.4866 105.739C94.046 105.244 93.823 104.652 93.823 103.962C93.823 103.271 94.0623 102.679 94.5355 102.184C95.0088 101.69 95.5581 101.44 96.1837 101.44C96.8527 101.44 97.4075 101.69 97.8481 102.184C98.2887 102.679 98.5117 103.271 98.5117 103.962C98.5117 104.652 98.2996 105.244 97.8807 105.739C97.4619 106.234 96.8962 106.484 96.1837 106.484Z" fill="#2D2B26"/>
<path d="M0 79.1168V76.8883C0.603766 76.8883 1.08787 76.7144 1.4523 76.372C1.81674 76.0296 2.12678 75.5784 2.37155 75.0131C2.61632 74.4533 2.86109 73.85 3.10042 73.2032L9.39916 55.9297H11.6619L18.5427 73.5293C18.6732 73.85 18.8418 74.3446 19.0594 74.9968C19.277 75.6545 19.4021 76.2307 19.4456 76.7253C19.81 76.6818 20.1636 76.6546 20.4954 76.6437C20.8272 76.6329 21.1046 76.6274 21.3167 76.6274V79.1114H12.6247V76.9807C13.2285 76.9807 13.6418 76.8557 13.8703 76.6111C14.0987 76.3665 14.1967 76.0241 14.1749 75.5947C14.1531 75.1653 14.0335 74.6816 13.8213 74.1435L13.1741 72.3661L6.16276 72.4966L5.64603 74.013C5.53724 74.2957 5.3795 74.7088 5.17824 75.2577C4.97155 75.8067 4.78661 76.2633 4.61255 76.6274C4.95523 76.584 5.37406 76.5568 5.85816 76.5459C6.34226 76.535 6.69038 76.5296 6.90795 76.5296V79.1114H0V79.1168ZM6.97866 70.0779H12.3745L10.8895 66.0394C10.6067 65.2622 10.3619 64.4849 10.1444 63.6968C9.92678 62.9087 9.76904 62.2184 9.66025 61.615H9.62762C9.54059 61.9792 9.41004 62.5282 9.24142 63.262C9.06736 63.9957 8.80084 64.8654 8.43096 65.8763L6.97866 70.0724V70.0779Z" fill="#2D2B26"/>
<path d="M22.6984 79.1168V77.0187C23.3021 77.0187 23.7318 76.8991 23.9929 76.6654C24.254 76.4263 24.4172 76.0893 24.4933 75.649C24.5695 75.2087 24.6076 74.7087 24.6076 74.1489V68.7244C24.6076 68.3385 24.6184 67.9037 24.6402 67.4145C24.662 66.9307 24.6946 66.4524 24.7381 65.9796C24.3954 66.0013 23.9875 66.0176 23.5251 66.0285C23.0628 66.0393 22.7092 66.0556 22.4753 66.0774V63.6206C23.4653 63.6206 24.3084 63.5663 24.9938 63.4576C25.6845 63.3489 26.2285 63.2184 26.6256 63.0716C27.0226 62.9195 27.3 62.7836 27.4469 62.6531H29.0297C29.0732 62.8705 29.1004 63.1369 29.1113 63.463C29.1222 63.7837 29.1385 64.0554 29.1603 64.2729C29.8946 63.713 30.6833 63.2728 31.5373 62.9466C32.3858 62.626 33.1908 62.4629 33.9469 62.4629C34.9368 62.4629 35.7582 62.6423 36.4 62.9956C37.0473 63.3489 37.564 63.8815 37.9502 64.5935C38.7281 63.9467 39.582 63.4304 40.5176 63.0445C41.4532 62.6586 42.3561 62.4629 43.2155 62.4629C44.9615 62.4629 46.2779 62.9629 47.1753 63.963C48.0674 64.9631 48.5189 66.7025 48.5189 69.1755V73.9206C48.5189 74.225 48.508 74.6489 48.4862 75.1979C48.4645 75.7469 48.4318 76.2686 48.3883 76.7633C48.731 76.7198 49.1172 76.6926 49.536 76.6817C49.9548 76.6709 50.2758 76.6654 50.4879 76.6654V79.1168H42.3126V77.0187C42.8076 77.0187 43.1666 76.8991 43.395 76.6654C43.6235 76.4263 43.7649 76.0893 43.8302 75.649C43.8954 75.2087 43.9281 74.7087 43.9281 74.1489V69.2081C43.9063 67.8113 43.6724 66.8383 43.2318 66.3002C42.7912 65.7621 42.2038 65.4849 41.4695 65.4632C40.9092 65.4415 40.3871 65.5393 39.903 65.7513C39.4189 65.9687 38.9837 66.2241 38.5921 66.5285C38.7009 66.9579 38.777 67.4308 38.8205 67.9471C38.864 68.4635 38.8858 69.0125 38.8858 69.594V73.9206C38.8858 74.225 38.8749 74.6489 38.8532 75.1979C38.8314 75.7469 38.7988 76.2686 38.7553 76.7633C39.0979 76.7198 39.4787 76.6926 39.8866 76.6817C40.2946 76.6709 40.6209 76.6654 40.8548 76.6654V79.1168H32.5163V77.0187C33.0766 77.0187 33.4791 76.8991 33.7293 76.6654C33.9741 76.4263 34.1318 76.0893 34.1971 75.649C34.2624 75.2087 34.295 74.7087 34.295 74.1489L34.2624 69.1103C34.2624 67.7134 34.0557 66.7514 33.6477 66.235C33.2398 65.7187 32.6686 65.4469 31.9343 65.4252C31.3958 65.4252 30.8954 65.5447 30.4331 65.7784C29.9707 66.0176 29.5573 66.2948 29.1875 66.6155V73.9151C29.1875 74.2195 29.1766 74.6435 29.1548 75.1924C29.1331 75.7414 29.1004 76.2632 29.0569 76.7578C29.3996 76.7143 29.7586 76.6872 30.123 76.6763C30.4875 76.6654 30.7812 76.66 30.9933 76.66V79.1113H22.6875L22.6984 79.1168Z" fill="#2D2B26"/>
<path d="M59.3757 79.633C57.8038 79.633 56.4113 79.2851 55.2092 78.584C54.0017 77.8828 53.0661 76.8936 52.3971 75.6108C51.728 74.3281 51.3962 72.8171 51.3962 71.0723C51.3962 69.5668 51.728 68.1536 52.3971 66.8437C53.0661 65.5283 54.0071 64.4684 55.2255 63.664C56.4439 62.8541 57.8582 62.4519 59.4736 62.4519C60.3766 62.4519 61.2632 62.5769 62.1226 62.8215C62.982 63.0715 63.7653 63.4955 64.467 64.0988C65.1686 64.7021 65.7289 65.5174 66.1477 66.5556C66.5665 67.5883 66.7678 68.8819 66.746 70.431L56.1448 70.6266C56.1448 71.7898 56.2916 72.8334 56.5799 73.7574C56.8682 74.6814 57.3523 75.4152 58.0159 75.9533C58.6849 76.4914 59.577 76.7631 60.6975 76.7631C61.1272 76.7631 61.6167 76.687 62.1661 76.5349C62.7155 76.3827 63.2757 76.1326 63.8469 75.7739C64.418 75.4206 64.9511 74.9423 65.446 74.339L66.8983 75.6978C66.1205 76.7958 65.2937 77.6328 64.4126 78.1981C63.5314 78.7688 62.6502 79.1493 61.7799 79.3449C60.9096 79.5406 60.1046 79.633 59.3703 79.633H59.3757ZM56.3406 68.3655H62.2858C62.264 67.4633 62.1389 66.7458 61.9159 66.2186C61.6875 65.6914 61.3829 65.3109 60.9967 65.0717C60.6105 64.8326 60.159 64.7184 59.6368 64.7184C58.6904 64.7184 57.9452 65.0554 57.4067 65.7348C56.8682 66.4143 56.5147 67.2894 56.3406 68.3655Z" fill="#2D2B26"/>
<path d="M67.6925 77.0186C68.2963 77.0186 68.7314 76.8991 69.0034 76.6653C69.2699 76.4262 69.4385 76.0892 69.5038 75.6489C69.5691 75.2087 69.6017 74.7086 69.6017 74.1488V60.8757C69.6017 60.4898 69.6126 60.0441 69.6343 59.5332C69.6561 59.0277 69.6887 58.5385 69.7322 58.0656C69.3896 58.0874 68.9816 58.1037 68.5193 58.1145C68.0569 58.1254 67.7034 58.1417 67.4695 58.1635V55.7121C68.4812 55.7121 69.3297 55.6578 70.0042 55.5491C70.6841 55.4403 71.2226 55.3099 71.6197 55.1631C72.0168 55.011 72.2942 54.8751 72.441 54.7446H74.1871V73.9259C74.1871 74.2303 74.1762 74.6543 74.1544 75.2032C74.1327 75.7522 74.1 76.274 74.0565 76.7686C74.4209 76.7251 74.8126 76.6979 75.2205 76.6871C75.6285 76.6762 75.944 76.6708 76.1561 76.6708V79.1221H67.6925V77.0241V77.0186Z" fill="#2D2B26"/>
<path d="M78.2665 77.0188C78.8702 77.0188 79.2999 76.8992 79.561 76.6655C79.8221 76.4263 79.9853 76.0893 80.0615 75.6491C80.1376 75.2088 80.1757 74.7088 80.1757 74.1489V68.7897C80.1757 68.4038 80.1866 67.9581 80.2083 67.4472C80.2301 66.9417 80.2627 66.4525 80.3062 65.9796C79.9635 66.0014 79.5556 66.0177 79.0933 66.0285C78.6309 66.0394 78.2773 66.0557 78.0435 66.0775V63.6207C79.0334 63.6207 79.8765 63.5663 80.5619 63.4576C81.2527 63.3489 81.7966 63.2185 82.1937 63.0717C82.5907 62.9195 82.8681 62.7836 83.015 62.6532H84.761V73.9206C84.761 74.225 84.7502 74.649 84.7284 75.198C84.7066 75.7469 84.674 76.2687 84.6305 76.7633C84.9732 76.7198 85.3594 76.6927 85.7782 76.6818C86.197 76.6709 86.5179 76.6655 86.7301 76.6655V79.1168H78.2665V77.0188V77.0188ZM82.3079 60.0986C81.5736 60.0986 80.9698 59.8377 80.4966 59.3213C80.0234 58.805 79.784 58.1799 79.784 57.4461C79.784 56.7124 80.0288 56.0873 80.5292 55.571C81.0242 55.0546 81.6062 54.7937 82.2753 54.7937C82.9443 54.7937 83.5426 55.0546 84.005 55.571C84.4673 56.0873 84.7012 56.7124 84.7012 57.4461C84.7012 58.1799 84.4836 58.805 84.0539 59.3213C83.6242 59.8377 83.0422 60.0986 82.3079 60.0986Z" fill="#2D2B26"/>
<path d="M97.8916 79.1168C97.8481 78.8178 97.8209 78.5624 97.81 78.3558C97.7991 78.1493 97.7828 77.9101 97.761 77.6275C97.0267 78.3612 96.2543 78.8776 95.433 79.1765C94.6117 79.4755 93.7849 79.6277 92.9472 79.6277C91.5711 79.6277 90.4941 79.22 89.7163 78.3993C88.9384 77.584 88.5522 76.5567 88.5522 75.3338C88.5522 74.3011 88.8133 73.4205 89.3464 72.6868C89.874 71.953 90.5757 71.3551 91.446 70.8931C92.3163 70.4311 93.2899 70.0778 94.356 69.8278C95.4221 69.5832 96.4937 69.4364 97.5707 69.3929V67.7134C97.5707 67.1536 97.4999 66.6481 97.3585 66.197C97.2171 65.7458 96.9832 65.3871 96.646 65.1316C96.3142 64.8707 95.841 64.7566 95.2426 64.7783C94.8347 64.8001 94.4322 64.8871 94.046 65.0392C93.6598 65.1914 93.3225 65.4034 93.0451 65.686C93.2192 65.8817 93.3225 66.0883 93.366 66.3165C93.4096 66.5448 93.4313 66.7405 93.4313 66.9144C93.4313 67.3438 93.2573 67.7895 92.9146 68.257C92.5719 68.719 92.0225 68.9418 91.2665 68.9201C90.6192 68.8983 90.1242 68.6755 89.7815 68.2407C89.4389 67.8113 89.2648 67.3058 89.2648 66.7242C89.2648 65.8654 89.5694 65.1153 90.184 64.4794C90.7987 63.8435 91.62 63.3489 92.6535 62.9956C93.687 62.6423 94.8292 62.4629 96.0803 62.4629C97.9732 62.4629 99.4472 62.9521 100.492 63.9304C101.536 64.9088 102.058 66.4742 102.058 68.6266V70.5018C102.058 71.0181 102.053 71.5345 102.042 72.0508C102.031 72.5672 102.025 73.1922 102.025 73.926C102.025 74.2304 102.015 74.6543 101.993 75.2033C101.971 75.7523 101.938 76.2741 101.895 76.7687C102.259 76.7252 102.651 76.698 103.059 76.6872C103.467 76.6763 103.782 76.6709 103.995 76.6709V79.1222H97.8861L97.8916 79.1168ZM97.538 71.6921C96.9343 71.7573 96.3631 71.866 95.8246 72.0128C95.2861 72.165 94.8184 72.3661 94.4213 72.627C94.0242 72.8879 93.7087 73.1977 93.4857 73.5618C93.2573 73.926 93.1485 74.3391 93.1485 74.7902C93.1702 75.3936 93.3661 75.8229 93.7305 76.0838C94.0949 76.3447 94.5192 76.4697 94.9924 76.4697C95.4656 76.4697 95.9497 76.361 96.3794 76.1491C96.8092 75.9317 97.1953 75.6544 97.5435 75.312V71.6975L97.538 71.6921Z" fill="#2D2B26"/>
<path d="M6.25513 106.484V104.353C6.75011 104.331 7.1635 104.266 7.50073 104.157C7.83253 104.049 8.09362 103.804 8.27856 103.413C8.4635 103.027 8.55596 102.402 8.55596 101.538V89.1722C8.55596 88.5906 8.57228 88.0308 8.60492 87.4927C8.63755 86.9546 8.66475 86.5469 8.68651 86.2643C8.34383 86.286 7.90868 86.3024 7.39195 86.3132C6.87521 86.3241 6.4999 86.3404 6.26057 86.3621V83.8782C7.7455 83.8565 9.23588 83.8456 10.7371 83.8456C12.2384 83.8456 13.7288 83.8347 15.2137 83.813C17.7974 83.7912 19.848 84.2695 21.371 85.2479C22.8886 86.2263 23.5957 87.7101 23.4869 89.6886C23.4434 90.3136 23.2476 90.9224 22.9049 91.5148C22.5622 92.1073 22.0509 92.6399 21.371 93.1128C20.6911 93.5857 19.848 93.9662 18.8363 94.2434V94.276C20.9903 94.6184 22.5731 95.3359 23.5848 96.4229C24.5966 97.51 25.1024 98.7221 25.1024 100.054C25.1024 101.385 24.7652 102.63 24.0853 103.592C23.4053 104.549 22.4752 105.272 21.2894 105.755C20.1037 106.239 18.7601 106.484 17.248 106.484H6.25513ZM13.1032 104.19H14.202C14.5447 104.19 14.8928 104.19 15.2355 104.174C15.5781 104.163 15.9154 104.157 16.2363 104.157C17.5526 104.092 18.5099 103.674 19.1137 102.896C19.7175 102.119 20.0166 101.141 20.0166 99.9559C20.0166 98.9667 19.8099 98.184 19.402 97.6133C18.994 97.0426 18.4719 96.6404 17.8355 96.4012C17.1991 96.162 16.5355 96.0479 15.8501 96.0479H14.4631C14.0769 96.0479 13.6635 96.0588 13.2338 96.0805V101.342C13.2338 101.924 13.2229 102.472 13.2012 102.989C13.1794 103.505 13.1468 103.902 13.1032 104.185V104.19ZM13.2338 93.7922L14.9145 93.7596C15.8175 93.7379 16.5355 93.5313 17.0631 93.1454C17.5907 92.7595 17.966 92.2377 18.1945 91.5801C18.4229 90.9224 18.5317 90.2104 18.5317 89.4331C18.5317 88.5743 18.3576 87.9003 18.015 87.4166C17.6723 86.9328 17.2371 86.585 16.7204 86.3676C16.2037 86.1502 15.6652 86.0578 15.1049 86.0795C14.7622 86.0795 14.4468 86.1339 14.1694 86.2426C13.8865 86.3513 13.6635 86.5904 13.4894 86.9709C13.3154 87.3459 13.2283 87.9547 13.2283 88.7972V93.8031L13.2338 93.7922Z" fill="#2D2B26"/>
<path d="M36.1225 106.484C36.079 106.185 36.0518 105.929 36.0409 105.723C36.0301 105.516 36.0137 105.277 35.992 104.994C35.2577 105.728 34.4853 106.245 33.664 106.543C32.8426 106.842 32.0158 106.995 31.1782 106.995C29.802 106.995 28.725 106.587 27.9472 105.766C27.1694 104.951 26.7832 103.924 26.7832 102.701C26.7832 101.668 27.0443 100.787 27.5773 100.054C28.105 99.3199 28.8066 98.722 29.6769 98.26C30.5472 97.798 31.5209 97.4447 32.587 97.1947C33.6531 96.9501 34.7246 96.8034 35.8016 96.7599V95.0804C35.8016 94.5205 35.7309 94.015 35.5895 93.5639C35.4481 93.1128 35.2142 92.754 34.8769 92.4986C34.5451 92.2377 34.0719 92.1235 33.4736 92.1453C33.0656 92.167 32.6631 92.254 32.2769 92.4062C31.8907 92.5584 31.5535 92.7703 31.2761 93.053C31.4501 93.2487 31.5535 93.4552 31.597 93.6835C31.6405 93.9118 31.6623 94.1074 31.6623 94.2814C31.6623 94.7108 31.4882 95.1565 31.1455 95.6239C30.8029 96.0859 30.2535 96.3087 29.4974 96.287C28.8501 96.2653 28.3552 96.0424 28.0125 95.6076C27.6698 95.1782 27.4958 94.6727 27.4958 94.0911C27.4958 93.2324 27.8004 92.4823 28.415 91.8463C29.0296 91.2104 29.851 90.7158 30.8845 90.3625C31.9179 90.0092 33.0602 89.8298 34.3112 89.8298C36.2041 89.8298 37.6782 90.319 38.7225 91.2974C39.7669 92.2757 40.2891 93.8411 40.2891 95.9935V97.8687C40.2891 98.385 40.2836 98.9014 40.2727 99.4178C40.2619 99.9341 40.2564 100.559 40.2564 101.293C40.2564 101.597 40.2455 102.021 40.2238 102.57C40.202 103.119 40.1694 103.641 40.1259 104.136C40.4903 104.092 40.8819 104.065 41.2899 104.054C41.6978 104.043 42.0133 104.038 42.2255 104.038V106.489H36.1171L36.1225 106.484ZM35.769 99.059C35.1652 99.1243 34.5941 99.233 34.0556 99.3797C33.5171 99.5319 33.0493 99.733 32.6522 99.9939C32.2552 100.255 31.9397 100.565 31.7167 100.929C31.4882 101.293 31.3794 101.706 31.3794 102.157C31.4012 102.76 31.597 103.19 31.9614 103.451C32.3259 103.712 32.7501 103.837 33.2234 103.837C33.6966 103.837 34.1807 103.728 34.6104 103.516C35.0401 103.299 35.4263 103.021 35.7744 102.679V99.0645L35.769 99.059Z" fill="#2D2B26"/>
<path d="M43.5527 106.484V104.386C44.1564 104.386 44.5916 104.266 44.8636 104.032C45.1301 103.793 45.3041 103.456 45.3803 103.016C45.4564 102.576 45.4945 102.076 45.4945 101.516V88.2426C45.4945 87.8567 45.5054 87.411 45.5272 86.9001C45.5489 86.3946 45.5815 85.9054 45.6251 85.4326C45.2824 85.4543 44.8744 85.4706 44.4121 85.4815C43.9498 85.4923 43.5962 85.5087 43.3623 85.5304V83.0791C44.3523 83.0791 45.1899 83.0247 45.8644 82.916C46.5443 82.8073 47.0882 82.6768 47.4962 82.5301C47.9041 82.3779 48.1761 82.242 48.3067 82.1116H50.0853V96.8359H51.6355L53.9636 94.1563C54.241 93.8573 54.4749 93.5964 54.6598 93.379C54.8447 93.1616 55.0297 92.9714 55.2255 92.7974H53.5121V90.3407H60.7845V92.4061C60.0284 92.4931 59.3648 92.6724 58.7828 92.9388C58.2008 93.2105 57.7004 93.5258 57.2815 93.8899C56.8627 94.2541 56.4983 94.6128 56.1991 94.9553L54.1322 97.2816C54.4531 97.4338 54.774 97.6512 55.0841 97.9447C55.3941 98.2328 55.7803 98.6839 56.2318 99.2872L58.3966 102.13C58.5272 102.282 58.6903 102.483 58.897 102.744C59.1037 103.005 59.3322 103.255 59.5933 103.505C59.8544 103.755 60.1318 103.962 60.4309 104.136C60.7301 104.309 61.0456 104.396 61.3665 104.396V106.494H57.6514C56.9606 106.494 56.3569 106.25 55.8401 105.766C55.3234 105.282 54.7305 104.587 54.0615 103.684C53.6753 103.168 53.2673 102.614 52.8485 102.021C52.4297 101.429 52.038 100.869 51.6845 100.342C51.3309 99.8145 51.0426 99.4014 50.8305 99.097L50.0853 99.1296V101.293C50.0853 101.597 50.0744 102.021 50.0527 102.57C50.0309 103.119 49.9983 103.641 49.9548 104.136C50.2974 104.092 50.6782 104.065 51.0862 104.054C51.4941 104.043 51.8205 104.038 52.0544 104.038V106.489H43.5581L43.5527 106.484Z" fill="#2D2B26"/>
<path d="M72.4355 106.484C72.392 106.185 72.3648 105.929 72.3539 105.723C72.3431 105.516 72.3267 105.277 72.305 104.994C71.5707 105.728 70.7983 106.245 69.9769 106.543C69.1556 106.842 68.3288 106.995 67.4912 106.995C66.115 106.995 65.038 106.587 64.2602 105.766C63.4824 104.951 63.0962 103.924 63.0962 102.701C63.0962 101.668 63.3573 100.787 63.8903 100.054C64.4179 99.3199 65.1196 98.722 65.9899 98.26C66.8602 97.798 67.8338 97.4447 68.9 97.1947C69.9661 96.9501 71.0376 96.8034 72.1146 96.7599V95.0804C72.1146 94.5205 72.0439 94.015 71.9025 93.5639C71.761 93.1128 71.5272 92.754 71.1899 92.4986C70.8581 92.2377 70.3849 92.1235 69.7866 92.1453C69.3786 92.167 68.9761 92.254 68.5899 92.4062C68.2037 92.5584 67.8665 92.7703 67.5891 93.053C67.7631 93.2487 67.8665 93.4552 67.91 93.6835C67.9535 93.9118 67.9753 94.1074 67.9753 94.2814C67.9753 94.7108 67.8012 95.1565 67.4585 95.6239C67.1159 96.0859 66.5665 96.3087 65.8104 96.287C65.1631 96.2653 64.6682 96.0424 64.3255 95.6076C63.9828 95.1782 63.8087 94.6727 63.8087 94.0911C63.8087 93.2324 64.1133 92.4823 64.728 91.8463C65.3426 91.2104 66.164 90.7158 67.1974 90.3625C68.2309 90.0092 69.3732 89.8298 70.6242 89.8298C72.5171 89.8298 73.9912 90.319 75.0355 91.2974C76.0799 92.2757 76.6021 93.8411 76.6021 95.9935V97.8687C76.6021 98.385 76.5966 98.9014 76.5857 99.4178C76.5749 99.9341 76.5694 100.559 76.5694 101.293C76.5694 101.597 76.5585 102.021 76.5368 102.57C76.515 103.119 76.4824 103.641 76.4389 104.136C76.8033 104.092 77.1949 104.065 77.6029 104.054C78.0108 104.043 78.3263 104.038 78.5385 104.038V106.489H72.4301L72.4355 106.484ZM72.082 99.059C71.4782 99.1243 70.9071 99.233 70.3686 99.3797C69.8301 99.5319 69.3623 99.733 68.9652 99.9939C68.5682 100.255 68.2527 100.565 68.0297 100.929C67.8012 101.293 67.6924 101.706 67.6924 102.157C67.7142 102.76 67.91 103.19 68.2744 103.451C68.6389 103.712 69.0631 103.837 69.5364 103.837C70.0096 103.837 70.4937 103.728 70.9234 103.516C71.3531 103.299 71.7393 103.021 72.0874 102.679V99.0645L72.082 99.059Z" fill="#2D2B26"/>
<path d="M76.2649 25.508C75.9766 24.9047 75.2532 23.4372 73.6812 22.1762C71.9733 20.8065 70.1728 20.4043 69.4385 20.2466C68.9544 20.1434 68.5465 20.0944 68.2636 20.0673C69.0143 19.8444 70.967 19.1596 72.4193 17.2192C73.654 15.5668 73.8716 13.8927 73.964 13.1046C74.062 12.2458 74.2469 10.425 73.2787 8.4737C72.4574 6.82679 71.2335 5.9354 70.7059 5.56036C70.0695 5.10379 69.3896 4.75593 68.3017 4.35915C64.641 3.02749 61.3394 2.97857 60.2352 2.98944C59.044 3.00032 57.385 3.10359 55.4322 3.5058C55.0624 3.14163 54.4858 2.63615 53.7134 2.1361C50.9992 0.358743 48.1979 0.184812 46.1636 0.0761054C44.1892 -0.027166 42.7151 -0.103261 40.844 0.418531C40.0879 0.630509 34.2243 2.35351 33.1201 7.10399C33.0385 7.44098 32.3097 10.8109 34.3222 12.7622C35.4155 13.8221 36.9168 14.0775 37.2377 14.1319C37.836 14.2352 38.7607 14.3765 39.8105 13.9579C40.1423 13.8221 41.1051 13.4253 41.6979 12.4143C42.4051 11.2131 42.4649 9.36509 41.5239 8.64219C41.2193 8.40847 40.6753 8.18562 40.1532 8.29977C39.7507 8.38673 39.6854 8.60958 39.1251 8.81612C38.9293 8.88678 38.4724 9.04984 37.923 8.99005C37.7816 8.97375 36.8243 8.87048 36.3783 8.13127C36.313 8.028 36.1063 7.65296 36.2042 6.76157C36.2477 6.38653 36.3892 5.25598 37.2322 4.19065C38.331 2.80464 39.8921 2.44048 41.1812 2.13066C41.8611 1.9676 43.5908 1.63605 45.6415 2.13066C46.6423 2.36982 47.6051 2.61984 48.2143 3.50037C48.6494 4.12543 48.7256 4.80485 48.731 5.21793C45.1138 13.072 41.9101 19.8335 39.3808 25.0243C37.4009 24.6547 35.3829 24.2362 33.3431 23.7633C32.9297 23.6709 32.5218 23.5731 32.1138 23.4752C31.7548 23.3122 31.3469 23.3393 31.064 23.5622C30.8302 23.7416 30.754 23.997 30.7322 24.0894C30.6833 24.2307 30.618 24.4645 30.6289 24.7688C30.6452 25.0297 30.7105 25.2363 30.7703 25.3613C30.8628 25.4591 30.9988 25.6004 31.1892 25.7418C31.831 26.2255 32.4892 26.3342 32.8373 26.394C33.7348 26.5462 34.6214 26.7636 35.5189 26.9049C36.1607 27.0028 37.0908 27.1549 38.2276 27.3887C37.2431 29.2965 36.5034 30.8618 35.9649 31.9054C35.3176 33.1664 34.7846 34.1774 34.3766 34.9166C34.0611 35.4819 33.1256 37.1179 31.2653 38.0365C29.2582 39.0257 26.5494 39.0203 25.1787 37.743C24.9067 37.4875 24.3954 37.0146 24.3954 36.3841C24.3954 35.7536 24.9285 35.4982 25.0536 34.5416C25.0917 34.2317 25.1461 33.8241 24.9502 33.4436C24.5314 32.6175 23.2097 32.3185 22.3013 32.6772C21.964 32.8077 21.7356 33.0142 21.6214 33.1229C21.0938 33.6502 21.0122 34.3241 20.9687 34.7101C20.8218 36.1069 21.5235 37.3625 21.877 37.906C23.0356 39.6779 24.749 40.3791 25.8967 40.8574C26.3481 41.0422 28.3825 41.8467 31.0151 41.6455C31.7168 41.5912 32.3042 41.5477 33.0385 41.2651C34.6703 40.64 35.5787 39.4279 36.2858 38.455C36.6883 37.9006 37.2214 36.732 38.2712 34.4274C39.2557 32.2696 39.6854 31.4162 40.1912 30.3998C40.6862 29.3997 41.105 28.5899 41.3879 28.0518C42.7532 28.3235 44.1239 28.5953 45.4891 28.8725C47.159 29.2041 48.8235 29.5356 50.4933 29.8726C50.6348 31.1336 50.8306 32.7479 51.0808 34.634C52.1469 42.5696 52.8377 44.4284 54.3607 45.6242C55.4594 46.483 56.9389 46.9613 57.0097 46.9885C58.5327 47.4668 59.8979 47.4342 60.6105 47.407C60.926 47.3961 61.5297 47.3418 62.7373 47.2276C63.0038 47.2005 63.6021 47.1461 64.3691 47.0265C65.4515 46.858 65.7017 46.7493 65.854 46.6732C66.164 46.5156 66.844 46.1623 66.9419 45.5046C67.0017 45.1187 66.8657 44.5752 66.4686 44.3741C66.1151 44.1947 65.6963 44.3578 65.6582 44.3741C65.5276 44.4284 65.4624 44.4828 65.3753 44.548C65.0653 44.76 64.7498 44.8035 64.3527 44.8578C63.5151 44.972 61.7527 44.9774 60.8933 44.3904C60.7574 44.298 60.518 44.1349 60.3657 43.8305C60.3059 43.7164 60.2733 43.5914 60.1971 43.3414C60.1101 43.0479 60.0611 42.825 60.0448 42.7598C59.9306 42.2652 59.8381 41.8249 59.7674 41.4825C63.6348 41.8249 66.5774 41.2868 68.3833 40.8031C70.336 40.2867 71.3532 39.7323 71.8373 39.4497C72.5879 39.0094 74.5787 37.8082 75.9331 35.433C77.7335 32.2859 77.6519 28.4268 76.2594 25.5135L76.2649 25.508ZM42.4812 25.6657C44.7059 20.7195 46.936 15.7734 49.1607 10.8326C49.5578 16.3278 49.9494 21.8229 50.341 27.318C47.7193 26.769 45.0975 26.2146 42.4812 25.6657ZM57.4448 8.47913C57.4774 8.16932 57.5753 7.65296 57.9017 7.11486C58.3912 6.305 59.0929 5.9517 59.441 5.78321C60.5779 5.22337 61.6548 5.35382 62.0628 5.40817C63.9774 5.66363 65.1687 6.96811 65.4134 7.26162C67.0017 9.18573 66.7896 11.6153 66.6373 13.4144C66.4578 15.4907 65.7996 16.7137 65.4624 17.2572C64.9728 18.0453 64.5214 18.4367 64.418 18.5236C63.341 19.4422 62.1444 19.5998 61.4318 19.6977C60.0176 19.8879 58.8427 19.6161 58.1302 19.3824C57.9071 15.7516 57.6787 12.1208 57.4502 8.48457L57.4448 8.47913ZM68.2636 34.0796C67.9318 35.0688 67.4042 36.5852 66.0009 37.8789C65.5766 38.2702 64.7553 39.0148 63.4661 39.3247C62.9929 39.4388 62.2858 39.6127 61.4264 39.3681C61.1816 39.2975 60.2896 39.0366 59.7184 38.243C59.2724 37.618 59.2507 36.9929 59.2071 36.02C59.1038 33.8187 58.9189 31.6174 58.7883 29.416C58.7557 28.829 58.7557 28.9323 58.7067 28.1496C58.5979 26.432 58.4728 24.0188 58.3912 21.0021C59.3377 20.8554 60.8389 20.7684 62.5523 21.2739C63.3519 21.5076 65.359 22.1273 66.8984 24.0351C67.8883 25.258 68.2364 26.4538 68.4812 27.3343C68.6335 27.8778 69.3841 30.7205 68.2582 34.0741L68.2636 34.0796Z" fill="#2D2B26"/>
</g>
<defs>
<clipPath id="clip0_1118_10992">
<rect width="104" height="107" fill="white"/>
</clipPath>
</defs>
</svg>