<svg xmlns="http://www.w3.org/2000/svg" width="177" height="53" viewBox="0 0 177 53" fill="none">
<g clip-path="url(#clip0_1115_10978)">
<path d="M55.9474 28.2415C55.6551 27.6232 54.9267 26.1308 53.3358 24.8411C51.6058 23.4404 49.7848 23.0299 49.0469 22.8753C48.5581 22.7691 48.1459 22.7208 47.8536 22.6918C48.6108 22.4648 50.5899 21.7644 52.0611 19.7841C53.3118 18.0984 53.5322 16.3886 53.6233 15.5868C53.7239 14.7077 53.9108 12.8482 52.9284 10.863C52.0994 9.18699 50.8583 8.26929 50.3263 7.88771C49.6794 7.42403 48.9989 7.06661 47.8968 6.66088C44.1925 5.29881 40.8524 5.25051 39.7359 5.26017C38.5283 5.26983 36.8558 5.37609 34.8767 5.78665C34.4981 5.41956 33.9183 4.89792 33.142 4.38594C30.3961 2.57467 27.564 2.39113 25.5034 2.28487C23.5051 2.18344 22.01 2.10133 20.1219 2.63263C19.3552 2.84998 13.4274 4.60812 12.3108 9.45748C12.2294 9.80041 11.4914 13.2394 13.528 15.2294C14.635 16.3113 16.1541 16.5721 16.4799 16.6301C17.0885 16.7363 18.023 16.8812 19.082 16.4562C19.4175 16.321 20.3903 15.9104 20.9893 14.8816C21.7033 13.6548 21.7656 11.7711 20.8168 11.0321C20.5101 10.7906 19.9542 10.5636 19.4271 10.6843C19.0197 10.7761 18.9526 11.0031 18.3872 11.2108C18.1907 11.2832 17.7307 11.4475 17.17 11.3847C17.0262 11.3702 16.0582 11.2639 15.6078 10.5104C15.5455 10.4042 15.3298 10.0226 15.4353 9.10971C15.4784 8.72814 15.6222 7.57376 16.4751 6.487C17.5821 5.07663 19.1635 4.69989 20.4669 4.38594C21.1522 4.22172 22.9061 3.87878 24.9811 4.38594C25.9922 4.63227 26.965 4.88343 27.5832 5.78665C28.024 6.42421 28.1007 7.11974 28.1055 7.53512C24.4444 15.553 21.2049 22.4454 18.6507 27.744C16.6477 27.3624 14.611 26.9374 12.5408 26.4592C12.1239 26.3626 11.7118 26.266 11.2997 26.1694C10.9355 26.0004 10.5234 26.0293 10.2359 26.2563C10.001 26.4399 9.92438 26.6959 9.90042 26.7973C9.8477 26.9374 9.78061 27.1837 9.79978 27.488C9.81416 27.7537 9.88604 27.9662 9.93875 28.0966C10.0298 28.198 10.1736 28.3381 10.3605 28.483C11.0074 28.9805 11.6783 29.0916 12.0281 29.1495C12.9338 29.3041 13.8299 29.5311 14.7404 29.6712C15.3873 29.7726 16.3266 29.9272 17.4767 30.1638C16.4799 32.1055 15.7324 33.7043 15.1909 34.7717C14.5391 36.0613 13.9976 37.0901 13.5855 37.8436C13.2645 38.4232 12.3204 40.0896 10.4371 41.0266C8.41008 42.0361 5.66902 42.0312 4.27931 40.7271C4.00137 40.4663 3.48862 39.9833 3.48862 39.3409C3.48862 38.6985 4.03013 38.4329 4.15472 37.462C4.19306 37.1432 4.25056 36.7327 4.05409 36.3415C3.62759 35.4962 2.2954 35.1967 1.37053 35.559C1.03029 35.6942 0.795477 35.9019 0.685259 36.013C0.148547 36.5492 0.0670819 37.2398 0.0239532 37.6311C-0.129393 39.0608 0.584626 40.3359 0.944031 40.8962C2.11809 42.7026 3.84803 43.4223 5.0125 43.9053C5.46775 44.0937 7.52834 44.9148 10.1879 44.7071C10.8972 44.6491 11.4914 44.6057 12.2342 44.3207C13.8874 43.6831 14.8027 42.4466 15.5215 41.4516C15.9288 40.8865 16.4656 39.6935 17.5294 37.3413C18.5261 35.1388 18.9622 34.2694 19.4702 33.2309C19.9734 32.2118 20.3951 31.381 20.6778 30.8352C22.0627 31.1154 23.4428 31.3907 24.8277 31.6708C26.5145 32.0089 28.2013 32.3519 29.8882 32.69C30.0319 33.9747 30.2284 35.6266 30.4824 37.549C31.5606 45.6489 32.2602 47.5423 33.8033 48.7643C34.9102 49.6386 36.4102 50.1312 36.482 50.1554C38.0203 50.6432 39.4052 50.6094 40.124 50.5852C40.4451 50.5756 41.0537 50.5176 42.2757 50.4017C42.5488 50.3775 43.1478 50.3196 43.9241 50.1988C45.0215 50.025 45.2707 49.9139 45.424 49.8366C45.7403 49.6724 46.4256 49.3149 46.5214 48.6436C46.5789 48.2475 46.4448 47.6969 46.0422 47.4892C45.6828 47.3056 45.2611 47.4747 45.2228 47.4892C45.0886 47.5423 45.0263 47.6003 44.9353 47.6631C44.619 47.8804 44.2979 47.9239 43.9002 47.9818C43.0568 48.0978 41.2741 48.1026 40.402 47.5037C40.263 47.4071 40.0234 47.2429 39.8652 46.9337C39.8077 46.8178 39.7694 46.6922 39.6927 46.4362C39.6065 46.1368 39.5538 45.9098 39.5394 45.8421C39.4244 45.335 39.3333 44.8906 39.2567 44.538C43.167 44.8858 46.1429 44.3352 47.9734 43.8473C49.9526 43.3209 50.9781 42.7558 51.4669 42.4708C52.224 42.0216 54.2367 40.7948 55.612 38.3749C57.433 35.1629 57.3515 31.2313 55.9426 28.256L55.9474 28.2415ZM21.7704 28.4009C24.0227 23.3535 26.2749 18.3109 28.5272 13.2635C28.9249 18.8712 29.3227 24.4789 29.7252 30.0817C27.0752 29.5214 24.4252 28.9563 21.7704 28.4009ZM36.9037 10.863C36.9373 10.5491 37.0379 10.0178 37.3638 9.47197C37.8574 8.64603 38.5666 8.28378 38.9212 8.1099C40.0713 7.53995 41.1639 7.67036 41.5712 7.72349C43.512 7.98431 44.7148 9.3174 44.9592 9.61687C46.5646 11.5779 46.3537 14.0605 46.1956 15.8911C46.0135 18.0115 45.3474 19.2576 45.0023 19.8131C44.5088 20.6149 44.0487 21.0158 43.9481 21.1027C42.8603 22.0397 41.6479 22.2039 40.9243 22.3054C39.4915 22.5034 38.303 22.2233 37.5842 21.9818C37.359 18.2771 37.129 14.5677 36.899 10.863H36.9037ZM47.8488 36.9839C47.5134 37.9933 46.9767 39.5389 45.5582 40.8575C45.1317 41.2584 44.2979 42.0119 42.9945 42.3355C42.5153 42.4515 41.7964 42.6253 40.9339 42.379C40.6847 42.3114 39.7838 42.0409 39.2087 41.2295C38.7535 40.5919 38.7391 39.9543 38.6912 38.9642C38.5906 36.7134 38.3989 34.4722 38.2695 32.2263C38.2359 31.6273 38.2359 31.7336 38.188 30.9318C38.0826 29.1785 37.9532 26.72 37.8669 23.6385C38.8206 23.4936 40.3445 23.397 42.0792 23.9138C42.8842 24.1553 44.9161 24.788 46.4735 26.7297C47.4751 27.9758 47.8297 29.1978 48.0741 30.0962C48.2274 30.6468 48.9894 33.5545 47.8488 36.9742V36.9839Z" fill="#2D2B26"/>
<path d="M71.7949 24.8748V22.5999C72.4035 22.5999 72.8971 22.426 73.2661 22.0734C73.6351 21.7208 73.9466 21.2619 74.1957 20.692C74.4449 20.1221 74.6893 19.5038 74.9289 18.8469L81.3072 1.21729H83.593L90.5559 19.1705C90.6853 19.499 90.8626 20.0013 91.0782 20.6678C91.2939 21.3392 91.428 21.9237 91.4712 22.4308C91.8402 22.3873 92.1948 22.3584 92.535 22.3487C92.8705 22.339 93.1484 22.3342 93.3688 22.3342V24.87H84.5754V22.6965C85.184 22.6965 85.6057 22.5709 85.8357 22.3197C86.0657 22.0686 86.1663 21.7208 86.1472 21.2813C86.1232 20.8417 86.0034 20.3491 85.7878 19.7984L85.1361 17.9872L78.0438 18.1176L77.5214 19.668C77.4112 19.953 77.2531 20.378 77.047 20.9383C76.841 21.4986 76.6493 21.9671 76.4768 22.339C76.8266 22.2956 77.2435 22.2666 77.7371 22.2569C78.2259 22.2473 78.5805 22.2424 78.8009 22.2424V24.8796H71.8045L71.7949 24.8748ZM78.8536 15.6494H84.3118L82.8071 11.5294C82.5244 10.7373 82.2752 9.94516 82.0547 9.13855C81.8343 8.33676 81.6714 7.62674 81.566 7.01333H81.5324C81.4462 7.38524 81.312 7.94553 81.1395 8.69418C80.9669 9.44284 80.6938 10.3316 80.32 11.3652L78.8488 15.6494H78.8536Z" fill="#2D2B26"/>
<path d="M94.7583 24.8746V22.7349C95.3669 22.7349 95.803 22.6141 96.0666 22.3726C96.3301 22.1311 96.4979 21.7834 96.5745 21.3342C96.6512 20.885 96.6895 20.373 96.6895 19.803V14.2678C96.6895 13.8718 96.6991 13.4274 96.7231 12.9347C96.7423 12.4421 96.7758 11.9542 96.8189 11.4664C96.4691 11.4906 96.0618 11.505 95.5922 11.5147C95.1225 11.5244 94.7679 11.5437 94.5283 11.563V9.06105C95.5299 9.06105 96.3781 9.00791 97.0777 8.89682C97.7726 8.78573 98.3236 8.65532 98.7262 8.50076C99.1287 8.3462 99.4067 8.20613 99.56 8.07089H101.161C101.204 8.28824 101.232 8.56355 101.242 8.89682C101.252 9.22527 101.271 9.50058 101.29 9.72276C102.033 9.15282 102.833 8.70362 103.691 8.37035C104.553 8.04191 105.363 7.87769 106.125 7.87769C107.127 7.87769 107.956 8.06123 108.607 8.42348C109.259 8.78573 109.786 9.33153 110.174 10.056C110.96 9.39915 111.823 8.86784 112.772 8.47661C113.721 8.08055 114.631 7.88252 115.503 7.88252C117.267 7.88252 118.604 8.3945 119.509 9.41364C120.415 10.4328 120.866 12.2102 120.866 14.7363V19.5809C120.866 19.89 120.856 20.3199 120.832 20.8801C120.808 21.4404 120.779 21.9717 120.736 22.4789C121.086 22.4354 121.469 22.4064 121.896 22.3968C122.322 22.3871 122.643 22.3823 122.859 22.3823V24.8842H114.588V22.7445C115.091 22.7445 115.455 22.6238 115.681 22.3823C115.911 22.1408 116.054 21.793 116.121 21.3438C116.188 20.8946 116.217 20.3827 116.217 19.8127V14.7701C116.193 13.3405 115.958 12.3551 115.513 11.8045C115.067 11.2539 114.473 10.9689 113.73 10.9496C113.165 10.9303 112.633 11.0269 112.144 11.2442C111.655 11.4664 111.214 11.7272 110.821 12.0363C110.932 12.4759 111.008 12.9589 111.051 13.4854C111.095 14.0118 111.118 14.5721 111.118 15.1662V19.5809C111.118 19.89 111.109 20.3199 111.085 20.8801C111.061 21.4404 111.032 21.9717 110.989 22.4789C111.339 22.4354 111.717 22.4064 112.134 22.3968C112.547 22.3871 112.877 22.3823 113.117 22.3823V24.8842H104.683V22.7445C105.248 22.7445 105.656 22.6238 105.909 22.3823C106.159 22.1408 106.317 21.793 106.384 21.3438C106.451 20.8946 106.48 20.3827 106.48 19.8127L106.446 14.6735C106.446 13.2439 106.24 12.2682 105.823 11.7417C105.411 11.2152 104.831 10.9399 104.089 10.9158C103.542 10.9158 103.039 11.0365 102.569 11.278C102.1 11.5195 101.683 11.8045 101.309 12.1329V19.5809C101.309 19.89 101.3 20.3199 101.276 20.8801C101.252 21.4404 101.223 21.9717 101.18 22.4789C101.53 22.4354 101.889 22.4064 102.258 22.3968C102.627 22.3871 102.924 22.3823 103.14 22.3823V24.8842H94.7392L94.7583 24.8746Z" fill="#2D2B26"/>
<path d="M131.854 25.4012C130.263 25.4012 128.859 25.0438 127.637 24.3289C126.415 23.6141 125.466 22.6046 124.795 21.2957C124.119 19.9916 123.784 18.4459 123.784 16.6685C123.784 15.1325 124.119 13.6932 124.795 12.3504C125.471 11.0125 126.424 9.93059 127.656 9.10465C128.888 8.27872 130.32 7.86816 131.954 7.86816C132.87 7.86816 133.761 7.99374 134.633 8.24491C135.505 8.49607 136.296 8.93077 137.005 9.54419C137.714 10.1576 138.28 10.9932 138.706 12.0461C139.133 13.0991 139.334 14.4177 139.31 16.0019L128.59 16.2C128.59 17.3882 128.739 18.4508 129.031 19.3975C129.324 20.3442 129.812 21.088 130.488 21.6386C131.164 22.1892 132.069 22.4645 133.2 22.4645C133.636 22.4645 134.13 22.3873 134.686 22.2327C135.242 22.0781 135.807 21.8221 136.387 21.4599C136.962 21.0976 137.504 20.6098 138.007 19.9916L139.478 21.3729C138.692 22.4935 137.853 23.3436 136.962 23.928C136.066 24.5125 135.179 24.8989 134.298 25.0969C133.416 25.2949 132.601 25.3915 131.863 25.3915L131.854 25.4012ZM128.782 13.9009H134.796C134.772 12.9783 134.648 12.249 134.422 11.708C134.192 11.1719 133.881 10.7807 133.493 10.5392C133.1 10.2977 132.644 10.1769 132.122 10.1769C131.164 10.1769 130.411 10.5247 129.865 11.2154C129.319 11.9061 128.959 12.8045 128.787 13.9009H128.782Z" fill="#2D2B26"/>
<path d="M140.269 22.735C140.877 22.735 141.318 22.6142 141.591 22.3727C141.865 22.1312 142.032 21.7835 142.099 21.3343C142.166 20.8851 142.195 20.3731 142.195 19.8032V6.25973C142.195 5.86367 142.205 5.40964 142.229 4.89283C142.248 4.37601 142.281 3.87852 142.325 3.39552C141.975 3.41967 141.567 3.43416 141.098 3.44382C140.628 3.45348 140.274 3.4728 140.034 3.49212V0.990158C141.059 0.990158 141.912 0.937027 142.598 0.825936C143.283 0.714846 143.829 0.584434 144.232 0.429873C144.634 0.275312 144.912 0.135241 145.066 0H146.829V19.5713C146.829 19.8804 146.82 20.3103 146.796 20.8706C146.772 21.4309 146.743 21.9622 146.7 22.4693C147.069 22.4259 147.462 22.3969 147.879 22.3872C148.291 22.3776 148.607 22.3727 148.827 22.3727V24.8747H140.264V22.735H140.269Z" fill="#2D2B26"/>
<path d="M150.965 22.7349C151.573 22.7349 152.009 22.6142 152.273 22.3727C152.536 22.1312 152.704 21.7834 152.781 21.3342C152.858 20.885 152.896 20.3731 152.896 19.8031V14.3355C152.896 13.9394 152.905 13.4854 152.929 12.9686C152.949 12.4518 152.982 11.9543 153.025 11.4713C152.675 11.4954 152.268 11.5099 151.798 11.5196C151.329 11.5293 150.974 11.5486 150.735 11.5679V9.06593C151.736 9.06593 152.584 9.0128 153.284 8.90171C153.979 8.79062 154.53 8.66021 154.932 8.50565C155.335 8.35109 155.613 8.21102 155.766 8.07578H157.53V19.5761C157.53 19.8852 157.52 20.3151 157.496 20.8754C157.472 21.4357 157.444 21.967 157.4 22.4741C157.75 22.4306 158.134 22.4017 158.56 22.392C158.987 22.3823 159.308 22.3775 159.523 22.3775V24.8795H150.96V22.7398L150.965 22.7349ZM155.052 5.47239C154.31 5.47239 153.701 5.20673 153.222 4.68026C152.742 4.15379 152.503 3.51622 152.503 2.76757C152.503 2.01891 152.752 1.38617 153.255 0.85487C153.758 0.328396 154.343 0.0627441 155.019 0.0627441C155.694 0.0627441 156.298 0.328396 156.768 0.85487C157.237 1.38134 157.472 2.01891 157.472 2.76757C157.472 3.51622 157.252 4.14896 156.821 4.68026C156.384 5.20673 155.795 5.47239 155.057 5.47239H155.052Z" fill="#2D2B26"/>
<path d="M170.818 24.8747C170.775 24.5656 170.746 24.3096 170.737 24.1019C170.727 23.8942 170.708 23.6479 170.689 23.3629C169.946 24.1116 169.165 24.6381 168.336 24.9423C167.507 25.2515 166.668 25.4012 165.82 25.4012C164.426 25.4012 163.338 24.9858 162.552 24.1502C161.766 23.3146 161.373 22.2713 161.373 21.0204C161.373 19.9674 161.641 19.0642 162.173 18.3204C162.705 17.5717 163.414 16.9631 164.296 16.4898C165.178 16.0164 166.16 15.6542 167.239 15.403C168.317 15.1519 169.4 15.0021 170.492 14.9587V13.244C170.492 12.6741 170.42 12.1572 170.282 11.6936C170.138 11.2347 169.898 10.8676 169.563 10.6068C169.222 10.3411 168.753 10.2204 168.139 10.2445C167.727 10.2687 167.32 10.3556 166.932 10.5102C166.539 10.6648 166.203 10.8821 165.921 11.1671C166.093 11.3651 166.203 11.5776 166.247 11.8095C166.29 12.0413 166.314 12.2442 166.314 12.4181C166.314 12.8576 166.141 13.3116 165.791 13.785C165.442 14.2583 164.886 14.4805 164.124 14.4612C163.472 14.4418 162.969 14.21 162.619 13.7705C162.269 13.3309 162.097 12.8141 162.097 12.22C162.097 11.341 162.408 10.5778 163.026 9.93059C163.649 9.28336 164.483 8.77621 165.528 8.41396C166.572 8.05171 167.727 7.86816 168.992 7.86816C170.909 7.86816 172.395 8.36566 173.454 9.36547C174.513 10.3653 175.04 11.964 175.04 14.1569V16.0696C175.04 16.596 175.035 17.1225 175.026 17.649C175.016 18.1755 175.011 18.813 175.011 19.5617C175.011 19.8708 175.002 20.3007 174.978 20.861C174.954 21.4212 174.925 21.9526 174.882 22.4597C175.251 22.4162 175.644 22.3873 176.061 22.3776C176.473 22.3679 176.789 22.3631 177.01 22.3631V24.8651H170.833L170.818 24.8747ZM170.459 17.2964C169.85 17.364 169.27 17.4703 168.724 17.6248C168.178 17.7794 167.703 17.9871 167.301 18.2527C166.898 18.5184 166.582 18.8372 166.352 19.2091C166.122 19.581 166.007 20.0012 166.007 20.4601C166.026 21.0735 166.223 21.513 166.596 21.7787C166.965 22.0443 167.392 22.1747 167.871 22.1747C168.35 22.1747 168.839 22.0636 169.275 21.8463C169.711 21.6289 170.104 21.3391 170.454 20.9914V17.3012L170.459 17.2964Z" fill="#2D2B26"/>
<path d="M71.7949 52.4736V50.3001C72.2981 50.2808 72.715 50.2132 73.0552 50.1021C73.3907 49.991 73.6542 49.7398 73.8411 49.3438C74.028 48.9477 74.1191 48.3101 74.1191 47.4311V34.815C74.1191 34.2209 74.1335 33.651 74.167 33.1004C74.2005 32.5497 74.2245 32.1344 74.2485 31.8494C73.8986 31.8735 73.4626 31.888 72.9402 31.8977C72.4179 31.9073 72.0345 31.9267 71.7949 31.946V29.4102C73.2996 29.3909 74.8091 29.3764 76.3234 29.3764C77.8377 29.3764 79.3472 29.3667 80.8519 29.3426C83.4684 29.3233 85.5434 29.8111 87.0768 30.8109C88.6151 31.8107 89.3243 33.3225 89.2189 35.3415C89.1758 35.9791 88.9793 36.5973 88.6295 37.2011C88.2796 37.8048 87.7621 38.3506 87.0768 38.8336C86.3916 39.3166 85.5338 39.703 84.5131 39.988V40.0218C86.6935 40.3744 88.294 41.1037 89.3195 42.2146C90.345 43.3256 90.8578 44.5572 90.8578 45.9193C90.8578 47.2814 90.5128 48.5517 89.8275 49.5273C89.1422 50.503 88.1982 51.242 87.0002 51.7346C85.8021 52.2273 84.4412 52.4736 82.9125 52.4736H71.7997H71.7949ZM78.7243 50.1359H79.836C80.1858 50.1359 80.5309 50.1311 80.8807 50.1214C81.2305 50.1118 81.566 50.1069 81.8918 50.1069C83.2192 50.0393 84.192 49.6143 84.8006 48.8221C85.4092 48.03 85.7159 47.0302 85.7159 45.8227C85.7159 44.8132 85.5098 44.0162 85.0929 43.4318C84.6808 42.8522 84.1489 42.4368 83.5067 42.1953C82.8646 41.9538 82.1937 41.8331 81.4989 41.8331H80.0948C79.7018 41.8331 79.2897 41.8427 78.8536 41.8669V47.2379C78.8536 47.832 78.8441 48.3923 78.8201 48.9187C78.7961 49.4452 78.7674 49.8509 78.7243 50.1359ZM78.8536 39.5291L80.5548 39.4953C81.4701 39.476 82.1937 39.2635 82.7304 38.8674C83.2623 38.4714 83.6457 37.9401 83.8757 37.2687C84.1058 36.5973 84.2208 35.868 84.2208 35.0758C84.2208 34.1968 84.0483 33.5109 83.6984 33.0183C83.3486 32.5256 82.9125 32.1682 82.3902 31.946C81.8679 31.7286 81.3216 31.6272 80.7561 31.6514C80.4063 31.6514 80.09 31.7045 79.8073 31.8156C79.5245 31.9267 79.2945 32.173 79.122 32.5546C78.9495 32.941 78.8584 33.5592 78.8584 34.4141V39.5195L78.8536 39.5291Z" fill="#2D2B26"/>
<path d="M102.009 52.4736C101.966 52.1645 101.937 51.9085 101.927 51.7008C101.918 51.4931 101.899 51.2468 101.88 50.9618C101.137 51.7105 100.356 52.2369 99.5266 52.5412C98.6976 52.8503 97.859 53.0001 97.0108 53.0001C95.6163 53.0001 94.5285 52.5847 93.7426 51.7491C92.9567 50.9135 92.5637 49.8702 92.5637 48.6192C92.5637 47.5663 92.8321 46.6631 93.364 45.9192C93.8959 45.1706 94.6051 44.562 95.4869 44.0887C96.3686 43.6153 97.351 43.2531 98.4292 43.0019C99.5074 42.7507 100.59 42.601 101.683 42.5575V40.8429C101.683 40.2729 101.611 39.7561 101.472 39.2924C101.328 38.8336 101.089 38.4665 100.753 38.2057C100.413 37.94 99.9435 37.8193 99.3301 37.8434C98.918 37.8676 98.5107 37.9545 98.1225 38.1091C97.7296 38.2636 97.3941 38.481 97.1114 38.766C97.2839 38.964 97.3941 39.1765 97.4373 39.4083C97.4804 39.6402 97.5043 39.8431 97.5043 40.0169C97.5043 40.4565 97.3318 40.9105 96.982 41.3838C96.6322 41.8572 96.0763 42.0794 95.3144 42.06C94.6626 42.0407 94.1595 41.8089 93.8097 41.3693C93.4598 40.9298 93.2873 40.413 93.2873 39.8189C93.2873 38.9398 93.5988 38.1767 94.217 37.5295C94.84 36.8822 95.6738 36.3751 96.7184 36.0128C97.7631 35.6506 98.918 35.467 100.183 35.467C102.1 35.467 103.585 35.9645 104.645 36.9644C105.704 37.9642 106.231 39.5629 106.231 41.7557V43.6684C106.231 44.1949 106.226 44.7214 106.216 45.2479C106.207 45.7743 106.202 46.4119 106.202 47.1606C106.202 47.4697 106.192 47.8996 106.168 48.4598C106.144 49.0201 106.116 49.5514 106.073 50.0586C106.442 50.0151 106.835 49.9861 107.251 49.9765C107.664 49.9668 107.98 49.962 108.2 49.962V52.4639H102.023L102.009 52.4736ZM101.649 44.8953C101.041 44.9629 100.461 45.0692 99.9148 45.2237C99.3685 45.3783 98.894 45.586 98.4915 45.8516C98.089 46.1173 97.7727 46.4361 97.5427 46.808C97.3127 47.1799 97.1977 47.6001 97.1977 48.0589C97.2168 48.6724 97.4133 49.1119 97.7871 49.3775C98.1561 49.6432 98.5826 49.7736 99.0618 49.7736C99.541 49.7736 100.03 49.6625 100.466 49.4452C100.902 49.2278 101.295 48.938 101.645 48.5903V44.9001L101.649 44.8953Z" fill="#2D2B26"/>
<path d="M109.528 52.4736V50.3339C110.136 50.3339 110.577 50.2132 110.85 49.9717C111.123 49.7302 111.296 49.3824 111.373 48.9332C111.449 48.484 111.488 47.972 111.488 47.4021V33.8635C111.488 33.4674 111.497 33.0134 111.521 32.4966C111.54 31.9798 111.574 31.4823 111.617 30.9993C111.267 31.0234 110.86 31.0379 110.39 31.0476C109.921 31.0572 109.566 31.0766 109.326 31.0959V28.5939C110.328 28.5939 111.171 28.5408 111.861 28.4297C112.547 28.3186 113.098 28.1882 113.51 28.0336C113.922 27.8791 114.195 27.739 114.329 27.6038H116.126V42.6252H117.693L120.046 39.8914C120.329 39.5822 120.564 39.3214 120.751 39.0992C120.938 38.8819 121.124 38.6839 121.321 38.5052H119.586V36.0032H126.942V38.1139C126.18 38.2009 125.504 38.3844 124.915 38.6597C124.326 38.935 123.818 39.2586 123.396 39.6306C122.969 40.0025 122.605 40.3647 122.299 40.7173L120.204 43.0889C120.53 43.2434 120.851 43.4656 121.168 43.7651C121.484 44.0597 121.872 44.5185 122.327 45.132L124.517 48.03C124.647 48.1845 124.814 48.3922 125.025 48.6579C125.231 48.9235 125.466 49.1795 125.73 49.4307C125.993 49.6819 126.276 49.8992 126.578 50.0731C126.885 50.247 127.201 50.3387 127.527 50.3387V52.4785H123.77C123.07 52.4785 122.461 52.2321 121.939 51.7395C121.417 51.2468 120.818 50.5368 120.142 49.6142C119.749 49.0878 119.342 48.5226 118.915 47.9189C118.489 47.3151 118.096 46.7452 117.737 46.2042C117.377 45.6681 117.09 45.2431 116.869 44.9339L116.117 44.9677V47.1751C116.117 47.4842 116.107 47.9141 116.083 48.4743C116.059 49.0346 116.031 49.5659 115.987 50.0731C116.337 50.0296 116.716 50.0006 117.133 49.991C117.545 49.9813 117.875 49.9765 118.115 49.9765V52.4785H109.518L109.528 52.4736Z" fill="#2D2B26"/>
<path d="M138.74 52.4736C138.697 52.1645 138.668 51.9085 138.659 51.7008C138.649 51.4931 138.63 51.2468 138.611 50.9618C137.868 51.7105 137.087 52.2369 136.258 52.5412C135.429 52.8503 134.59 53.0001 133.742 53.0001C132.347 53.0001 131.26 52.5847 130.474 51.7491C129.688 50.9135 129.295 49.8702 129.295 48.6192C129.295 47.5663 129.563 46.6631 130.095 45.9192C130.627 45.1706 131.336 44.562 132.218 44.0887C133.1 43.6153 134.082 43.2531 135.16 43.0019C136.239 42.7507 137.322 42.601 138.414 42.5575V40.8429C138.414 40.2729 138.342 39.7561 138.203 39.2924C138.06 38.8336 137.82 38.4665 137.485 38.2057C137.144 37.94 136.675 37.8193 136.061 37.8434C135.649 37.8676 135.242 37.9545 134.854 38.1091C134.461 38.2636 134.125 38.481 133.843 38.766C134.015 38.964 134.125 39.1765 134.168 39.4083C134.212 39.6402 134.236 39.8431 134.236 40.0169C134.236 40.4565 134.063 40.9105 133.713 41.3838C133.363 41.8572 132.808 42.0794 132.046 42.06C131.394 42.0407 130.891 41.8089 130.541 41.3693C130.191 40.9298 130.019 40.413 130.019 39.8189C130.019 38.9398 130.33 38.1767 130.948 37.5295C131.571 36.8822 132.405 36.3751 133.45 36.0128C134.494 35.6506 135.649 35.467 136.914 35.467C138.831 35.467 140.317 35.9645 141.376 36.9644C142.435 37.9642 142.962 39.5629 142.962 41.7557V43.6684C142.962 44.1949 142.957 44.7214 142.948 45.2479C142.938 45.7743 142.933 46.4119 142.933 47.1606C142.933 47.4697 142.924 47.8996 142.9 48.4598C142.876 49.0201 142.847 49.5514 142.804 50.0586C143.173 50.0151 143.566 49.9861 143.983 49.9765C144.395 49.9668 144.711 49.962 144.931 49.962V52.4639H138.754L138.74 52.4736ZM138.381 44.8953C137.772 44.9629 137.192 45.0692 136.646 45.2237C136.1 45.3783 135.625 45.586 135.223 45.8516C134.82 46.1173 134.504 46.4361 134.274 46.808C134.044 47.1799 133.929 47.6001 133.929 48.0589C133.948 48.6724 134.144 49.1119 134.518 49.3775C134.887 49.6432 135.314 49.7736 135.793 49.7736C136.272 49.7736 136.761 49.6625 137.197 49.4452C137.633 49.2278 138.026 48.938 138.376 48.5903V44.9001L138.381 44.8953Z" fill="#2D2B26"/>
<path d="M146.781 50.3338C147.39 50.3338 147.826 50.213 148.09 49.9715C148.353 49.73 148.521 49.3822 148.597 48.933C148.674 48.4839 148.712 47.9719 148.712 47.4019V41.8667C148.712 41.4706 148.722 41.0263 148.746 40.5336C148.765 40.0409 148.799 39.5531 148.842 39.0653C148.492 39.0894 148.085 39.1039 147.615 39.1136C147.145 39.1232 146.791 39.1426 146.551 39.1619V36.6599H147.859C148.708 36.6599 149.489 36.5488 150.198 36.3315C150.907 36.1141 151.367 35.8919 151.588 35.6746H153.188C153.231 35.8919 153.265 36.3073 153.284 36.9111C153.303 37.5148 153.318 38.0461 153.318 38.5098C153.907 37.7853 154.463 37.2057 154.985 36.7614C155.508 36.3218 156.025 35.9982 156.538 35.7905C157.051 35.5828 157.568 35.4766 158.091 35.4766C158.853 35.4766 159.519 35.6891 160.084 36.119C160.65 36.5488 160.932 37.2444 160.932 38.2104C160.932 38.5388 160.856 38.8866 160.702 39.2488C160.549 39.6111 160.309 39.9154 159.983 40.1569C159.658 40.3984 159.212 40.5191 158.642 40.5191C158.206 40.5191 157.76 40.3887 157.3 40.1231C156.84 39.8574 156.581 39.3551 156.514 38.6064C156.078 38.6064 155.642 38.79 155.206 39.1522C154.77 39.5145 154.382 39.9443 154.046 40.437C153.706 40.9297 153.476 41.3885 153.342 41.8039V47.1749C153.342 47.484 153.332 47.9139 153.308 48.4742C153.284 49.0345 153.255 49.5658 153.212 50.0729C153.562 50.0295 153.945 50.0005 154.372 49.9908C154.798 49.9812 155.119 49.9763 155.335 49.9763V52.4783H146.772V50.3386L146.781 50.3338Z" fill="#2D2B26"/>
<path d="M162.763 52.4736C162.063 52.4736 161.493 52.2225 161.047 51.7153C160.601 51.2082 160.376 50.6044 160.376 49.9041C160.376 49.2037 160.616 48.5999 161.095 48.0928C161.574 47.5856 162.13 47.3345 162.763 47.3345C163.438 47.3345 163.999 47.5856 164.445 48.0928C164.89 48.5999 165.116 49.2037 165.116 49.9041C165.116 50.6044 164.905 51.213 164.478 51.7153C164.052 52.2176 163.481 52.4736 162.763 52.4736V52.4736Z" fill="#2D2B26"/>
</g>
<defs>
<clipPath id="clip0_1115_10978">
<rect width="177" height="53" fill="white"/>
</clipPath>
</defs>
</svg>