<svg width="97" height="25" viewBox="0 0 97 25" fill="none" xmlns="http://www.w3.org/2000/svg">
<path d="M27.6791 12.9146C27.534 12.609 27.1741 11.8676 26.3865 11.2286C25.5311 10.5341 24.6301 10.3309 24.2642 10.2528C24.022 10.2007 23.8176 10.1755 23.675 10.1616C24.0495 10.0496 25.0278 9.70151 25.7561 8.71875C26.3754 7.88272 26.4836 7.03453 26.5291 6.63517C26.5789 6.19936 26.6717 5.27737 26.1855 4.29115C25.775 3.45858 25.1618 3.0054 24.8972 2.81528C24.5777 2.58521 24.2393 2.40898 23.6948 2.20757C21.8628 1.53214 20.2103 1.5087 19.658 1.51304C19.0611 1.51825 18.2323 1.56947 17.2532 1.77349C17.0668 1.5903 16.7791 1.33333 16.3943 1.07896C15.0355 0.180415 13.6347 0.0901262 12.6152 0.0371685C11.6266 -0.0140528 10.888 -0.0531199 9.95269 0.2108C9.57392 0.317584 6.63998 1.19095 6.08772 3.59662C6.04821 3.76678 5.68233 5.47271 6.68894 6.46154C7.23604 6.99893 7.98842 7.12829 8.14903 7.15607C8.44964 7.20816 8.91258 7.28108 9.43736 7.06925C9.60398 7.00154 10.085 6.79926 10.3821 6.28791C10.736 5.67933 10.766 4.74432 10.2962 4.37796C10.1442 4.25902 9.87023 4.14616 9.60913 4.20433C9.4073 4.24947 9.37466 4.36147 9.0938 4.46478C8.99589 4.50124 8.76829 4.58198 8.49259 4.55159C8.4213 4.54378 7.9429 4.49082 7.71959 4.11751C7.68782 4.06456 7.58303 3.8753 7.63371 3.42299C7.65432 3.23373 7.72561 2.66161 8.14903 2.12075C8.69786 1.42015 9.47944 1.23349 10.1245 1.07896C10.4646 0.997352 11.3303 0.828061 12.3576 1.07896C12.8574 1.2005 13.3393 1.32638 13.6459 1.77349C13.8632 2.09036 13.901 2.43502 13.9035 2.64164C12.0922 6.61868 10.4903 10.0401 9.22521 12.6697C8.2332 12.4814 7.22574 12.2695 6.20281 12.0316C5.99668 11.9839 5.79226 11.9353 5.58871 11.8867C5.40835 11.8033 5.20479 11.8181 5.06222 11.9301C4.94541 12.0221 4.90762 12.1488 4.89559 12.1983C4.86983 12.2687 4.83719 12.3893 4.84492 12.5421C4.85179 12.6741 4.887 12.7783 4.91449 12.8434C4.96001 12.8937 5.02958 12.9641 5.1232 13.0352C5.44356 13.2809 5.77509 13.3365 5.94858 13.366C6.39778 13.4433 6.84096 13.5544 7.29101 13.6239C7.61223 13.6733 8.07689 13.7506 8.64547 13.8678C8.15161 14.8323 7.78143 15.625 7.51432 16.1537C7.19138 16.7926 6.92427 17.3048 6.71986 17.6773C6.56182 17.9646 6.09459 18.792 5.1627 19.2573C4.15953 19.7583 2.80336 19.7557 2.11625 19.1089C1.97969 18.9804 1.72546 18.7408 1.72546 18.4222C1.72546 18.0957 1.99257 17.9725 2.05441 17.4889C2.07417 17.3309 2.10079 17.1269 2.00374 16.9333C1.79331 16.514 1.13369 16.3646 0.676768 16.5461C0.507569 16.6129 0.392479 16.7154 0.336651 16.7709C0.0721159 17.0366 0.0308896 17.3786 0.0102765 17.574C-0.0644462 18.2824 0.286836 18.917 0.465484 19.1931C1.04523 20.089 1.90239 20.4458 2.47784 20.6863C2.70287 20.7801 3.7215 21.1872 5.03903 21.0839C5.39031 21.0562 5.68319 21.0336 6.05251 20.8921C6.87016 20.5769 7.32365 19.9623 7.67837 19.4683C7.88021 19.187 8.1456 18.5958 8.67124 17.4281C9.16337 16.3351 9.37981 15.9036 9.63232 15.3879C9.88054 14.8818 10.091 14.4703 10.231 14.1994C10.9155 14.3375 11.6 14.4755 12.2845 14.6144C13.1194 14.7828 13.9534 14.9513 14.7882 15.1197C14.8595 15.7569 14.9557 16.5765 15.0828 17.5297C15.617 21.5475 15.9614 22.4886 16.725 23.0937C17.2738 23.5287 18.015 23.7709 18.0511 23.783C18.8129 24.0253 19.4974 24.0079 19.853 23.9957C20.0119 23.9905 20.3134 23.9619 20.9172 23.9046C21.0511 23.8916 21.3492 23.8629 21.7331 23.803C22.2759 23.7179 22.3996 23.6624 22.4752 23.6233C22.6306 23.5426 22.9699 23.3655 23.0188 23.0303C23.048 22.8341 22.9811 22.5598 22.7809 22.4582C22.604 22.3679 22.3944 22.4504 22.3747 22.4582C22.3094 22.4851 22.2768 22.5138 22.2321 22.545C22.0758 22.6518 21.9178 22.6753 21.7194 22.7031C21.3011 22.7604 20.419 22.7638 19.9887 22.466C19.9209 22.4192 19.8006 22.3367 19.7242 22.1839C19.695 22.1266 19.6769 22.0632 19.64 21.9373C19.5971 21.7889 19.5713 21.6752 19.5644 21.6422C19.5086 21.3913 19.4614 21.1699 19.4244 20.9954C21.3586 21.169 22.8325 20.8955 23.7369 20.6525C24.7151 20.3903 25.2236 20.1116 25.4649 19.9684C25.8403 19.7452 26.8357 19.1375 27.5159 17.936C28.4161 16.3421 28.3774 14.3904 27.6791 12.9146ZM10.7703 12.9944C11.8843 10.4907 12.9991 7.98777 14.1131 5.484C14.3106 8.26558 14.5073 11.048 14.7049 13.8296C13.3934 13.5509 12.0819 13.2722 10.7703 12.9944ZM18.2581 4.29288C18.2744 4.13661 18.3233 3.87443 18.4865 3.60183C18.7313 3.19293 19.0826 3.01322 19.2569 2.9264C19.8264 2.64338 20.3658 2.70849 20.5685 2.73541C21.5278 2.86389 22.1239 3.5263 22.245 3.67389C23.0386 4.64796 22.9338 5.87901 22.8565 6.78797C22.7672 7.84018 22.4365 8.45918 22.2673 8.73438C22.0225 9.13287 21.7967 9.33167 21.746 9.37508C21.2083 9.83955 20.608 9.92115 20.2507 9.97064C19.5421 10.0679 18.9538 9.92897 18.5973 9.81003C18.4848 7.97214 18.3714 6.13251 18.2581 4.29288ZM23.6725 17.2528C23.5058 17.7546 23.2413 18.5203 22.5396 19.1757C22.3274 19.3745 21.916 19.7496 21.271 19.9085C21.0331 19.9666 20.6793 20.0534 20.2515 19.931C20.1287 19.8963 19.6821 19.7626 19.3969 19.3615C19.1728 19.0464 19.1642 18.7295 19.1419 18.2364C19.0912 17.1208 18.9976 16.0087 18.9331 14.894C18.916 14.5971 18.9168 14.65 18.8928 14.2524C18.8395 13.3834 18.7768 12.1619 18.7339 10.6348C19.2063 10.5619 19.9587 10.5158 20.8175 10.7719C21.2169 10.8909 22.2209 11.2052 22.9922 12.1688C23.4878 12.7878 23.6621 13.3938 23.785 13.84C23.8614 14.1144 24.2367 15.5555 23.6725 17.2528Z" fill="white"/>
<path d="M43.767 7.33476H39.9486L39.2738 8.87005C39.118 9.24674 39.0373 9.52641 39.0373 9.71475C39.0373 9.79466 39.0488 9.86315 39.0776 9.93163C39.1065 10.0001 39.1584 10.0572 39.2392 10.1086C39.3199 10.1599 39.4353 10.2113 39.5852 10.2455C39.7352 10.2855 39.9313 10.314 40.1736 10.3254V10.5937H37.0762V10.3254C37.3242 10.2912 37.5203 10.2341 37.6703 10.1656C37.8202 10.0971 37.9529 9.99442 38.0625 9.86885C38.1721 9.74329 38.2701 9.58348 38.3624 9.37802C38.4547 9.17826 38.5643 8.93284 38.6912 8.63605L42.1635 0.628541H42.4115L45.8377 8.72737C45.9761 9.06411 46.103 9.33236 46.2242 9.53782C46.3453 9.74329 46.4664 9.9031 46.5933 10.0172C46.7202 10.1314 46.8586 10.2113 47.0028 10.2513C47.147 10.2912 47.3316 10.3197 47.5393 10.3254V10.5937H43.6459V10.3254C44.0381 10.314 44.3034 10.2513 44.4419 10.1371C44.5803 10.0287 44.6553 9.89168 44.6553 9.73758C44.6495 9.53212 44.5514 9.19538 44.3611 8.72737L43.767 7.33476ZM43.5594 6.79826L41.8924 2.86014L40.1793 6.79826H43.5594Z" fill="white"/>
<path fill-rule="evenodd" clip-rule="evenodd" d="M43.6459 10.3254C44.0381 10.314 44.3034 10.2513 44.4419 10.1371C44.5803 10.0287 44.6553 9.89168 44.6553 9.73758C44.6495 9.53212 44.5514 9.19538 44.3611 8.72737L43.767 7.33476H39.9486L39.2738 8.87005C39.118 9.24674 39.0373 9.52641 39.0373 9.71475C39.0373 9.79466 39.0488 9.86315 39.0776 9.93163C39.1065 10.0001 39.1584 10.0572 39.2392 10.1086C39.3199 10.1599 39.4353 10.2113 39.5852 10.2455C39.7352 10.2855 39.9313 10.314 40.1736 10.3254V10.5937H37.0762V10.3254C37.3242 10.2912 37.5203 10.2341 37.6703 10.1656C37.8202 10.0971 37.9529 9.99442 38.0625 9.86885C38.1721 9.74329 38.2701 9.58348 38.3624 9.37802C38.4547 9.17826 38.5643 8.93284 38.6912 8.63605L42.1635 0.628541H42.4115L45.8377 8.72737C45.9761 9.06411 46.103 9.33236 46.2242 9.53782C46.3453 9.74329 46.4664 9.9031 46.5933 10.0172C46.7202 10.1314 46.8586 10.2113 47.0028 10.2513C47.147 10.2912 47.3316 10.3197 47.5393 10.3254V10.5937H43.6459V10.3254ZM39.4123 8.9279C39.2572 9.30339 39.1877 9.55858 39.1877 9.71475C39.1877 9.7791 39.1967 9.82748 39.2165 9.8744C39.2307 9.90831 39.2585 9.94396 39.3205 9.98339C39.3853 10.0247 39.4844 10.0698 39.619 10.1005L39.6243 10.1018C39.7609 10.1381 39.9457 10.1657 40.1807 10.1768L40.3239 10.1836V10.7425H36.9258V10.196L37.0554 10.1781C37.2919 10.1454 37.4733 10.0917 37.6072 10.0305C37.7359 9.97178 37.8517 9.88272 37.9487 9.77159C38.046 9.66005 38.1369 9.51381 38.225 9.31758L38.2256 9.31614C38.3173 9.11778 38.4263 8.87366 38.5527 8.57807L42.0644 0.479736H42.5116L45.977 8.6713C46.1142 9.00505 46.238 9.26604 46.3541 9.46284C46.471 9.66121 46.5831 9.80698 46.6945 9.90714C46.8071 10.0085 46.9254 10.0753 47.0434 10.108C47.1743 10.1442 47.3466 10.1713 47.5434 10.1767L47.6896 10.1807V10.7425H43.4955V10.181L43.6415 10.1767C43.8313 10.1712 43.9847 10.1533 44.1041 10.1251C44.2248 10.0965 44.301 10.0596 44.3456 10.0228L44.3485 10.0204C44.4571 9.9353 44.5043 9.83938 44.5049 9.73956C44.4993 9.56345 44.4116 9.25021 44.2221 8.78409L43.6673 7.48356H40.0472L39.4123 8.9279ZM41.8924 2.86014L40.1793 6.79826H43.5594L41.8924 2.86014ZM41.8905 3.24086L40.4078 6.64946H43.3333L41.8905 3.24086Z" fill="white"/>
<path d="M54.2243 10.5937L50.4232 2.39784V8.91001C50.4232 9.24675 50.4463 9.50929 50.4924 9.69763C50.5386 9.88598 50.6078 10.0287 50.7001 10.12C50.7924 10.2113 50.902 10.2684 51.0289 10.2912C51.1558 10.314 51.3057 10.3255 51.473 10.3255H51.8191V10.5937H48.3929V10.3255H48.739C48.912 10.3255 49.062 10.314 49.1947 10.2855C49.3273 10.257 49.4311 10.1999 49.5177 10.1029C49.6042 10.0058 49.6676 9.86315 49.7138 9.6748C49.7541 9.48646 49.7772 9.22963 49.7772 8.91001V2.54053C49.7772 2.31223 49.7657 2.11247 49.7426 1.93554C49.7195 1.75861 49.6676 1.61022 49.5753 1.49036C49.4831 1.37051 49.3504 1.27348 49.1658 1.2107C48.9812 1.14792 48.7217 1.11367 48.3929 1.11367V0.845426H51.1788L54.755 8.47054L58.2677 0.845426H61.0536V1.11367H60.719C60.5402 1.11367 60.3845 1.1308 60.2518 1.15933C60.1192 1.18787 60.0154 1.25065 59.9288 1.34768C59.8423 1.439 59.7789 1.58168 59.7327 1.77003C59.6866 1.95837 59.6693 2.21521 59.6693 2.53482V8.9043C59.6693 9.24104 59.6923 9.50358 59.7385 9.69193C59.7846 9.88027 59.8538 10.023 59.9461 10.1143C60.0384 10.2056 60.148 10.2627 60.2749 10.2855C60.4018 10.3083 60.5518 10.3197 60.719 10.3197H61.0536V10.588H56.8718V10.3197H57.2179C57.3909 10.3197 57.5409 10.3083 57.6736 10.2741C57.8062 10.2455 57.9158 10.1828 58.0023 10.0857C58.0946 9.98871 58.1581 9.84603 58.2042 9.66339C58.2504 9.48075 58.2677 9.22392 58.2677 8.9043V2.39784L54.4723 10.5937H54.2243Z" fill="white"/>
<path fill-rule="evenodd" clip-rule="evenodd" d="M54.1279 10.7425L50.5736 3.07887V8.91001C50.5736 9.24223 50.5966 9.49112 50.6386 9.66258C50.6815 9.83769 50.7416 9.95059 50.8064 10.0148C50.8774 10.085 50.9593 10.1275 51.0558 10.1448C51.1715 10.1656 51.3121 10.1766 51.473 10.1766H51.9695V10.7425H48.2425V10.1766H48.739C48.9061 10.1766 49.0444 10.1655 49.1627 10.1401C49.2672 10.1176 49.3416 10.0754 49.4049 10.0044C49.4681 9.93359 49.5237 9.81826 49.5671 9.64184C49.6043 9.46745 49.6268 9.22258 49.6268 8.91001V2.54053C49.6268 2.31703 49.6155 2.12381 49.5935 1.95459C49.5726 1.79491 49.5274 1.6737 49.4557 1.58055C49.3831 1.48622 49.2761 1.40556 49.1169 1.35142C48.9545 1.29618 48.7136 1.26248 48.3929 1.26248H48.2425V0.696621H51.2748L54.7537 8.11444L58.1709 0.696621H61.204V1.26248H60.719C60.5498 1.26248 60.4049 1.27869 60.2838 1.30474C60.1835 1.3263 60.1077 1.37201 60.0416 1.44613L60.0386 1.4495C59.9783 1.51311 59.9227 1.62621 59.8789 1.80509C59.8372 1.97538 59.8197 2.21746 59.8197 2.53482V8.9043C59.8197 9.23652 59.8426 9.48541 59.8846 9.65687C59.9275 9.83198 59.9876 9.94489 60.0525 10.0091C60.1234 10.0792 60.2054 10.1217 60.3018 10.1391C60.4175 10.1599 60.5581 10.1709 60.719 10.1709H61.204V10.7368H56.7214V10.1709H57.2179C57.3856 10.1709 57.5209 10.1597 57.6356 10.1301L57.6416 10.1286C57.7442 10.1065 57.8251 10.0596 57.8896 9.98729L57.8928 9.9837C57.9594 9.9137 58.0147 9.7998 58.0583 9.6273C58.0997 9.46347 58.1173 9.22212 58.1173 8.9043V3.07981L54.5689 10.7425H54.1279ZM58.2677 2.39784V8.9043C58.2677 9.22392 58.2504 9.48075 58.2042 9.66339C58.1581 9.84603 58.0946 9.98871 58.0023 10.0857C57.9158 10.1828 57.8062 10.2455 57.6736 10.2741C57.5409 10.3083 57.3909 10.3197 57.2179 10.3197H56.8718V10.588H61.0536V10.3197H60.719C60.5518 10.3197 60.4018 10.3083 60.2749 10.2855C60.148 10.2627 60.0384 10.2056 59.9461 10.1143C59.8538 10.023 59.7846 9.88027 59.7385 9.69193C59.6923 9.50358 59.6693 9.24104 59.6693 8.9043V2.53482C59.6693 2.21521 59.6866 1.95837 59.7327 1.77003C59.7789 1.58168 59.8423 1.439 59.9288 1.34768C60.0154 1.25065 60.1192 1.18787 60.2518 1.15933C60.3845 1.1308 60.5402 1.11367 60.719 1.11367H61.0536V0.845426H58.2677L54.755 8.47054L51.1788 0.845426H48.3929V1.11367C48.7217 1.11367 48.9812 1.14792 49.1658 1.2107C49.3504 1.27348 49.4831 1.37051 49.5753 1.49036C49.6676 1.61022 49.7195 1.75861 49.7426 1.93554C49.7657 2.11247 49.7772 2.31223 49.7772 2.54053V8.91001C49.7772 9.22963 49.7541 9.48646 49.7138 9.6748C49.6676 9.86315 49.6042 10.0058 49.5177 10.1029C49.4311 10.1999 49.3273 10.257 49.1947 10.2855C49.062 10.314 48.912 10.3255 48.739 10.3255H48.3929V10.5937H51.8191V10.3255H51.473C51.3057 10.3255 51.1558 10.314 51.0289 10.2912C50.902 10.2684 50.7924 10.2113 50.7001 10.12C50.6078 10.0287 50.5386 9.88598 50.4924 9.69763C50.4463 9.50929 50.4232 9.24675 50.4232 8.91001V2.39784L54.2243 10.5937H54.4723L58.2677 2.39784Z" fill="white"/>
<path d="M64.9239 1.38192V5.23443H67.0811C67.3983 5.23443 67.6579 5.20589 67.8482 5.14882C68.0444 5.09175 68.1943 5.00613 68.3097 4.89199C68.4193 4.77784 68.5 4.62944 68.5404 4.45251C68.5865 4.27558 68.6154 4.06441 68.6269 3.81899H68.898V7.2092H68.6269C68.5923 6.92953 68.5519 6.69553 68.5 6.51289C68.4539 6.32455 68.3789 6.17616 68.2693 6.06771C68.1597 5.95927 68.0155 5.87937 67.8309 5.83371C67.6464 5.78805 67.3926 5.76522 67.0696 5.76522H64.9123V8.98421C64.9123 9.22962 64.9181 9.41797 64.9239 9.56065C64.9297 9.70334 64.9585 9.81178 65.0104 9.88598C65.0623 9.96017 65.1431 10.0115 65.2469 10.0287C65.3507 10.0458 65.5122 10.0629 65.7256 10.0629H67.3926C67.6752 10.0629 67.9117 10.0572 68.1078 10.0401C68.3039 10.0287 68.4712 9.99442 68.6096 9.95447C68.748 9.91452 68.8749 9.85173 68.9845 9.77754C69.0941 9.70334 69.2095 9.60631 69.3306 9.49217C69.619 9.2125 69.9247 8.76732 70.2535 8.15092H70.5476L69.694 10.5994H62.1207V10.3312H62.4667C62.559 10.3312 62.6571 10.3197 62.7609 10.2969C62.8647 10.2741 62.957 10.2455 63.0493 10.2056C63.1416 10.1656 63.2223 10.1143 63.2916 10.0515C63.3608 9.98871 63.4127 9.91452 63.4415 9.8232C63.4992 9.66339 63.528 9.34948 63.528 8.88147V2.54624C63.528 1.92413 63.4646 1.54173 63.3435 1.39905C63.1704 1.20499 62.8763 1.10797 62.4667 1.10797H62.1207V0.845426H69.7113V2.98H69.5383C69.4633 2.63185 69.3883 2.34648 69.3075 2.1353C69.2268 1.92413 69.1114 1.76432 68.9788 1.65017C68.8403 1.53602 68.6673 1.46183 68.4539 1.42758C68.2405 1.39334 67.9694 1.38192 67.6348 1.38192H64.9239Z" fill="white"/>
<path fill-rule="evenodd" clip-rule="evenodd" d="M64.9239 1.38192V5.23443H67.0811C67.3983 5.23443 67.6579 5.20589 67.8482 5.14882C68.0444 5.09175 68.1943 5.00613 68.3097 4.89199C68.4193 4.77784 68.5 4.62944 68.5404 4.45251C68.5865 4.27558 68.6154 4.06441 68.6269 3.81899H68.898V7.2092H68.6269C68.5923 6.92953 68.5519 6.69553 68.5 6.51289C68.4539 6.32455 68.3789 6.17616 68.2693 6.06771C68.1597 5.95927 68.0155 5.87937 67.8309 5.83371C67.6464 5.78805 67.3926 5.76522 67.0696 5.76522H64.9123V8.98421C64.9123 9.22962 64.9181 9.41797 64.9239 9.56065C64.9297 9.70334 64.9585 9.81178 65.0104 9.88598C65.0623 9.96017 65.1431 10.0115 65.2469 10.0287C65.3507 10.0458 65.5122 10.0629 65.7256 10.0629H67.3926C67.6752 10.0629 67.9117 10.0572 68.1078 10.0401C68.3039 10.0287 68.4712 9.99442 68.6096 9.95447C68.748 9.91452 68.8749 9.85173 68.9845 9.77754C69.0941 9.70334 69.2095 9.60631 69.3306 9.49217C69.619 9.2125 69.9247 8.76732 70.2535 8.15092H70.5476L69.694 10.5994H62.1207V10.3312H62.4667C62.559 10.3312 62.6571 10.3197 62.7609 10.2969C62.8647 10.2741 62.957 10.2455 63.0493 10.2056C63.1416 10.1656 63.2223 10.1143 63.2916 10.0515C63.3608 9.98871 63.4127 9.91452 63.4415 9.8232C63.4992 9.66339 63.528 9.34948 63.528 8.88147V2.54624C63.528 1.92413 63.4646 1.54173 63.3435 1.39905C63.1704 1.20499 62.8763 1.10797 62.4667 1.10797H62.1207V0.845426H69.7113V2.98H69.5383C69.4633 2.63185 69.3883 2.34648 69.3075 2.1353C69.2268 1.92413 69.1114 1.76432 68.9788 1.65017C68.8403 1.53602 68.6673 1.46183 68.4539 1.42758C68.2405 1.39334 67.9694 1.38192 67.6348 1.38192H64.9239ZM65.0743 1.53073V5.08563H67.0811C67.3916 5.08563 67.6344 5.05744 67.8046 5.00641L67.8058 5.00606C67.9812 4.95501 68.1075 4.88116 68.202 4.78812C68.2911 4.69477 68.3591 4.57139 68.3937 4.41974L68.3947 4.41531C68.4376 4.25101 68.4655 4.05053 68.4767 3.81208L68.4834 3.67019H69.0484V7.358H68.4938L68.4777 7.22728C68.4434 6.95017 68.4041 6.72495 68.3553 6.55318L68.3538 6.54798C68.312 6.37754 68.2475 6.2566 68.163 6.17294C68.075 6.0859 67.956 6.01804 67.7945 5.97807C67.6272 5.93671 67.3875 5.91403 67.0696 5.91403H65.0627V8.98421C65.0627 9.22719 65.0684 9.4135 65.0741 9.55471C65.0794 9.68419 65.1053 9.76016 65.134 9.80128C65.1614 9.84039 65.2054 9.87096 65.2716 9.88188C65.3669 9.8976 65.5202 9.9141 65.7256 9.9141H67.3926C67.674 9.9141 67.9052 9.90839 68.0946 9.89185L68.099 9.89147C68.2823 9.8808 68.4383 9.84889 68.5675 9.81161C68.6892 9.77649 68.8018 9.72096 68.8996 9.65473C68.9998 9.58687 69.1085 9.49598 69.2261 9.38515C69.4978 9.12141 69.7946 8.69237 70.1205 8.08147L70.1628 8.00212H70.7586L69.8012 10.7482H61.9703V10.1824H62.4667C62.5465 10.1824 62.6336 10.1725 62.7283 10.1517C62.8241 10.1306 62.907 10.1048 62.989 10.0693C63.0672 10.0354 63.1338 9.99273 63.1899 9.9418C63.2424 9.8942 63.2781 9.84172 63.298 9.77881L63.2998 9.77311C63.3474 9.6411 63.3777 9.35248 63.3777 8.88147V2.54624C63.3777 2.23913 63.3619 1.99672 63.3327 1.81643C63.3026 1.63108 63.2617 1.53507 63.2293 1.49597C63.0975 1.34939 62.8563 1.25677 62.4667 1.25677H61.9703V0.696621H69.8617V3.1288H69.4165L69.3912 3.01102C69.3166 2.66474 69.2435 2.38829 69.1669 2.18796C69.0944 1.99847 68.9931 1.86011 68.8813 1.76349C68.7671 1.6697 68.6206 1.60509 68.4298 1.57447C68.2289 1.54223 67.9678 1.53073 67.6348 1.53073H65.0743Z" fill="white"/>
<path d="M79.8744 7.8998L80.1109 7.94546L79.263 10.5937H71.6378V10.3255H72.0185C72.4222 10.3255 72.7164 10.1942 72.9067 9.92593C73.0106 9.76612 73.0567 9.41226 73.0567 8.86435V2.56907C73.0567 1.96979 72.9875 1.58739 72.8491 1.43329C72.6587 1.21641 72.3819 1.11367 72.0127 1.11367H71.632V0.845426H76.0964V1.11367C75.8311 1.11367 75.6061 1.12509 75.4273 1.15363C75.2485 1.18216 75.1043 1.21641 74.989 1.26207C74.8736 1.30773 74.7813 1.3648 74.7179 1.42758C74.6544 1.49036 74.5968 1.56456 74.5564 1.64446C74.4872 1.78715 74.4468 2.15813 74.4468 2.7517V8.87576C74.4468 9.2125 74.4699 9.45221 74.5218 9.60631C74.5737 9.75471 74.6717 9.85744 74.8275 9.91452C74.9601 9.96017 75.335 9.9773 75.9638 9.9773H76.679C77.4404 9.9773 77.971 9.92593 78.2709 9.81749C78.4209 9.76612 78.5651 9.69763 78.7035 9.60061C78.842 9.50929 78.9746 9.38373 79.1073 9.23533C79.24 9.08694 79.3611 8.9043 79.488 8.68742C79.6206 8.47054 79.7475 8.208 79.8744 7.8998Z" fill="white"/>
<path fill-rule="evenodd" clip-rule="evenodd" d="M79.7818 7.73031L80.3052 7.83135L79.3731 10.7425H71.4874V10.1766H72.0185C72.3844 10.1766 72.6261 10.0607 72.7817 9.84313C72.8148 9.79081 72.8482 9.68969 72.8717 9.52047C72.8949 9.35301 72.9063 9.13509 72.9063 8.86435V2.56907C72.9063 2.27398 72.8892 2.03831 72.8568 1.86066C72.8234 1.67774 72.7775 1.57755 72.7367 1.53215L72.7355 1.53087C72.582 1.356 72.3528 1.26248 72.0127 1.26248H71.4816V0.696621H76.2468V1.26248H76.0964C75.8341 1.26248 75.6184 1.27386 75.4513 1.30053C75.2772 1.32831 75.1454 1.36043 75.0448 1.40023C74.9426 1.44071 74.8694 1.48809 74.8242 1.5328C74.7702 1.5863 74.7233 1.64736 74.6915 1.70984C74.6694 1.75616 74.6438 1.86129 74.6253 2.04387C74.6072 2.22191 74.5972 2.45768 74.5972 2.7517V8.87576C74.5972 9.21042 74.6207 9.42887 74.6642 9.55844C74.7015 9.66452 74.7665 9.73309 74.8782 9.7744C74.9221 9.78913 75.0279 9.8044 75.2176 9.81444C75.4025 9.82421 75.6502 9.82849 75.9638 9.82849H76.679C77.4412 9.82849 77.9472 9.7761 78.2193 9.67772L78.2217 9.67685C78.3605 9.62933 78.4916 9.56684 78.6166 9.47918L78.6201 9.47674C78.7434 9.39541 78.8663 9.28035 78.9947 9.13674C79.1175 8.99931 79.2328 8.82659 79.3578 8.61286L79.3593 8.61035C79.4865 8.40247 79.61 8.14766 79.7352 7.84365L79.7818 7.73031ZM74.8275 9.91452C74.6717 9.85744 74.5737 9.75471 74.5218 9.60631C74.4699 9.45221 74.4468 9.2125 74.4468 8.87576V2.7517C74.4468 2.15813 74.4872 1.78715 74.5564 1.64446C74.5968 1.56456 74.6544 1.49036 74.7179 1.42758C74.7813 1.3648 74.8736 1.30773 74.989 1.26207C75.1043 1.21641 75.2485 1.18216 75.4273 1.15363C75.6061 1.12509 75.8311 1.11367 76.0964 1.11367V0.845426H71.632V1.11367H72.0127C72.3819 1.11367 72.6587 1.21641 72.8491 1.43329C72.9875 1.58739 73.0567 1.96979 73.0567 2.56907V8.86435C73.0567 9.41226 73.0106 9.76612 72.9067 9.92593C72.7164 10.1942 72.4222 10.3255 72.0185 10.3255H71.6378V10.5937H79.263L80.1109 7.94546L79.8744 7.8998C79.7475 8.208 79.6206 8.47054 79.488 8.68742C79.3611 8.9043 79.24 9.08694 79.1073 9.23533C78.9746 9.38373 78.842 9.50929 78.7035 9.60061C78.5651 9.69763 78.4209 9.76612 78.2709 9.81749C77.971 9.92593 77.4404 9.9773 76.679 9.9773H75.9638C75.335 9.9773 74.9601 9.96017 74.8275 9.91452Z" fill="white"/>
<path d="M85.4578 10.3255V10.5937H81.2415V10.3255H81.5875C81.7606 10.3255 81.9163 10.314 82.049 10.2855C82.1816 10.2627 82.2912 10.1999 82.3778 10.1029C82.4643 10.0058 82.5335 9.85744 82.5796 9.66339C82.6258 9.46934 82.6488 9.20109 82.6488 8.86435V2.56907C82.6488 2.34648 82.6431 2.16384 82.6315 2.01545C82.62 1.86705 82.6027 1.7472 82.5796 1.65588C82.5566 1.56456 82.5162 1.49036 82.4643 1.43329C82.4124 1.38192 82.3431 1.33056 82.2566 1.27919C82.0374 1.16504 81.8183 1.10797 81.5818 1.10797H81.2357V0.845426H85.4521V1.11367H85.106C84.933 1.11367 84.7772 1.1308 84.6446 1.15933C84.5119 1.18787 84.4023 1.25065 84.3158 1.34768C84.2293 1.4447 84.1601 1.5931 84.1139 1.78715C84.0678 1.9812 84.0447 2.24945 84.0447 2.57477V8.87006C84.0447 9.09835 84.0505 9.2867 84.0562 9.42939C84.062 9.57207 84.0793 9.69193 84.1081 9.78325C84.137 9.87456 84.1774 9.94876 84.235 10.0058C84.2869 10.0572 84.3619 10.1143 84.4484 10.1599C84.6503 10.2741 84.8695 10.3312 85.1118 10.3312H85.4578V10.3255Z" fill="white"/>
<path fill-rule="evenodd" clip-rule="evenodd" d="M85.6082 10.7425H81.0911V10.1766H81.5875C81.755 10.1766 81.8989 10.1655 82.017 10.1401L82.0232 10.1388C82.1212 10.1219 82.2004 10.0768 82.265 10.0044C82.3291 9.93254 82.3902 9.81018 82.4332 9.62931C82.4755 9.45153 82.4985 9.19643 82.4985 8.86435V2.56907C82.4985 2.34868 82.4927 2.17013 82.4816 2.02686C82.4704 1.8826 82.4539 1.77194 82.4337 1.69197C82.4165 1.62395 82.3881 1.57293 82.355 1.53565C82.3151 1.49679 82.2588 1.45427 82.1829 1.40893C81.9846 1.30634 81.7905 1.25677 81.5818 1.25677H81.0853V0.696621H85.6025V1.26248H85.106C84.9428 1.26248 84.7978 1.27865 84.6765 1.30474C84.5739 1.32682 84.493 1.37383 84.4286 1.44613C84.3645 1.518 84.3033 1.64036 84.2603 1.82123C84.218 1.99914 84.1951 2.25434 84.1951 2.57477V8.87006C84.1951 9.09584 84.2008 9.28212 84.2065 9.42344C84.212 9.55923 84.2283 9.66476 84.2517 9.73886C84.2756 9.81463 84.3057 9.86529 84.3414 9.90061C84.3827 9.94152 84.4457 9.98983 84.5192 10.0286L84.5231 10.0307C84.7016 10.1316 84.8949 10.1824 85.1118 10.1824H85.4578L85.4578 10.3255H85.6082V10.7425ZM82.2566 1.27919C82.3431 1.33056 82.4124 1.38192 82.4643 1.43329C82.5162 1.49036 82.5566 1.56456 82.5796 1.65588C82.6027 1.7472 82.62 1.86705 82.6315 2.01545C82.6431 2.16384 82.6488 2.34648 82.6488 2.56907V8.86435C82.6488 9.20109 82.6258 9.46934 82.5796 9.66339C82.5335 9.85744 82.4643 10.0058 82.3778 10.1029C82.2912 10.1999 82.1816 10.2627 82.049 10.2855C81.9163 10.314 81.7606 10.3255 81.5875 10.3255H81.2415V10.5937H85.4578V10.3312H85.1118C84.8695 10.3312 84.6503 10.2741 84.4484 10.1599C84.3619 10.1143 84.2869 10.0572 84.235 10.0058C84.1774 9.94876 84.137 9.87456 84.1081 9.78325C84.0793 9.69193 84.062 9.57207 84.0562 9.42939C84.0505 9.2867 84.0447 9.09835 84.0447 8.87006V2.57477C84.0447 2.24945 84.0678 1.9812 84.1139 1.78715C84.1601 1.5931 84.2293 1.4447 84.3158 1.34768C84.4023 1.25065 84.5119 1.18787 84.6446 1.15933C84.7772 1.1308 84.933 1.11367 85.106 1.11367H85.4521V0.845426H81.2357V1.10797H81.5818C81.8183 1.10797 82.0374 1.16504 82.2566 1.27919Z" fill="white"/>
<path d="M93.0773 7.33476H89.2589L88.5841 8.87005C88.4226 9.24674 88.3476 9.53211 88.3476 9.71475C88.3476 9.79466 88.3591 9.86315 88.388 9.93163C88.4168 10.0001 88.4687 10.0572 88.5495 10.1086C88.6302 10.1599 88.7456 10.2113 88.8955 10.2455C89.0455 10.2855 89.2416 10.314 89.4839 10.3254V10.5937H86.3923V10.3254C86.6403 10.2912 86.8364 10.2341 86.9864 10.1656C87.1363 10.0971 87.269 9.99442 87.3786 9.86885C87.4882 9.74329 87.5862 9.58348 87.6785 9.37802C87.7708 9.17826 87.8804 8.93284 88.0073 8.63605L91.4738 0.628541H91.7219L95.148 8.72737C95.2865 9.06411 95.4133 9.33236 95.5345 9.53782C95.6556 9.74329 95.7767 9.9031 95.9036 10.0172C96.0305 10.1314 96.169 10.2113 96.3132 10.2513C96.4574 10.2912 96.6419 10.3197 96.8496 10.3254V10.5937H92.9562V10.3254C93.3484 10.314 93.6137 10.2513 93.7522 10.1371C93.8906 10.0287 93.9656 9.89168 93.9656 9.73758C93.9598 9.53212 93.8618 9.19538 93.6714 8.72737L93.0773 7.33476ZM92.8754 6.79826L91.2085 2.86014L89.4954 6.79826H92.8754Z" fill="white"/>
<path fill-rule="evenodd" clip-rule="evenodd" d="M92.9562 10.3254C93.3484 10.314 93.6137 10.2513 93.7522 10.1371C93.8906 10.0287 93.9656 9.89168 93.9656 9.73758C93.9598 9.53212 93.8618 9.19538 93.6714 8.72737L93.0773 7.33476H89.2589L88.5841 8.87005C88.4226 9.24674 88.3476 9.53211 88.3476 9.71475C88.3476 9.79466 88.3591 9.86315 88.388 9.93163C88.4168 10.0001 88.4687 10.0572 88.5495 10.1086C88.6302 10.1599 88.7456 10.2113 88.8955 10.2455C89.0455 10.2855 89.2416 10.314 89.4839 10.3254V10.5937H86.3923V10.3254C86.6403 10.2912 86.8364 10.2341 86.9864 10.1656C87.1363 10.0971 87.269 9.99442 87.3786 9.86885C87.4882 9.74329 87.5862 9.58348 87.6785 9.37802C87.7708 9.17826 87.8804 8.93284 88.0073 8.63605L91.4738 0.628541H91.7219L95.148 8.72737C95.2865 9.06411 95.4133 9.33236 95.5345 9.53782C95.6556 9.74329 95.7767 9.9031 95.9036 10.0172C96.0305 10.1314 96.169 10.2113 96.3132 10.2513C96.4574 10.2912 96.6419 10.3197 96.8496 10.3254V10.5937H92.9562V10.3254ZM88.7223 8.92879C88.5627 9.30097 88.498 9.5633 88.498 9.71475C88.498 9.7791 88.507 9.82748 88.5268 9.8744C88.5411 9.90831 88.5688 9.94396 88.6308 9.98339C88.6957 10.0247 88.7947 10.0698 88.9294 10.1005L88.9347 10.1018C89.0712 10.1381 89.256 10.1657 89.491 10.1768L89.6343 10.1836V10.7425H86.2419V10.196L86.3715 10.1781C86.608 10.1454 86.7894 10.0917 86.9233 10.0305C87.052 9.97178 87.1678 9.88272 87.2648 9.77159C87.3621 9.66005 87.453 9.51381 87.5411 9.31758L87.5417 9.31614C87.6334 9.11778 87.7424 8.87366 87.8688 8.57807L91.3746 0.479736H91.8219L95.2873 8.6713C95.4245 9.00505 95.5484 9.26604 95.6644 9.46284C95.7813 9.66121 95.8934 9.80698 96.0048 9.90714C96.1174 10.0085 96.2357 10.0753 96.3537 10.108C96.4847 10.1442 96.6569 10.1713 96.8537 10.1767L97 10.1807V10.7425H92.8058V10.181L92.9518 10.1767C93.1417 10.1712 93.295 10.1533 93.4144 10.1251C93.5351 10.0965 93.6113 10.0596 93.6559 10.0228L93.6588 10.0204C93.7674 9.9353 93.8146 9.83938 93.8152 9.73956C93.8096 9.56346 93.7219 9.25022 93.5324 8.78411L92.9776 7.48356H89.3575L88.7223 8.92879ZM91.2085 2.86014L89.4954 6.79826H92.8754L91.2085 2.86014ZM91.2066 3.24086L89.7239 6.64946H92.6494L91.2066 3.24086Z" fill="white"/>
<path d="M43.7572 18.24C44.1552 18.3256 44.4955 18.4454 44.7839 18.5938C45.0723 18.7422 45.303 18.9192 45.476 19.1189C45.6548 19.3187 45.7817 19.5413 45.8682 19.7867C45.949 20.0321 45.9951 20.2832 45.9951 20.5515C45.9951 20.7969 45.9548 21.0366 45.874 21.2706C45.7933 21.5046 45.6779 21.7329 45.5337 21.9441C45.3837 22.1553 45.2049 22.3436 44.9858 22.5148C44.7666 22.6803 44.5243 22.823 44.2474 22.9258C43.7283 23.1255 42.9035 23.2283 41.7845 23.2283H37.124V22.96H37.4932C37.6604 22.96 37.8104 22.9486 37.9373 22.9143C38.07 22.8858 38.1796 22.823 38.2661 22.7203C38.3584 22.6176 38.4276 22.4749 38.4737 22.2808C38.5199 22.0868 38.5429 21.8242 38.5429 21.4989V15.1922C38.5429 14.8498 38.5199 14.5815 38.4679 14.3875C38.416 14.1934 38.3468 14.0507 38.2488 13.9537C38.1565 13.8567 38.0411 13.7939 37.9142 13.7711C37.7873 13.7482 37.6431 13.7311 37.4932 13.7311H37.124V13.4629H41.3808C42.7478 13.4629 43.786 13.6912 44.4897 14.1477C45.1934 14.6043 45.551 15.2493 45.551 16.0711C45.551 16.5677 45.401 17.0015 45.0953 17.3896C44.7896 17.772 44.3455 18.0573 43.7572 18.24ZM39.9445 17.8576C40.1234 17.8918 40.331 17.9204 40.556 17.9375C40.7867 17.9546 41.0347 17.966 41.3116 17.966C42.2748 17.966 42.967 17.7948 43.388 17.4523C43.8091 17.1099 44.0167 16.6305 44.0167 16.0255C44.0167 15.7458 43.9591 15.4776 43.8379 15.2264C43.7168 14.9696 43.5438 14.7527 43.313 14.5644C43.0823 14.376 42.7939 14.2277 42.4478 14.1192C42.1018 14.0108 41.7038 13.9537 41.2481 13.9537C40.7578 13.9537 40.3195 14.0051 39.9445 14.1135V17.8576ZM39.9445 22.5148C40.4925 22.6461 41.0462 22.7089 41.6057 22.7089C42.0499 22.7089 42.4363 22.6575 42.7766 22.5491C43.1169 22.4406 43.3996 22.2979 43.6245 22.1153C43.8495 21.9327 44.0167 21.7158 44.1321 21.4704C44.2474 21.2249 44.3051 20.9624 44.3051 20.6827C44.3051 20.3745 44.2417 20.0835 44.1206 19.8152C43.9994 19.5413 43.8091 19.3073 43.5495 19.1075C43.29 18.9077 42.9727 18.7479 42.5805 18.6338C42.1941 18.5196 41.7384 18.4626 41.2193 18.4626C40.9136 18.4626 40.6598 18.4683 40.4464 18.474C40.2387 18.4797 40.0657 18.4968 39.9388 18.5253V22.5148H39.9445Z" fill="white"/>
<path fill-rule="evenodd" clip-rule="evenodd" d="M38.2488 13.9537C38.1565 13.8567 38.0411 13.7939 37.9142 13.7711C37.7873 13.7482 37.6431 13.7311 37.4932 13.7311H37.124V13.4629H41.3808C42.7478 13.4629 43.786 13.6912 44.4897 14.1477C45.1934 14.6043 45.551 15.2493 45.551 16.0711C45.551 16.5677 45.401 17.0015 45.0953 17.3896C44.8364 17.7134 44.4783 17.9677 44.0173 18.1489C43.934 18.1816 43.8473 18.212 43.7572 18.24C43.8498 18.2599 43.9394 18.2817 44.0258 18.3053C44.3108 18.3829 44.5626 18.48 44.7839 18.5938C45.0723 18.7422 45.303 18.9192 45.476 19.1189C45.6548 19.3187 45.7817 19.5413 45.8682 19.7867C45.949 20.0321 45.9951 20.2832 45.9951 20.5515C45.9951 20.7969 45.9548 21.0366 45.874 21.2706C45.7933 21.5046 45.6779 21.7329 45.5337 21.9441C45.3837 22.1553 45.2049 22.3436 44.9858 22.5148C44.7666 22.6803 44.5243 22.823 44.2474 22.9258C43.7283 23.1255 42.9035 23.2283 41.7845 23.2283H37.124V22.96H37.4932C37.6604 22.96 37.8104 22.9486 37.9373 22.9143C38.07 22.8858 38.1796 22.823 38.2661 22.7203C38.3584 22.6176 38.4276 22.4749 38.4737 22.2808C38.5199 22.0868 38.5429 21.8242 38.5429 21.4989V15.1922C38.5429 14.8498 38.5199 14.5815 38.4679 14.3875C38.416 14.1934 38.3468 14.0507 38.2488 13.9537ZM44.3011 23.0648C43.7548 23.2748 42.907 23.3771 41.7845 23.3771H36.9736V22.8112H37.4932C37.6554 22.8112 37.7899 22.7999 37.8977 22.7708L37.9053 22.7687C38.0074 22.7468 38.0869 22.7006 38.1505 22.625L38.1536 22.6214C38.2244 22.5426 38.2849 22.4251 38.3273 22.2467C38.3697 22.0687 38.3925 21.8191 38.3925 21.4989V15.1922C38.3925 14.8536 38.3694 14.6007 38.3226 14.4255C38.2738 14.2431 38.2136 14.1294 38.1424 14.0589L38.1392 14.0557C38.0681 13.9809 37.9813 13.9344 37.8873 13.9175C37.7668 13.8958 37.6319 13.8799 37.4932 13.8799H36.9736V13.3141H41.3808C42.7604 13.3141 43.833 13.5437 44.5722 14.0233C45.3173 14.5068 45.7014 15.198 45.7014 16.0711C45.7014 16.6005 45.5404 17.0666 45.214 17.481L45.2133 17.4819C44.9692 17.7871 44.6456 18.0312 44.2446 18.2143C44.4671 18.2845 44.6697 18.3673 44.8533 18.4618C45.1554 18.6173 45.402 18.8051 45.5894 19.0212C45.7817 19.2362 45.9179 19.4757 46.0102 19.7377L46.0113 19.7406C46.0963 19.999 46.1455 20.2657 46.1455 20.5515C46.1455 20.8134 46.1024 21.0693 46.0163 21.3187C45.9312 21.5655 45.8097 21.8056 45.6583 22.0274L45.6568 22.0297C45.4983 22.2528 45.3094 22.4516 45.0789 22.6316L45.077 22.6331C44.8486 22.8056 44.5938 22.9561 44.3011 23.0648ZM39.9445 17.8576C40.1234 17.8918 40.331 17.9204 40.556 17.9375C40.7867 17.9546 41.0347 17.966 41.3116 17.966C42.2748 17.966 42.967 17.7948 43.388 17.4523C43.8091 17.1099 44.0167 16.6305 44.0167 16.0255C44.0167 15.7458 43.9591 15.4776 43.8379 15.2264C43.7168 14.9696 43.5438 14.7527 43.313 14.5644C43.0823 14.376 42.7939 14.2277 42.4478 14.1192C42.1018 14.0108 41.7038 13.9537 41.2481 13.9537C40.7578 13.9537 40.3195 14.0051 39.9445 14.1135V17.8576ZM40.0949 14.2272C40.4287 14.1434 40.8153 14.1025 41.2481 14.1025C41.6912 14.1025 42.0735 14.158 42.4024 14.2611C42.734 14.365 43.0043 14.5053 43.2173 14.6792C43.432 14.8544 43.5906 15.0539 43.7017 15.2894L43.7022 15.2905C43.8131 15.5204 43.8664 15.7666 43.8664 16.0255C43.8664 16.5932 43.6736 17.0275 43.2925 17.3374C42.9124 17.6465 42.2639 17.8172 41.3116 17.8172C41.039 17.8172 40.7948 17.806 40.5672 17.7891C40.3975 17.7762 40.2384 17.7566 40.0949 17.7331V14.2272ZM39.9445 22.5148H39.9388V18.5253C40.0657 18.4968 40.2387 18.4797 40.4464 18.474C40.6598 18.4683 40.9136 18.4626 41.2193 18.4626C41.7384 18.4626 42.1941 18.5196 42.5805 18.6338C42.9727 18.7479 43.29 18.9077 43.5495 19.1075C43.8091 19.3073 43.9994 19.5413 44.1206 19.8152C44.2417 20.0835 44.3051 20.3745 44.3051 20.6827C44.3051 20.9624 44.2474 21.2249 44.1321 21.4704C44.0167 21.7158 43.8495 21.9327 43.6245 22.1153C43.3996 22.2979 43.1169 22.4406 42.7766 22.5491C42.4363 22.6575 42.0499 22.7089 41.6057 22.7089C41.0462 22.7089 40.4925 22.6461 39.9445 22.5148ZM40.4504 18.6227C40.3092 18.6266 40.188 18.6358 40.0892 18.6497V22.3954C40.5895 22.5067 41.0949 22.5601 41.6057 22.5601C42.0384 22.5601 42.4087 22.51 42.7305 22.4074C43.0577 22.3032 43.3222 22.1682 43.5291 22.0003C43.7366 21.8318 43.8899 21.6328 43.9957 21.4076C44.1015 21.1825 44.1547 20.9415 44.1547 20.6827C44.1547 20.3952 44.0956 20.1248 43.9832 19.8759L43.9828 19.8749C43.8728 19.6261 43.6993 19.4113 43.4572 19.225C43.2144 19.0381 42.9146 18.8861 42.5381 18.7765C42.169 18.6675 41.7279 18.6114 41.2193 18.6114C40.9155 18.6114 40.6632 18.617 40.4504 18.6227Z" fill="white"/>
<path d="M54.6298 19.9579H50.8056L50.1308 21.4932C49.9693 21.8756 49.8943 22.1553 49.8943 22.3436C49.8943 22.4235 49.9058 22.492 49.9347 22.5605C49.9577 22.6233 50.0154 22.686 50.0962 22.7374C50.1769 22.7888 50.2923 22.8401 50.4422 22.8744C50.5922 22.9143 50.7883 22.9429 51.0363 22.9543V23.2225H47.9332V22.9543C48.1812 22.92 48.3773 22.863 48.5331 22.7945C48.683 22.7203 48.8157 22.6233 48.9253 22.4977C49.0349 22.3721 49.1329 22.2066 49.2252 22.0069C49.3175 21.8071 49.4271 21.5617 49.554 21.2649L53.0205 13.246H53.2685L56.7005 21.3562C56.8389 21.693 56.9658 21.9612 57.0869 22.1667C57.2081 22.3721 57.3292 22.5319 57.4561 22.6461C57.583 22.7602 57.7214 22.8401 57.8714 22.8801C58.0214 22.92 58.2002 22.9486 58.4078 22.9543V23.2225H54.5087V22.9543C54.9009 22.9429 55.1662 22.8801 55.3046 22.7659C55.4431 22.6575 55.5181 22.5205 55.5181 22.3607C55.5123 22.1553 55.4142 21.8185 55.2239 21.3505L54.6298 19.9579ZM54.4221 19.4214L52.7494 15.4776L51.0363 19.4214H54.4221Z" fill="white"/>
<path fill-rule="evenodd" clip-rule="evenodd" d="M54.5087 22.9543C54.9009 22.9429 55.1662 22.8801 55.3046 22.7659C55.4431 22.6575 55.5181 22.5205 55.5181 22.3607C55.5123 22.1553 55.4142 21.8185 55.2239 21.3505L54.6298 19.9579H50.8056L50.1308 21.4932C49.9693 21.8756 49.8943 22.1553 49.8943 22.3436C49.8943 22.4235 49.9058 22.492 49.9347 22.5605C49.9577 22.6233 50.0154 22.686 50.0962 22.7374C50.1769 22.7888 50.2923 22.8401 50.4422 22.8744C50.5922 22.9143 50.7883 22.9429 51.0363 22.9543V23.2225H47.9332V22.9543C48.1812 22.92 48.3773 22.863 48.5331 22.7945C48.683 22.7203 48.8157 22.6233 48.9253 22.4977C49.0349 22.3721 49.1329 22.2066 49.2252 22.0069C49.3175 21.8071 49.4271 21.5617 49.554 21.2649L53.0205 13.246H53.2685L56.7005 21.3562C56.8389 21.693 56.9658 21.9612 57.0869 22.1667C57.2081 22.3721 57.3292 22.5319 57.4561 22.6461C57.583 22.7602 57.7214 22.8401 57.8714 22.8801C58.0214 22.92 58.2002 22.9486 58.4078 22.9543V23.2225H54.5087V22.9543ZM48.4689 22.6599C48.6021 22.5935 48.7171 22.5085 48.8115 22.4004C48.9082 22.2896 48.9993 22.138 49.0884 21.945C49.1801 21.7466 49.2891 21.5025 49.4155 21.2069L52.9213 13.0972H53.3686L56.8398 21.3001C56.977 21.6339 57.1008 21.8949 57.2168 22.0917C57.3338 22.2901 57.4459 22.4358 57.5573 22.536C57.6696 22.6371 57.7874 22.7036 57.9105 22.7364C58.0488 22.7733 58.2159 22.8002 58.412 22.8055L58.5582 22.8096V23.3713H54.3583V22.8098L54.5042 22.8056C54.6941 22.8 54.8475 22.7822 54.9668 22.7539C55.0875 22.7254 55.1637 22.6884 55.2084 22.6516L55.2113 22.6492C55.3191 22.5648 55.3671 22.469 55.3677 22.3627C55.3621 22.1866 55.2744 21.8734 55.0848 21.4072L54.53 20.1067H50.9042L50.2691 21.5515C50.1093 21.9301 50.0447 22.1865 50.0447 22.3436C50.0447 22.408 50.0537 22.4563 50.0735 22.5032L50.0761 22.5096C50.0839 22.5308 50.1125 22.5709 50.1775 22.6122C50.2424 22.6535 50.3414 22.6986 50.4761 22.7294L50.4814 22.7306C50.6178 22.767 50.8025 22.7946 51.0433 22.8056L51.1867 22.8122V23.3713H47.7828V22.8248L47.9124 22.8069C48.1468 22.7746 48.3281 22.7214 48.4689 22.6599ZM52.7494 15.4776L51.0363 19.4214H54.4221L52.7494 15.4776ZM52.7478 15.8582L51.2647 19.2726H54.1959L52.7478 15.8582Z" fill="white"/>
<path d="M64.02 17.8119L67.6596 21.3905C67.9653 21.693 68.2364 21.9384 68.4845 22.1381C68.7325 22.3379 68.9632 22.492 69.1766 22.6119C69.3958 22.7317 69.6034 22.8173 69.8111 22.8687C70.0187 22.9201 70.2264 22.9543 70.4456 22.96V23.2283H65.7562V22.96C66.0677 22.96 66.2753 22.9086 66.3849 22.8002C66.4945 22.6918 66.5464 22.5776 66.5464 22.4577C66.5464 22.4064 66.5406 22.3607 66.5349 22.3208C66.5291 22.2808 66.506 22.2352 66.4772 22.1838C66.4426 22.1324 66.3907 22.0696 66.3215 21.9897C66.2465 21.9098 66.1542 21.8128 66.0273 21.6872L62.6184 18.3484V21.4989C62.6184 21.7272 62.6242 21.9155 62.6357 22.0582C62.6473 22.2009 62.6646 22.3208 62.6876 22.4121C62.7107 22.5034 62.7511 22.5776 62.8088 22.6347C62.8607 22.686 62.9357 22.7431 63.0222 22.7888C63.2298 22.9029 63.4548 22.96 63.6855 22.96H64.02V23.2283H59.821V22.96H60.167C60.5708 22.96 60.8707 22.8401 61.0553 22.6061C61.1707 22.4463 61.2283 22.0811 61.2283 21.4989V15.1922C61.2283 14.9753 61.2226 14.7984 61.2168 14.65C61.211 14.5016 61.1937 14.3818 61.1649 14.2904C61.1361 14.1991 61.0957 14.1192 61.0438 14.0621C60.9919 13.9994 60.9226 13.948 60.8361 13.908C60.6054 13.7939 60.3805 13.7368 60.1613 13.7368H59.8152V13.4629H64.0143V13.7311H63.6797C63.5009 13.7311 63.3106 13.7711 63.1087 13.851C62.9068 13.9309 62.7742 14.0621 62.6992 14.2505C62.6415 14.4103 62.6127 14.7242 62.6127 15.1979V18.1829C62.6184 18.1772 62.6703 18.1315 62.7569 18.0459C62.8491 17.966 62.9472 17.8747 63.0626 17.772C63.1722 17.6692 63.2817 17.5722 63.3856 17.4695C63.4894 17.3667 63.5644 17.304 63.6105 17.264C64.1412 16.7846 64.5853 16.3736 64.9487 16.0312C65.3121 15.6888 65.6005 15.3977 65.8197 15.158C66.0388 14.9182 66.1946 14.7185 66.2869 14.5587C66.3791 14.3989 66.4253 14.2619 66.4253 14.1535C66.4253 14.0393 66.3734 13.9423 66.2753 13.8567C66.1715 13.7768 65.9985 13.7311 65.7562 13.7311H65.5255V13.4629H69.1535V13.7311C69.0209 13.7368 68.8882 13.7482 68.7555 13.7711C68.6229 13.7882 68.4729 13.8338 68.3114 13.908C68.1499 13.9822 67.9596 14.0907 67.7519 14.2391C67.5443 14.3875 67.2905 14.5986 67.0021 14.8612C66.9444 14.9125 66.7944 15.0609 66.5579 15.3064C66.3215 15.5518 65.9754 15.8942 65.5255 16.3337L64.02 17.8119Z" fill="white"/>
<path fill-rule="evenodd" clip-rule="evenodd" d="M69.1535 13.7311C69.0209 13.7368 68.8882 13.7482 68.7555 13.7711C68.6229 13.7882 68.4729 13.8338 68.3114 13.908C68.1499 13.9822 67.9596 14.0907 67.7519 14.2391C67.5443 14.3875 67.2905 14.5986 67.0021 14.8612C66.9444 14.9125 66.7944 15.0609 66.5579 15.3064C66.3215 15.5518 65.9754 15.8942 65.5255 16.3337L64.02 17.8119L67.6596 21.3905C67.9653 21.693 68.2364 21.9384 68.4845 22.1381C68.7325 22.3379 68.9632 22.492 69.1766 22.6119C69.3958 22.7317 69.6034 22.8173 69.8111 22.8687C70.0187 22.9201 70.2264 22.9543 70.4456 22.96V23.2283H65.7562V22.96C66.0677 22.96 66.2753 22.9086 66.3849 22.8002C66.4945 22.6918 66.5464 22.5776 66.5464 22.4577C66.5464 22.4064 66.5406 22.3607 66.5349 22.3208C66.5291 22.2808 66.506 22.2352 66.4772 22.1838C66.4426 22.1324 66.3907 22.0696 66.3215 21.9897C66.2465 21.9098 66.1542 21.8128 66.0273 21.6872L62.6184 18.3484V21.4989C62.6184 21.7272 62.6242 21.9155 62.6357 22.0582C62.6473 22.2009 62.6646 22.3208 62.6876 22.4121C62.7107 22.5034 62.7511 22.5776 62.8088 22.6347C62.8607 22.686 62.9357 22.7431 63.0222 22.7888C63.2298 22.9029 63.4548 22.96 63.6855 22.96H64.02V23.2283H59.821V22.96H60.167C60.5708 22.96 60.8707 22.8401 61.0553 22.6061C61.1707 22.4463 61.2283 22.0811 61.2283 21.4989V15.1922C61.2283 14.9753 61.2226 14.7984 61.2168 14.65C61.211 14.5016 61.1937 14.3818 61.1649 14.2904C61.1361 14.1991 61.0957 14.1192 61.0438 14.0621C60.9919 13.9994 60.9226 13.948 60.8361 13.908C60.6054 13.7939 60.3805 13.7368 60.1613 13.7368H59.8152V13.4629H64.0143V13.7311H63.6797C63.5009 13.7311 63.3106 13.7711 63.1087 13.851C62.9068 13.9309 62.7742 14.0621 62.6992 14.2505C62.6415 14.4103 62.6127 14.7242 62.6127 15.1979V18.1829C62.6138 18.1817 62.617 18.1789 62.6219 18.1743C62.6262 18.1704 62.6318 18.1653 62.6388 18.1589C62.6631 18.1366 62.7033 18.0989 62.7569 18.0459C62.7589 18.0441 62.761 18.0423 62.763 18.0406C62.8158 17.9947 62.8706 17.9451 62.9295 17.8918C62.9715 17.8537 63.0156 17.8138 63.0626 17.772C63.1 17.7369 63.1374 17.7025 63.1746 17.6683C63.2463 17.6023 63.3172 17.5371 63.3856 17.4695C63.4773 17.3787 63.5465 17.3191 63.5932 17.2789C63.5994 17.2736 63.6051 17.2687 63.6105 17.264C64.1412 16.7846 64.5853 16.3736 64.9487 16.0312C65.3121 15.6888 65.6005 15.3977 65.8197 15.158C66.0388 14.9182 66.1946 14.7185 66.2869 14.5587C66.3791 14.3989 66.4253 14.2619 66.4253 14.1535C66.4253 14.0393 66.3734 13.9423 66.2753 13.8567C66.1715 13.7768 65.9985 13.7311 65.7562 13.7311H65.5255V13.4629H69.1535V13.7311ZM66.1795 13.9715C66.2503 14.0345 66.2749 14.0925 66.2749 14.1535C66.2749 14.2242 66.2431 14.3345 66.1563 14.4849C66.072 14.6309 65.9246 14.8214 65.7081 15.0581C65.4921 15.2944 65.2065 15.5827 64.845 15.9234C64.4827 16.2649 64.0397 16.6747 63.5103 17.153C63.5054 17.1573 63.5002 17.1618 63.4945 17.1667C63.4476 17.2071 63.3748 17.2697 63.2792 17.3642C63.2127 17.4301 63.1454 17.492 63.075 17.5567C63.0378 17.5909 62.9998 17.6259 62.9605 17.6626C62.9118 17.706 62.8675 17.7462 62.8258 17.7839C62.8043 17.8035 62.7834 17.8223 62.763 17.8407V15.1979C62.763 14.7237 62.7928 14.4357 62.84 14.3027C62.8993 14.1554 63.0004 14.0541 63.1646 13.9891C63.3524 13.9148 63.5237 13.8799 63.6797 13.8799H64.1647V13.3141H59.6648V13.8856H60.1613C60.3533 13.8856 60.5554 13.9355 60.7689 14.0411L60.7725 14.0429C60.842 14.0749 60.8919 14.1135 60.9274 14.1564L60.932 14.1617C60.9645 14.1974 60.9963 14.2556 61.0214 14.3348C61.0447 14.4087 61.061 14.5141 61.0665 14.6557C61.0723 14.8032 61.078 14.978 61.078 15.1922V21.4989C61.078 21.7861 61.0637 22.0145 61.0365 22.1881C61.009 22.3634 60.9708 22.4658 60.9346 22.5173C60.7873 22.7021 60.5396 22.8112 60.167 22.8112H59.6706V23.3771H64.1704V22.8112H63.6855C63.4805 22.8112 63.2806 22.7606 63.0952 22.6587L63.093 22.6575C63.0194 22.6187 62.9565 22.5704 62.9151 22.5295C62.8797 22.4944 62.8511 22.4456 62.8335 22.376C62.8133 22.2959 62.7969 22.185 62.7856 22.0464C62.7746 21.9093 62.7688 21.7253 62.7688 21.4989V18.7051L65.921 21.7925C66.0448 21.915 66.1354 22.0102 66.2092 22.0888C66.2751 22.1649 66.3199 22.2195 66.3488 22.2615C66.377 22.3122 66.3848 22.3335 66.386 22.3418C66.3915 22.3799 66.396 22.4172 66.396 22.4577C66.396 22.5299 66.3665 22.608 66.2786 22.695C66.2153 22.7576 66.064 22.8112 65.7562 22.8112H65.6058V23.3771H70.5959V22.8151L70.4495 22.8113C70.2439 22.8059 70.0475 22.7738 69.8476 22.7243C69.6556 22.6768 69.4604 22.597 69.2501 22.482C69.0446 22.3666 68.821 22.2174 68.5794 22.0227C68.3364 21.827 68.0691 21.5852 67.766 21.2852L64.2335 17.812L65.6311 16.4396C66.0809 16.0002 66.4286 15.6563 66.6668 15.409C66.904 15.1629 67.05 15.0187 67.1027 14.9718L67.1039 14.9707C67.3902 14.7101 67.6391 14.5033 67.84 14.3597C68.0406 14.2163 68.2227 14.1128 68.3747 14.043C68.5261 13.9735 68.6611 13.9333 68.775 13.9186L68.7813 13.9177C68.9057 13.8962 69.0316 13.8853 69.1601 13.8798L69.3039 13.8736V13.3141H65.3751V13.8799H65.7562C65.9814 13.8799 66.1134 13.9226 66.1795 13.9715Z" fill="white"/>
<path d="M78.1458 19.9579H74.3216L73.6468 21.4932C73.4853 21.8756 73.4103 22.1553 73.4103 22.3436C73.4103 22.4235 73.4218 22.492 73.4507 22.5605C73.4737 22.6233 73.5314 22.686 73.6122 22.7374C73.6929 22.7888 73.8083 22.8401 73.9582 22.8744C74.1082 22.9143 74.3043 22.9429 74.5523 22.9543V23.2225H71.4492V22.9543C71.6972 22.92 71.8933 22.863 72.049 22.7945C72.199 22.7203 72.3317 22.6233 72.4413 22.4977C72.5509 22.3721 72.6489 22.2066 72.7412 22.0069C72.8335 21.8071 72.9431 21.5617 73.07 21.2649L76.5423 13.246H76.7903L80.2222 21.3562C80.3607 21.693 80.4876 21.9612 80.6087 22.1667C80.7298 22.3721 80.851 22.5319 80.9779 22.6461C81.1048 22.7602 81.2432 22.8401 81.3932 22.8801C81.5431 22.92 81.7219 22.9486 81.9296 22.9543V23.2225H78.0304V22.9543C78.4226 22.9429 78.688 22.8801 78.8264 22.7659C78.9648 22.6575 79.0398 22.5205 79.0398 22.3607C79.034 22.1553 78.936 21.8185 78.7456 21.3505L78.1458 19.9579ZM77.9439 19.4214L76.2712 15.4776L74.5581 19.4214H77.9439Z" fill="white"/>
<path fill-rule="evenodd" clip-rule="evenodd" d="M78.0304 22.9543C78.4226 22.9429 78.688 22.8801 78.8264 22.7659C78.9648 22.6575 79.0398 22.5205 79.0398 22.3607C79.034 22.1553 78.936 21.8185 78.7456 21.3505L78.1458 19.9579H74.3216L73.6468 21.4932C73.4853 21.8756 73.4103 22.1553 73.4103 22.3436C73.4103 22.4235 73.4218 22.492 73.4507 22.5605C73.4737 22.6233 73.5314 22.686 73.6122 22.7374C73.6929 22.7888 73.8083 22.8401 73.9582 22.8744C74.1082 22.9143 74.3043 22.9429 74.5523 22.9543V23.2225H71.4492V22.9543C71.6972 22.92 71.8933 22.863 72.049 22.7945C72.199 22.7203 72.3317 22.6233 72.4413 22.4977C72.5509 22.3721 72.6489 22.2066 72.7412 22.0069C72.8335 21.8071 72.9431 21.5617 73.07 21.2649L76.5423 13.246H76.7903L80.2222 21.3562C80.3607 21.693 80.4876 21.9612 80.6087 22.1667C80.7298 22.3721 80.851 22.5319 80.9779 22.6461C81.1048 22.7602 81.2432 22.8401 81.3932 22.8801C81.5431 22.92 81.7219 22.9486 81.9296 22.9543V23.2225H78.0304V22.9543ZM71.9848 22.6599C72.1181 22.5935 72.2331 22.5085 72.3274 22.4004C72.4242 22.2896 72.5153 22.138 72.6044 21.945C72.6961 21.7466 72.8051 21.5025 72.9315 21.2069L76.4431 13.0972H76.8904L80.3616 21.3001C80.4988 21.6339 80.6226 21.8949 80.7386 22.0917C80.8555 22.2901 80.9677 22.4358 81.079 22.536C81.1914 22.6371 81.3092 22.7036 81.4323 22.7364C81.5706 22.7733 81.7376 22.8002 81.9337 22.8055L82.0799 22.8096V23.3713H77.88V22.8098L78.026 22.8056C78.2159 22.8 78.3693 22.7822 78.4886 22.7539C78.6093 22.7254 78.6855 22.6884 78.7301 22.6516L78.733 22.6492C78.8409 22.5648 78.8888 22.4691 78.8894 22.3627C78.8839 22.1867 78.7962 21.8735 78.6067 21.4075L78.0464 20.1067H74.4202L73.7851 21.5516C73.6253 21.9302 73.5607 22.1866 73.5607 22.3436C73.5607 22.4079 73.5697 22.4563 73.5895 22.5032L73.5921 22.5096C73.5999 22.5308 73.6285 22.5709 73.6935 22.6122C73.7584 22.6535 73.8574 22.6986 73.9921 22.7294L73.9974 22.7306C74.1338 22.767 74.3185 22.7946 74.5593 22.8056L74.7027 22.8122V23.3713H71.2988V22.8248L71.4284 22.8069C71.6628 22.7746 71.8441 22.7214 71.9848 22.6599ZM76.2712 15.4776L74.5581 19.4214H77.9439L76.2712 15.4776ZM76.2695 15.8582L74.7864 19.2726H77.7177L76.2695 15.8582Z" fill="white"/>
<path d="M93.154 23.2283H90.5238L87.1784 18.6623C87.0573 18.668 86.9477 18.6737 86.8496 18.6794C86.7516 18.6851 86.6651 18.6851 86.5843 18.6851C86.5209 18.6851 86.4516 18.6851 86.3766 18.6794C86.3017 18.6737 86.2267 18.668 86.1459 18.6623V21.4989C86.1459 21.8413 86.169 22.1153 86.2151 22.3094C86.2613 22.5034 86.3305 22.6518 86.4228 22.7488C86.5151 22.8459 86.6189 22.9029 86.7458 22.9258C86.8727 22.9486 87.0169 22.96 87.1726 22.96H87.5648V23.2283H83.3312V22.96H83.7118C84.1156 22.96 84.4155 22.8287 84.6001 22.5605C84.7039 22.4007 84.7501 22.0468 84.7501 21.4989V15.1922C84.7501 14.5929 84.6809 14.2105 84.5424 14.0507C84.3521 13.8338 84.0752 13.7311 83.7061 13.7311H83.3254V13.4629H86.9188C87.4495 13.4629 87.9052 13.48 88.2859 13.5199C88.6723 13.5599 88.9838 13.617 89.2318 13.6969C89.4798 13.7768 89.7105 13.8852 89.9239 14.0222C90.1431 14.1592 90.3335 14.3304 90.495 14.5244C90.6565 14.7242 90.7891 14.9411 90.8814 15.1865C90.9737 15.4319 91.0198 15.6888 91.0198 15.9684C91.0198 16.5791 90.8237 17.0985 90.4315 17.538C90.0393 17.9774 89.4279 18.2856 88.5973 18.474L90.6276 21.2649C90.8641 21.5845 91.0775 21.8528 91.2621 22.0582C91.4467 22.2637 91.6313 22.4292 91.8158 22.5548C92.0004 22.6746 92.1965 22.766 92.4042 22.823C92.6118 22.8801 92.8541 22.9258 93.1367 22.9543V23.2283H93.154ZM86.1517 18.2114C86.244 18.2114 86.3247 18.2114 86.394 18.2171C86.4632 18.2228 86.5208 18.2228 86.5612 18.2228C87.0342 18.2228 87.4437 18.1715 87.8013 18.063C88.1532 17.9546 88.4531 17.8062 88.6896 17.6122C88.9261 17.4181 89.1049 17.1898 89.226 16.9273C89.3471 16.6647 89.4048 16.3793 89.4048 16.0711C89.4048 15.7687 89.3529 15.4947 89.2549 15.2379C89.151 14.981 89.0068 14.7641 88.8223 14.5815C88.6319 14.3989 88.4127 14.2562 88.1474 14.1592C87.8879 14.0564 87.5995 14.0108 87.288 14.0108C86.9938 14.0108 86.6131 14.0564 86.1459 14.1477V18.2114H86.1517Z" fill="white"/>
<path fill-rule="evenodd" clip-rule="evenodd" d="M90.4471 23.3771L87.1044 18.8149C87.0155 18.8192 86.9335 18.8236 86.8584 18.828C86.756 18.834 86.6658 18.834 86.5856 18.834H86.5825C86.5199 18.834 86.4459 18.834 86.3651 18.8278C86.3422 18.8261 86.3193 18.8243 86.2963 18.8226V21.4989C86.2963 21.837 86.3193 22.0977 86.3615 22.2753C86.4046 22.4565 86.4654 22.5765 86.5323 22.6468C86.6038 22.722 86.6791 22.7625 86.7727 22.7794C86.889 22.8003 87.0239 22.8112 87.1726 22.8112H87.7152V23.3771H83.1808V22.8112H83.7118C84.0798 22.8112 84.3254 22.694 84.4746 22.4785C84.5078 22.4264 84.5415 22.3251 84.565 22.155C84.5882 21.9876 84.5997 21.7696 84.5997 21.4989V15.1922C84.5997 14.8972 84.5826 14.6614 84.5502 14.483C84.517 14.3003 84.471 14.1971 84.4285 14.1479C84.2751 13.9733 84.0459 13.8799 83.7061 13.8799H83.175V13.3141H86.9188C87.4521 13.3141 87.9136 13.3312 88.3016 13.3719C88.6933 13.4124 89.0163 13.4709 89.2783 13.5554C89.5382 13.6391 89.7806 13.7529 90.005 13.8969C90.2386 14.0429 90.4405 14.2249 90.6111 14.4298L90.6124 14.4315C90.7822 14.6414 90.9236 14.8719 91.0224 15.1346C91.1212 15.3974 91.1702 15.6719 91.1702 15.9684C91.1702 16.6141 90.9616 17.1689 90.5442 17.6365C90.1604 18.0666 89.5898 18.3697 88.8492 18.5655L90.749 21.177C90.9839 21.4945 91.1944 21.7589 91.3745 21.9594C91.5524 22.1574 91.7276 22.314 91.8997 22.4313C92.0722 22.5431 92.2538 22.6273 92.4444 22.6797C92.643 22.7342 92.8768 22.7785 93.152 22.8063L93.2871 22.8199V23.2283H93.154V23.3771H90.4471ZM93.1367 23.2283V22.9543C92.8541 22.9258 92.6118 22.8801 92.4042 22.823C92.1965 22.766 92.0004 22.6746 91.8158 22.5548C91.6313 22.4292 91.4467 22.2637 91.2621 22.0582C91.0775 21.8528 90.8641 21.5845 90.6276 21.2649L88.5973 18.474C88.6508 18.4618 88.7034 18.4492 88.7551 18.4361C89.5057 18.2454 90.0646 17.9491 90.4315 17.538C90.8237 17.0985 91.0198 16.5791 91.0198 15.9684C91.0198 15.6888 90.9737 15.4319 90.8814 15.1865C90.7891 14.9411 90.6565 14.7242 90.495 14.5244C90.3335 14.3304 90.1431 14.1592 89.9239 14.0222C89.7105 13.8852 89.4798 13.7768 89.2318 13.6969C88.9838 13.617 88.6723 13.5599 88.2859 13.5199C87.9052 13.48 87.4495 13.4629 86.9188 13.4629H83.3254V13.7311H83.7061C84.0752 13.7311 84.3521 13.8338 84.5424 14.0507C84.6809 14.2105 84.7501 14.5929 84.7501 15.1922V21.4989C84.7501 22.0468 84.7039 22.4007 84.6001 22.5605C84.4155 22.8287 84.1156 22.96 83.7118 22.96H83.3312V23.2283H87.5648V22.96H87.1726C87.0169 22.96 86.8727 22.9486 86.7458 22.9258C86.6189 22.9029 86.5151 22.8459 86.4228 22.7488C86.3305 22.6518 86.2613 22.5034 86.2151 22.3094C86.169 22.1153 86.1459 21.8413 86.1459 21.4989V18.6623C86.1979 18.666 86.2475 18.6697 86.2963 18.6733C86.3233 18.6754 86.35 18.6774 86.3766 18.6794C86.4516 18.6851 86.5209 18.6851 86.5843 18.6851C86.6651 18.6851 86.7516 18.6851 86.8496 18.6794C86.9477 18.6737 87.0573 18.668 87.1784 18.6623L90.5238 23.2283H93.1367ZM88.0916 14.2973C87.8535 14.2031 87.5849 14.1596 87.288 14.1596C87.0326 14.1596 86.7029 14.1959 86.2963 14.2707V18.0636C86.3347 18.0644 86.3717 18.066 86.4064 18.0688C86.4689 18.074 86.5212 18.074 86.5612 18.074C87.0234 18.074 87.4173 18.0238 87.7569 17.9209C88.0952 17.8166 88.3761 17.6761 88.5936 17.4976C88.8136 17.3171 88.978 17.1065 89.0892 16.8655C89.2004 16.6245 89.2545 16.3605 89.2545 16.0711C89.2545 15.7867 89.2059 15.531 89.1147 15.2918C89.0183 15.0539 88.8856 14.8549 88.7167 14.6876C88.5407 14.5188 88.3394 14.388 88.0953 14.2987L88.0916 14.2973ZM89.2549 15.2379C89.3529 15.4947 89.4048 15.7687 89.4048 16.0711C89.4048 16.3793 89.3471 16.6647 89.226 16.9273C89.1049 17.1898 88.9261 17.4181 88.6896 17.6122C88.4531 17.8062 88.1532 17.9546 87.8013 18.063C87.4437 18.1715 87.0342 18.2228 86.5612 18.2228C86.5208 18.2228 86.4632 18.2228 86.394 18.2171C86.3247 18.2114 86.244 18.2114 86.1517 18.2114H86.1459V14.1477C86.6131 14.0564 86.9938 14.0108 87.288 14.0108C87.5995 14.0108 87.8879 14.0564 88.1474 14.1592C88.4127 14.2562 88.6319 14.3989 88.8223 14.5815C89.0068 14.7641 89.151 14.981 89.2549 15.2379Z" fill="white"/>
<path d="M95.8938 21.8299C96.113 21.8299 96.2975 21.9041 96.459 22.0582C96.6206 22.2123 96.6955 22.4007 96.6955 22.6233C96.6955 22.8458 96.6148 23.0342 96.459 23.194C96.2975 23.3538 96.113 23.428 95.8938 23.428C95.6688 23.428 95.4785 23.3481 95.317 23.194C95.1555 23.0342 95.0805 22.8458 95.0805 22.6233C95.0805 22.395 95.1613 22.2066 95.317 22.0525C95.4785 21.9041 95.6688 21.8299 95.8938 21.8299Z" fill="white"/>
<path fill-rule="evenodd" clip-rule="evenodd" d="M96.5654 23.2992C96.3758 23.4868 96.1531 23.5768 95.8938 23.5768C95.6281 23.5768 95.4008 23.4807 95.2126 23.3011L95.2107 23.2992C95.0199 23.1105 94.9301 22.8838 94.9301 22.6233C94.9301 22.3556 95.0266 22.1294 95.2107 21.9473L95.2146 21.9434C95.4042 21.7692 95.6312 21.6811 95.8938 21.6811C96.1527 21.6811 96.3745 21.7708 96.5635 21.9511C96.7564 22.1352 96.8459 22.3632 96.8459 22.6233C96.8459 22.8862 96.7488 23.1111 96.5673 23.2973L96.5654 23.2992ZM96.459 23.194C96.6148 23.0342 96.6955 22.8458 96.6955 22.6233C96.6955 22.4007 96.6206 22.2123 96.459 22.0582C96.2975 21.9041 96.113 21.8299 95.8938 21.8299C95.6688 21.8299 95.4785 21.9041 95.317 22.0525C95.1613 22.2066 95.0805 22.395 95.0805 22.6233C95.0805 22.8458 95.1555 23.0342 95.317 23.194C95.4785 23.3481 95.6688 23.428 95.8938 23.428C96.113 23.428 96.2975 23.3538 96.459 23.194Z" fill="white"/>
</svg>
