<svg width="207" height="30" viewBox="0 0 207 30" fill="none" xmlns="http://www.w3.org/2000/svg">
<g clip-path="url(#clip0_826_4523)">
<path d="M34.0126 15.8696C33.8343 15.4942 33.3921 14.5831 32.4242 13.7979C31.3731 12.9444 30.2659 12.6948 29.8163 12.5988C29.5187 12.5348 29.2675 12.5039 29.0923 12.4868C29.5524 12.3492 30.7546 11.9213 31.6495 10.7138C32.4105 9.68644 32.5434 8.64415 32.5994 8.15342C32.6606 7.61788 32.7746 6.48493 32.1772 5.27303C31.6728 4.24997 30.9192 3.69309 30.5941 3.45946C30.2016 3.17676 29.7857 2.96019 29.1166 2.71269C26.8654 1.88272 24.8347 1.85392 24.1562 1.85925C23.4226 1.86564 22.4042 1.92859 21.201 2.17929C20.972 1.95419 20.6184 1.63842 20.1456 1.32584C18.476 0.221696 16.7545 0.110749 15.5018 0.0456733C14.287 -0.0172684 13.3793 -0.0652747 12.2301 0.259035C11.7646 0.390252 8.15933 1.46347 7.4807 4.41959C7.43214 4.62868 6.98255 6.72496 8.21948 7.94005C8.89178 8.60041 9.81628 8.75936 10.0137 8.7935C10.3831 8.85751 10.952 8.94713 11.5968 8.68682C11.8015 8.60361 12.3925 8.35505 12.7578 7.7267C13.1926 6.97886 13.2295 5.82991 12.6522 5.37971C12.4654 5.23357 12.1287 5.09488 11.8079 5.16636C11.5598 5.22183 11.5197 5.35944 11.1746 5.4864C11.0543 5.5312 10.7746 5.63042 10.4359 5.59308C10.3482 5.58348 9.76041 5.5184 9.486 5.05967C9.44691 4.9946 9.31816 4.76203 9.38044 4.20623C9.40575 3.97366 9.49341 3.27064 10.0137 2.60602C10.6881 1.7451 11.6485 1.51573 12.4411 1.32584C12.859 1.22557 13.9229 1.01753 15.1852 1.32584C15.7994 1.47519 16.3915 1.62988 16.7683 2.17929C17.0353 2.56868 17.0817 2.9922 17.0849 3.24609C14.8591 8.13315 12.8907 12.3374 11.3361 15.5688C10.1171 15.3373 8.87911 15.077 7.62212 14.7847C7.36883 14.7261 7.11763 14.6663 6.86751 14.6065C6.64587 14.5042 6.39574 14.5223 6.22054 14.6599C6.07701 14.7729 6.03056 14.9288 6.01579 14.9895C5.98413 15.0759 5.94402 15.2243 5.95352 15.4119C5.96197 15.5741 6.00523 15.7022 6.03901 15.7822C6.09495 15.844 6.18043 15.9305 6.29547 16.0179C6.68914 16.3198 7.09653 16.3881 7.30972 16.4243C7.8617 16.5193 8.40629 16.6559 8.95932 16.7412C9.35405 16.8021 9.92503 16.8969 10.6237 17.041C10.0168 18.2262 9.56194 19.2002 9.23373 19.8499C8.83689 20.635 8.50867 21.2645 8.25747 21.7222C8.06328 22.0752 7.48914 23.0919 6.34403 23.6637C5.11131 24.2793 3.44482 24.2761 2.60048 23.4813C2.43268 23.3234 2.12028 23.029 2.12028 22.6374C2.12028 22.2364 2.44851 22.0849 2.5245 21.4907C2.54877 21.2965 2.58149 21.0458 2.46223 20.8079C2.20366 20.2927 1.39311 20.1091 0.831624 20.3321C0.623709 20.4143 0.482285 20.5402 0.413683 20.6084C0.0886173 20.9348 0.0379577 21.3551 0.0126279 21.5952C-0.0791926 22.4657 0.352469 23.2456 0.571994 23.5848C1.28439 24.6858 2.33769 25.1242 3.04481 25.4198C3.32133 25.535 4.57305 26.0352 6.19205 25.9083C6.62371 25.8742 6.9836 25.8464 7.43742 25.6725C8.44217 25.2853 8.99943 24.53 9.43528 23.9229C9.68334 23.5774 10.0095 22.8508 10.6553 21.416C11.2601 20.0729 11.5261 19.5427 11.8364 18.909C12.1414 18.2871 12.3999 17.7814 12.572 17.4486C13.4132 17.6182 14.2543 17.7878 15.0954 17.9585C16.1213 18.1654 17.1461 18.3724 18.1719 18.5794C18.2596 19.3624 18.3778 20.3694 18.534 21.5408C19.1904 26.478 19.6136 27.6344 20.552 28.3779C21.2263 28.9124 22.1372 29.2101 22.1814 29.225C23.1176 29.5226 23.9587 29.5013 24.3957 29.4863C24.591 29.48 24.9614 29.4448 25.7033 29.3744C25.8681 29.3584 26.2343 29.3231 26.706 29.2495C27.373 29.145 27.525 29.0768 27.6179 29.0288C27.8089 28.9295 28.2258 28.7119 28.286 28.3001C28.3219 28.059 28.2396 27.7219 27.9936 27.5971C27.7762 27.4861 27.5187 27.5874 27.4944 27.5971C27.4142 27.6301 27.3741 27.6653 27.3192 27.7038C27.1271 27.8349 26.933 27.8637 26.6891 27.8979C26.1752 27.9683 25.0913 27.9726 24.5625 27.6067C24.4791 27.5491 24.3313 27.4478 24.2374 27.26C24.2016 27.1896 24.1793 27.1117 24.134 26.957C24.0812 26.7745 24.0496 26.6348 24.0411 26.5943C23.9725 26.286 23.9145 26.0139 23.869 25.7995C26.2459 26.0128 28.0569 25.6768 29.1683 25.3781C30.3704 25.0559 30.9952 24.7134 31.2918 24.5375C31.7529 24.2633 32.9762 23.5165 33.8121 22.0401C34.9181 20.0814 34.8707 17.6832 34.0126 15.8696ZM13.2348 15.9678C14.6036 12.8911 15.9736 9.81553 17.3424 6.73883C17.5852 10.1569 17.8268 13.576 18.0696 16.9941C16.458 16.6516 14.8463 16.3091 13.2348 15.9678ZM22.4359 5.27517C22.4558 5.08314 22.516 4.76096 22.7166 4.42598C23.0174 3.92352 23.449 3.70269 23.6632 3.59602C24.363 3.24823 25.0258 3.32825 25.2749 3.36131C26.4538 3.5192 27.1862 4.33317 27.3351 4.51453C28.3102 5.71149 28.1814 7.22423 28.0865 8.34117C27.9767 9.63413 27.5704 10.3948 27.3624 10.733C27.0617 11.2226 26.7841 11.4669 26.7218 11.5203C26.0612 12.091 25.3235 12.1913 24.8843 12.2521C24.0137 12.3715 23.2907 12.2009 22.8527 12.0548C22.7145 9.79631 22.5752 7.53574 22.4359 5.27517ZM29.0891 21.2004C28.8844 21.8171 28.5593 22.758 27.697 23.5635C27.4363 23.8077 26.9308 24.2686 26.1382 24.4639C25.8458 24.5353 25.411 24.642 24.8855 24.4916C24.7345 24.4489 24.1857 24.2846 23.8353 23.7918C23.5598 23.4045 23.5492 23.0152 23.5219 22.4092C23.4595 21.0383 23.3445 19.6718 23.2654 18.302C23.2443 17.9371 23.2453 18.0022 23.2158 17.5136C23.1503 16.4457 23.0733 14.9447 23.0205 13.0682C23.601 12.9786 24.5256 12.922 25.5809 13.2368C26.0717 13.3829 27.3054 13.7691 28.2533 14.9532C28.8623 15.7139 29.0765 16.4586 29.2274 17.0068C29.3213 17.3439 29.7825 19.1149 29.0891 21.2004Z" fill="#2D2B26"/>
<path d="M56.669 15.9008H51.977L51.1477 17.7875C50.9563 18.2503 50.8571 18.594 50.8571 18.8255C50.8571 18.9236 50.8713 19.0078 50.9067 19.092C50.9421 19.1761 51.006 19.2462 51.1052 19.3094C51.2044 19.3725 51.3462 19.4356 51.5304 19.4777C51.7147 19.5268 51.9557 19.5619 52.2534 19.5758V19.9055H48.4473V19.5758C48.752 19.5338 48.993 19.4636 49.1773 19.3795C49.3616 19.2953 49.5246 19.1691 49.6593 19.0148C49.7939 18.8605 49.9145 18.6641 50.0278 18.4117C50.1412 18.1662 50.2759 17.8646 50.4319 17.4999L54.6987 7.66016H55.0035L59.2136 17.6122C59.3837 18.0259 59.5397 18.3556 59.6885 18.6081C59.8373 18.8605 59.9862 19.0568 60.1421 19.1972C60.298 19.3374 60.4682 19.4356 60.6454 19.4847C60.8225 19.5338 61.0493 19.5689 61.3045 19.5758V19.9055H56.5203V19.5758C57.0022 19.5619 57.3282 19.4847 57.4984 19.3445C57.6684 19.2112 57.7606 19.0429 57.7606 18.8535C57.7535 18.601 57.633 18.1872 57.3991 17.6122L56.669 15.9008ZM56.414 15.2416L54.3655 10.4024L52.2605 15.2416H56.414Z" fill="#2D2B26"/>
<path fill-rule="evenodd" clip-rule="evenodd" d="M56.52 19.5761C57.002 19.5621 57.3279 19.485 57.4981 19.3447C57.6681 19.2114 57.7603 19.0431 57.7603 18.8537C57.7533 18.6013 57.6327 18.1875 57.3988 17.6124L56.6688 15.9011H51.9767L51.1475 17.7877C50.956 18.2505 50.8568 18.5942 50.8568 18.8257C50.8568 18.9239 50.871 19.008 50.9064 19.0922C50.9419 19.1763 51.0057 19.2465 51.1049 19.3096C51.2041 19.3727 51.3459 19.4358 51.5301 19.4779C51.7145 19.527 51.9554 19.5621 52.2531 19.5761V19.9057H48.447V19.5761C48.7518 19.534 48.9927 19.4639 49.177 19.3798C49.3613 19.2956 49.5244 19.1693 49.659 19.0151C49.7936 18.8608 49.9142 18.6644 50.0275 18.4119C50.141 18.1665 50.2756 17.8649 50.4316 17.5002L54.6984 7.66039H55.0032L59.2133 17.6124C59.3834 18.0261 59.5394 18.3558 59.6882 18.6083C59.8371 18.8608 59.9859 19.0571 60.1418 19.1974C60.2977 19.3377 60.4679 19.4358 60.6451 19.485C60.8223 19.534 61.0491 19.5691 61.3042 19.5761V19.9057H56.52V19.5761ZM51.3177 17.8588C51.127 18.3202 51.0416 18.6338 51.0416 18.8257C51.0416 18.9047 51.0528 18.9642 51.077 19.0218C51.0946 19.0635 51.1286 19.1073 51.2048 19.1558C51.2845 19.2065 51.4062 19.2619 51.5717 19.2998L51.5782 19.3012C51.7461 19.3459 51.9731 19.3799 52.2619 19.3935L52.4379 19.4018V20.0886H48.2622V19.417L48.4215 19.395C48.7121 19.3549 48.935 19.2889 49.0996 19.2137C49.2576 19.1415 49.4 19.032 49.5191 18.8955C49.6387 18.7585 49.7504 18.5788 49.8587 18.3376L49.8595 18.3359C49.9721 18.0921 50.1061 17.7921 50.2613 17.4289L54.5766 7.47754H55.1261L59.3845 17.5435C59.5531 17.9535 59.7052 18.2743 59.8478 18.5161C59.9916 18.7599 60.1293 18.939 60.2661 19.062C60.4045 19.1866 60.5499 19.2687 60.6949 19.3089C60.8558 19.3534 61.0674 19.3867 61.3093 19.3934L61.489 19.3982V20.0886H56.3352V19.3985L56.5146 19.3934C56.7479 19.3865 56.9363 19.3646 57.083 19.3299C57.2313 19.2948 57.3249 19.2495 57.3798 19.2042L57.3833 19.2013C57.5168 19.0967 57.5748 18.9788 57.5755 18.8562C57.5687 18.6398 57.4609 18.2549 57.228 17.682L56.5462 16.084H52.0978L51.3177 17.8588ZM54.3652 10.4026L52.2602 15.2418H56.4137L54.3652 10.4026ZM54.363 10.8705L52.541 15.059H56.1359L54.363 10.8705Z" fill="#2D2B26"/>
<path d="M69.5192 19.9056L64.8484 9.83437V17.8367C64.8484 18.2504 64.8767 18.5731 64.9334 18.8045C64.9901 19.0359 65.0752 19.2112 65.1886 19.3235C65.302 19.4357 65.4367 19.5058 65.5926 19.5339C65.7486 19.562 65.9328 19.5759 66.1384 19.5759H66.5636V19.9056H62.3535V19.5759H62.7788C62.9914 19.5759 63.1757 19.562 63.3387 19.5269C63.5018 19.4918 63.6293 19.4217 63.7356 19.3025C63.8419 19.1832 63.9199 19.0079 63.9766 18.7764C64.0262 18.545 64.0546 18.2294 64.0546 17.8367V10.0097C64.0546 9.72919 64.0404 9.48375 64.0121 9.26631C63.9837 9.0489 63.9199 8.86655 63.8065 8.71926C63.6931 8.57198 63.5301 8.45276 63.3033 8.37561C63.0764 8.29847 62.7575 8.25638 62.3535 8.25638V7.92676H65.7769L70.1713 17.2966L74.4878 7.92676H77.9111V8.25638H77.5C77.2804 8.25638 77.089 8.27743 76.9259 8.31249C76.763 8.34756 76.6354 8.42471 76.5291 8.54393C76.4228 8.65615 76.3448 8.83148 76.288 9.06292C76.2313 9.29436 76.2101 9.60994 76.2101 10.0027V17.8297C76.2101 18.2435 76.2385 18.5661 76.2952 18.7975C76.3519 19.0289 76.4369 19.2043 76.5504 19.3164C76.6637 19.4287 76.7984 19.4989 76.9543 19.5269C77.1102 19.5549 77.2945 19.569 77.5 19.569H77.9111V19.8986H72.7725V19.569H73.1978C73.4104 19.569 73.5947 19.5549 73.7577 19.5128C73.9208 19.4778 74.0554 19.4006 74.1617 19.2814C74.2751 19.1622 74.3531 18.9868 74.4098 18.7625C74.4665 18.538 74.4878 18.2224 74.4878 17.8297V9.83437L69.824 19.9056H69.5192Z" fill="#2D2B26"/>
<path fill-rule="evenodd" clip-rule="evenodd" d="M69.4009 20.0877L65.0334 10.6705V17.8359C65.0334 18.2441 65.0616 18.5499 65.1133 18.7607C65.1659 18.9758 65.2398 19.1146 65.3195 19.1934C65.4067 19.2797 65.5074 19.3319 65.6259 19.3533C65.7681 19.3788 65.9409 19.3924 66.1386 19.3924H66.7486V20.0877H62.1689V19.3924H62.779C62.9843 19.3924 63.1543 19.3788 63.2997 19.3475C63.428 19.3198 63.5194 19.268 63.5972 19.1807C63.6749 19.0937 63.7432 18.9519 63.7966 18.7352C63.8422 18.5209 63.8699 18.22 63.8699 17.8359V10.0089C63.8699 9.73435 63.8561 9.49688 63.829 9.28897C63.8034 9.09275 63.7479 8.94381 63.6598 8.82934C63.5705 8.71343 63.439 8.61431 63.2434 8.54779C63.0438 8.47991 62.7478 8.4385 62.3537 8.4385H62.1689V7.74316H65.895L70.17 16.8583L74.3691 7.74316H78.0961V8.4385H77.5003C77.2923 8.4385 77.1143 8.45842 76.9654 8.49043C76.8422 8.51692 76.749 8.57309 76.6679 8.66417L76.6641 8.66831C76.59 8.74648 76.5217 8.88545 76.4679 9.10526C76.4166 9.31452 76.3951 9.612 76.3951 10.002V17.8289C76.3951 18.2371 76.4233 18.543 76.4749 18.7537C76.5277 18.9688 76.6015 19.1076 76.6812 19.1864C76.7683 19.2727 76.8691 19.3249 76.9876 19.3463C77.1298 19.3718 77.3025 19.3853 77.5003 19.3853H78.0961V20.0807H72.5879V19.3853H73.198C73.404 19.3853 73.5703 19.3716 73.7113 19.3352L73.7187 19.3333C73.8448 19.3061 73.9441 19.2486 74.0233 19.1597L74.0273 19.1553C74.1091 19.0692 74.1772 18.9293 74.2307 18.7173C74.2816 18.516 74.3032 18.2195 74.3032 17.8289V10.6717L69.9428 20.0877H69.4009ZM74.488 9.83363V17.8289C74.488 18.2216 74.4667 18.5373 74.41 18.7617C74.3533 18.9861 74.2753 19.1615 74.1619 19.2806C74.0556 19.3999 73.921 19.477 73.7579 19.5121C73.5949 19.5542 73.4106 19.5683 73.198 19.5683H72.7727V19.8979H77.9114V19.5683H77.5003C77.2948 19.5683 77.1104 19.5542 76.9545 19.5262C76.7986 19.4981 76.6639 19.4279 76.5506 19.3157C76.4371 19.2036 76.3521 19.0282 76.2954 18.7968C76.2387 18.5653 76.2104 18.2427 76.2104 17.8289V10.002C76.2104 9.60919 76.2315 9.29362 76.2883 9.06218C76.345 8.83074 76.423 8.65541 76.5293 8.54319C76.6356 8.42397 76.7632 8.34682 76.9261 8.31175C77.0892 8.27669 77.2806 8.25564 77.5003 8.25564H77.9114V7.92601H74.488L70.1715 17.2958L65.7771 7.92601H62.3537V8.25564C62.7577 8.25564 63.0766 8.29772 63.3035 8.37487C63.5303 8.45202 63.6933 8.57124 63.8067 8.71852C63.9201 8.8658 63.9839 9.04815 64.0123 9.26557C64.0406 9.483 64.0548 9.72844 64.0548 10.0089V17.8359C64.0548 18.2287 64.0264 18.5442 63.9768 18.7757C63.9201 19.0072 63.8421 19.1825 63.7358 19.3017C63.6295 19.421 63.502 19.4911 63.3389 19.5262C63.1759 19.5612 62.9916 19.5752 62.779 19.5752H62.3537V19.9048H66.5638V19.5752H66.1386C65.933 19.5752 65.7488 19.5612 65.5928 19.5332C65.4369 19.5051 65.3023 19.4349 65.1888 19.3227C65.0754 19.2105 64.9903 19.0352 64.9336 18.8037C64.8769 18.5723 64.8486 18.2497 64.8486 17.8359V9.83363L69.5194 19.9048H69.8242L74.488 9.83363Z" fill="#2D2B26"/>
<path d="M82.6673 8.58602V13.32H85.3181C85.7079 13.32 86.0269 13.2849 86.2608 13.2148C86.5018 13.1447 86.6861 13.0395 86.8278 12.8992C86.9625 12.759 87.0618 12.5767 87.1113 12.3592C87.1681 12.1417 87.2035 11.8823 87.2177 11.5807H87.5507V15.7466H87.2177C87.1751 15.403 87.1255 15.1155 87.0618 14.8911C87.005 14.6596 86.9129 14.4772 86.7783 14.344C86.6435 14.2107 86.4663 14.1126 86.2396 14.0564C86.0127 14.0003 85.7009 13.9723 85.3039 13.9723H82.6532V17.9278C82.6532 18.2294 82.6602 18.4609 82.6673 18.6362C82.6743 18.8115 82.7098 18.9448 82.7736 19.0359C82.8374 19.1272 82.9367 19.1902 83.0643 19.2112C83.1918 19.2323 83.3902 19.2533 83.6525 19.2533H85.7009C86.0481 19.2533 86.3388 19.2463 86.5798 19.2253C86.8207 19.2112 87.0263 19.1692 87.1964 19.1201C87.3665 19.071 87.5224 18.9938 87.6571 18.9027C87.7918 18.8115 87.9335 18.6922 88.0823 18.552C88.4368 18.2084 88.8124 17.6613 89.2164 16.9039H89.5779L88.5288 19.9126H79.2227V19.583H79.6479C79.7613 19.583 79.8818 19.569 80.0094 19.5409C80.137 19.5128 80.2503 19.4778 80.3638 19.4287C80.4771 19.3796 80.5764 19.3164 80.6614 19.2394C80.7465 19.1622 80.8103 19.071 80.8458 18.9588C80.9166 18.7625 80.9521 18.3767 80.9521 17.8016V10.0167C80.9521 9.25229 80.8741 8.78239 80.7253 8.60705C80.5126 8.3686 80.1512 8.24937 79.6479 8.24937H79.2227V7.92676H88.5501V10.5498H88.3375C88.2453 10.1219 88.1532 9.77128 88.054 9.51178C87.9548 9.25229 87.8131 9.05591 87.65 8.91564C87.4799 8.77537 87.2673 8.6842 87.005 8.64212C86.7427 8.60004 86.4096 8.58602 85.9985 8.58602H82.6673Z" fill="#2D2B26"/>
<path fill-rule="evenodd" clip-rule="evenodd" d="M82.667 8.58527V13.3193H85.3178C85.7076 13.3193 86.0267 13.2842 86.2605 13.2141C86.5015 13.1439 86.6858 13.0388 86.8276 12.8985C86.9622 12.7583 87.0615 12.5759 87.1111 12.3585C87.1678 12.141 87.2032 11.8816 87.2174 11.58H87.5505V15.7459H87.2174C87.1748 15.4023 87.1252 15.1148 87.0615 14.8903C87.0048 14.6588 86.9126 14.4765 86.778 14.3433C86.6433 14.21 86.4661 14.1118 86.2393 14.0557C86.0124 13.9996 85.7006 13.9716 85.3037 13.9716H82.6529V17.9271C82.6529 18.2287 82.6599 18.4601 82.667 18.6354C82.6741 18.8108 82.7095 18.9441 82.7733 19.0352C82.8371 19.1264 82.9364 19.1895 83.064 19.2105C83.1915 19.2316 83.3899 19.2526 83.6523 19.2526H85.7006C86.0478 19.2526 86.3385 19.2456 86.5795 19.2246C86.8204 19.2105 87.026 19.1684 87.1961 19.1194C87.3663 19.0703 87.5222 18.9931 87.6568 18.902C87.7915 18.8108 87.9333 18.6915 88.082 18.5513C88.4365 18.2077 88.8122 17.6605 89.2161 16.9031H89.5776L88.5286 19.9118H79.2224V19.5822H79.6476C79.7611 19.5822 79.8815 19.5683 80.0091 19.5401C80.1367 19.5121 80.2501 19.477 80.3635 19.4279C80.4768 19.3789 80.5761 19.3157 80.6612 19.2386C80.7462 19.1615 80.81 19.0703 80.8455 18.958C80.9163 18.7617 80.9518 18.3759 80.9518 17.8009V10.016C80.9518 9.25155 80.8738 8.78164 80.725 8.60631C80.5123 8.36786 80.1509 8.24863 79.6476 8.24863H79.2224V7.92601H88.5498V10.549H88.3372C88.2451 10.1212 88.1529 9.77054 88.0537 9.51104C87.9545 9.25155 87.8128 9.05517 87.6498 8.9149C87.4796 8.77463 87.267 8.68346 87.0048 8.64137C86.7424 8.5993 86.4093 8.58527 85.9983 8.58527H82.667ZM82.8518 8.76812V13.1364H85.3178C85.6993 13.1364 85.9978 13.1018 86.2069 13.0391L86.2083 13.0387C86.4239 12.9759 86.579 12.8852 86.6952 12.7708C86.8047 12.6562 86.8882 12.5046 86.9308 12.3182L86.932 12.3128C86.9847 12.1108 87.019 11.8645 87.0328 11.5715L87.0409 11.3971H87.7353V15.9288H87.0538L87.0339 15.7682C86.9918 15.4276 86.9435 15.1508 86.8835 14.9398L86.8818 14.9334C86.8304 14.724 86.7512 14.5753 86.6473 14.4726C86.5392 14.3656 86.3929 14.2823 86.1945 14.2331C85.989 14.1822 85.6944 14.1544 85.3037 14.1544H82.8377V17.9271C82.8377 18.2257 82.8447 18.4546 82.8516 18.6281C82.8581 18.7872 82.8899 18.8806 82.9252 18.9311C82.9589 18.9792 83.0129 19.0167 83.0943 19.0301C83.2114 19.0494 83.3997 19.0698 83.6523 19.0698H85.7006C86.0463 19.0698 86.3305 19.0628 86.5632 19.0424L86.5686 19.0419C86.7939 19.0288 86.9856 18.9896 87.1443 18.9438C87.2939 18.9007 87.4323 18.8324 87.5524 18.751C87.6756 18.6677 87.8091 18.5559 87.9537 18.4197C88.2875 18.0957 88.6523 17.5685 89.0527 16.8178L89.1047 16.7203H89.8368L88.6604 20.0948H79.0376V19.3994H79.6476C79.7457 19.3994 79.8527 19.3872 79.969 19.3616C80.0868 19.3358 80.1886 19.3041 80.2894 19.2604C80.3855 19.2189 80.4673 19.1663 80.5363 19.1038C80.6008 19.0453 80.6447 18.9808 80.669 18.9035L80.6713 18.8965C80.7299 18.7343 80.767 18.3796 80.767 17.8009V10.016C80.767 9.63863 80.7477 9.34075 80.7117 9.1192C80.6748 8.89143 80.6245 8.77346 80.5848 8.72541C80.4228 8.54529 80.1264 8.43149 79.6476 8.43149H79.0376V7.74316H88.7346V10.7318H88.1877L88.1565 10.5871C88.0649 10.1617 87.9751 9.82191 87.8808 9.57572C87.7919 9.34289 87.6674 9.17287 87.5299 9.05415C87.3896 8.9389 87.2097 8.8595 86.9751 8.82187C86.7283 8.78225 86.4074 8.76812 85.9983 8.76812H82.8518Z" fill="#2D2B26"/>
<path d="M101.038 16.5952L101.329 16.6514L100.287 19.9056H90.9172V19.5759H91.385C91.8811 19.5759 92.2426 19.4147 92.4765 19.0851C92.6041 18.8887 92.6608 18.4538 92.6608 17.7805V10.0448C92.6608 9.30839 92.5758 8.83849 92.4057 8.64914C92.1717 8.38263 91.8315 8.25638 91.378 8.25638H90.9102V7.92676H96.3957V8.25638C96.0703 8.25638 95.7938 8.27041 95.5735 8.30548C95.3541 8.34054 95.1769 8.38263 95.0353 8.43874C94.8938 8.49484 94.7803 8.56497 94.7025 8.64212C94.6238 8.71926 94.5535 8.81045 94.5038 8.90863C94.4185 9.08396 94.3688 9.53981 94.3688 10.2692V17.7946C94.3688 18.2084 94.3969 18.503 94.4607 18.6922C94.5253 18.8746 94.6453 19.0009 94.8366 19.071C94.9997 19.1272 95.46 19.1482 96.2335 19.1482H97.1119C98.0475 19.1482 98.7 19.0851 99.0685 18.9517C99.2522 18.8887 99.4294 18.8045 99.6 18.6853C99.7697 18.5731 99.9328 18.4188 100.096 18.2364C100.259 18.0541 100.408 17.8297 100.564 17.5631C100.727 17.2966 100.883 16.974 101.038 16.5952Z" fill="#2D2B26"/>
<path fill-rule="evenodd" clip-rule="evenodd" d="M100.925 16.3863L101.568 16.5104L100.422 20.0877H90.7326V19.3924H91.3852C91.8349 19.3924 92.1318 19.2499 92.3232 18.9825C92.3638 18.9183 92.4048 18.794 92.4336 18.586C92.4622 18.3803 92.4763 18.1125 92.4763 17.7798V10.0441C92.4763 9.68147 92.4552 9.39188 92.4154 9.17355C92.3744 8.94877 92.3178 8.82566 92.2678 8.76988L92.2664 8.76829C92.0777 8.55341 91.7961 8.4385 91.3782 8.4385H90.7256V7.74316H96.5815V8.4385H96.3959C96.0743 8.4385 95.809 8.45248 95.6037 8.48525C95.3899 8.51939 95.2277 8.55885 95.104 8.60776C94.9784 8.65751 94.8884 8.71573 94.8331 8.77067C94.7665 8.83641 94.7093 8.91144 94.6699 8.98822C94.6427 9.04514 94.6109 9.17432 94.5884 9.39863C94.5659 9.61744 94.5537 9.90722 94.5537 10.2684V17.7938C94.5537 18.205 94.5827 18.4735 94.6362 18.6327C94.6821 18.763 94.7618 18.8473 94.8996 18.8981C94.9531 18.9162 95.0834 18.935 95.3168 18.9473C95.5437 18.9593 95.8484 18.9646 96.2337 18.9646H97.1121C98.0487 18.9646 98.6702 18.9002 99.0049 18.7793L99.0077 18.7782C99.1784 18.7198 99.3396 18.643 99.4934 18.5353L99.4971 18.5323C99.649 18.4324 99.7999 18.291 99.9574 18.1146C100.108 17.9456 100.25 17.7334 100.404 17.4708L100.406 17.4677C100.562 17.2122 100.714 16.8991 100.868 16.5256L100.925 16.3863ZM94.8368 19.0703C94.6456 19.0001 94.5256 18.8738 94.4609 18.6915C94.3971 18.5022 94.369 18.2077 94.369 17.7938V10.2684C94.369 9.53907 94.4187 9.08322 94.504 8.90789C94.5537 8.8097 94.624 8.71852 94.7027 8.64137C94.7806 8.56423 94.894 8.49409 95.0356 8.43799C95.1771 8.38188 95.3543 8.3398 95.5737 8.30474C95.794 8.26966 96.0706 8.25564 96.3959 8.25564V7.92601H90.9104V8.25564H91.3782C91.8317 8.25564 92.172 8.38188 92.4059 8.6484C92.576 8.83775 92.6611 9.30765 92.6611 10.0441V17.7798C92.6611 18.4531 92.6043 18.8879 92.4767 19.0843C92.2428 19.4139 91.8813 19.5752 91.3852 19.5752H90.9174V19.9048H100.287L101.329 16.6507L101.038 16.5945C100.883 16.9733 100.727 17.2958 100.564 17.5624C100.408 17.8289 100.259 18.0533 100.096 18.2357C99.9331 18.418 99.7699 18.5723 99.6002 18.6846C99.4296 18.8037 99.2524 18.8879 99.0687 18.951C98.7002 19.0843 98.0477 19.1474 97.1121 19.1474H96.2337C95.4602 19.1474 94.9999 19.1264 94.8368 19.0703Z" fill="#2D2B26"/>
<path d="M107.9 19.5759V19.9056H102.718V19.5759H103.144C103.356 19.5759 103.548 19.562 103.711 19.5269C103.874 19.4989 104.008 19.4217 104.115 19.3025C104.221 19.1832 104.306 19.0009 104.362 18.7625C104.42 18.524 104.448 18.1943 104.448 17.7805V10.0448C104.448 9.77128 104.44 9.54684 104.426 9.3645C104.412 9.18215 104.39 9.03487 104.362 8.92265C104.334 8.81045 104.285 8.71926 104.221 8.64914C104.157 8.58602 104.072 8.5229 103.966 8.45977C103.697 8.3195 103.427 8.24937 103.136 8.24937H102.711V7.92676H107.892V8.25638H107.467C107.255 8.25638 107.063 8.27743 106.9 8.31249C106.737 8.34756 106.602 8.42471 106.496 8.54393C106.389 8.66316 106.305 8.84551 106.248 9.08396C106.191 9.32241 106.163 9.65203 106.163 10.0518V17.7876C106.163 18.0681 106.17 18.2995 106.177 18.4748C106.184 18.6502 106.205 18.7975 106.241 18.9097C106.277 19.0219 106.325 19.1131 106.397 19.1832C106.46 19.2463 106.552 19.3164 106.659 19.3726C106.907 19.5128 107.177 19.583 107.474 19.583H107.9V19.5759Z" fill="#2D2B26"/>
<path fill-rule="evenodd" clip-rule="evenodd" d="M108.084 20.0877H102.533V19.3924H103.144C103.349 19.3924 103.526 19.3787 103.672 19.3475L103.679 19.3458C103.799 19.3251 103.897 19.2698 103.976 19.1807C104.055 19.0924 104.13 18.9421 104.182 18.7198C104.235 18.5014 104.263 18.1879 104.263 17.7798V10.0441C104.263 9.77325 104.256 9.55388 104.242 9.37782C104.228 9.20051 104.208 9.06452 104.183 8.96626C104.162 8.88268 104.127 8.81998 104.087 8.77417C104.038 8.72642 103.969 8.67418 103.875 8.61846C103.631 8.4924 103.393 8.43149 103.136 8.43149H102.527V7.74316H108.077V8.4385H107.467C107.267 8.4385 107.089 8.45837 106.94 8.49043C106.813 8.51756 106.714 8.57533 106.635 8.66417C106.556 8.75248 106.481 8.90284 106.428 9.12511C106.376 9.34372 106.348 9.65729 106.348 10.051V17.7868C106.348 18.0642 106.355 18.2932 106.362 18.4668C106.369 18.6337 106.388 18.7634 106.417 18.8544C106.447 18.9475 106.484 19.0098 106.527 19.0532C106.579 19.1034 106.656 19.1628 106.747 19.2105L106.751 19.213C106.971 19.337 107.208 19.3994 107.474 19.3994H107.9V19.5752H108.084V20.0877ZM103.966 8.45903C104.072 8.52215 104.157 8.58527 104.221 8.6484C104.285 8.71852 104.334 8.8097 104.362 8.92191C104.391 9.03413 104.412 9.18141 104.426 9.36375C104.44 9.5461 104.448 9.77054 104.448 10.0441V17.7798C104.448 18.1936 104.42 18.5232 104.362 18.7617C104.306 19.0001 104.221 19.1825 104.115 19.3017C104.008 19.421 103.874 19.4981 103.711 19.5262C103.548 19.5612 103.357 19.5752 103.144 19.5752H102.718V19.9048H107.9V19.5822H107.474C107.177 19.5822 106.907 19.5121 106.659 19.3718C106.552 19.3157 106.461 19.2456 106.397 19.1825C106.326 19.1123 106.277 19.0211 106.241 18.909C106.206 18.7968 106.184 18.6495 106.177 18.4741C106.17 18.2988 106.163 18.0673 106.163 17.7868V10.051C106.163 9.65129 106.192 9.32167 106.248 9.08322C106.305 8.84476 106.389 8.66242 106.496 8.54319C106.602 8.42397 106.737 8.34682 106.9 8.31175C107.063 8.27669 107.255 8.25564 107.467 8.25564H107.892V7.92601H102.712V8.24863H103.136C103.427 8.24863 103.697 8.31876 103.966 8.45903Z" fill="#2D2B26"/>
<path d="M117.262 15.9008H112.57L111.741 17.7875C111.543 18.2503 111.451 18.601 111.451 18.8255C111.451 18.9236 111.465 19.0078 111.499 19.092C111.535 19.1761 111.599 19.2462 111.698 19.3094C111.798 19.3725 111.939 19.4356 112.124 19.4777C112.308 19.5268 112.548 19.5619 112.847 19.5758V19.9055H109.048V19.5758C109.353 19.5338 109.593 19.4636 109.777 19.3795C109.962 19.2953 110.125 19.1691 110.259 19.0148C110.394 18.8605 110.515 18.6641 110.628 18.4117C110.742 18.1662 110.876 17.8646 111.032 17.4999L115.292 7.66016H115.596L119.807 17.6122C119.977 18.0259 120.133 18.3556 120.282 18.6081C120.43 18.8605 120.579 19.0568 120.736 19.1972C120.891 19.3374 121.061 19.4356 121.238 19.4847C121.415 19.5338 121.642 19.5689 121.897 19.5758V19.9055H117.113V19.5758C117.595 19.5619 117.921 19.4847 118.092 19.3445C118.262 19.2112 118.353 19.0429 118.353 18.8535C118.347 18.601 118.226 18.1872 117.993 17.6122L117.262 15.9008ZM117.014 15.2416L114.965 10.4024L112.861 15.2416H117.014Z" fill="#2D2B26"/>
<path fill-rule="evenodd" clip-rule="evenodd" d="M117.114 19.5761C117.596 19.5621 117.922 19.485 118.092 19.3447C118.262 19.2114 118.354 19.0431 118.354 18.8537C118.347 18.6013 118.227 18.1875 117.993 17.6124L117.263 15.9011H112.571L111.742 17.7877C111.543 18.2505 111.451 18.6013 111.451 18.8257C111.451 18.9239 111.465 19.008 111.5 19.0922C111.536 19.1763 111.599 19.2465 111.699 19.3096C111.798 19.3727 111.94 19.4358 112.124 19.4779C112.308 19.527 112.549 19.5621 112.847 19.5761V19.9057H109.048V19.5761C109.353 19.534 109.594 19.4639 109.778 19.3798C109.962 19.2956 110.126 19.1693 110.26 19.0151C110.395 18.8608 110.516 18.6644 110.629 18.4119C110.742 18.1665 110.877 17.8649 111.032 17.5002L115.292 7.66039H115.597L119.807 17.6124C119.978 18.0261 120.133 18.3558 120.282 18.6083C120.431 18.8608 120.58 19.0571 120.736 19.1974C120.892 19.3377 121.062 19.4358 121.239 19.485C121.416 19.534 121.643 19.5691 121.898 19.5761V19.9057H117.114V19.5761ZM111.912 17.8599C111.912 17.8602 111.912 17.8596 111.912 17.8599C111.716 18.3172 111.636 18.6396 111.636 18.8257C111.636 18.9047 111.647 18.9642 111.671 19.0218C111.688 19.0635 111.722 19.1073 111.799 19.1558C111.879 19.2065 112.001 19.2619 112.166 19.2998L112.172 19.3012C112.34 19.3459 112.567 19.3799 112.856 19.3935L113.032 19.4018V20.0886H108.863V19.417L109.022 19.395C109.313 19.3549 109.536 19.2889 109.701 19.2137C109.858 19.1415 110.001 19.032 110.12 18.8955C110.24 18.7585 110.352 18.5788 110.459 18.3376L110.46 18.3359C110.573 18.0921 110.707 17.7921 110.862 17.4289L115.17 7.47754H115.72L119.979 17.5435C120.147 17.9535 120.299 18.2743 120.442 18.5161C120.585 18.7599 120.723 18.939 120.86 19.062C120.999 19.1866 121.144 19.2687 121.288 19.3089C121.45 19.3534 121.662 19.3867 121.903 19.3934L122.083 19.3982V20.0886H116.929V19.3985L117.108 19.3934C117.342 19.3865 117.53 19.3646 117.677 19.3299C117.825 19.2948 117.919 19.2495 117.973 19.2042L117.977 19.2013C118.111 19.0967 118.168 18.9788 118.169 18.8562C118.163 18.6398 118.055 18.2549 117.822 17.682L117.14 16.084H112.692L111.912 17.8599ZM114.966 10.4026L112.861 15.2418H117.014L114.966 10.4026ZM114.964 10.8705L113.142 15.059H116.737L114.964 10.8705Z" fill="#2D2B26"/>
<path d="M141.013 13.797C141.503 13.9022 141.921 14.0495 142.275 14.2318C142.63 14.4142 142.914 14.6316 143.126 14.877C143.346 15.1224 143.502 15.396 143.608 15.6976C143.707 15.9992 143.764 16.3077 143.764 16.6373C143.764 16.9389 143.714 17.2335 143.615 17.521C143.516 17.8086 143.374 18.0892 143.197 18.3487C143.013 18.6082 142.793 18.8395 142.524 19.05C142.255 19.2533 141.957 19.4287 141.616 19.5549C140.979 19.8004 139.965 19.9267 138.59 19.9267H132.863V19.597H133.317C133.522 19.597 133.707 19.583 133.862 19.5409C134.025 19.5058 134.16 19.4287 134.266 19.3025C134.38 19.1762 134.465 19.0009 134.521 18.7625C134.578 18.524 134.607 18.2014 134.607 17.8016V10.0518C134.607 9.63103 134.578 9.30138 134.515 9.06292C134.451 8.82447 134.366 8.64914 134.245 8.52991C134.131 8.41068 133.99 8.33353 133.834 8.30548C133.678 8.27743 133.501 8.25638 133.317 8.25638H132.863V7.92676H138.094C139.773 7.92676 141.049 8.2073 141.914 8.76836C142.779 9.32944 143.218 10.1219 143.218 11.1319C143.218 11.742 143.034 12.2751 142.658 12.752C142.283 13.2218 141.737 13.5726 141.013 13.797ZM136.329 13.327C136.549 13.3691 136.804 13.4042 137.081 13.4253C137.364 13.4463 137.668 13.4603 138.009 13.4603C139.193 13.4603 140.043 13.2499 140.561 12.8291C141.078 12.4083 141.333 11.8192 141.333 11.0757C141.333 10.7321 141.262 10.4025 141.113 10.0939C140.965 9.77831 140.752 9.51178 140.468 9.28034C140.185 9.0489 139.83 8.86655 139.405 8.7333C138.98 8.60004 138.491 8.52991 137.931 8.52991C137.328 8.52991 136.79 8.59303 136.329 8.72629V13.327ZM136.329 19.05C137.002 19.2112 137.682 19.2884 138.371 19.2884C138.916 19.2884 139.391 19.2253 139.809 19.0921C140.227 18.9588 140.575 18.7835 140.851 18.559C141.127 18.3346 141.333 18.0681 141.475 17.7666C141.616 17.465 141.687 17.1424 141.687 16.7987C141.687 16.4199 141.61 16.0623 141.461 15.7327C141.312 15.396 141.078 15.1085 140.758 14.863C140.44 14.6175 140.05 14.4212 139.568 14.2808C139.093 14.1406 138.533 14.0705 137.895 14.0705C137.519 14.0705 137.208 14.0775 136.946 14.0845C136.691 14.0916 136.478 14.1126 136.322 14.1476V19.05H136.329Z" fill="#2D2B26"/>
<path fill-rule="evenodd" clip-rule="evenodd" d="M134.244 8.52916C134.131 8.40993 133.989 8.33279 133.834 8.30474C133.678 8.27669 133.501 8.25564 133.316 8.25564H132.862V7.92601H138.094C139.773 7.92601 141.049 8.20655 141.914 8.76762C142.778 9.32869 143.218 10.1212 143.218 11.1311C143.218 11.7413 143.033 12.2743 142.657 12.7512C142.34 13.1492 141.9 13.4616 141.334 13.6842C141.231 13.7245 141.125 13.7618 141.013 13.7963C141.127 13.8207 141.237 13.8474 141.344 13.8764C141.694 13.9718 142.003 14.0911 142.275 14.2311C142.629 14.4134 142.913 14.6308 143.125 14.8763C143.346 15.1217 143.501 15.3953 143.608 15.6968C143.706 15.9984 143.764 16.307 143.764 16.6366C143.764 16.9382 143.714 17.2328 143.615 17.5203C143.515 17.8078 143.374 18.0884 143.196 18.3479C143.013 18.6074 142.792 18.8388 142.523 19.0493C142.254 19.2526 141.956 19.4279 141.616 19.5542C140.978 19.7996 139.965 19.9259 138.59 19.9259H132.862V19.5963H133.316C133.521 19.5963 133.706 19.5822 133.862 19.5401C134.025 19.5051 134.16 19.4279 134.266 19.3017C134.379 19.1754 134.465 19.0001 134.521 18.7617C134.578 18.5232 134.606 18.2006 134.606 17.8009V10.051C134.606 9.63029 134.578 9.30063 134.514 9.06218C134.451 8.82373 134.365 8.6484 134.244 8.52916ZM141.681 19.725C141.01 19.983 139.969 20.1087 138.59 20.1087H132.678V19.4134H133.316C133.516 19.4134 133.681 19.3995 133.813 19.3638L133.822 19.3613C133.948 19.3343 134.046 19.2775 134.124 19.1846L134.128 19.1801C134.214 19.0834 134.289 18.939 134.341 18.7198C134.393 18.501 134.421 18.1943 134.421 17.8009V10.051C134.421 9.63497 134.393 9.32425 134.335 9.10897C134.275 8.88474 134.201 8.74501 134.114 8.65846L134.11 8.65455C134.023 8.56263 133.916 8.50543 133.801 8.48464C133.653 8.458 133.487 8.4385 133.316 8.4385H132.678V7.74316H138.094C139.789 7.74316 141.107 8.02535 142.015 8.61471C142.93 9.2088 143.403 10.0582 143.403 11.1311C143.403 11.7817 143.205 12.3543 142.804 12.8636L142.803 12.8647C142.503 13.2398 142.105 13.5398 141.612 13.7647C141.886 13.8509 142.135 13.9527 142.36 14.0688C142.731 14.2598 143.034 14.4906 143.265 14.7562C143.501 15.0204 143.669 15.3147 143.782 15.6366L143.783 15.6402C143.887 15.9578 143.948 16.2855 143.948 16.6366C143.948 16.9584 143.895 17.273 143.79 17.5794C143.685 17.8827 143.536 18.1778 143.349 18.4503L143.347 18.453C143.153 18.7272 142.921 18.9715 142.638 19.1928L142.635 19.1946C142.355 19.4065 142.041 19.5914 141.681 19.725ZM136.328 13.3263C136.549 13.3684 136.804 13.4034 137.08 13.4245C137.363 13.4455 137.668 13.4596 138.008 13.4596C139.192 13.4596 140.043 13.2491 140.56 12.8284C141.078 12.4075 141.333 11.8184 141.333 11.075C141.333 10.7314 141.261 10.4018 141.112 10.0931C140.964 9.77757 140.751 9.51104 140.467 9.2796C140.184 9.04816 139.83 8.8658 139.404 8.73255C138.98 8.5993 138.49 8.52916 137.931 8.52916C137.328 8.52916 136.79 8.59229 136.328 8.72554V13.3263ZM136.513 8.86519C136.924 8.7623 137.398 8.71201 137.931 8.71201C138.475 8.71201 138.945 8.78024 139.349 8.90687C139.756 9.03452 140.089 9.20692 140.35 9.42066C140.614 9.63591 140.809 9.88107 140.946 10.1705V10.1719C141.082 10.4543 141.148 10.7569 141.148 11.075C141.148 11.7726 140.911 12.3063 140.442 12.6871C139.975 13.067 139.178 13.2767 138.008 13.2767C137.674 13.2767 137.374 13.2629 137.093 13.2422C136.885 13.2263 136.689 13.2023 136.513 13.1734V8.86519ZM136.328 19.0493H136.322V14.1469C136.477 14.1118 136.69 14.0908 136.945 14.0838C137.208 14.0768 137.519 14.0697 137.895 14.0697C138.532 14.0697 139.093 14.1398 139.567 14.2801C140.049 14.4204 140.439 14.6168 140.758 14.8623C141.078 15.1077 141.311 15.3953 141.46 15.7319C141.609 16.0615 141.687 16.4192 141.687 16.7979C141.687 17.1416 141.616 17.4642 141.474 17.7658C141.333 18.0673 141.126 18.3338 140.851 18.5583C140.574 18.7827 140.226 18.958 139.808 19.0913C139.39 19.2246 138.916 19.2877 138.37 19.2877C137.682 19.2877 137.001 19.2105 136.328 19.0493ZM136.95 14.2665C136.776 14.2713 136.627 14.2826 136.506 14.2996V18.9025C137.121 19.0392 137.742 19.1048 138.37 19.1048C138.902 19.1048 139.356 19.0433 139.752 18.9173C140.154 18.7891 140.479 18.6233 140.734 18.4169C140.988 18.2099 141.176 17.9654 141.306 17.6887C141.437 17.4121 141.502 17.1158 141.502 16.7979C141.502 16.4446 141.429 16.1123 141.291 15.8065L141.291 15.8052C141.156 15.4995 140.943 15.2355 140.645 15.0066C140.346 14.7769 139.978 14.5902 139.516 14.4556C139.062 14.3216 138.52 14.2526 137.895 14.2526C137.522 14.2526 137.211 14.2596 136.95 14.2665Z" fill="#2D2B26"/>
<path d="M154.374 15.9079H149.675L148.846 17.7945C148.647 18.2644 148.555 18.6081 148.555 18.8394C148.555 18.9377 148.569 19.0218 148.605 19.106C148.633 19.1831 148.703 19.2603 148.803 19.3234C148.902 19.3866 149.044 19.4497 149.228 19.4918C149.412 19.5408 149.654 19.5758 149.959 19.5899V19.9195H146.145V19.5899C146.45 19.5478 146.691 19.4777 146.882 19.3935C147.067 19.3024 147.23 19.1831 147.365 19.0288C147.499 18.8745 147.62 18.6712 147.733 18.4257C147.847 18.1802 147.981 17.8787 148.137 17.5139L152.396 7.66016H152.701L156.919 17.6261C157.088 18.0399 157.245 18.3696 157.393 18.622C157.542 18.8745 157.691 19.0709 157.847 19.2112C158.003 19.3514 158.173 19.4497 158.358 19.4987C158.542 19.5478 158.761 19.5829 159.017 19.5899V19.9195H154.225V19.5899C154.707 19.5758 155.033 19.4987 155.203 19.3584C155.374 19.2252 155.466 19.0568 155.466 18.8605C155.458 18.6081 155.338 18.1943 155.104 17.6192L154.374 15.9079ZM154.118 15.2486L152.063 10.4024L149.959 15.2486H154.118Z" fill="#2D2B26"/>
<path fill-rule="evenodd" clip-rule="evenodd" d="M154.225 19.5901C154.707 19.5761 155.034 19.4989 155.203 19.3587C155.374 19.2255 155.466 19.0571 155.466 18.8608C155.458 18.6083 155.338 18.1945 155.104 17.6194L154.375 15.9081H149.675L148.846 17.7947C148.647 18.2646 148.555 18.6083 148.555 18.8397C148.555 18.9379 148.57 19.022 148.605 19.1062C148.633 19.1834 148.704 19.2605 148.803 19.3236C148.902 19.3868 149.044 19.4499 149.229 19.492C149.412 19.541 149.654 19.5761 149.959 19.5901V19.9198H146.145V19.5901C146.45 19.548 146.691 19.4779 146.882 19.3937C147.067 19.3026 147.23 19.1834 147.365 19.029C147.499 18.8747 147.62 18.6714 147.733 18.426C147.847 18.1804 147.981 17.8789 148.137 17.5141L152.396 7.66039H152.701L156.919 17.6264C157.089 18.0402 157.245 18.3698 157.393 18.6223C157.542 18.8747 157.691 19.0711 157.847 19.2114C158.004 19.3516 158.173 19.4499 158.358 19.4989C158.542 19.548 158.761 19.5831 159.017 19.5901V19.9198H154.225V19.5901ZM146.803 19.2284C146.967 19.1468 147.109 19.0424 147.224 18.9095C147.343 18.7734 147.456 18.5871 147.565 18.3499C147.678 18.1062 147.811 17.8062 147.967 17.4429L152.275 7.47754H152.825L157.09 17.5575C157.258 17.9676 157.411 18.2883 157.554 18.5302C157.697 18.774 157.835 18.953 157.972 19.0761C158.11 19.2003 158.254 19.2821 158.406 19.3224C158.575 19.3677 158.781 19.4008 159.022 19.4073L159.202 19.4123V20.1026H154.041V19.4126L154.22 19.4073C154.453 19.4006 154.642 19.3786 154.788 19.344C154.937 19.3088 155.031 19.2634 155.085 19.2182L155.089 19.2153C155.221 19.1115 155.28 18.9939 155.281 18.8632C155.275 18.6468 155.167 18.2619 154.933 17.689L154.252 16.091H149.796L149.016 17.8665C148.819 18.3316 148.74 18.6467 148.74 18.8397C148.74 18.9188 148.751 18.9782 148.776 19.0359L148.779 19.0437C148.788 19.0697 148.824 19.119 148.903 19.1699C148.983 19.2205 149.105 19.276 149.27 19.3138L149.276 19.3153C149.444 19.3599 149.671 19.3938 149.967 19.4075L150.144 19.4156V20.1026H145.96V19.431L146.12 19.409C146.408 19.3693 146.631 19.3039 146.803 19.2284ZM152.064 10.4026L149.959 15.2489H154.119L152.064 10.4026ZM152.062 10.8704L150.239 15.066H153.841L152.062 10.8704Z" fill="#2D2B26"/>
<path d="M165.913 13.271L170.385 17.6683C170.761 18.04 171.094 18.3416 171.399 18.5871C171.704 18.8326 171.987 19.0219 172.25 19.1692C172.519 19.3164 172.774 19.4217 173.029 19.4848C173.285 19.5479 173.54 19.59 173.809 19.597V19.9267H168.046V19.597C168.429 19.597 168.684 19.5339 168.819 19.4006C168.953 19.2674 169.017 19.1272 169.017 18.9799C169.017 18.9167 169.011 18.8606 169.003 18.8115C168.997 18.7625 168.967 18.7063 168.933 18.6432C168.89 18.58 168.826 18.503 168.741 18.4047C168.649 18.3066 168.535 18.1873 168.38 18.033L164.191 13.9302V17.8016C164.191 18.0821 164.197 18.3136 164.212 18.4889C164.226 18.6642 164.247 18.8115 164.275 18.9237C164.304 19.0359 164.354 19.1272 164.424 19.1973C164.488 19.2604 164.58 19.3305 164.687 19.3867C164.942 19.5269 165.218 19.597 165.502 19.597H165.913V19.9267H160.753V19.597H161.179C161.675 19.597 162.043 19.4497 162.27 19.1622C162.412 18.9658 162.483 18.5169 162.483 17.8016V10.0518C162.483 9.78534 162.475 9.56784 162.469 9.3855C162.461 9.20319 162.44 9.05591 162.404 8.94369C162.369 8.83148 162.32 8.7333 162.256 8.66316C162.192 8.58602 162.107 8.52289 162.001 8.4738C161.717 8.33353 161.44 8.26339 161.171 8.26339H160.746V7.92676H165.906V8.25638H165.495C165.275 8.25638 165.041 8.30548 164.793 8.40366C164.545 8.50186 164.382 8.66316 164.29 8.8946C164.219 9.09097 164.183 9.47672 164.183 10.0588V13.7268C164.191 13.7198 164.255 13.6637 164.361 13.5585C164.474 13.4603 164.595 13.3481 164.737 13.2218C164.871 13.0957 165.006 12.9764 165.133 12.8501C165.261 12.7239 165.353 12.6468 165.41 12.5977C166.062 12.0085 166.608 11.5036 167.054 11.0827C167.5 10.662 167.855 10.3042 168.125 10.0097C168.394 9.71512 168.585 9.46969 168.698 9.27333C168.812 9.07695 168.868 8.90863 168.868 8.77537C168.868 8.6351 168.804 8.51588 168.684 8.41068C168.557 8.31249 168.344 8.25638 168.046 8.25638H167.763V7.92676H172.221V8.25638C172.058 8.2634 171.895 8.27743 171.732 8.30548C171.569 8.32652 171.384 8.38263 171.187 8.4738C170.988 8.56497 170.754 8.69823 170.498 8.88058C170.243 9.06292 169.932 9.32241 169.577 9.645C169.507 9.70819 169.322 9.89053 169.031 10.1921C168.741 10.4936 168.316 10.9145 167.763 11.4545L165.913 13.271Z" fill="#2D2B26"/>
<path fill-rule="evenodd" clip-rule="evenodd" d="M172.221 8.25564C172.059 8.26265 171.895 8.27669 171.732 8.30474C171.569 8.32577 171.384 8.38188 171.187 8.47305C170.988 8.56423 170.754 8.69748 170.499 8.87984C170.244 9.06218 169.932 9.32167 169.577 9.64425C169.507 9.70744 169.322 9.88979 169.031 10.1914C168.741 10.4929 168.316 10.9137 167.763 11.4537L165.913 13.2702L170.385 17.6676C170.761 18.0393 171.094 18.3409 171.399 18.5863C171.704 18.8318 171.987 19.0211 172.25 19.1684C172.519 19.3157 172.774 19.421 173.029 19.4841C173.285 19.5472 173.54 19.5893 173.809 19.5963V19.9259H168.046V19.5963C168.429 19.5963 168.684 19.5332 168.819 19.3999C168.954 19.2667 169.017 19.1264 169.017 18.9791C169.017 18.9159 169.011 18.8599 169.003 18.8108C168.997 18.7617 168.968 18.7056 168.933 18.6425C168.89 18.5793 168.826 18.5022 168.741 18.404C168.649 18.3058 168.535 18.1866 168.38 18.0323L164.191 13.9295V17.8009C164.191 18.0814 164.198 18.3128 164.212 18.4882C164.226 18.6635 164.247 18.8108 164.275 18.923C164.304 19.0352 164.354 19.1264 164.424 19.1965C164.488 19.2596 164.58 19.3298 164.687 19.3859C164.942 19.5262 165.219 19.5963 165.502 19.5963H165.913V19.9259H160.753V19.5963H161.179C161.675 19.5963 162.043 19.449 162.27 19.1615C162.412 18.9651 162.483 18.5162 162.483 17.8009V10.051C162.483 9.7846 162.475 9.5671 162.469 9.38475C162.461 9.20245 162.44 9.05517 162.404 8.94295C162.369 8.83074 162.32 8.73255 162.256 8.66242C162.192 8.58527 162.107 8.52215 162.001 8.47305C161.717 8.33279 161.44 8.26265 161.171 8.26265H160.746V7.92601H165.906V8.25564H165.495C165.275 8.25564 165.041 8.30474 164.793 8.40292C164.545 8.50111 164.382 8.66242 164.29 8.89386C164.219 9.09023 164.184 9.47597 164.184 10.0581V13.726C164.185 13.7246 164.189 13.7212 164.195 13.7155C164.2 13.7108 164.207 13.7045 164.215 13.6966C164.245 13.6691 164.295 13.6228 164.361 13.5578C164.364 13.5556 164.366 13.5533 164.368 13.5512C164.433 13.4948 164.5 13.4338 164.573 13.3684C164.624 13.3216 164.679 13.2725 164.737 13.2211C164.783 13.178 164.829 13.1358 164.874 13.0937C164.963 13.0127 165.05 12.9325 165.133 12.8494C165.246 12.7379 165.331 12.6647 165.388 12.6153C165.396 12.6087 165.403 12.6026 165.41 12.5969C166.062 12.0078 166.608 11.5028 167.054 11.082C167.5 10.6613 167.855 10.3035 168.125 10.0089C168.394 9.71438 168.585 9.46894 168.699 9.27258C168.812 9.0762 168.868 8.90789 168.868 8.77463C168.868 8.63436 168.804 8.51514 168.684 8.40993C168.557 8.31175 168.344 8.25564 168.046 8.25564H167.763V7.92601H172.221V8.25564ZM168.566 8.55106C168.654 8.62846 168.684 8.69968 168.684 8.77463C168.684 8.86163 168.645 8.99706 168.538 9.18186C168.434 9.36131 168.253 9.59541 167.987 9.88632C167.722 10.1766 167.371 10.5309 166.927 10.9496C166.481 11.3692 165.938 11.8728 165.287 12.4606C165.28 12.4658 165.274 12.4714 165.267 12.4773C165.209 12.527 165.12 12.6039 165.003 12.7201C164.921 12.8011 164.838 12.8771 164.752 12.9565C164.706 12.9986 164.66 13.0416 164.611 13.0868C164.551 13.1401 164.497 13.1894 164.446 13.2358C164.419 13.2598 164.394 13.283 164.368 13.3056V10.0581C164.368 9.47541 164.405 9.12146 164.463 8.95807C164.536 8.77697 164.66 8.65256 164.862 8.5727C165.093 8.48133 165.303 8.4385 165.495 8.4385H166.09V7.74316H160.561V8.44551H161.171C161.408 8.44551 161.656 8.5068 161.918 8.6366L161.922 8.63876C162.008 8.67814 162.069 8.72553 162.113 8.77821L162.118 8.78474C162.159 8.82866 162.198 8.90012 162.228 8.99749C162.257 9.08828 162.277 9.21777 162.284 9.39179C162.291 9.5731 162.298 9.78788 162.298 10.051V17.8009C162.298 18.1538 162.28 18.4344 162.247 18.6477C162.213 18.8632 162.166 18.989 162.122 19.0523C161.94 19.2793 161.636 19.4134 161.179 19.4134H160.569V20.1087H166.098V19.4134H165.502C165.25 19.4134 165.005 19.3513 164.777 19.2261L164.774 19.2246C164.683 19.1768 164.606 19.1175 164.556 19.0673C164.512 19.0241 164.477 18.9641 164.455 18.8786C164.43 18.7802 164.41 18.644 164.396 18.4735C164.382 18.3051 164.376 18.079 164.376 17.8009V14.3678L168.249 18.1616C168.249 18.1614 168.249 18.1617 168.249 18.1616C168.401 18.3122 168.513 18.4292 168.603 18.5258C168.684 18.6192 168.739 18.6863 168.774 18.7379C168.809 18.8003 168.819 18.8264 168.82 18.8366C168.827 18.8835 168.833 18.9293 168.833 18.9791C168.833 19.0677 168.796 19.1637 168.688 19.2706C168.61 19.3476 168.425 19.4134 168.046 19.4134H167.861V20.1087H173.994V19.4182L173.814 19.4135C173.561 19.4069 173.319 19.3674 173.074 19.3067C172.839 19.2483 172.599 19.1501 172.34 19.0089C172.088 18.8671 171.813 18.6837 171.516 18.4446C171.217 18.204 170.889 17.9069 170.516 17.5383L166.176 13.2703L167.893 11.5838C167.892 11.5839 167.893 11.5838 167.893 11.5838C168.445 11.0439 168.873 10.6213 169.165 10.3175C169.457 10.015 169.636 9.83785 169.701 9.78019L169.703 9.77888C170.054 9.45863 170.36 9.20448 170.607 9.02806C170.854 8.85185 171.077 8.72471 171.264 8.63891C171.45 8.55347 171.616 8.50411 171.756 8.48606L171.764 8.48489C171.917 8.45857 172.072 8.44512 172.229 8.43832L172.406 8.43072V7.74316H167.578V8.4385H168.046C168.324 8.4385 168.486 8.491 168.566 8.55106Z" fill="#2D2B26"/>
<path d="M183.271 15.9079H178.572L177.742 17.7945C177.544 18.2644 177.452 18.6081 177.452 18.8394C177.452 18.9377 177.466 19.0218 177.502 19.106C177.53 19.1831 177.601 19.2603 177.7 19.3234C177.799 19.3866 177.941 19.4497 178.125 19.4918C178.31 19.5408 178.551 19.5758 178.855 19.5899V19.9195H175.042V19.5899C175.347 19.5478 175.588 19.4777 175.779 19.3935C175.963 19.3024 176.126 19.1831 176.261 19.0288C176.396 18.8745 176.516 18.6712 176.63 18.4257C176.743 18.1802 176.878 17.8787 177.034 17.5139L181.3 7.66016H181.605L185.823 17.6261C185.992 18.0399 186.148 18.3696 186.297 18.622C186.446 18.8745 186.595 19.0709 186.751 19.2112C186.907 19.3514 187.077 19.4497 187.261 19.4987C187.446 19.5478 187.665 19.5829 187.921 19.5899V19.9195H183.129V19.5899C183.611 19.5758 183.937 19.4987 184.107 19.3584C184.278 19.2252 184.37 19.0568 184.37 18.8605C184.362 18.6081 184.242 18.1943 184.008 17.6192L183.271 15.9079ZM183.022 15.2486L180.967 10.4024L178.862 15.2486H183.022Z" fill="#2D2B26"/>
<path fill-rule="evenodd" clip-rule="evenodd" d="M183.129 19.5901C183.611 19.5761 183.938 19.4989 184.107 19.3587C184.278 19.2255 184.37 19.0571 184.37 18.8608C184.362 18.6083 184.242 18.1945 184.008 17.6194L183.271 15.9081H178.572L177.743 17.7947C177.544 18.2646 177.452 18.6083 177.452 18.8397C177.452 18.9379 177.466 19.022 177.502 19.1062C177.53 19.1834 177.601 19.2605 177.7 19.3236C177.799 19.3868 177.941 19.4499 178.125 19.492C178.31 19.541 178.551 19.5761 178.855 19.5901V19.9198H175.042V19.5901C175.347 19.548 175.588 19.4779 175.779 19.3937C175.963 19.3026 176.126 19.1834 176.261 19.029C176.396 18.8747 176.516 18.6714 176.63 18.426C176.743 18.1804 176.878 17.8789 177.034 17.5141L181.3 7.66039H181.605L185.823 17.6264C185.993 18.0402 186.148 18.3698 186.297 18.6223C186.446 18.8747 186.595 19.0711 186.751 19.2114C186.907 19.3516 187.077 19.4499 187.261 19.4989C187.446 19.548 187.665 19.5831 187.921 19.5901V19.9198H183.129V19.5901ZM175.701 19.2284C175.864 19.1468 176.005 19.0424 176.122 18.9095C176.24 18.7734 176.352 18.5871 176.462 18.3499C176.574 18.1062 176.708 17.8062 176.863 17.4429L181.178 7.47754H181.728L185.993 17.5575C186.162 17.9676 186.314 18.2883 186.457 18.5302C186.601 18.774 186.739 18.953 186.876 19.0761C187.013 19.2003 187.158 19.2821 187.31 19.3224C187.479 19.3677 187.685 19.4008 187.926 19.4073L188.106 19.4123V20.1026H182.945V19.4126L183.124 19.4073C183.357 19.4006 183.546 19.3786 183.692 19.344C183.841 19.3088 183.934 19.2634 183.989 19.2182L183.993 19.2153C184.125 19.1115 184.184 18.9939 184.185 18.8632C184.178 18.6468 184.07 18.2621 183.837 17.6894L183.149 16.091H178.693L177.912 17.8665C177.716 18.3316 177.637 18.6467 177.637 18.8397C177.637 18.9188 177.648 18.9782 177.672 19.0359L177.675 19.0437C177.685 19.0697 177.72 19.119 177.8 19.1699C177.879 19.2205 178.001 19.276 178.167 19.3138L178.173 19.3153C178.341 19.3599 178.568 19.3938 178.864 19.4075L179.04 19.4156V20.1026H174.857V19.431L175.016 19.409C175.304 19.3693 175.527 19.3039 175.701 19.2284ZM180.968 10.4026L178.862 15.2489H183.023L180.968 10.4026ZM180.966 10.8704L179.143 15.066H182.745L180.966 10.8704Z" fill="#2D2B26"/>
<path d="M201.714 19.9267H198.481L194.37 14.3159C194.222 14.3229 194.087 14.33 193.966 14.337C193.846 14.344 193.74 14.344 193.641 14.344C193.563 14.344 193.478 14.344 193.385 14.337C193.293 14.33 193.201 14.3229 193.102 14.3159V17.8016C193.102 18.2224 193.13 18.559 193.187 18.7975C193.243 19.0359 193.329 19.2183 193.442 19.3375C193.555 19.4568 193.683 19.5269 193.839 19.5549C193.995 19.583 194.172 19.597 194.364 19.597H194.845V19.9267H189.643V19.597H190.111C190.607 19.597 190.975 19.4357 191.202 19.1061C191.33 18.9097 191.386 18.4748 191.386 17.8016V10.0518C191.386 9.3154 191.302 8.84551 191.131 8.64914C190.898 8.38263 190.557 8.25638 190.104 8.25638H189.636V7.92676H194.051C194.704 7.92676 195.264 7.9478 195.731 7.99689C196.206 8.04598 196.589 8.11611 196.894 8.21431C197.199 8.31249 197.482 8.44575 197.744 8.61407C198.013 8.78239 198.248 8.99279 198.446 9.23124C198.644 9.47672 198.807 9.74325 198.921 10.0448C199.034 10.3463 199.091 10.662 199.091 11.0056C199.091 11.7561 198.849 12.3943 198.368 12.9343C197.886 13.4743 197.135 13.8531 196.114 14.0845L198.609 17.514C198.899 17.9068 199.162 18.2364 199.389 18.4889C199.615 18.7414 199.842 18.9448 200.069 19.099C200.296 19.2463 200.537 19.3585 200.792 19.4287C201.047 19.4989 201.345 19.5549 201.692 19.59V19.9267H201.714ZM193.109 13.7618C193.223 13.7618 193.321 13.7618 193.406 13.7689C193.492 13.7759 193.562 13.7759 193.612 13.7759C194.193 13.7759 194.696 13.7128 195.136 13.5795C195.568 13.4463 195.937 13.2639 196.227 13.0254C196.518 12.787 196.738 12.5065 196.886 12.1838C197.035 11.8612 197.107 11.5106 197.107 11.1319C197.107 10.7602 197.043 10.4235 196.922 10.1079C196.794 9.79228 196.617 9.52584 196.39 9.30138C196.157 9.07695 195.887 8.90162 195.562 8.78239C195.242 8.65615 194.888 8.60004 194.505 8.60004C194.143 8.60004 193.675 8.65615 193.102 8.76836V13.7618H193.109Z" fill="#2D2B26"/>
<path fill-rule="evenodd" clip-rule="evenodd" d="M198.387 20.1087L194.279 14.5027C194.17 14.508 194.069 14.5134 193.977 14.5188C193.851 14.5261 193.74 14.5261 193.641 14.5261H193.638C193.561 14.5261 193.47 14.5261 193.37 14.5186C193.342 14.5164 193.314 14.5143 193.286 14.5121V17.8009C193.286 18.2164 193.314 18.5366 193.367 18.7549C193.419 18.9775 193.494 19.125 193.577 19.2114C193.664 19.3038 193.757 19.3536 193.872 19.3743C194.014 19.4 194.18 19.4134 194.363 19.4134H195.03V20.1087H189.458V19.4134H190.111C190.563 19.4134 190.864 19.2695 191.047 19.0046C191.088 18.9406 191.13 18.8161 191.159 18.6071C191.187 18.4013 191.201 18.1335 191.201 17.8009V10.051C191.201 9.6885 191.18 9.39882 191.14 9.17957C191.1 8.95504 191.044 8.82828 190.991 8.7678C190.803 8.55323 190.521 8.4385 190.103 8.4385H189.451V7.74316H194.051C194.706 7.74316 195.273 7.76427 195.751 7.8143C196.232 7.86406 196.628 7.93595 196.951 8.0397C197.269 8.14256 197.568 8.2824 197.843 8.45931C198.13 8.63881 198.379 8.8624 198.589 9.11426L198.589 9.11626C198.798 9.37423 198.972 9.65747 199.094 9.98025C199.215 10.3032 199.276 10.6404 199.276 11.0048C199.276 11.7983 199.019 12.48 198.506 13.0546C198.034 13.5832 197.333 13.9556 196.423 14.1963L198.757 17.4053C198.758 17.4054 198.757 17.4051 198.757 17.4053C199.046 17.7953 199.305 18.1204 199.526 18.3667C199.745 18.61 199.96 18.8024 200.172 18.9465C200.384 19.084 200.607 19.1873 200.841 19.2518C201.085 19.3188 201.372 19.3732 201.71 19.4074L201.876 19.4241V19.9259H201.713V20.1087H198.387ZM201.692 19.9259V19.5893C201.345 19.5542 201.047 19.4981 200.792 19.4279C200.537 19.3578 200.296 19.2456 200.069 19.0983C199.842 18.9441 199.615 18.7406 199.388 18.4882C199.161 18.2357 198.899 17.9061 198.608 17.5133L196.114 14.0838C196.179 14.0689 196.244 14.0533 196.308 14.0372C197.23 13.8029 197.916 13.4388 198.367 12.9336C198.849 12.3936 199.091 11.7553 199.091 11.0048C199.091 10.6613 199.034 10.3456 198.92 10.0441C198.807 9.7425 198.644 9.47597 198.446 9.2305C198.247 8.99205 198.013 8.78164 197.744 8.61332C197.481 8.445 197.198 8.31175 196.894 8.21356C196.589 8.11537 196.205 8.04524 195.731 7.99615C195.263 7.94705 194.704 7.92601 194.051 7.92601H189.635V8.25564H190.103C190.557 8.25564 190.897 8.38188 191.131 8.6484C191.301 8.84476 191.386 9.31466 191.386 10.051V17.8009C191.386 18.4741 191.329 18.909 191.202 19.1053C190.975 19.4349 190.607 19.5963 190.111 19.5963H189.643V19.9259H194.845V19.5963H194.363C194.172 19.5963 193.995 19.5822 193.838 19.5542C193.683 19.5262 193.555 19.456 193.442 19.3368C193.328 19.2175 193.243 19.0352 193.187 18.7968C193.129 18.5583 193.101 18.2216 193.101 17.8009V14.3152C193.165 14.3198 193.226 14.3243 193.286 14.3288C193.32 14.3313 193.353 14.3337 193.384 14.3363C193.477 14.3433 193.563 14.3433 193.64 14.3433C193.74 14.3433 193.846 14.3433 193.966 14.3363C194.087 14.3292 194.222 14.3222 194.37 14.3152L198.481 19.9259H201.692ZM195.492 8.95142C195.199 8.83565 194.869 8.78215 194.505 8.78215C194.191 8.78215 193.786 8.82675 193.286 8.91871V13.5795C193.334 13.5805 193.379 13.5824 193.422 13.586C193.498 13.5923 193.563 13.5923 193.611 13.5923C194.179 13.5923 194.663 13.5306 195.081 13.4041C195.497 13.2759 195.842 13.1033 196.109 12.884C196.38 12.6622 196.581 12.4034 196.718 12.1072C196.855 11.811 196.922 11.4867 196.922 11.1311C196.922 10.7816 196.862 10.4675 196.749 10.1735C196.631 9.88107 196.468 9.63657 196.261 9.43097C196.044 9.22357 195.797 9.06286 195.497 8.95316L195.492 8.95142ZM196.922 10.1072C197.043 10.4228 197.106 10.7594 197.106 11.1311C197.106 11.5099 197.035 11.8605 196.886 12.1831C196.738 12.5058 196.518 12.7863 196.227 13.0247C195.936 13.2632 195.568 13.4455 195.136 13.5788C194.696 13.7121 194.193 13.7752 193.611 13.7752C193.562 13.7752 193.491 13.7752 193.406 13.7681C193.321 13.7611 193.222 13.7611 193.109 13.7611H193.101V8.76762C193.675 8.65541 194.143 8.5993 194.505 8.5993C194.887 8.5993 195.242 8.65541 195.561 8.78164C195.887 8.90087 196.157 9.07621 196.39 9.30063C196.617 9.5251 196.794 9.79154 196.922 10.1072Z" fill="#2D2B26"/>
<path d="M205.08 18.208C205.349 18.208 205.576 18.2992 205.775 18.4886C205.973 18.678 206.065 18.9094 206.065 19.1829C206.065 19.4564 205.966 19.6879 205.775 19.8843C205.576 20.0806 205.349 20.1718 205.08 20.1718C204.803 20.1718 204.57 20.0736 204.371 19.8843C204.172 19.6879 204.081 19.4564 204.081 19.1829C204.081 18.9023 204.18 18.6709 204.371 18.4816C204.57 18.2992 204.803 18.208 205.08 18.208Z" fill="#2D2B26"/>
<path fill-rule="evenodd" clip-rule="evenodd" d="M205.905 20.0137C205.672 20.2442 205.398 20.3548 205.08 20.3548C204.753 20.3548 204.474 20.2367 204.242 20.0161L204.241 20.0137C204.006 19.7818 203.896 19.5033 203.896 19.1831C203.896 18.8542 204.014 18.5763 204.241 18.3525L204.245 18.3477C204.478 18.1337 204.757 18.0254 205.08 18.0254C205.397 18.0254 205.67 18.1355 205.903 18.3572C206.14 18.5834 206.25 18.8635 206.25 19.1831C206.25 19.5062 206.131 19.7825 205.907 20.0114L205.905 20.0137ZM205.774 19.8845C205.966 19.688 206.065 19.4566 206.065 19.1831C206.065 18.9095 205.973 18.6782 205.774 18.4888C205.576 18.2994 205.349 18.2082 205.08 18.2082C204.803 18.2082 204.57 18.2994 204.371 18.4818C204.18 18.6711 204.08 18.9025 204.08 19.1831C204.08 19.4566 204.172 19.688 204.371 19.8845C204.57 20.0738 204.803 20.172 205.08 20.172C205.349 20.172 205.576 20.0808 205.774 19.8845Z" fill="#2D2B26"/>
</g>
<defs>
<clipPath id="clip0_826_4523">
<rect width="206.25" height="30" fill="white"/>
</clipPath>
</defs>
</svg>
