<svg width="24" height="24" viewBox="0 0 24 24" fill="none" xmlns="http://www.w3.org/2000/svg">
<path fill-rule="evenodd" clip-rule="evenodd" d="M21.8618 5.42613L15.966 20.7542C15.37 22.4186 12.8562 22.4152 12.2679 20.7443L12.2672 20.7421L10.0384 14.4942C10.0188 14.4384 9.99895 14.4164 9.98962 14.4076C9.9803 14.3987 9.9572 14.3798 9.89845 14.3612L9.89442 14.3599L3.32367 12.2433L3.3215 12.2426C1.56303 11.6836 1.55951 9.29467 3.31094 8.72836L19.4564 3.12031C21.0336 2.56136 22.4568 4.05568 21.8618 5.42613ZM20.1739 4.59564C20.1473 4.58928 20.1051 4.58562 20.0397 4.60891L20.0332 4.61123L3.87489 10.2237C3.86739 10.2263 3.85984 10.2288 3.85226 10.2312C3.78116 10.2537 3.74345 10.2875 3.71923 10.322C3.69128 10.3619 3.67155 10.4184 3.67155 10.4838C3.67155 10.5492 3.69128 10.6057 3.71923 10.6455C3.74345 10.68 3.78116 10.7138 3.85226 10.7363L3.85629 10.7376L10.427 12.8543L10.4292 12.8549C11.0112 13.04 11.4288 13.4368 11.6235 13.9899L11.6242 13.9919L13.853 20.2398C13.8767 20.3074 13.9122 20.3432 13.9485 20.3662C13.9904 20.3928 14.0499 20.4116 14.1187 20.4116C14.1876 20.4116 14.247 20.3928 14.2889 20.3662C14.3253 20.3432 14.3608 20.3074 14.3845 20.2398C14.387 20.2326 14.3897 20.2255 14.3924 20.2183L20.2985 4.86336C20.3037 4.84981 20.3093 4.83641 20.3153 4.82316C20.3343 4.78103 20.3338 4.71572 20.2686 4.65055C20.2388 4.62074 20.205 4.60311 20.1739 4.59564Z" fill="white"/>
</svg>
