<svg width="36" height="36" viewBox="0 0 36 36" fill="none" xmlns="http://www.w3.org/2000/svg">
<path fill-rule="evenodd" clip-rule="evenodd" d="M2.44873 3.87952C3.52687 2.80855 5.27275 2.82654 6.32859 3.91952L21.5719 19.699C21.9535 19.3647 22.4013 19.1478 22.8975 19.0472C23.6584 18.8931 24.471 19.0241 25.2598 19.306C26.8314 19.8677 28.5375 21.1107 30.06 22.5771C31.5925 24.0531 33.0001 25.8145 33.9584 27.4851C34.4375 28.3202 34.8154 29.1521 35.0354 29.9292C35.2523 30.6955 35.3347 31.4759 35.1409 32.1688C34.574 34.1961 32.7987 35.0919 30.8366 35.2303C28.8834 35.3681 26.5823 34.7905 24.5206 33.7302C22.4565 32.6687 20.5452 31.0785 19.4335 29.1024C18.3826 27.2345 18.0604 25.0377 18.9815 22.7162L2.54034 7.83253C1.3827 6.78455 1.34088 4.98 2.44873 3.87952ZM20.5077 22.9586C19.6088 24.9451 19.8457 26.7759 20.7408 28.367C21.6701 30.0187 23.3241 31.4281 25.2066 32.3963C27.0915 33.3656 29.1182 33.8478 30.7311 33.734C31.2024 33.7008 31.6242 33.6197 31.9931 33.4915C31.8139 33.4462 31.634 33.392 31.4551 33.3311C29.9482 32.8179 28.1411 31.6966 26.4668 30.3264C24.7861 28.9511 23.1777 27.2745 22.0922 25.6007C21.4842 24.6631 20.996 23.6569 20.7975 22.6707L20.5077 22.9586ZM22.2863 21.1398C22.0259 22.0119 22.3713 23.274 23.3508 24.7845C24.3298 26.2944 25.8203 27.8591 27.4167 29.1656C29.0196 30.4773 30.6679 31.4784 31.9387 31.9112C32.5839 32.131 33.043 32.1731 33.3225 32.116C33.4499 32.09 33.5209 32.0476 33.5641 32.0082C33.606 31.97 33.658 31.9019 33.6963 31.7649C33.7856 31.4458 33.7717 30.9724 33.5921 30.3377C33.4155 29.7137 33.0966 28.9973 32.6573 28.2315C31.7789 26.7002 30.4641 25.0488 29.0194 23.6574C27.5647 22.2564 26.039 21.1774 24.7551 20.7186C24.1161 20.4902 23.5951 20.4364 23.1953 20.5174C22.8454 20.5883 22.54 20.7706 22.2863 21.1398ZM20.5511 20.8012L19.8598 21.4879L3.54702 6.72051C3.02669 6.24946 3.00789 5.43835 3.50584 4.94371C3.99045 4.46233 4.77518 4.47042 5.24976 4.96169L20.5511 20.8012ZM28.5 13.5004L29.3103 15.6901L31.5 16.5004L29.3103 17.3107L28.5 19.5004L27.6897 17.3107L25.5 16.5004L27.6897 15.6901L28.5 13.5004ZM33.4051 20.5953L33 19.5004L32.5949 20.5953L31.5 21.0004L32.5949 21.4056L33 22.5004L33.4051 21.4056L34.5 21.0004L33.4051 20.5953Z" fill="#2D2B26"/>
</svg>
