<svg width="113" height="25" viewBox="0 0 113 25" fill="none" xmlns="http://www.w3.org/2000/svg">
<path d="M22.8411 12.1503H112M46.613 12.1504L45.9235 12.224C45.2323 12.2731 44.5372 12.2485 43.85 12.1504C38.509 11.3874 34.7978 6.43918 35.5608 1.09822L36.2502 1.02459C36.9414 0.975503 37.6365 1.00005 38.3238 1.09822C43.6647 1.86119 47.3759 6.8094 46.613 12.1504ZM46.613 12.1504L46.6866 12.8398C46.7357 13.531 46.7111 14.2262 46.613 14.9134C45.8499 20.2543 40.9017 23.9655 35.5608 23.2025L35.4872 22.513C35.4381 21.8218 35.4626 21.1267 35.5608 20.4394C36.3238 15.0985 41.2721 11.3874 46.613 12.1504ZM35.5609 12.1503L34.8714 12.2239C34.1802 12.273 33.4851 12.2485 32.7979 12.1503C27.4569 11.3873 23.7457 6.43913 24.5087 1.09817L25.1981 1.02454C25.8893 0.975456 26.5844 0.999999 27.2717 1.09818C32.6126 1.86115 36.3238 6.80936 35.5609 12.1503ZM35.5609 12.1503L35.6345 12.8398C35.6836 13.531 35.659 14.2261 35.5609 14.9134C34.7978 20.2543 29.8496 23.9655 24.5087 23.2025L24.4351 22.513C24.386 21.8218 24.4105 21.1266 24.5087 20.4394C25.2717 15.0985 30.22 11.3873 35.5609 12.1503ZM24.5087 12.1504L23.8192 12.224C23.1281 12.2731 22.433 12.2485 21.7457 12.1504C16.4048 11.3874 12.6936 6.43917 13.4565 1.09821L14.146 1.02458C14.8371 0.975493 15.5323 1.00003 16.2195 1.0982C21.5605 1.86117 25.2716 6.8094 24.5087 12.1504ZM24.5087 12.1504L24.5823 12.8398C24.6314 13.531 24.6069 14.2262 24.5087 14.9134C23.7457 20.2543 18.7975 23.9654 13.4566 23.2024L13.383 22.513C13.3339 21.8217 13.3584 21.1266 13.4566 20.4393C14.2196 15.0985 19.1678 11.3873 24.5087 12.1504ZM57.9267 12.1504L57.2372 12.224C56.546 12.2731 55.8509 12.2485 55.1637 12.1504C49.8227 11.3874 46.1115 6.43918 46.8745 1.09822L47.564 1.02459C48.2551 0.975498 48.9502 1.00004 49.6375 1.09821C54.9784 1.86118 58.6896 6.8094 57.9267 12.1504ZM57.9267 12.1504L58.0003 12.8398C58.0494 13.531 58.0248 14.2262 57.9267 14.9134C57.1637 20.2543 52.2155 23.9654 46.8746 23.2024L46.801 22.5129C46.7519 21.8217 46.7764 21.1266 46.8746 20.4393C47.6376 15.0985 52.5858 11.3874 57.9267 12.1504ZM15.6763 14.1054C16.2317 13.6889 16.7406 13.2147 17.1946 12.6912L17.63 12.1516C14.3929 7.83546 8.26986 6.96077 3.95377 10.1978C3.21324 10.7532 2.55542 11.4111 2.00003 12.1516C5.23717 16.4678 11.3602 17.3425 15.6763 14.1054Z" stroke="#C4C4BA" stroke-width="2" stroke-linecap="round"/>
</svg>
