<svg width="113" height="25" viewBox="0 0 113 25" fill="none" xmlns="http://www.w3.org/2000/svg">
<path d="M90.1589 12.1503H1M66.387 12.1504L67.0765 12.224C67.7677 12.2731 68.4628 12.2485 69.15 12.1504C74.491 11.3874 78.2022 6.43918 77.4392 1.09822L76.7498 1.02459C76.0586 0.975503 75.3635 1.00005 74.6762 1.09822C69.3353 1.86119 65.6241 6.8094 66.387 12.1504ZM66.387 12.1504L66.3134 12.8398C66.2643 13.531 66.2889 14.2262 66.387 14.9134C67.1501 20.2543 72.0983 23.9655 77.4392 23.2025L77.5128 22.513C77.5619 21.8218 77.5374 21.1267 77.4392 20.4394C76.6762 15.0985 71.7279 11.3874 66.387 12.1504ZM77.4391 12.1503L78.1286 12.2239C78.8198 12.273 79.5149 12.2485 80.2021 12.1503C85.5431 11.3873 89.2543 6.43913 88.4913 1.09817L87.8019 1.02454C87.1107 0.975456 86.4156 0.999999 85.7283 1.09818C80.3874 1.86115 76.6762 6.80936 77.4391 12.1503ZM77.4391 12.1503L77.3655 12.8398C77.3164 13.531 77.341 14.2261 77.4391 14.9134C78.2022 20.2543 83.1504 23.9655 88.4913 23.2025L88.5649 22.513C88.614 21.8218 88.5895 21.1266 88.4913 20.4394C87.7283 15.0985 82.78 11.3873 77.4391 12.1503ZM88.4913 12.1504L89.1808 12.224C89.8719 12.2731 90.567 12.2485 91.2543 12.1504C96.5952 11.3874 100.306 6.43917 99.5435 1.09821L98.854 1.02458C98.1629 0.975493 97.4677 1.00003 96.7805 1.0982C91.4395 1.86117 87.7284 6.8094 88.4913 12.1504ZM88.4913 12.1504L88.4177 12.8398C88.3686 13.531 88.3931 14.2262 88.4913 14.9134C89.2543 20.2543 94.2025 23.9654 99.5434 23.2024L99.617 22.513C99.6661 21.8217 99.6416 21.1266 99.5434 20.4393C98.7804 15.0985 93.8322 11.3873 88.4913 12.1504ZM55.0733 12.1504L55.7628 12.224C56.454 12.2731 57.1491 12.2485 57.8363 12.1504C63.1773 11.3874 66.8885 6.43918 66.1255 1.09822L65.436 1.02459C64.7449 0.975498 64.0498 1.00004 63.3625 1.09821C58.0216 1.86118 54.3104 6.8094 55.0733 12.1504ZM55.0733 12.1504L54.9997 12.8398C54.9506 13.531 54.9752 14.2262 55.0733 14.9134C55.8363 20.2543 60.7845 23.9654 66.1254 23.2024L66.199 22.5129C66.2481 21.8217 66.2236 21.1266 66.1254 20.4393C65.3624 15.0985 60.4142 11.3874 55.0733 12.1504ZM97.3237 14.1054C96.7683 13.6889 96.2594 13.2147 95.8054 12.6912L95.37 12.1516C98.6071 7.83546 104.73 6.96077 109.046 10.1978C109.787 10.7532 110.445 11.4111 111 12.1516C107.763 16.4678 101.64 17.3425 97.3237 14.1054Z" stroke="#C4C4BA" stroke-width="2" stroke-linecap="round"/>
</svg>
