<svg width="51" height="17" viewBox="0 0 51 17" fill="none" xmlns="http://www.w3.org/2000/svg">
<path d="M15.1586 8.57506H50M31.3083 8.57509L30.8399 8.62512C30.3703 8.65846 29.8981 8.64179 29.4312 8.57509C25.8028 8.05676 23.2815 4.69515 23.7999 1.06673L24.2683 1.01671C24.7378 0.983358 25.21 1.00003 25.6769 1.06673C29.3054 1.58506 31.8266 4.94667 31.3083 8.57509ZM31.3083 8.57509L31.3583 9.04349C31.3916 9.51306 31.375 9.98531 31.3083 10.4522C30.7899 14.0806 27.4283 16.6018 23.7999 16.0835L23.7499 15.6151C23.7165 15.1455 23.7332 14.6732 23.7999 14.2063C24.3182 10.578 27.6799 8.05674 31.3083 8.57509ZM23.7999 8.57506L23.3315 8.62508C22.862 8.65843 22.3898 8.64176 21.9229 8.57506C18.2944 8.05673 15.7732 4.69512 16.2915 1.0667L16.7599 1.01667C17.2295 0.983326 17.7017 0.999999 18.1686 1.0667C21.797 1.58503 24.3182 4.94664 23.7999 8.57506ZM23.7999 8.57506L23.8499 9.04345C23.8833 9.51303 23.8666 9.98527 23.7999 10.4522C23.2816 14.0806 19.9199 16.6018 16.2915 16.0834L16.2415 15.615C16.2082 15.1455 16.2249 14.6732 16.2916 14.2063C16.8099 10.5779 20.1715 8.05671 23.7999 8.57506ZM16.2915 8.57509L15.8232 8.62511C15.3536 8.65846 14.8814 8.64178 14.4145 8.57508C10.7861 8.05675 8.26483 4.69515 8.78316 1.06672L9.25153 1.0167C9.72109 0.983351 10.1933 1.00002 10.6602 1.06671C14.2886 1.58505 16.8099 4.94666 16.2915 8.57509ZM16.2915 8.57509L16.3416 9.04348C16.3749 9.51305 16.3582 9.9853 16.2915 10.4522C15.7732 14.0806 12.4116 16.6018 8.78321 16.0834L8.73319 15.615C8.69984 15.1454 8.71651 14.6732 8.78321 14.2063C9.30156 10.5779 12.6632 8.05673 16.2915 8.57509ZM38.9943 8.57509L38.5259 8.62511C38.0564 8.65846 37.5842 8.64179 37.1173 8.57509C33.4888 8.05676 30.9676 4.69515 31.4859 1.06673L31.9543 1.0167C32.4239 0.983354 32.8961 1.00003 33.363 1.06672C36.9914 1.58505 39.5126 4.94667 38.9943 8.57509ZM38.9943 8.57509L39.0443 9.04348C39.0777 9.51306 39.061 9.98531 38.9943 10.4522C38.476 14.0806 35.1144 16.6017 31.486 16.0834L31.436 15.615C31.4026 15.1454 31.4193 14.6732 31.486 14.2063C32.0044 10.5779 35.3659 8.05674 38.9943 8.57509ZM10.2912 9.90327C10.6685 9.62029 11.0142 9.29814 11.3227 8.94253L11.6184 8.5759C9.4193 5.64373 5.25954 5.0495 2.32737 7.24864C1.82429 7.62595 1.37739 8.07285 1.00008 8.57593C3.19926 11.5082 7.35901 12.1024 10.2912 9.90327Z" stroke="#C4C4BA" stroke-width="1.5" stroke-linecap="round"/>
</svg>
